M48
INCH,TZ
T1C0.0157
T2C0.0256
T3C0.0394
T4C0.0866
%
G90
G05
T1
X20098Y-31004
X20098Y-35925
X20217Y-29154
X20256Y-32815
X20335Y-28445
X20374Y-27539
X20453Y-33563
X20531Y-30335
X20807Y-31791
X21122Y-35728
X21240Y-29429
X21240Y-32579
X21280Y-30965
X21398Y-36319
X21831Y-29429
X21988Y-32539
X21988Y-36122
X22039Y-30879
X22494Y-38046
X22505Y-33804
X23356Y-32549
X23681Y-37264
X23799Y-27933
X24587Y-41594
X24626Y-33061
X24665Y-28356
X25807Y-35650
X26398Y-32894
X26513Y-36279
X26796Y-37495
X26870Y-37972
X27057Y-29902
X27146Y-42185
X27214Y-36566
X27264Y-42579
X27810Y-35654
X27825Y-31988
X28091Y-37854
X28130Y-27933
X28130Y-36398
X28169Y-40059
X28327Y-32776
X28366Y-38878
X28406Y-31909
X28563Y-39665
X28563Y-40453
X28799Y-36476
X28839Y-37854
X28839Y-38484
X28878Y-39272
X29035Y-31909
X29154Y-37461
X29469Y-36516
X29587Y-37933
X29783Y-31673
X29823Y-37461
X30059Y-38091
X30098Y-30295
X30492Y-37618
X30492Y-41083
X30519Y-33086
X30846Y-33366
X31004Y-37657
X31358Y-32618
X31437Y-36594
X31476Y-27933
X31555Y-38091
X31791Y-37618
X31949Y-38406
X32044Y-38787
X32185Y-36516
X32224Y-39193
X32343Y-38051
X32382Y-37539
X32776Y-39075
X32894Y-39508
X33775Y-38972
X33957Y-41240
X34671Y-42415
X35020Y-29124
X35020Y-32273
X35020Y-33848
X35098Y-30699
X35453Y-38602
X36791Y-28839
X36830Y-31869
X36831Y-30413
X37067Y-32382
X37146Y-29232
X37146Y-30807
X37185Y-32933
X37185Y-33996
X37264Y-35925
X37618Y-38248
X38370Y-28331
X38996Y-30335
X39272Y-32028
X39407Y-28620
X39429Y-29587
X39429Y-31201
T3
X19547Y-27461
X19547Y-28461
X19547Y-29461
X19547Y-30461
X19547Y-31461
X19547Y-32461
X19547Y-33461
X19547Y-34461
X22098Y-42579
X22372Y-25059
X22372Y-26059
X22372Y-27059
X23098Y-42579
X23372Y-25059
X23372Y-26059
X23372Y-27059
X24098Y-42579
X24372Y-25059
X24372Y-26059
X24372Y-27059
X25098Y-42579
X25372Y-25059
X25372Y-26059
X25372Y-27059
X26372Y-25059
X26372Y-26059
X26372Y-27059
X28189Y-25059
X28189Y-26059
X28189Y-27059
X29189Y-25059
X29189Y-26059
X29189Y-27059
X30189Y-25059
X30189Y-26059
X30189Y-27059
X31189Y-25059
X31189Y-26059
X31189Y-27059
X32189Y-25059
X32189Y-26059
X32189Y-27059
X33189Y-25059
X33189Y-26059
X33189Y-27059
X34189Y-25059
X34189Y-26059
X34189Y-27059
X35189Y-25059
X35189Y-26059
X35189Y-27059
X36189Y-25059
X36189Y-26059
X36189Y-27059
X37189Y-25059
X37189Y-26059
X37189Y-27059
X38248Y-40256
X39248Y-40256
X40217Y-27461
X40217Y-28461
X40217Y-29461
X40217Y-30461
X40217Y-31461
X40217Y-32461
X40217Y-33461
X40217Y-34461
X40248Y-40256
T4
X19941Y-25413
X19941Y-42028
X39626Y-25492
X39626Y-42028
T2
G00X38354Y-35602
M15
G01X38787Y-35602
M16
G05
G00X38354Y-39004
M15
G01X38787Y-39004
M16
G05
G00X40098Y-35602
M15
G01X40335Y-35602
M16
G05
G00X40098Y-39004
M15
G01X40335Y-39004
M16
G05
T0
M30
