%TF.GenerationSoftware,KiCad,Pcbnew,(6.0.0-0)*%
%TF.CreationDate,2022-04-22T00:51:05+02:00*%
%TF.ProjectId,ProtoBoard,50726f74-6f42-46f6-9172-642e6b696361,rev?*%
%TF.SameCoordinates,Original*%
%TF.FileFunction,Copper,L2,Inr*%
%TF.FilePolarity,Positive*%
%FSLAX46Y46*%
G04 Gerber Fmt 4.6, Leading zero omitted, Abs format (unit mm)*
G04 Created by KiCad (PCBNEW (6.0.0-0)) date 2022-04-22 00:51:05*
%MOMM*%
%LPD*%
G01*
G04 APERTURE LIST*
%TA.AperFunction,ComponentPad*%
%ADD10R,1.700000X1.700000*%
%TD*%
%TA.AperFunction,ComponentPad*%
%ADD11O,1.700000X1.700000*%
%TD*%
%TA.AperFunction,ComponentPad*%
%ADD12C,4.400000*%
%TD*%
%TA.AperFunction,ViaPad*%
%ADD13C,0.800000*%
%TD*%
%TA.AperFunction,Conductor*%
%ADD14C,0.250000*%
%TD*%
G04 APERTURE END LIST*
D10*
%TO.N,/Servo1*%
%TO.C,J8*%
X66075000Y-66880000D03*
D11*
%TO.N,/Servo2*%
X68615000Y-66880000D03*
%TO.N,/Servo3*%
X71155000Y-66880000D03*
%TO.N,/Servo4*%
X73695000Y-66880000D03*
%TO.N,/Servo5*%
X76235000Y-66880000D03*
%TD*%
D10*
%TO.N,GND*%
%TO.C,J1*%
X58975000Y-66900000D03*
D11*
%TO.N,+BATT*%
X61515000Y-66900000D03*
%TD*%
D12*
%TO.N,GND*%
%TO.C,H1*%
X60000000Y-62550000D03*
%TD*%
D10*
%TO.N,/POWER2*%
%TO.C,J6*%
X66075000Y-64340000D03*
D11*
X68615000Y-64340000D03*
%TO.N,/POWER3*%
X71155000Y-64340000D03*
%TO.N,/POWER1*%
X73695000Y-64340000D03*
X76235000Y-64340000D03*
%TD*%
D10*
%TO.N,GND*%
%TO.C,J5*%
X66075000Y-61800000D03*
D11*
X68615000Y-61800000D03*
X71155000Y-61800000D03*
X73695000Y-61800000D03*
X76235000Y-61800000D03*
%TD*%
D12*
%TO.N,GND*%
%TO.C,H4*%
X60000000Y-92500000D03*
%TD*%
%TO.N,GND*%
%TO.C,H3*%
X105000000Y-62550000D03*
%TD*%
%TO.N,GND*%
%TO.C,H2*%
X105000000Y-92500000D03*
%TD*%
D13*
%TO.N,GND*%
X79450000Y-77750000D03*
X89700200Y-74100000D03*
X97650000Y-91450000D03*
X65000000Y-89450000D03*
X94400000Y-65750000D03*
X84450000Y-74100000D03*
%TO.N,+3V3*%
X64025500Y-82850000D03*
X104625000Y-72625000D03*
X77184800Y-81615200D03*
X75782500Y-71850000D03*
X100101000Y-63748700D03*
X77350000Y-91750000D03*
X85550000Y-77594502D03*
X99950000Y-89950000D03*
X98250000Y-70750000D03*
%TO.N,+BATT*%
X61860000Y-87630000D03*
X85750000Y-79650000D03*
X97700000Y-84400000D03*
%TO.N,/RGB*%
X88535000Y-92235000D03*
%TO.N,/I2C_SDA*%
X95650000Y-87450000D03*
X97100000Y-63451400D03*
%TO.N,/I2C_SCL*%
X95650000Y-63150000D03*
X94250000Y-91550000D03*
%TO.N,/POWER3*%
X88000000Y-63400000D03*
%TO.N,/POWER2*%
X83600000Y-63350000D03*
%TO.N,/POWER1*%
X93200000Y-64400000D03*
%TO.N,/POWER4*%
X92950000Y-67550000D03*
%TO.N,/COM1*%
X75950000Y-75550000D03*
X72562299Y-82662299D03*
%TO.N,/COM2*%
X83450000Y-91050000D03*
%TO.N,/SEL3*%
X94950000Y-75850000D03*
X77550000Y-84550000D03*
X65550000Y-86650000D03*
%TO.N,/SEL4*%
X77670300Y-73659400D03*
X94950000Y-76950000D03*
X77550000Y-83200000D03*
X68089502Y-84550000D03*
%TO.N,/SEL2*%
X70600000Y-74400000D03*
X94850000Y-86250000D03*
X79750000Y-82550000D03*
%TO.N,/SEL1*%
X71600000Y-75550000D03*
X89700000Y-83050000D03*
%TO.N,/LRA6*%
X80112299Y-72487701D03*
%TO.N,/LRA5*%
X79250000Y-71350000D03*
%TO.N,/LRA4*%
X80200000Y-70200000D03*
%TO.N,/LRA3*%
X95300000Y-70200000D03*
X96450000Y-82850000D03*
%TO.N,/LRA2*%
X95300000Y-71400000D03*
X95050000Y-82850000D03*
%TO.N,/LRA1*%
X93750000Y-82850000D03*
X94789400Y-72611400D03*
%TD*%
D14*
%TO.N,/I2C_SDA*%
X96750000Y-87450000D02*
X95650000Y-87450000D01*
X96600000Y-62100000D02*
X95050000Y-62100000D01*
X99150000Y-68550000D02*
X99150000Y-85050000D01*
X94550000Y-63950000D02*
X99150000Y-68550000D01*
X95050000Y-62100000D02*
X94550000Y-62600000D01*
X94550000Y-62600000D02*
X94550000Y-63950000D01*
X97100000Y-62600000D02*
X96600000Y-62100000D01*
X97100000Y-63451400D02*
X97100000Y-62600000D01*
X99150000Y-85050000D02*
X96750000Y-87450000D01*
%TO.N,/I2C_SCL*%
X99850000Y-67750000D02*
X95650000Y-63550000D01*
X94250000Y-91550000D02*
X99850000Y-85950000D01*
X95650000Y-63550000D02*
X95650000Y-63150000D01*
X99850000Y-85950000D02*
X99850000Y-67750000D01*
%TO.N,/SEL3*%
X64750000Y-86350000D02*
X65050000Y-86650000D01*
X75450000Y-86650000D02*
X77550000Y-84550000D01*
X67450000Y-73300000D02*
X64750000Y-76000000D01*
X64750000Y-76000000D02*
X64750000Y-86350000D01*
X94950000Y-75850000D02*
X94150000Y-75050000D01*
X94150000Y-75050000D02*
X81650000Y-75050000D01*
X81650000Y-75050000D02*
X78950000Y-72350000D01*
X65550000Y-86650000D02*
X75450000Y-86650000D01*
X78950000Y-72350000D02*
X76900000Y-72350000D01*
X76900000Y-72350000D02*
X75950000Y-73300000D01*
X65050000Y-86650000D02*
X65550000Y-86650000D01*
X75950000Y-73300000D02*
X67450000Y-73300000D01*
%TO.N,/SEL4*%
X93750000Y-75750000D02*
X81250000Y-75750000D01*
X81250000Y-75750000D02*
X79159400Y-73659400D01*
X68089502Y-84550000D02*
X76150000Y-84550000D01*
X79159400Y-73659400D02*
X77670300Y-73659400D01*
X77550000Y-83200000D02*
X76175000Y-84575000D01*
X94950000Y-76950000D02*
X93750000Y-75750000D01*
X76150000Y-84550000D02*
X76175000Y-84575000D01*
%TO.N,/SEL2*%
X79750000Y-82550000D02*
X81650000Y-84450000D01*
X93050000Y-84450000D02*
X94850000Y-86250000D01*
X81650000Y-84450000D02*
X93050000Y-84450000D01*
%TO.N,/SEL1*%
X89700000Y-83050000D02*
X81550000Y-83050000D01*
X74050000Y-75550000D02*
X71600000Y-75550000D01*
X81550000Y-83050000D02*
X74050000Y-75550000D01*
%TO.N,/LRA3*%
X96100000Y-70200000D02*
X95300000Y-70200000D01*
X97525489Y-81674511D02*
X97525489Y-71625489D01*
X97525489Y-71625489D02*
X96100000Y-70200000D01*
X96450000Y-82850000D02*
X97525489Y-81774511D01*
X97525489Y-81774511D02*
X97525489Y-81674511D01*
%TO.N,/LRA2*%
X96950000Y-81150000D02*
X95250000Y-82850000D01*
X95250000Y-82850000D02*
X95050000Y-82850000D01*
X95300000Y-71400000D02*
X95400000Y-71400000D01*
X96950000Y-81150000D02*
X96950000Y-72950000D01*
X95400000Y-71400000D02*
X96950000Y-72950000D01*
%TO.N,/LRA1*%
X93750000Y-82850000D02*
X96450000Y-80150000D01*
X94789400Y-72611400D02*
X96450000Y-74272000D01*
X96450000Y-74272000D02*
X96450000Y-80150000D01*
%TD*%
%TA.AperFunction,Conductor*%
%TO.N,GND*%
G36*
X64738823Y-60528002D02*
G01*
X64785316Y-60581658D01*
X64795420Y-60651932D01*
X64781222Y-60694509D01*
X64771677Y-60711942D01*
X64726522Y-60832394D01*
X64722895Y-60847649D01*
X64717369Y-60898514D01*
X64717000Y-60905328D01*
X64717000Y-61527885D01*
X64721475Y-61543124D01*
X64722865Y-61544329D01*
X64730548Y-61546000D01*
X77553344Y-61546000D01*
X77566875Y-61542027D01*
X77568180Y-61532947D01*
X77526214Y-61365875D01*
X77522894Y-61356124D01*
X77437972Y-61160814D01*
X77433105Y-61151739D01*
X77317426Y-60972926D01*
X77311136Y-60964757D01*
X77167806Y-60807240D01*
X77160273Y-60800216D01*
X77075013Y-60732882D01*
X77033950Y-60674965D01*
X77030718Y-60604042D01*
X77066343Y-60542631D01*
X77129514Y-60510228D01*
X77153105Y-60508000D01*
X102906554Y-60508000D01*
X102974675Y-60528002D01*
X103021168Y-60581658D01*
X103031272Y-60651932D01*
X103001778Y-60716512D01*
X102994949Y-60723791D01*
X102986586Y-60732024D01*
X102981518Y-60737652D01*
X102782766Y-60987071D01*
X102778410Y-60993270D01*
X102611059Y-61264764D01*
X102607479Y-61271440D01*
X102473956Y-61561074D01*
X102471206Y-61568125D01*
X102373444Y-61871708D01*
X102371561Y-61879041D01*
X102310979Y-62192170D01*
X102309992Y-62199670D01*
X102287467Y-62517802D01*
X102287388Y-62525383D01*
X102303245Y-62843914D01*
X102304076Y-62851443D01*
X102358085Y-63165759D01*
X102359818Y-63173146D01*
X102451196Y-63478695D01*
X102453799Y-63485808D01*
X102581227Y-63778173D01*
X102584669Y-63784929D01*
X102746296Y-64059865D01*
X102750519Y-64066150D01*
X102901463Y-64263934D01*
X102912989Y-64272396D01*
X102925054Y-64265735D01*
X104910905Y-62279885D01*
X104973217Y-62245859D01*
X105044033Y-62250924D01*
X105089095Y-62279885D01*
X105270115Y-62460905D01*
X105304141Y-62523217D01*
X105299076Y-62594032D01*
X105270115Y-62639095D01*
X103285818Y-64623393D01*
X103278703Y-64636423D01*
X103286227Y-64646854D01*
X103425483Y-64759020D01*
X103431657Y-64763408D01*
X103702271Y-64932178D01*
X103708931Y-64935794D01*
X103997852Y-65070827D01*
X104004905Y-65073620D01*
X104307970Y-65172970D01*
X104315282Y-65174888D01*
X104628092Y-65237109D01*
X104635590Y-65238137D01*
X104953610Y-65262328D01*
X104961173Y-65262446D01*
X105279785Y-65248257D01*
X105287326Y-65247465D01*
X105601924Y-65195101D01*
X105609302Y-65193411D01*
X105915355Y-65103625D01*
X105922450Y-65101071D01*
X106215496Y-64975169D01*
X106222263Y-64971765D01*
X106498042Y-64811580D01*
X106504349Y-64807390D01*
X106758895Y-64615226D01*
X106764651Y-64610310D01*
X106778553Y-64596909D01*
X106841479Y-64564032D01*
X106912190Y-64570394D01*
X106968236Y-64613976D01*
X106992000Y-64687623D01*
X106992000Y-90362259D01*
X106971998Y-90430380D01*
X106918342Y-90476873D01*
X106848068Y-90486977D01*
X106787994Y-90461209D01*
X106551298Y-90274613D01*
X106545075Y-90270288D01*
X106272702Y-90104357D01*
X106266025Y-90100822D01*
X105975686Y-89968813D01*
X105968616Y-89966099D01*
X105664537Y-89869932D01*
X105657186Y-89868085D01*
X105343746Y-89809142D01*
X105336237Y-89808194D01*
X105017989Y-89787335D01*
X105010424Y-89787295D01*
X104691964Y-89804821D01*
X104684450Y-89805690D01*
X104370405Y-89861348D01*
X104363044Y-89863115D01*
X104057980Y-89956092D01*
X104050860Y-89958740D01*
X103759182Y-90087690D01*
X103752445Y-90091167D01*
X103478355Y-90254233D01*
X103472091Y-90258490D01*
X103286385Y-90401762D01*
X103277917Y-90413423D01*
X103284520Y-90425309D01*
X105270115Y-92410905D01*
X105304141Y-92473217D01*
X105299076Y-92544033D01*
X105270115Y-92589095D01*
X105089095Y-92770115D01*
X105026783Y-92804141D01*
X104955968Y-92799076D01*
X104910905Y-92770115D01*
X102926445Y-90785656D01*
X102913510Y-90778592D01*
X102902949Y-90786252D01*
X102782766Y-90937072D01*
X102778410Y-90943270D01*
X102611059Y-91214764D01*
X102607479Y-91221440D01*
X102473956Y-91511074D01*
X102471206Y-91518125D01*
X102373444Y-91821708D01*
X102371561Y-91829041D01*
X102310979Y-92142170D01*
X102309992Y-92149670D01*
X102287467Y-92467802D01*
X102287388Y-92475383D01*
X102303245Y-92793914D01*
X102304076Y-92801443D01*
X102358085Y-93115759D01*
X102359818Y-93123146D01*
X102451196Y-93428695D01*
X102453799Y-93435808D01*
X102581227Y-93728173D01*
X102584669Y-93734929D01*
X102746296Y-94009865D01*
X102750519Y-94016150D01*
X102944010Y-94269684D01*
X102948953Y-94275411D01*
X102951552Y-94278078D01*
X102984758Y-94340830D01*
X102978767Y-94411573D01*
X102935481Y-94467847D01*
X102868642Y-94491786D01*
X102861298Y-94492000D01*
X62135317Y-94492000D01*
X62067196Y-94471998D01*
X62020703Y-94418342D01*
X62010599Y-94348068D01*
X62037604Y-94286450D01*
X62200751Y-94086055D01*
X62205164Y-94079914D01*
X62375349Y-93810187D01*
X62379005Y-93803536D01*
X62515544Y-93515335D01*
X62518375Y-93508295D01*
X62619306Y-93205767D01*
X62621270Y-93198433D01*
X62685122Y-92885989D01*
X62686194Y-92878465D01*
X62712173Y-92559051D01*
X62712378Y-92554576D01*
X62712927Y-92502221D01*
X62712817Y-92497789D01*
X62693529Y-92177853D01*
X62692621Y-92170351D01*
X62635319Y-91856593D01*
X62633518Y-91849260D01*
X62602697Y-91750000D01*
X76436496Y-91750000D01*
X76437186Y-91756565D01*
X76455129Y-91927279D01*
X76456458Y-91939928D01*
X76515473Y-92121556D01*
X76518776Y-92127278D01*
X76518777Y-92127279D01*
X76531705Y-92149670D01*
X76610960Y-92286944D01*
X76615378Y-92291851D01*
X76615379Y-92291852D01*
X76729292Y-92418365D01*
X76738747Y-92428866D01*
X76776050Y-92455968D01*
X76873518Y-92526783D01*
X76893248Y-92541118D01*
X76899276Y-92543802D01*
X76899278Y-92543803D01*
X77053079Y-92612279D01*
X77067712Y-92618794D01*
X77161113Y-92638647D01*
X77248056Y-92657128D01*
X77248061Y-92657128D01*
X77254513Y-92658500D01*
X77445487Y-92658500D01*
X77451939Y-92657128D01*
X77451944Y-92657128D01*
X77538887Y-92638647D01*
X77632288Y-92618794D01*
X77646921Y-92612279D01*
X77800722Y-92543803D01*
X77800724Y-92543802D01*
X77806752Y-92541118D01*
X77826483Y-92526783D01*
X77923950Y-92455968D01*
X77961253Y-92428866D01*
X77970708Y-92418365D01*
X78084621Y-92291852D01*
X78084622Y-92291851D01*
X78089040Y-92286944D01*
X78119030Y-92235000D01*
X87621496Y-92235000D01*
X87622186Y-92241565D01*
X87632932Y-92343803D01*
X87641458Y-92424928D01*
X87700473Y-92606556D01*
X87703776Y-92612278D01*
X87703777Y-92612279D01*
X87708331Y-92620166D01*
X87795960Y-92771944D01*
X87923747Y-92913866D01*
X88078248Y-93026118D01*
X88084276Y-93028802D01*
X88084278Y-93028803D01*
X88246681Y-93101109D01*
X88252712Y-93103794D01*
X88346113Y-93123647D01*
X88433056Y-93142128D01*
X88433061Y-93142128D01*
X88439513Y-93143500D01*
X88630487Y-93143500D01*
X88636939Y-93142128D01*
X88636944Y-93142128D01*
X88723887Y-93123647D01*
X88817288Y-93103794D01*
X88823319Y-93101109D01*
X88985722Y-93028803D01*
X88985724Y-93028802D01*
X88991752Y-93026118D01*
X89146253Y-92913866D01*
X89274040Y-92771944D01*
X89361669Y-92620166D01*
X89366223Y-92612279D01*
X89366224Y-92612278D01*
X89369527Y-92606556D01*
X89428542Y-92424928D01*
X89437069Y-92343803D01*
X89447814Y-92241565D01*
X89448504Y-92235000D01*
X89428542Y-92045072D01*
X89369527Y-91863444D01*
X89274040Y-91698056D01*
X89173995Y-91586944D01*
X89150675Y-91561045D01*
X89150674Y-91561044D01*
X89146253Y-91556134D01*
X88991752Y-91443882D01*
X88985724Y-91441198D01*
X88985722Y-91441197D01*
X88823319Y-91368891D01*
X88823318Y-91368891D01*
X88817288Y-91366206D01*
X88723887Y-91346353D01*
X88636944Y-91327872D01*
X88636939Y-91327872D01*
X88630487Y-91326500D01*
X88439513Y-91326500D01*
X88433061Y-91327872D01*
X88433056Y-91327872D01*
X88346113Y-91346353D01*
X88252712Y-91366206D01*
X88246682Y-91368891D01*
X88246681Y-91368891D01*
X88084278Y-91441197D01*
X88084276Y-91441198D01*
X88078248Y-91443882D01*
X87923747Y-91556134D01*
X87919326Y-91561044D01*
X87919325Y-91561045D01*
X87896006Y-91586944D01*
X87795960Y-91698056D01*
X87700473Y-91863444D01*
X87641458Y-92045072D01*
X87621496Y-92235000D01*
X78119030Y-92235000D01*
X78168295Y-92149670D01*
X78181223Y-92127279D01*
X78181224Y-92127278D01*
X78184527Y-92121556D01*
X78243542Y-91939928D01*
X78244872Y-91927279D01*
X78262814Y-91756565D01*
X78263504Y-91750000D01*
X78246882Y-91591852D01*
X78244232Y-91566635D01*
X78244232Y-91566633D01*
X78243542Y-91560072D01*
X78184527Y-91378444D01*
X78177462Y-91366206D01*
X78108179Y-91246206D01*
X78089040Y-91213056D01*
X77961253Y-91071134D01*
X77932165Y-91050000D01*
X82536496Y-91050000D01*
X82537186Y-91056565D01*
X82554235Y-91218774D01*
X82556458Y-91239928D01*
X82615473Y-91421556D01*
X82710960Y-91586944D01*
X82715378Y-91591851D01*
X82715379Y-91591852D01*
X82816154Y-91703774D01*
X82838747Y-91728866D01*
X82937843Y-91800864D01*
X82976626Y-91829041D01*
X82993248Y-91841118D01*
X82999276Y-91843802D01*
X82999278Y-91843803D01*
X83159799Y-91915271D01*
X83167712Y-91918794D01*
X83236263Y-91933365D01*
X83348056Y-91957128D01*
X83348061Y-91957128D01*
X83354513Y-91958500D01*
X83545487Y-91958500D01*
X83551939Y-91957128D01*
X83551944Y-91957128D01*
X83663737Y-91933365D01*
X83732288Y-91918794D01*
X83740201Y-91915271D01*
X83900722Y-91843803D01*
X83900724Y-91843802D01*
X83906752Y-91841118D01*
X83923375Y-91829041D01*
X83962157Y-91800864D01*
X84061253Y-91728866D01*
X84083846Y-91703774D01*
X84184621Y-91591852D01*
X84184622Y-91591851D01*
X84189040Y-91586944D01*
X84284527Y-91421556D01*
X84343542Y-91239928D01*
X84345766Y-91218774D01*
X84362814Y-91056565D01*
X84363504Y-91050000D01*
X84351635Y-90937072D01*
X84344232Y-90866635D01*
X84344232Y-90866633D01*
X84343542Y-90860072D01*
X84284527Y-90678444D01*
X84263990Y-90642872D01*
X84192341Y-90518774D01*
X84189040Y-90513056D01*
X84165559Y-90486977D01*
X84065675Y-90376045D01*
X84065674Y-90376044D01*
X84061253Y-90371134D01*
X83906752Y-90258882D01*
X83900724Y-90256198D01*
X83900722Y-90256197D01*
X83738319Y-90183891D01*
X83738318Y-90183891D01*
X83732288Y-90181206D01*
X83638887Y-90161353D01*
X83551944Y-90142872D01*
X83551939Y-90142872D01*
X83545487Y-90141500D01*
X83354513Y-90141500D01*
X83348061Y-90142872D01*
X83348056Y-90142872D01*
X83261113Y-90161353D01*
X83167712Y-90181206D01*
X83161682Y-90183891D01*
X83161681Y-90183891D01*
X82999278Y-90256197D01*
X82999276Y-90256198D01*
X82993248Y-90258882D01*
X82838747Y-90371134D01*
X82834326Y-90376044D01*
X82834325Y-90376045D01*
X82734442Y-90486977D01*
X82710960Y-90513056D01*
X82707659Y-90518774D01*
X82636011Y-90642872D01*
X82615473Y-90678444D01*
X82556458Y-90860072D01*
X82555768Y-90866633D01*
X82555768Y-90866635D01*
X82548365Y-90937072D01*
X82536496Y-91050000D01*
X77932165Y-91050000D01*
X77806752Y-90958882D01*
X77800724Y-90956198D01*
X77800722Y-90956197D01*
X77638319Y-90883891D01*
X77638318Y-90883891D01*
X77632288Y-90881206D01*
X77532861Y-90860072D01*
X77451944Y-90842872D01*
X77451939Y-90842872D01*
X77445487Y-90841500D01*
X77254513Y-90841500D01*
X77248061Y-90842872D01*
X77248056Y-90842872D01*
X77167139Y-90860072D01*
X77067712Y-90881206D01*
X77061682Y-90883891D01*
X77061681Y-90883891D01*
X76899278Y-90956197D01*
X76899276Y-90956198D01*
X76893248Y-90958882D01*
X76738747Y-91071134D01*
X76610960Y-91213056D01*
X76591821Y-91246206D01*
X76522539Y-91366206D01*
X76515473Y-91378444D01*
X76456458Y-91560072D01*
X76455768Y-91566633D01*
X76455768Y-91566635D01*
X76453118Y-91591852D01*
X76436496Y-91750000D01*
X62602697Y-91750000D01*
X62538935Y-91544655D01*
X62536263Y-91537583D01*
X62405781Y-91246570D01*
X62402264Y-91239843D01*
X62237771Y-90966621D01*
X62233481Y-90960377D01*
X62097991Y-90786647D01*
X62086199Y-90778178D01*
X62074486Y-90784725D01*
X60089095Y-92770115D01*
X60026783Y-92804141D01*
X59955967Y-92799076D01*
X59910905Y-92770115D01*
X59729885Y-92589095D01*
X59695859Y-92526783D01*
X59700924Y-92455968D01*
X59729885Y-92410905D01*
X61714559Y-90426230D01*
X61721571Y-90413389D01*
X61713777Y-90402701D01*
X61551298Y-90274613D01*
X61545075Y-90270288D01*
X61272702Y-90104357D01*
X61266025Y-90100822D01*
X60975686Y-89968813D01*
X60968616Y-89966099D01*
X60664537Y-89869932D01*
X60657186Y-89868085D01*
X60343746Y-89809142D01*
X60336237Y-89808194D01*
X60017989Y-89787335D01*
X60010424Y-89787295D01*
X59691964Y-89804821D01*
X59684450Y-89805690D01*
X59370405Y-89861348D01*
X59363044Y-89863115D01*
X59057980Y-89956092D01*
X59050860Y-89958740D01*
X58759182Y-90087690D01*
X58752445Y-90091167D01*
X58478355Y-90254233D01*
X58472091Y-90258490D01*
X58219583Y-90453299D01*
X58216829Y-90455701D01*
X58152347Y-90485409D01*
X58082039Y-90475539D01*
X58028229Y-90429225D01*
X58008000Y-90360752D01*
X58008000Y-87630000D01*
X60946496Y-87630000D01*
X60966458Y-87819928D01*
X61025473Y-88001556D01*
X61120960Y-88166944D01*
X61125378Y-88171851D01*
X61125379Y-88171852D01*
X61239499Y-88298595D01*
X61248747Y-88308866D01*
X61403248Y-88421118D01*
X61409276Y-88423802D01*
X61409278Y-88423803D01*
X61571681Y-88496109D01*
X61577712Y-88498794D01*
X61671113Y-88518647D01*
X61758056Y-88537128D01*
X61758061Y-88537128D01*
X61764513Y-88538500D01*
X61955487Y-88538500D01*
X61961939Y-88537128D01*
X61961944Y-88537128D01*
X62048887Y-88518647D01*
X62142288Y-88498794D01*
X62148319Y-88496109D01*
X62310722Y-88423803D01*
X62310724Y-88423802D01*
X62316752Y-88421118D01*
X62471253Y-88308866D01*
X62480501Y-88298595D01*
X62594621Y-88171852D01*
X62594622Y-88171851D01*
X62599040Y-88166944D01*
X62694527Y-88001556D01*
X62753542Y-87819928D01*
X62773504Y-87630000D01*
X62761534Y-87516109D01*
X62754232Y-87446635D01*
X62754232Y-87446633D01*
X62753542Y-87440072D01*
X62694527Y-87258444D01*
X62688921Y-87248733D01*
X62647129Y-87176348D01*
X62599040Y-87093056D01*
X62588541Y-87081395D01*
X62475675Y-86956045D01*
X62475674Y-86956044D01*
X62471253Y-86951134D01*
X62316752Y-86838882D01*
X62310724Y-86836198D01*
X62310722Y-86836197D01*
X62148319Y-86763891D01*
X62148318Y-86763891D01*
X62142288Y-86761206D01*
X62048887Y-86741353D01*
X61961944Y-86722872D01*
X61961939Y-86722872D01*
X61955487Y-86721500D01*
X61764513Y-86721500D01*
X61758061Y-86722872D01*
X61758056Y-86722872D01*
X61671113Y-86741353D01*
X61577712Y-86761206D01*
X61571682Y-86763891D01*
X61571681Y-86763891D01*
X61409278Y-86836197D01*
X61409276Y-86836198D01*
X61403248Y-86838882D01*
X61248747Y-86951134D01*
X61244326Y-86956044D01*
X61244325Y-86956045D01*
X61131460Y-87081395D01*
X61120960Y-87093056D01*
X61072871Y-87176348D01*
X61031080Y-87248733D01*
X61025473Y-87258444D01*
X60966458Y-87440072D01*
X60965768Y-87446633D01*
X60965768Y-87446635D01*
X60958466Y-87516109D01*
X60946496Y-87630000D01*
X58008000Y-87630000D01*
X58008000Y-82850000D01*
X63111996Y-82850000D01*
X63131958Y-83039928D01*
X63190973Y-83221556D01*
X63194276Y-83227278D01*
X63194277Y-83227279D01*
X63205205Y-83246206D01*
X63286460Y-83386944D01*
X63290878Y-83391851D01*
X63290879Y-83391852D01*
X63390045Y-83501987D01*
X63414247Y-83528866D01*
X63471963Y-83570799D01*
X63545006Y-83623868D01*
X63568748Y-83641118D01*
X63574776Y-83643802D01*
X63574778Y-83643803D01*
X63737181Y-83716109D01*
X63743212Y-83718794D01*
X63824602Y-83736094D01*
X63923556Y-83757128D01*
X63923561Y-83757128D01*
X63930013Y-83758500D01*
X63990500Y-83758500D01*
X64058621Y-83778502D01*
X64105114Y-83832158D01*
X64116500Y-83884500D01*
X64116500Y-86271233D01*
X64115973Y-86282416D01*
X64114298Y-86289909D01*
X64114547Y-86297835D01*
X64114547Y-86297836D01*
X64116438Y-86357986D01*
X64116500Y-86361945D01*
X64116500Y-86389856D01*
X64116997Y-86393790D01*
X64116997Y-86393791D01*
X64117005Y-86393856D01*
X64117938Y-86405693D01*
X64119327Y-86449889D01*
X64124178Y-86466586D01*
X64124978Y-86469339D01*
X64128987Y-86488700D01*
X64131526Y-86508797D01*
X64134445Y-86516168D01*
X64134445Y-86516170D01*
X64147804Y-86549912D01*
X64151649Y-86561142D01*
X64157478Y-86581206D01*
X64163982Y-86603593D01*
X64168015Y-86610412D01*
X64168017Y-86610417D01*
X64174293Y-86621028D01*
X64182988Y-86638776D01*
X64190448Y-86657617D01*
X64195110Y-86664033D01*
X64195110Y-86664034D01*
X64216436Y-86693387D01*
X64222952Y-86703307D01*
X64245458Y-86741362D01*
X64251064Y-86746969D01*
X64259780Y-86755685D01*
X64272620Y-86770718D01*
X64284528Y-86787107D01*
X64290635Y-86792159D01*
X64318593Y-86815288D01*
X64327374Y-86823278D01*
X64546353Y-87042258D01*
X64553887Y-87050537D01*
X64558000Y-87057018D01*
X64596377Y-87093056D01*
X64607652Y-87103644D01*
X64610494Y-87106399D01*
X64630230Y-87126135D01*
X64633427Y-87128615D01*
X64642447Y-87136318D01*
X64674679Y-87166586D01*
X64681625Y-87170405D01*
X64681628Y-87170407D01*
X64692434Y-87176348D01*
X64708953Y-87187199D01*
X64724959Y-87199614D01*
X64732228Y-87202759D01*
X64732232Y-87202762D01*
X64765537Y-87217174D01*
X64776187Y-87222391D01*
X64814940Y-87243695D01*
X64822615Y-87245666D01*
X64822616Y-87245666D01*
X64834562Y-87248733D01*
X64853264Y-87255136D01*
X64859335Y-87257763D01*
X64902933Y-87289091D01*
X64938747Y-87328866D01*
X65093248Y-87441118D01*
X65099276Y-87443802D01*
X65099278Y-87443803D01*
X65261681Y-87516109D01*
X65267712Y-87518794D01*
X65361112Y-87538647D01*
X65448056Y-87557128D01*
X65448061Y-87557128D01*
X65454513Y-87558500D01*
X65645487Y-87558500D01*
X65651939Y-87557128D01*
X65651944Y-87557128D01*
X65738888Y-87538647D01*
X65832288Y-87518794D01*
X65838319Y-87516109D01*
X66000722Y-87443803D01*
X66000724Y-87443802D01*
X66006752Y-87441118D01*
X66161253Y-87328866D01*
X66165668Y-87323963D01*
X66170580Y-87319540D01*
X66171705Y-87320789D01*
X66225014Y-87287949D01*
X66258200Y-87283500D01*
X75371233Y-87283500D01*
X75382416Y-87284027D01*
X75389909Y-87285702D01*
X75397835Y-87285453D01*
X75397836Y-87285453D01*
X75457986Y-87283562D01*
X75461945Y-87283500D01*
X75489856Y-87283500D01*
X75493791Y-87283003D01*
X75493856Y-87282995D01*
X75505693Y-87282062D01*
X75537951Y-87281048D01*
X75541970Y-87280922D01*
X75549889Y-87280673D01*
X75569343Y-87275021D01*
X75588700Y-87271013D01*
X75600930Y-87269468D01*
X75600931Y-87269468D01*
X75608797Y-87268474D01*
X75616168Y-87265555D01*
X75616170Y-87265555D01*
X75649912Y-87252196D01*
X75661142Y-87248351D01*
X75695983Y-87238229D01*
X75695984Y-87238229D01*
X75703593Y-87236018D01*
X75710412Y-87231985D01*
X75710417Y-87231983D01*
X75721028Y-87225707D01*
X75738776Y-87217012D01*
X75757617Y-87209552D01*
X75793387Y-87183564D01*
X75803307Y-87177048D01*
X75834535Y-87158580D01*
X75834538Y-87158578D01*
X75841362Y-87154542D01*
X75855683Y-87140221D01*
X75870717Y-87127380D01*
X75880694Y-87120131D01*
X75887107Y-87115472D01*
X75915298Y-87081395D01*
X75923288Y-87072616D01*
X77500499Y-85495405D01*
X77562811Y-85461379D01*
X77589594Y-85458500D01*
X77645487Y-85458500D01*
X77651939Y-85457128D01*
X77651944Y-85457128D01*
X77738888Y-85438647D01*
X77832288Y-85418794D01*
X77910682Y-85383891D01*
X78000722Y-85343803D01*
X78000724Y-85343802D01*
X78006752Y-85341118D01*
X78024117Y-85328502D01*
X78062157Y-85300864D01*
X78161253Y-85228866D01*
X78192824Y-85193803D01*
X78284621Y-85091852D01*
X78284622Y-85091851D01*
X78289040Y-85086944D01*
X78384527Y-84921556D01*
X78443542Y-84739928D01*
X78463504Y-84550000D01*
X78443542Y-84360072D01*
X78384527Y-84178444D01*
X78289040Y-84013056D01*
X78240647Y-83959310D01*
X78209929Y-83895303D01*
X78218694Y-83824849D01*
X78240647Y-83790690D01*
X78284621Y-83741852D01*
X78284622Y-83741851D01*
X78289040Y-83736944D01*
X78372813Y-83591846D01*
X78381223Y-83577279D01*
X78381224Y-83577278D01*
X78384527Y-83571556D01*
X78443542Y-83389928D01*
X78444342Y-83382322D01*
X78462814Y-83206565D01*
X78463504Y-83200000D01*
X78452137Y-83091852D01*
X78444232Y-83016635D01*
X78444232Y-83016633D01*
X78443542Y-83010072D01*
X78384527Y-82828444D01*
X78373331Y-82809051D01*
X78292341Y-82668774D01*
X78289040Y-82663056D01*
X78280701Y-82653794D01*
X78165675Y-82526045D01*
X78165674Y-82526044D01*
X78161253Y-82521134D01*
X78062157Y-82449136D01*
X78012094Y-82412763D01*
X78012093Y-82412762D01*
X78006752Y-82408882D01*
X78000724Y-82406198D01*
X78000722Y-82406197D01*
X77940981Y-82379599D01*
X77886885Y-82333619D01*
X77866236Y-82265692D01*
X77885588Y-82197384D01*
X77898595Y-82180181D01*
X77898908Y-82179834D01*
X77923840Y-82152144D01*
X78006976Y-82008148D01*
X78016023Y-81992479D01*
X78016024Y-81992478D01*
X78019327Y-81986756D01*
X78078342Y-81805128D01*
X78079282Y-81796190D01*
X78097614Y-81621765D01*
X78098304Y-81615200D01*
X78078342Y-81425272D01*
X78019327Y-81243644D01*
X77923840Y-81078256D01*
X77796053Y-80936334D01*
X77641552Y-80824082D01*
X77635524Y-80821398D01*
X77635522Y-80821397D01*
X77473119Y-80749091D01*
X77473118Y-80749091D01*
X77467088Y-80746406D01*
X77373687Y-80726553D01*
X77286744Y-80708072D01*
X77286739Y-80708072D01*
X77280287Y-80706700D01*
X77089313Y-80706700D01*
X77082861Y-80708072D01*
X77082856Y-80708072D01*
X76995913Y-80726553D01*
X76902512Y-80746406D01*
X76896482Y-80749091D01*
X76896481Y-80749091D01*
X76734078Y-80821397D01*
X76734076Y-80821398D01*
X76728048Y-80824082D01*
X76573547Y-80936334D01*
X76445760Y-81078256D01*
X76350273Y-81243644D01*
X76291258Y-81425272D01*
X76271296Y-81615200D01*
X76271986Y-81621765D01*
X76290319Y-81796190D01*
X76291258Y-81805128D01*
X76350273Y-81986756D01*
X76353576Y-81992478D01*
X76353577Y-81992479D01*
X76362624Y-82008148D01*
X76445760Y-82152144D01*
X76450178Y-82157051D01*
X76450179Y-82157052D01*
X76502745Y-82215432D01*
X76573547Y-82294066D01*
X76604894Y-82316841D01*
X76691273Y-82379599D01*
X76728048Y-82406318D01*
X76734076Y-82409002D01*
X76734078Y-82409003D01*
X76793819Y-82435601D01*
X76847915Y-82481581D01*
X76868564Y-82549508D01*
X76849212Y-82617816D01*
X76836205Y-82635019D01*
X76819300Y-82653794D01*
X76810960Y-82663056D01*
X76807659Y-82668774D01*
X76726670Y-82809051D01*
X76715473Y-82828444D01*
X76656458Y-83010072D01*
X76655768Y-83016633D01*
X76655768Y-83016635D01*
X76639093Y-83175292D01*
X76612080Y-83240949D01*
X76602878Y-83251218D01*
X75974499Y-83879596D01*
X75912187Y-83913621D01*
X75885404Y-83916500D01*
X68797702Y-83916500D01*
X68729581Y-83896498D01*
X68710355Y-83880157D01*
X68710082Y-83880460D01*
X68705170Y-83876037D01*
X68700755Y-83871134D01*
X68642726Y-83828973D01*
X68551596Y-83762763D01*
X68551595Y-83762762D01*
X68546254Y-83758882D01*
X68540226Y-83756198D01*
X68540224Y-83756197D01*
X68377821Y-83683891D01*
X68377820Y-83683891D01*
X68371790Y-83681206D01*
X68278390Y-83661353D01*
X68191446Y-83642872D01*
X68191441Y-83642872D01*
X68184989Y-83641500D01*
X67994015Y-83641500D01*
X67987563Y-83642872D01*
X67987558Y-83642872D01*
X67900614Y-83661353D01*
X67807214Y-83681206D01*
X67801184Y-83683891D01*
X67801183Y-83683891D01*
X67638780Y-83756197D01*
X67638778Y-83756198D01*
X67632750Y-83758882D01*
X67478249Y-83871134D01*
X67473828Y-83876044D01*
X67473827Y-83876045D01*
X67439994Y-83913621D01*
X67350462Y-84013056D01*
X67254975Y-84178444D01*
X67195960Y-84360072D01*
X67175998Y-84550000D01*
X67195960Y-84739928D01*
X67254975Y-84921556D01*
X67350462Y-85086944D01*
X67354880Y-85091851D01*
X67354881Y-85091852D01*
X67446678Y-85193803D01*
X67478249Y-85228866D01*
X67577345Y-85300864D01*
X67615386Y-85328502D01*
X67632750Y-85341118D01*
X67638778Y-85343802D01*
X67638780Y-85343803D01*
X67728820Y-85383891D01*
X67807214Y-85418794D01*
X67900614Y-85438647D01*
X67987558Y-85457128D01*
X67987563Y-85457128D01*
X67994015Y-85458500D01*
X68184989Y-85458500D01*
X68191441Y-85457128D01*
X68191446Y-85457128D01*
X68278390Y-85438647D01*
X68371790Y-85418794D01*
X68450184Y-85383891D01*
X68540224Y-85343803D01*
X68540226Y-85343802D01*
X68546254Y-85341118D01*
X68563619Y-85328502D01*
X68679173Y-85244546D01*
X68700755Y-85228866D01*
X68705170Y-85223963D01*
X68710082Y-85219540D01*
X68711207Y-85220789D01*
X68764516Y-85187949D01*
X68797702Y-85183500D01*
X75716405Y-85183500D01*
X75784526Y-85203502D01*
X75831019Y-85257158D01*
X75841123Y-85327432D01*
X75811629Y-85392012D01*
X75805500Y-85398595D01*
X75224500Y-85979595D01*
X75162188Y-86013621D01*
X75135405Y-86016500D01*
X66258200Y-86016500D01*
X66190079Y-85996498D01*
X66170853Y-85980157D01*
X66170580Y-85980460D01*
X66165668Y-85976037D01*
X66161253Y-85971134D01*
X66099185Y-85926039D01*
X66012094Y-85862763D01*
X66012093Y-85862762D01*
X66006752Y-85858882D01*
X66000724Y-85856198D01*
X66000722Y-85856197D01*
X65838319Y-85783891D01*
X65838318Y-85783891D01*
X65832288Y-85781206D01*
X65738887Y-85761353D01*
X65651944Y-85742872D01*
X65651939Y-85742872D01*
X65645487Y-85741500D01*
X65509500Y-85741500D01*
X65441379Y-85721498D01*
X65394886Y-85667842D01*
X65383500Y-85615500D01*
X65383500Y-82662299D01*
X71648795Y-82662299D01*
X71668757Y-82852227D01*
X71727772Y-83033855D01*
X71823259Y-83199243D01*
X71827677Y-83204150D01*
X71827678Y-83204151D01*
X71870057Y-83251218D01*
X71951046Y-83341165D01*
X72105547Y-83453417D01*
X72111575Y-83456101D01*
X72111577Y-83456102D01*
X72273980Y-83528408D01*
X72280011Y-83531093D01*
X72373411Y-83550946D01*
X72460355Y-83569427D01*
X72460360Y-83569427D01*
X72466812Y-83570799D01*
X72657786Y-83570799D01*
X72664238Y-83569427D01*
X72664243Y-83569427D01*
X72751187Y-83550946D01*
X72844587Y-83531093D01*
X72850618Y-83528408D01*
X73013021Y-83456102D01*
X73013023Y-83456101D01*
X73019051Y-83453417D01*
X73173552Y-83341165D01*
X73254541Y-83251218D01*
X73296920Y-83204151D01*
X73296921Y-83204150D01*
X73301339Y-83199243D01*
X73396826Y-83033855D01*
X73455841Y-82852227D01*
X73475803Y-82662299D01*
X73459601Y-82508148D01*
X73456531Y-82478934D01*
X73456531Y-82478932D01*
X73455841Y-82472371D01*
X73396826Y-82290743D01*
X73385958Y-82271918D01*
X73342752Y-82197085D01*
X73301339Y-82125355D01*
X73283743Y-82105812D01*
X73177974Y-81988344D01*
X73177973Y-81988343D01*
X73173552Y-81983433D01*
X73019051Y-81871181D01*
X73013023Y-81868497D01*
X73013021Y-81868496D01*
X72850618Y-81796190D01*
X72850617Y-81796190D01*
X72844587Y-81793505D01*
X72751187Y-81773652D01*
X72664243Y-81755171D01*
X72664238Y-81755171D01*
X72657786Y-81753799D01*
X72466812Y-81753799D01*
X72460360Y-81755171D01*
X72460355Y-81755171D01*
X72373411Y-81773652D01*
X72280011Y-81793505D01*
X72273981Y-81796190D01*
X72273980Y-81796190D01*
X72111577Y-81868496D01*
X72111575Y-81868497D01*
X72105547Y-81871181D01*
X71951046Y-81983433D01*
X71946625Y-81988343D01*
X71946624Y-81988344D01*
X71840856Y-82105812D01*
X71823259Y-82125355D01*
X71781846Y-82197085D01*
X71738641Y-82271918D01*
X71727772Y-82290743D01*
X71668757Y-82472371D01*
X71668067Y-82478932D01*
X71668067Y-82478934D01*
X71664997Y-82508148D01*
X71648795Y-82662299D01*
X65383500Y-82662299D01*
X65383500Y-76314594D01*
X65403502Y-76246473D01*
X65420405Y-76225499D01*
X67675499Y-73970405D01*
X67737811Y-73936379D01*
X67764594Y-73933500D01*
X69622898Y-73933500D01*
X69691019Y-73953502D01*
X69737512Y-74007158D01*
X69747616Y-74077432D01*
X69742731Y-74098436D01*
X69706458Y-74210072D01*
X69705768Y-74216633D01*
X69705768Y-74216635D01*
X69697285Y-74297349D01*
X69686496Y-74400000D01*
X69687186Y-74406565D01*
X69704127Y-74567745D01*
X69706458Y-74589928D01*
X69765473Y-74771556D01*
X69860960Y-74936944D01*
X69865378Y-74941851D01*
X69865379Y-74941852D01*
X69984244Y-75073865D01*
X69988747Y-75078866D01*
X70143248Y-75191118D01*
X70149276Y-75193802D01*
X70149278Y-75193803D01*
X70255258Y-75240988D01*
X70317712Y-75268794D01*
X70411112Y-75288647D01*
X70498056Y-75307128D01*
X70498061Y-75307128D01*
X70504513Y-75308500D01*
X70571941Y-75308500D01*
X70640062Y-75328502D01*
X70686555Y-75382158D01*
X70697251Y-75447670D01*
X70686496Y-75550000D01*
X70687186Y-75556565D01*
X70699630Y-75674959D01*
X70706458Y-75739928D01*
X70765473Y-75921556D01*
X70860960Y-76086944D01*
X70865378Y-76091851D01*
X70865379Y-76091852D01*
X70968517Y-76206398D01*
X70988747Y-76228866D01*
X71143248Y-76341118D01*
X71149276Y-76343802D01*
X71149278Y-76343803D01*
X71283365Y-76403502D01*
X71317712Y-76418794D01*
X71411113Y-76438647D01*
X71498056Y-76457128D01*
X71498061Y-76457128D01*
X71504513Y-76458500D01*
X71695487Y-76458500D01*
X71701939Y-76457128D01*
X71701944Y-76457128D01*
X71788887Y-76438647D01*
X71882288Y-76418794D01*
X71916635Y-76403502D01*
X72050722Y-76343803D01*
X72050724Y-76343802D01*
X72056752Y-76341118D01*
X72139331Y-76281121D01*
X72200993Y-76236320D01*
X72211253Y-76228866D01*
X72215668Y-76223963D01*
X72220580Y-76219540D01*
X72221705Y-76220789D01*
X72275014Y-76187949D01*
X72308200Y-76183500D01*
X73735406Y-76183500D01*
X73803527Y-76203502D01*
X73824501Y-76220405D01*
X79229318Y-81625222D01*
X79263344Y-81687534D01*
X79258279Y-81758349D01*
X79214284Y-81816253D01*
X79172499Y-81846612D01*
X79138747Y-81871134D01*
X79134326Y-81876044D01*
X79134325Y-81876045D01*
X79029488Y-81992479D01*
X79010960Y-82013056D01*
X78961021Y-82099552D01*
X78936011Y-82142872D01*
X78915473Y-82178444D01*
X78856458Y-82360072D01*
X78855768Y-82366633D01*
X78855768Y-82366635D01*
X78852005Y-82402437D01*
X78836496Y-82550000D01*
X78837186Y-82556565D01*
X78848980Y-82668774D01*
X78856458Y-82739928D01*
X78915473Y-82921556D01*
X79010960Y-83086944D01*
X79015378Y-83091851D01*
X79015379Y-83091852D01*
X79118667Y-83206565D01*
X79138747Y-83228866D01*
X79293248Y-83341118D01*
X79299276Y-83343802D01*
X79299278Y-83343803D01*
X79407199Y-83391852D01*
X79467712Y-83418794D01*
X79561112Y-83438647D01*
X79648056Y-83457128D01*
X79648061Y-83457128D01*
X79654513Y-83458500D01*
X79710406Y-83458500D01*
X79778527Y-83478502D01*
X79799501Y-83495405D01*
X81146348Y-84842253D01*
X81153888Y-84850539D01*
X81158000Y-84857018D01*
X81163777Y-84862443D01*
X81207651Y-84903643D01*
X81210493Y-84906398D01*
X81230230Y-84926135D01*
X81233427Y-84928615D01*
X81242447Y-84936318D01*
X81274679Y-84966586D01*
X81281625Y-84970405D01*
X81281628Y-84970407D01*
X81292434Y-84976348D01*
X81308953Y-84987199D01*
X81324959Y-84999614D01*
X81332228Y-85002759D01*
X81332232Y-85002762D01*
X81365537Y-85017174D01*
X81376187Y-85022391D01*
X81414940Y-85043695D01*
X81422615Y-85045666D01*
X81422616Y-85045666D01*
X81434562Y-85048733D01*
X81453267Y-85055137D01*
X81471855Y-85063181D01*
X81479678Y-85064420D01*
X81479688Y-85064423D01*
X81515524Y-85070099D01*
X81527144Y-85072505D01*
X81561113Y-85081226D01*
X81569970Y-85083500D01*
X81590224Y-85083500D01*
X81609934Y-85085051D01*
X81629943Y-85088220D01*
X81637835Y-85087474D01*
X81673961Y-85084059D01*
X81685819Y-85083500D01*
X92735406Y-85083500D01*
X92803527Y-85103502D01*
X92824501Y-85120405D01*
X93902878Y-86198782D01*
X93936904Y-86261094D01*
X93939092Y-86274703D01*
X93956458Y-86439928D01*
X94015473Y-86621556D01*
X94110960Y-86786944D01*
X94115378Y-86791851D01*
X94115379Y-86791852D01*
X94234325Y-86923955D01*
X94238747Y-86928866D01*
X94393248Y-87041118D01*
X94399276Y-87043802D01*
X94399278Y-87043803D01*
X94561681Y-87116109D01*
X94567712Y-87118794D01*
X94650165Y-87136320D01*
X94655886Y-87137536D01*
X94718359Y-87171264D01*
X94752681Y-87233414D01*
X94754999Y-87273953D01*
X94736496Y-87450000D01*
X94737186Y-87456565D01*
X94755415Y-87630000D01*
X94756458Y-87639928D01*
X94815473Y-87821556D01*
X94910960Y-87986944D01*
X94915378Y-87991851D01*
X94915379Y-87991852D01*
X94924117Y-88001556D01*
X95038747Y-88128866D01*
X95193248Y-88241118D01*
X95199276Y-88243802D01*
X95199278Y-88243803D01*
X95361681Y-88316109D01*
X95367712Y-88318794D01*
X95461112Y-88338647D01*
X95548056Y-88357128D01*
X95548061Y-88357128D01*
X95554513Y-88358500D01*
X95745487Y-88358500D01*
X95751939Y-88357128D01*
X95751944Y-88357128D01*
X95838888Y-88338647D01*
X95932288Y-88318794D01*
X95938319Y-88316109D01*
X96100722Y-88243803D01*
X96100724Y-88243802D01*
X96106752Y-88241118D01*
X96216714Y-88161226D01*
X96239671Y-88144546D01*
X96261253Y-88128866D01*
X96265668Y-88123963D01*
X96270580Y-88119540D01*
X96271705Y-88120789D01*
X96325014Y-88087949D01*
X96358200Y-88083500D01*
X96516406Y-88083500D01*
X96584527Y-88103502D01*
X96631020Y-88157158D01*
X96641124Y-88227432D01*
X96611630Y-88292012D01*
X96605502Y-88298594D01*
X95331374Y-89572721D01*
X94299500Y-90604595D01*
X94237188Y-90638621D01*
X94210405Y-90641500D01*
X94154513Y-90641500D01*
X94148061Y-90642872D01*
X94148056Y-90642872D01*
X94061113Y-90661353D01*
X93967712Y-90681206D01*
X93961682Y-90683891D01*
X93961681Y-90683891D01*
X93799278Y-90756197D01*
X93799276Y-90756198D01*
X93793248Y-90758882D01*
X93787907Y-90762762D01*
X93787906Y-90762763D01*
X93755033Y-90786647D01*
X93638747Y-90871134D01*
X93634326Y-90876044D01*
X93634325Y-90876045D01*
X93573796Y-90943270D01*
X93510960Y-91013056D01*
X93415473Y-91178444D01*
X93356458Y-91360072D01*
X93355768Y-91366633D01*
X93355768Y-91366635D01*
X93347649Y-91443882D01*
X93336496Y-91550000D01*
X93356458Y-91739928D01*
X93415473Y-91921556D01*
X93418776Y-91927278D01*
X93418777Y-91927279D01*
X93436803Y-91958500D01*
X93510960Y-92086944D01*
X93638747Y-92228866D01*
X93793248Y-92341118D01*
X93799276Y-92343802D01*
X93799278Y-92343803D01*
X93949993Y-92410905D01*
X93967712Y-92418794D01*
X94026106Y-92431206D01*
X94148056Y-92457128D01*
X94148061Y-92457128D01*
X94154513Y-92458500D01*
X94345487Y-92458500D01*
X94351939Y-92457128D01*
X94351944Y-92457128D01*
X94473894Y-92431206D01*
X94532288Y-92418794D01*
X94550007Y-92410905D01*
X94700722Y-92343803D01*
X94700724Y-92343802D01*
X94706752Y-92341118D01*
X94861253Y-92228866D01*
X94989040Y-92086944D01*
X95063197Y-91958500D01*
X95081223Y-91927279D01*
X95081224Y-91927278D01*
X95084527Y-91921556D01*
X95143542Y-91739928D01*
X95160907Y-91574706D01*
X95187920Y-91509050D01*
X95197122Y-91498782D01*
X96745904Y-89950000D01*
X99036496Y-89950000D01*
X99037186Y-89956565D01*
X99050968Y-90087690D01*
X99056458Y-90139928D01*
X99115473Y-90321556D01*
X99210960Y-90486944D01*
X99338747Y-90628866D01*
X99493248Y-90741118D01*
X99499276Y-90743802D01*
X99499278Y-90743803D01*
X99577416Y-90778592D01*
X99667712Y-90818794D01*
X99761113Y-90838647D01*
X99848056Y-90857128D01*
X99848061Y-90857128D01*
X99854513Y-90858500D01*
X100045487Y-90858500D01*
X100051939Y-90857128D01*
X100051944Y-90857128D01*
X100138887Y-90838647D01*
X100232288Y-90818794D01*
X100322584Y-90778592D01*
X100400722Y-90743803D01*
X100400724Y-90743802D01*
X100406752Y-90741118D01*
X100561253Y-90628866D01*
X100689040Y-90486944D01*
X100784527Y-90321556D01*
X100843542Y-90139928D01*
X100849033Y-90087690D01*
X100862814Y-89956565D01*
X100863504Y-89950000D01*
X100855089Y-89869932D01*
X100844232Y-89766635D01*
X100844232Y-89766633D01*
X100843542Y-89760072D01*
X100784527Y-89578444D01*
X100689040Y-89413056D01*
X100561253Y-89271134D01*
X100406752Y-89158882D01*
X100400724Y-89156198D01*
X100400722Y-89156197D01*
X100238319Y-89083891D01*
X100238318Y-89083891D01*
X100232288Y-89081206D01*
X100138887Y-89061353D01*
X100051944Y-89042872D01*
X100051939Y-89042872D01*
X100045487Y-89041500D01*
X99854513Y-89041500D01*
X99848061Y-89042872D01*
X99848056Y-89042872D01*
X99761113Y-89061353D01*
X99667712Y-89081206D01*
X99661682Y-89083891D01*
X99661681Y-89083891D01*
X99499278Y-89156197D01*
X99499276Y-89156198D01*
X99493248Y-89158882D01*
X99338747Y-89271134D01*
X99210960Y-89413056D01*
X99115473Y-89578444D01*
X99056458Y-89760072D01*
X99055768Y-89766633D01*
X99055768Y-89766635D01*
X99044911Y-89869932D01*
X99036496Y-89950000D01*
X96745904Y-89950000D01*
X100242253Y-86453652D01*
X100250539Y-86446112D01*
X100257018Y-86442000D01*
X100303644Y-86392348D01*
X100306398Y-86389507D01*
X100326135Y-86369770D01*
X100328615Y-86366573D01*
X100336320Y-86357551D01*
X100361159Y-86331100D01*
X100366586Y-86325321D01*
X100370405Y-86318375D01*
X100370407Y-86318372D01*
X100376348Y-86307566D01*
X100387199Y-86291047D01*
X100394758Y-86281301D01*
X100399614Y-86275041D01*
X100402759Y-86267772D01*
X100402762Y-86267768D01*
X100417174Y-86234463D01*
X100422391Y-86223813D01*
X100443695Y-86185060D01*
X100448733Y-86165437D01*
X100455137Y-86146734D01*
X100460033Y-86135420D01*
X100460033Y-86135419D01*
X100463181Y-86128145D01*
X100464420Y-86120322D01*
X100464423Y-86120312D01*
X100470099Y-86084476D01*
X100472505Y-86072856D01*
X100481528Y-86037711D01*
X100481528Y-86037710D01*
X100483500Y-86030030D01*
X100483500Y-86009776D01*
X100485051Y-85990065D01*
X100486980Y-85977886D01*
X100488220Y-85970057D01*
X100484059Y-85926038D01*
X100483500Y-85914181D01*
X100483500Y-72625000D01*
X103711496Y-72625000D01*
X103712186Y-72631565D01*
X103730029Y-72801328D01*
X103731458Y-72814928D01*
X103790473Y-72996556D01*
X103885960Y-73161944D01*
X103890378Y-73166851D01*
X103890379Y-73166852D01*
X104004998Y-73294149D01*
X104013747Y-73303866D01*
X104037136Y-73320859D01*
X104144188Y-73398637D01*
X104168248Y-73416118D01*
X104174276Y-73418802D01*
X104174278Y-73418803D01*
X104315247Y-73481566D01*
X104342712Y-73493794D01*
X104436113Y-73513647D01*
X104523056Y-73532128D01*
X104523061Y-73532128D01*
X104529513Y-73533500D01*
X104720487Y-73533500D01*
X104726939Y-73532128D01*
X104726944Y-73532128D01*
X104813887Y-73513647D01*
X104907288Y-73493794D01*
X104934753Y-73481566D01*
X105075722Y-73418803D01*
X105075724Y-73418802D01*
X105081752Y-73416118D01*
X105105813Y-73398637D01*
X105212864Y-73320859D01*
X105236253Y-73303866D01*
X105245002Y-73294149D01*
X105359621Y-73166852D01*
X105359622Y-73166851D01*
X105364040Y-73161944D01*
X105459527Y-72996556D01*
X105518542Y-72814928D01*
X105519972Y-72801328D01*
X105537814Y-72631565D01*
X105538504Y-72625000D01*
X105527489Y-72520197D01*
X105519232Y-72441635D01*
X105519232Y-72441633D01*
X105518542Y-72435072D01*
X105459527Y-72253444D01*
X105441117Y-72221556D01*
X105367341Y-72093774D01*
X105364040Y-72088056D01*
X105347376Y-72069548D01*
X105240675Y-71951045D01*
X105240674Y-71951044D01*
X105236253Y-71946134D01*
X105112972Y-71856565D01*
X105087094Y-71837763D01*
X105087093Y-71837762D01*
X105081752Y-71833882D01*
X105075724Y-71831198D01*
X105075722Y-71831197D01*
X104913319Y-71758891D01*
X104913318Y-71758891D01*
X104907288Y-71756206D01*
X104813887Y-71736353D01*
X104726944Y-71717872D01*
X104726939Y-71717872D01*
X104720487Y-71716500D01*
X104529513Y-71716500D01*
X104523061Y-71717872D01*
X104523056Y-71717872D01*
X104436113Y-71736353D01*
X104342712Y-71756206D01*
X104336682Y-71758891D01*
X104336681Y-71758891D01*
X104174278Y-71831197D01*
X104174276Y-71831198D01*
X104168248Y-71833882D01*
X104162907Y-71837762D01*
X104162906Y-71837763D01*
X104137028Y-71856565D01*
X104013747Y-71946134D01*
X104009326Y-71951044D01*
X104009325Y-71951045D01*
X103902625Y-72069548D01*
X103885960Y-72088056D01*
X103882659Y-72093774D01*
X103808884Y-72221556D01*
X103790473Y-72253444D01*
X103731458Y-72435072D01*
X103730768Y-72441633D01*
X103730768Y-72441635D01*
X103722511Y-72520197D01*
X103711496Y-72625000D01*
X100483500Y-72625000D01*
X100483500Y-67828767D01*
X100484027Y-67817584D01*
X100485702Y-67810091D01*
X100483562Y-67742000D01*
X100483500Y-67738043D01*
X100483500Y-67710144D01*
X100482996Y-67706153D01*
X100482063Y-67694311D01*
X100480923Y-67658036D01*
X100480674Y-67650111D01*
X100478462Y-67642497D01*
X100478461Y-67642492D01*
X100475023Y-67630659D01*
X100471012Y-67611295D01*
X100469467Y-67599064D01*
X100468474Y-67591203D01*
X100465557Y-67583836D01*
X100465556Y-67583831D01*
X100452198Y-67550092D01*
X100448354Y-67538865D01*
X100438230Y-67504022D01*
X100436018Y-67496407D01*
X100425707Y-67478972D01*
X100417012Y-67461224D01*
X100409552Y-67442383D01*
X100383564Y-67406613D01*
X100377048Y-67396693D01*
X100358580Y-67365465D01*
X100358578Y-67365462D01*
X100354542Y-67358638D01*
X100340221Y-67344317D01*
X100327380Y-67329283D01*
X100320131Y-67319306D01*
X100315472Y-67312893D01*
X100281395Y-67284702D01*
X100272616Y-67276712D01*
X97466124Y-64470220D01*
X97432098Y-64407908D01*
X97437163Y-64337093D01*
X97479710Y-64280257D01*
X97503970Y-64266018D01*
X97550722Y-64245203D01*
X97550724Y-64245202D01*
X97556752Y-64242518D01*
X97711253Y-64130266D01*
X97727392Y-64112342D01*
X97834621Y-63993252D01*
X97834622Y-63993251D01*
X97839040Y-63988344D01*
X97934527Y-63822956D01*
X97958654Y-63748700D01*
X99187496Y-63748700D01*
X99188186Y-63755265D01*
X99199214Y-63860187D01*
X99207458Y-63938628D01*
X99266473Y-64120256D01*
X99269776Y-64125978D01*
X99269777Y-64125979D01*
X99276277Y-64137237D01*
X99361960Y-64285644D01*
X99366378Y-64290551D01*
X99366379Y-64290552D01*
X99393069Y-64320194D01*
X99489747Y-64427566D01*
X99644248Y-64539818D01*
X99650276Y-64542502D01*
X99650278Y-64542503D01*
X99743487Y-64584002D01*
X99818712Y-64617494D01*
X99912113Y-64637347D01*
X99999056Y-64655828D01*
X99999061Y-64655828D01*
X100005513Y-64657200D01*
X100196487Y-64657200D01*
X100202939Y-64655828D01*
X100202944Y-64655828D01*
X100289887Y-64637347D01*
X100383288Y-64617494D01*
X100458513Y-64584002D01*
X100551722Y-64542503D01*
X100551724Y-64542502D01*
X100557752Y-64539818D01*
X100712253Y-64427566D01*
X100808931Y-64320194D01*
X100835621Y-64290552D01*
X100835622Y-64290551D01*
X100840040Y-64285644D01*
X100925723Y-64137237D01*
X100932223Y-64125979D01*
X100932224Y-64125978D01*
X100935527Y-64120256D01*
X100994542Y-63938628D01*
X101002787Y-63860187D01*
X101013814Y-63755265D01*
X101014504Y-63748700D01*
X101010991Y-63715271D01*
X100995232Y-63565335D01*
X100995232Y-63565333D01*
X100994542Y-63558772D01*
X100935527Y-63377144D01*
X100840040Y-63211756D01*
X100820102Y-63189612D01*
X100716674Y-63074744D01*
X100712253Y-63069834D01*
X100599970Y-62988255D01*
X100563094Y-62961463D01*
X100563093Y-62961462D01*
X100557752Y-62957582D01*
X100551724Y-62954898D01*
X100551722Y-62954897D01*
X100389319Y-62882591D01*
X100389318Y-62882591D01*
X100383288Y-62879906D01*
X100280925Y-62858148D01*
X100202944Y-62841572D01*
X100202939Y-62841572D01*
X100196487Y-62840200D01*
X100005513Y-62840200D01*
X99999061Y-62841572D01*
X99999056Y-62841572D01*
X99921075Y-62858148D01*
X99818712Y-62879906D01*
X99812682Y-62882591D01*
X99812681Y-62882591D01*
X99650278Y-62954897D01*
X99650276Y-62954898D01*
X99644248Y-62957582D01*
X99638907Y-62961462D01*
X99638906Y-62961463D01*
X99602030Y-62988255D01*
X99489747Y-63069834D01*
X99485326Y-63074744D01*
X99381899Y-63189612D01*
X99361960Y-63211756D01*
X99266473Y-63377144D01*
X99207458Y-63558772D01*
X99206768Y-63565333D01*
X99206768Y-63565335D01*
X99191009Y-63715271D01*
X99187496Y-63748700D01*
X97958654Y-63748700D01*
X97993542Y-63641328D01*
X97995949Y-63618432D01*
X98012814Y-63457965D01*
X98013504Y-63451400D01*
X98006360Y-63383429D01*
X97994232Y-63268035D01*
X97994232Y-63268033D01*
X97993542Y-63261472D01*
X97934527Y-63079844D01*
X97839040Y-62914456D01*
X97765863Y-62833185D01*
X97735147Y-62769179D01*
X97733500Y-62748876D01*
X97733500Y-62678768D01*
X97734027Y-62667585D01*
X97735702Y-62660092D01*
X97734567Y-62623961D01*
X97733562Y-62592002D01*
X97733500Y-62588044D01*
X97733500Y-62560144D01*
X97732996Y-62556153D01*
X97732063Y-62544311D01*
X97731548Y-62527899D01*
X97730674Y-62500111D01*
X97728462Y-62492497D01*
X97728461Y-62492492D01*
X97725023Y-62480659D01*
X97721012Y-62461295D01*
X97720707Y-62458876D01*
X97718474Y-62441203D01*
X97715557Y-62433836D01*
X97715556Y-62433831D01*
X97702198Y-62400092D01*
X97698354Y-62388865D01*
X97693633Y-62372616D01*
X97686018Y-62346407D01*
X97675707Y-62328972D01*
X97667012Y-62311224D01*
X97659552Y-62292383D01*
X97633564Y-62256613D01*
X97627048Y-62246693D01*
X97608580Y-62215465D01*
X97608578Y-62215462D01*
X97604542Y-62208638D01*
X97590221Y-62194317D01*
X97577380Y-62179283D01*
X97570132Y-62169307D01*
X97565472Y-62162893D01*
X97531407Y-62134712D01*
X97522626Y-62126722D01*
X97103647Y-61707742D01*
X97096113Y-61699463D01*
X97092000Y-61692982D01*
X97042348Y-61646356D01*
X97039507Y-61643602D01*
X97019770Y-61623865D01*
X97016573Y-61621385D01*
X97007551Y-61613680D01*
X96994122Y-61601069D01*
X96975321Y-61583414D01*
X96968375Y-61579595D01*
X96968372Y-61579593D01*
X96957566Y-61573652D01*
X96941047Y-61562801D01*
X96938820Y-61561074D01*
X96925041Y-61550386D01*
X96917772Y-61547241D01*
X96917768Y-61547238D01*
X96884463Y-61532826D01*
X96873813Y-61527609D01*
X96835060Y-61506305D01*
X96815437Y-61501267D01*
X96796734Y-61494863D01*
X96785420Y-61489967D01*
X96785419Y-61489967D01*
X96778145Y-61486819D01*
X96770322Y-61485580D01*
X96770312Y-61485577D01*
X96734476Y-61479901D01*
X96722856Y-61477495D01*
X96687711Y-61468472D01*
X96687710Y-61468472D01*
X96680030Y-61466500D01*
X96659776Y-61466500D01*
X96640065Y-61464949D01*
X96627886Y-61463020D01*
X96620057Y-61461780D01*
X96590786Y-61464547D01*
X96576039Y-61465941D01*
X96564181Y-61466500D01*
X95128768Y-61466500D01*
X95117585Y-61465973D01*
X95110092Y-61464298D01*
X95102166Y-61464547D01*
X95102165Y-61464547D01*
X95042002Y-61466438D01*
X95038044Y-61466500D01*
X95010144Y-61466500D01*
X95006154Y-61467004D01*
X94994320Y-61467936D01*
X94950111Y-61469326D01*
X94942497Y-61471538D01*
X94942492Y-61471539D01*
X94930659Y-61474977D01*
X94911296Y-61478988D01*
X94891203Y-61481526D01*
X94883836Y-61484443D01*
X94883831Y-61484444D01*
X94850092Y-61497802D01*
X94838865Y-61501646D01*
X94796407Y-61513982D01*
X94789581Y-61518019D01*
X94778972Y-61524293D01*
X94761224Y-61532988D01*
X94742383Y-61540448D01*
X94735967Y-61545110D01*
X94735966Y-61545110D01*
X94706613Y-61566436D01*
X94696693Y-61572952D01*
X94665465Y-61591420D01*
X94665462Y-61591422D01*
X94658638Y-61595458D01*
X94644317Y-61609779D01*
X94629284Y-61622619D01*
X94612893Y-61634528D01*
X94586516Y-61666413D01*
X94584712Y-61668593D01*
X94576722Y-61677374D01*
X94157742Y-62096353D01*
X94149463Y-62103887D01*
X94142982Y-62108000D01*
X94117898Y-62134712D01*
X94096357Y-62157651D01*
X94093602Y-62160493D01*
X94073865Y-62180230D01*
X94071385Y-62183427D01*
X94063682Y-62192447D01*
X94033414Y-62224679D01*
X94029595Y-62231625D01*
X94029593Y-62231628D01*
X94023652Y-62242434D01*
X94012801Y-62258953D01*
X94000386Y-62274959D01*
X93997241Y-62282228D01*
X93997238Y-62282232D01*
X93982826Y-62315537D01*
X93977609Y-62326187D01*
X93956305Y-62364940D01*
X93954334Y-62372615D01*
X93954334Y-62372616D01*
X93951267Y-62384562D01*
X93944863Y-62403266D01*
X93936819Y-62421855D01*
X93935580Y-62429678D01*
X93935577Y-62429688D01*
X93929901Y-62465524D01*
X93927495Y-62477144D01*
X93919564Y-62508036D01*
X93916500Y-62519970D01*
X93916500Y-62540224D01*
X93914949Y-62559934D01*
X93911780Y-62579943D01*
X93912526Y-62587835D01*
X93915941Y-62623961D01*
X93916500Y-62635819D01*
X93916500Y-63550311D01*
X93896498Y-63618432D01*
X93842842Y-63664925D01*
X93772568Y-63675029D01*
X93716439Y-63652247D01*
X93662094Y-63612763D01*
X93662093Y-63612762D01*
X93656752Y-63608882D01*
X93650724Y-63606198D01*
X93650722Y-63606197D01*
X93488319Y-63533891D01*
X93488318Y-63533891D01*
X93482288Y-63531206D01*
X93388888Y-63511353D01*
X93301944Y-63492872D01*
X93301939Y-63492872D01*
X93295487Y-63491500D01*
X93104513Y-63491500D01*
X93098061Y-63492872D01*
X93098056Y-63492872D01*
X93011112Y-63511353D01*
X92917712Y-63531206D01*
X92911682Y-63533891D01*
X92911681Y-63533891D01*
X92749278Y-63606197D01*
X92749276Y-63606198D01*
X92743248Y-63608882D01*
X92737907Y-63612762D01*
X92737906Y-63612763D01*
X92707623Y-63634765D01*
X92588747Y-63721134D01*
X92460960Y-63863056D01*
X92365473Y-64028444D01*
X92306458Y-64210072D01*
X92305768Y-64216633D01*
X92305768Y-64216635D01*
X92287186Y-64393435D01*
X92286496Y-64400000D01*
X92287186Y-64406565D01*
X92304513Y-64571418D01*
X92306458Y-64589928D01*
X92365473Y-64771556D01*
X92460960Y-64936944D01*
X92465378Y-64941851D01*
X92465379Y-64941852D01*
X92551445Y-65037438D01*
X92588747Y-65078866D01*
X92622825Y-65103625D01*
X92718270Y-65172970D01*
X92743248Y-65191118D01*
X92749276Y-65193802D01*
X92749278Y-65193803D01*
X92882521Y-65253126D01*
X92917712Y-65268794D01*
X93011113Y-65288647D01*
X93098056Y-65307128D01*
X93098061Y-65307128D01*
X93104513Y-65308500D01*
X93295487Y-65308500D01*
X93301939Y-65307128D01*
X93301944Y-65307128D01*
X93388887Y-65288647D01*
X93482288Y-65268794D01*
X93517479Y-65253126D01*
X93650722Y-65193803D01*
X93650724Y-65193802D01*
X93656752Y-65191118D01*
X93681731Y-65172970D01*
X93777175Y-65103625D01*
X93811253Y-65078866D01*
X93848555Y-65037438D01*
X93934621Y-64941852D01*
X93934622Y-64941851D01*
X93939040Y-64936944D01*
X94034527Y-64771556D01*
X94079170Y-64634160D01*
X94119244Y-64575555D01*
X94184641Y-64547918D01*
X94254597Y-64560025D01*
X94288098Y-64584002D01*
X98479595Y-68775499D01*
X98513621Y-68837811D01*
X98516500Y-68864594D01*
X98516500Y-69722252D01*
X98496498Y-69790373D01*
X98442842Y-69836866D01*
X98372568Y-69846970D01*
X98364306Y-69845499D01*
X98351951Y-69842873D01*
X98351942Y-69842872D01*
X98345487Y-69841500D01*
X98154513Y-69841500D01*
X98148061Y-69842872D01*
X98148056Y-69842872D01*
X98061113Y-69861353D01*
X97967712Y-69881206D01*
X97961682Y-69883891D01*
X97961681Y-69883891D01*
X97799278Y-69956197D01*
X97799276Y-69956198D01*
X97793248Y-69958882D01*
X97638747Y-70071134D01*
X97634326Y-70076044D01*
X97634325Y-70076045D01*
X97516805Y-70206565D01*
X97510960Y-70213056D01*
X97507659Y-70218774D01*
X97459418Y-70302330D01*
X97415473Y-70378444D01*
X97415034Y-70379794D01*
X97370303Y-70432422D01*
X97302376Y-70453073D01*
X97234067Y-70433722D01*
X97212078Y-70416174D01*
X96603647Y-69807742D01*
X96596113Y-69799463D01*
X96592000Y-69792982D01*
X96542348Y-69746356D01*
X96539507Y-69743602D01*
X96519770Y-69723865D01*
X96516573Y-69721385D01*
X96507551Y-69713680D01*
X96481100Y-69688841D01*
X96475321Y-69683414D01*
X96468375Y-69679595D01*
X96468372Y-69679593D01*
X96457566Y-69673652D01*
X96441047Y-69662801D01*
X96435048Y-69658148D01*
X96425041Y-69650386D01*
X96417772Y-69647241D01*
X96417768Y-69647238D01*
X96384463Y-69632826D01*
X96373813Y-69627609D01*
X96335060Y-69606305D01*
X96315437Y-69601267D01*
X96296734Y-69594863D01*
X96285420Y-69589967D01*
X96285419Y-69589967D01*
X96278145Y-69586819D01*
X96270322Y-69585580D01*
X96270312Y-69585577D01*
X96234476Y-69579901D01*
X96222856Y-69577495D01*
X96187711Y-69568472D01*
X96187710Y-69568472D01*
X96180030Y-69566500D01*
X96159776Y-69566500D01*
X96140065Y-69564949D01*
X96127886Y-69563020D01*
X96120057Y-69561780D01*
X96112165Y-69562526D01*
X96076039Y-69565941D01*
X96064181Y-69566500D01*
X96008200Y-69566500D01*
X95940079Y-69546498D01*
X95920853Y-69530157D01*
X95920580Y-69530460D01*
X95915668Y-69526037D01*
X95911253Y-69521134D01*
X95756752Y-69408882D01*
X95750724Y-69406198D01*
X95750722Y-69406197D01*
X95588319Y-69333891D01*
X95588318Y-69333891D01*
X95582288Y-69331206D01*
X95488887Y-69311353D01*
X95401944Y-69292872D01*
X95401939Y-69292872D01*
X95395487Y-69291500D01*
X95204513Y-69291500D01*
X95198061Y-69292872D01*
X95198056Y-69292872D01*
X95111113Y-69311353D01*
X95017712Y-69331206D01*
X95011682Y-69333891D01*
X95011681Y-69333891D01*
X94849278Y-69406197D01*
X94849276Y-69406198D01*
X94843248Y-69408882D01*
X94688747Y-69521134D01*
X94684326Y-69526044D01*
X94684325Y-69526045D01*
X94575203Y-69647238D01*
X94560960Y-69663056D01*
X94465473Y-69828444D01*
X94406458Y-70010072D01*
X94386496Y-70200000D01*
X94387186Y-70206565D01*
X94405239Y-70378326D01*
X94406458Y-70389928D01*
X94465473Y-70571556D01*
X94468776Y-70577278D01*
X94468777Y-70577279D01*
X94560960Y-70736944D01*
X94558223Y-70738524D01*
X94577649Y-70792347D01*
X94561822Y-70861557D01*
X94560886Y-70863013D01*
X94560960Y-70863056D01*
X94494341Y-70978444D01*
X94465473Y-71028444D01*
X94406458Y-71210072D01*
X94386496Y-71400000D01*
X94387186Y-71406565D01*
X94405331Y-71579201D01*
X94406458Y-71589928D01*
X94408499Y-71596210D01*
X94408500Y-71596214D01*
X94427459Y-71654563D01*
X94429487Y-71725530D01*
X94392824Y-71786328D01*
X94358878Y-71808604D01*
X94332648Y-71820282D01*
X94327307Y-71824162D01*
X94327306Y-71824163D01*
X94300781Y-71843435D01*
X94178147Y-71932534D01*
X94173726Y-71937444D01*
X94173725Y-71937445D01*
X94165902Y-71946134D01*
X94050360Y-72074456D01*
X94047059Y-72080174D01*
X93965432Y-72221556D01*
X93954873Y-72239844D01*
X93895858Y-72421472D01*
X93895168Y-72428033D01*
X93895168Y-72428035D01*
X93878077Y-72590651D01*
X93875896Y-72611400D01*
X93876586Y-72617965D01*
X93892558Y-72769926D01*
X93895858Y-72801328D01*
X93954873Y-72982956D01*
X94050360Y-73148344D01*
X94054778Y-73153251D01*
X94054779Y-73153252D01*
X94089911Y-73192270D01*
X94178147Y-73290266D01*
X94332648Y-73402518D01*
X94338676Y-73405202D01*
X94338678Y-73405203D01*
X94501081Y-73477509D01*
X94507112Y-73480194D01*
X94600513Y-73500047D01*
X94687456Y-73518528D01*
X94687461Y-73518528D01*
X94693913Y-73519900D01*
X94749806Y-73519900D01*
X94817927Y-73539902D01*
X94838897Y-73556801D01*
X95779597Y-74497502D01*
X95813621Y-74559812D01*
X95816500Y-74586595D01*
X95816500Y-75126374D01*
X95796498Y-75194495D01*
X95742842Y-75240988D01*
X95672568Y-75251092D01*
X95607988Y-75221598D01*
X95596864Y-75210684D01*
X95565675Y-75176045D01*
X95565674Y-75176044D01*
X95561253Y-75171134D01*
X95424038Y-75071441D01*
X95412094Y-75062763D01*
X95412093Y-75062762D01*
X95406752Y-75058882D01*
X95400724Y-75056198D01*
X95400722Y-75056197D01*
X95238319Y-74983891D01*
X95238318Y-74983891D01*
X95232288Y-74981206D01*
X95138888Y-74961353D01*
X95051944Y-74942872D01*
X95051939Y-74942872D01*
X95045487Y-74941500D01*
X94989595Y-74941500D01*
X94921474Y-74921498D01*
X94900500Y-74904595D01*
X94653652Y-74657747D01*
X94646112Y-74649461D01*
X94642000Y-74642982D01*
X94592348Y-74596356D01*
X94589507Y-74593602D01*
X94569770Y-74573865D01*
X94566573Y-74571385D01*
X94557551Y-74563680D01*
X94531100Y-74538841D01*
X94525321Y-74533414D01*
X94518375Y-74529595D01*
X94518372Y-74529593D01*
X94507566Y-74523652D01*
X94491047Y-74512801D01*
X94490583Y-74512441D01*
X94475041Y-74500386D01*
X94467772Y-74497241D01*
X94467768Y-74497238D01*
X94434463Y-74482826D01*
X94423813Y-74477609D01*
X94385060Y-74456305D01*
X94365437Y-74451267D01*
X94346734Y-74444863D01*
X94335420Y-74439967D01*
X94335419Y-74439967D01*
X94328145Y-74436819D01*
X94320322Y-74435580D01*
X94320312Y-74435577D01*
X94284476Y-74429901D01*
X94272856Y-74427495D01*
X94237711Y-74418472D01*
X94237710Y-74418472D01*
X94230030Y-74416500D01*
X94209776Y-74416500D01*
X94190065Y-74414949D01*
X94177886Y-74413020D01*
X94170057Y-74411780D01*
X94162165Y-74412526D01*
X94126039Y-74415941D01*
X94114181Y-74416500D01*
X81964594Y-74416500D01*
X81896473Y-74396498D01*
X81875499Y-74379595D01*
X80779161Y-73283256D01*
X80745135Y-73220944D01*
X80750200Y-73150128D01*
X80774619Y-73109851D01*
X80851339Y-73024645D01*
X80946826Y-72859257D01*
X81005841Y-72677629D01*
X81006880Y-72667750D01*
X81025113Y-72494266D01*
X81025803Y-72487701D01*
X81005841Y-72297773D01*
X80946826Y-72116145D01*
X80851339Y-71950757D01*
X80746105Y-71833882D01*
X80727974Y-71813746D01*
X80727973Y-71813745D01*
X80723552Y-71808835D01*
X80597158Y-71717004D01*
X80574393Y-71700464D01*
X80574392Y-71700463D01*
X80569051Y-71696583D01*
X80563023Y-71693899D01*
X80563021Y-71693898D01*
X80400618Y-71621592D01*
X80400617Y-71621592D01*
X80394587Y-71618907D01*
X80251879Y-71588573D01*
X80189407Y-71554846D01*
X80155085Y-71492696D01*
X80152767Y-71452157D01*
X80162814Y-71356565D01*
X80163504Y-71350000D01*
X80159105Y-71308148D01*
X80152749Y-71247670D01*
X80165521Y-71177832D01*
X80214023Y-71125985D01*
X80278059Y-71108500D01*
X80295487Y-71108500D01*
X80301939Y-71107128D01*
X80301944Y-71107128D01*
X80388887Y-71088647D01*
X80482288Y-71068794D01*
X80504551Y-71058882D01*
X80650722Y-70993803D01*
X80650724Y-70993802D01*
X80656752Y-70991118D01*
X80811253Y-70878866D01*
X80939040Y-70736944D01*
X81034527Y-70571556D01*
X81093542Y-70389928D01*
X81094762Y-70378326D01*
X81112814Y-70206565D01*
X81113504Y-70200000D01*
X81093542Y-70010072D01*
X81034527Y-69828444D01*
X80939040Y-69663056D01*
X80924798Y-69647238D01*
X80815675Y-69526045D01*
X80815674Y-69526044D01*
X80811253Y-69521134D01*
X80656752Y-69408882D01*
X80650724Y-69406198D01*
X80650722Y-69406197D01*
X80488319Y-69333891D01*
X80488318Y-69333891D01*
X80482288Y-69331206D01*
X80388887Y-69311353D01*
X80301944Y-69292872D01*
X80301939Y-69292872D01*
X80295487Y-69291500D01*
X80104513Y-69291500D01*
X80098061Y-69292872D01*
X80098056Y-69292872D01*
X80011113Y-69311353D01*
X79917712Y-69331206D01*
X79911682Y-69333891D01*
X79911681Y-69333891D01*
X79749278Y-69406197D01*
X79749276Y-69406198D01*
X79743248Y-69408882D01*
X79588747Y-69521134D01*
X79584326Y-69526044D01*
X79584325Y-69526045D01*
X79475203Y-69647238D01*
X79460960Y-69663056D01*
X79365473Y-69828444D01*
X79306458Y-70010072D01*
X79286496Y-70200000D01*
X79287186Y-70206565D01*
X79297251Y-70302330D01*
X79284479Y-70372168D01*
X79235977Y-70424015D01*
X79171941Y-70441500D01*
X79154513Y-70441500D01*
X79148061Y-70442872D01*
X79148056Y-70442872D01*
X79061113Y-70461353D01*
X78967712Y-70481206D01*
X78961682Y-70483891D01*
X78961681Y-70483891D01*
X78799278Y-70556197D01*
X78799276Y-70556198D01*
X78793248Y-70558882D01*
X78638747Y-70671134D01*
X78634326Y-70676044D01*
X78634325Y-70676045D01*
X78522716Y-70800000D01*
X78510960Y-70813056D01*
X78475800Y-70873955D01*
X78436011Y-70942872D01*
X78415473Y-70978444D01*
X78356458Y-71160072D01*
X78355768Y-71166633D01*
X78355768Y-71166635D01*
X78340895Y-71308148D01*
X78336496Y-71350000D01*
X78356458Y-71539928D01*
X78358497Y-71546203D01*
X78358498Y-71546208D01*
X78360238Y-71551562D01*
X78362267Y-71622529D01*
X78325606Y-71683328D01*
X78261894Y-71714654D01*
X78240406Y-71716500D01*
X76978767Y-71716500D01*
X76967584Y-71715973D01*
X76960091Y-71714298D01*
X76952165Y-71714547D01*
X76952164Y-71714547D01*
X76892001Y-71716438D01*
X76888043Y-71716500D01*
X76860144Y-71716500D01*
X76856154Y-71717004D01*
X76844320Y-71717936D01*
X76813392Y-71718909D01*
X76808030Y-71719077D01*
X76808029Y-71719077D01*
X76800491Y-71719314D01*
X76800110Y-71719326D01*
X76800079Y-71718338D01*
X76736616Y-71710138D01*
X76682301Y-71664418D01*
X76667481Y-71633724D01*
X76639045Y-71546208D01*
X76617027Y-71478444D01*
X76521540Y-71313056D01*
X76516918Y-71307922D01*
X76398175Y-71176045D01*
X76398174Y-71176044D01*
X76393753Y-71171134D01*
X76239252Y-71058882D01*
X76233224Y-71056198D01*
X76233222Y-71056197D01*
X76070819Y-70983891D01*
X76070818Y-70983891D01*
X76064788Y-70981206D01*
X75971388Y-70961353D01*
X75884444Y-70942872D01*
X75884439Y-70942872D01*
X75877987Y-70941500D01*
X75687013Y-70941500D01*
X75680561Y-70942872D01*
X75680556Y-70942872D01*
X75593612Y-70961353D01*
X75500212Y-70981206D01*
X75494182Y-70983891D01*
X75494181Y-70983891D01*
X75331778Y-71056197D01*
X75331776Y-71056198D01*
X75325748Y-71058882D01*
X75171247Y-71171134D01*
X75166826Y-71176044D01*
X75166825Y-71176045D01*
X75048083Y-71307922D01*
X75043460Y-71313056D01*
X74947973Y-71478444D01*
X74888958Y-71660072D01*
X74888268Y-71666633D01*
X74888268Y-71666635D01*
X74873323Y-71808835D01*
X74868996Y-71850000D01*
X74869686Y-71856565D01*
X74877671Y-71932534D01*
X74888958Y-72039928D01*
X74947973Y-72221556D01*
X74951276Y-72227278D01*
X74951277Y-72227279D01*
X74970012Y-72259729D01*
X75043460Y-72386944D01*
X75105811Y-72456192D01*
X75136527Y-72520197D01*
X75127762Y-72590651D01*
X75082299Y-72645182D01*
X75012173Y-72666500D01*
X67528768Y-72666500D01*
X67517585Y-72665973D01*
X67510092Y-72664298D01*
X67502166Y-72664547D01*
X67502165Y-72664547D01*
X67442002Y-72666438D01*
X67438044Y-72666500D01*
X67410144Y-72666500D01*
X67406154Y-72667004D01*
X67394320Y-72667936D01*
X67350111Y-72669326D01*
X67342495Y-72671539D01*
X67342493Y-72671539D01*
X67330652Y-72674979D01*
X67311293Y-72678988D01*
X67309983Y-72679154D01*
X67291203Y-72681526D01*
X67283837Y-72684442D01*
X67283831Y-72684444D01*
X67250098Y-72697800D01*
X67238868Y-72701645D01*
X67204017Y-72711770D01*
X67196407Y-72713981D01*
X67189584Y-72718016D01*
X67178966Y-72724295D01*
X67161213Y-72732992D01*
X67153568Y-72736019D01*
X67142383Y-72740448D01*
X67135968Y-72745109D01*
X67106612Y-72766437D01*
X67096695Y-72772951D01*
X67058638Y-72795458D01*
X67044317Y-72809779D01*
X67029284Y-72822619D01*
X67012893Y-72834528D01*
X67007842Y-72840634D01*
X66984702Y-72868605D01*
X66976712Y-72877384D01*
X64357747Y-75496348D01*
X64349461Y-75503888D01*
X64342982Y-75508000D01*
X64337557Y-75513777D01*
X64296357Y-75557651D01*
X64293602Y-75560493D01*
X64273865Y-75580230D01*
X64271385Y-75583427D01*
X64263682Y-75592447D01*
X64233414Y-75624679D01*
X64229595Y-75631625D01*
X64229593Y-75631628D01*
X64223652Y-75642434D01*
X64212801Y-75658953D01*
X64200386Y-75674959D01*
X64197241Y-75682228D01*
X64197238Y-75682232D01*
X64182826Y-75715537D01*
X64177609Y-75726187D01*
X64156305Y-75764940D01*
X64154334Y-75772615D01*
X64154334Y-75772616D01*
X64151267Y-75784562D01*
X64144863Y-75803266D01*
X64136819Y-75821855D01*
X64135580Y-75829678D01*
X64135577Y-75829688D01*
X64129901Y-75865524D01*
X64127495Y-75877144D01*
X64116500Y-75919970D01*
X64116500Y-75940224D01*
X64114949Y-75959934D01*
X64111780Y-75979943D01*
X64112526Y-75987835D01*
X64115941Y-76023961D01*
X64116500Y-76035819D01*
X64116500Y-81815500D01*
X64096498Y-81883621D01*
X64042842Y-81930114D01*
X63990500Y-81941500D01*
X63930013Y-81941500D01*
X63923561Y-81942872D01*
X63923556Y-81942872D01*
X63843302Y-81959931D01*
X63743212Y-81981206D01*
X63737182Y-81983891D01*
X63737181Y-81983891D01*
X63574778Y-82056197D01*
X63574776Y-82056198D01*
X63568748Y-82058882D01*
X63414247Y-82171134D01*
X63409826Y-82176044D01*
X63409825Y-82176045D01*
X63300892Y-82297028D01*
X63286460Y-82313056D01*
X63190973Y-82478444D01*
X63131958Y-82660072D01*
X63131268Y-82666633D01*
X63131268Y-82666635D01*
X63130027Y-82678444D01*
X63111996Y-82850000D01*
X58008000Y-82850000D01*
X58008000Y-68384000D01*
X58028002Y-68315879D01*
X58081658Y-68269386D01*
X58134000Y-68258000D01*
X58702885Y-68258000D01*
X58718124Y-68253525D01*
X58719329Y-68252135D01*
X58721000Y-68244452D01*
X58721000Y-68239884D01*
X59229000Y-68239884D01*
X59233475Y-68255123D01*
X59234865Y-68256328D01*
X59242548Y-68257999D01*
X59869669Y-68257999D01*
X59876490Y-68257629D01*
X59927352Y-68252105D01*
X59942604Y-68248479D01*
X60063054Y-68203324D01*
X60078649Y-68194786D01*
X60180724Y-68118285D01*
X60193285Y-68105724D01*
X60269786Y-68003649D01*
X60278324Y-67988054D01*
X60319225Y-67878952D01*
X60361867Y-67822188D01*
X60428428Y-67797488D01*
X60497777Y-67812696D01*
X60532444Y-67840684D01*
X60557865Y-67870031D01*
X60557869Y-67870035D01*
X60561250Y-67873938D01*
X60733126Y-68016632D01*
X60926000Y-68129338D01*
X61134692Y-68209030D01*
X61139760Y-68210061D01*
X61139763Y-68210062D01*
X61246339Y-68231745D01*
X61353597Y-68253567D01*
X61358772Y-68253757D01*
X61358774Y-68253757D01*
X61571673Y-68261564D01*
X61571677Y-68261564D01*
X61576837Y-68261753D01*
X61581957Y-68261097D01*
X61581959Y-68261097D01*
X61793288Y-68234025D01*
X61793289Y-68234025D01*
X61798416Y-68233368D01*
X61829791Y-68223955D01*
X62007429Y-68170661D01*
X62007434Y-68170659D01*
X62012384Y-68169174D01*
X62212994Y-68070896D01*
X62394860Y-67941173D01*
X62553096Y-67783489D01*
X62556944Y-67778134D01*
X64716500Y-67778134D01*
X64723255Y-67840316D01*
X64774385Y-67976705D01*
X64861739Y-68093261D01*
X64978295Y-68180615D01*
X65114684Y-68231745D01*
X65176866Y-68238500D01*
X66973134Y-68238500D01*
X67035316Y-68231745D01*
X67171705Y-68180615D01*
X67288261Y-68093261D01*
X67375615Y-67976705D01*
X67380346Y-67964086D01*
X67419598Y-67859382D01*
X67462240Y-67802618D01*
X67528802Y-67777918D01*
X67598150Y-67793126D01*
X67632817Y-67821114D01*
X67661250Y-67853938D01*
X67833126Y-67996632D01*
X68026000Y-68109338D01*
X68030825Y-68111180D01*
X68030826Y-68111181D01*
X68078375Y-68129338D01*
X68234692Y-68189030D01*
X68239760Y-68190061D01*
X68239763Y-68190062D01*
X68338067Y-68210062D01*
X68453597Y-68233567D01*
X68458772Y-68233757D01*
X68458774Y-68233757D01*
X68671673Y-68241564D01*
X68671677Y-68241564D01*
X68676837Y-68241753D01*
X68681957Y-68241097D01*
X68681959Y-68241097D01*
X68893288Y-68214025D01*
X68893289Y-68214025D01*
X68898416Y-68213368D01*
X68903366Y-68211883D01*
X69107429Y-68150661D01*
X69107434Y-68150659D01*
X69112384Y-68149174D01*
X69312994Y-68050896D01*
X69494860Y-67921173D01*
X69653096Y-67763489D01*
X69748544Y-67630659D01*
X69783453Y-67582077D01*
X69784776Y-67583028D01*
X69831645Y-67539857D01*
X69901580Y-67527625D01*
X69967026Y-67555144D01*
X69994875Y-67586994D01*
X70054987Y-67685088D01*
X70201250Y-67853938D01*
X70373126Y-67996632D01*
X70566000Y-68109338D01*
X70570825Y-68111180D01*
X70570826Y-68111181D01*
X70618375Y-68129338D01*
X70774692Y-68189030D01*
X70779760Y-68190061D01*
X70779763Y-68190062D01*
X70878067Y-68210062D01*
X70993597Y-68233567D01*
X70998772Y-68233757D01*
X70998774Y-68233757D01*
X71211673Y-68241564D01*
X71211677Y-68241564D01*
X71216837Y-68241753D01*
X71221957Y-68241097D01*
X71221959Y-68241097D01*
X71433288Y-68214025D01*
X71433289Y-68214025D01*
X71438416Y-68213368D01*
X71443366Y-68211883D01*
X71647429Y-68150661D01*
X71647434Y-68150659D01*
X71652384Y-68149174D01*
X71852994Y-68050896D01*
X72034860Y-67921173D01*
X72193096Y-67763489D01*
X72288544Y-67630659D01*
X72323453Y-67582077D01*
X72324776Y-67583028D01*
X72371645Y-67539857D01*
X72441580Y-67527625D01*
X72507026Y-67555144D01*
X72534875Y-67586994D01*
X72594987Y-67685088D01*
X72741250Y-67853938D01*
X72913126Y-67996632D01*
X73106000Y-68109338D01*
X73110825Y-68111180D01*
X73110826Y-68111181D01*
X73158375Y-68129338D01*
X73314692Y-68189030D01*
X73319760Y-68190061D01*
X73319763Y-68190062D01*
X73418067Y-68210062D01*
X73533597Y-68233567D01*
X73538772Y-68233757D01*
X73538774Y-68233757D01*
X73751673Y-68241564D01*
X73751677Y-68241564D01*
X73756837Y-68241753D01*
X73761957Y-68241097D01*
X73761959Y-68241097D01*
X73973288Y-68214025D01*
X73973289Y-68214025D01*
X73978416Y-68213368D01*
X73983366Y-68211883D01*
X74187429Y-68150661D01*
X74187434Y-68150659D01*
X74192384Y-68149174D01*
X74392994Y-68050896D01*
X74574860Y-67921173D01*
X74733096Y-67763489D01*
X74828544Y-67630659D01*
X74863453Y-67582077D01*
X74864776Y-67583028D01*
X74911645Y-67539857D01*
X74981580Y-67527625D01*
X75047026Y-67555144D01*
X75074875Y-67586994D01*
X75134987Y-67685088D01*
X75281250Y-67853938D01*
X75453126Y-67996632D01*
X75646000Y-68109338D01*
X75650825Y-68111180D01*
X75650826Y-68111181D01*
X75698375Y-68129338D01*
X75854692Y-68189030D01*
X75859760Y-68190061D01*
X75859763Y-68190062D01*
X75958067Y-68210062D01*
X76073597Y-68233567D01*
X76078772Y-68233757D01*
X76078774Y-68233757D01*
X76291673Y-68241564D01*
X76291677Y-68241564D01*
X76296837Y-68241753D01*
X76301957Y-68241097D01*
X76301959Y-68241097D01*
X76513288Y-68214025D01*
X76513289Y-68214025D01*
X76518416Y-68213368D01*
X76523366Y-68211883D01*
X76727429Y-68150661D01*
X76727434Y-68150659D01*
X76732384Y-68149174D01*
X76932994Y-68050896D01*
X77114860Y-67921173D01*
X77273096Y-67763489D01*
X77368544Y-67630659D01*
X77400435Y-67586277D01*
X77403453Y-67582077D01*
X77419307Y-67550000D01*
X92036496Y-67550000D01*
X92037186Y-67556565D01*
X92053328Y-67710144D01*
X92056458Y-67739928D01*
X92115473Y-67921556D01*
X92210960Y-68086944D01*
X92215378Y-68091851D01*
X92215379Y-68091852D01*
X92325384Y-68214025D01*
X92338747Y-68228866D01*
X92493248Y-68341118D01*
X92499276Y-68343802D01*
X92499278Y-68343803D01*
X92589563Y-68384000D01*
X92667712Y-68418794D01*
X92761113Y-68438647D01*
X92848056Y-68457128D01*
X92848061Y-68457128D01*
X92854513Y-68458500D01*
X93045487Y-68458500D01*
X93051939Y-68457128D01*
X93051944Y-68457128D01*
X93138887Y-68438647D01*
X93232288Y-68418794D01*
X93310437Y-68384000D01*
X93400722Y-68343803D01*
X93400724Y-68343802D01*
X93406752Y-68341118D01*
X93561253Y-68228866D01*
X93574616Y-68214025D01*
X93684621Y-68091852D01*
X93684622Y-68091851D01*
X93689040Y-68086944D01*
X93784527Y-67921556D01*
X93843542Y-67739928D01*
X93846673Y-67710144D01*
X93862814Y-67556565D01*
X93863504Y-67550000D01*
X93843542Y-67360072D01*
X93784527Y-67178444D01*
X93689040Y-67013056D01*
X93650190Y-66969908D01*
X93565675Y-66876045D01*
X93565674Y-66876044D01*
X93561253Y-66871134D01*
X93406752Y-66758882D01*
X93400724Y-66756198D01*
X93400722Y-66756197D01*
X93238319Y-66683891D01*
X93238318Y-66683891D01*
X93232288Y-66681206D01*
X93120107Y-66657361D01*
X93051944Y-66642872D01*
X93051939Y-66642872D01*
X93045487Y-66641500D01*
X92854513Y-66641500D01*
X92848061Y-66642872D01*
X92848056Y-66642872D01*
X92779893Y-66657361D01*
X92667712Y-66681206D01*
X92661682Y-66683891D01*
X92661681Y-66683891D01*
X92499278Y-66756197D01*
X92499276Y-66756198D01*
X92493248Y-66758882D01*
X92338747Y-66871134D01*
X92334326Y-66876044D01*
X92334325Y-66876045D01*
X92249811Y-66969908D01*
X92210960Y-67013056D01*
X92115473Y-67178444D01*
X92056458Y-67360072D01*
X92036496Y-67550000D01*
X77419307Y-67550000D01*
X77500136Y-67386453D01*
X77500137Y-67386451D01*
X77502430Y-67381811D01*
X77567370Y-67168069D01*
X77596529Y-66946590D01*
X77597585Y-66903365D01*
X77598074Y-66883365D01*
X77598074Y-66883361D01*
X77598156Y-66880000D01*
X77579852Y-66657361D01*
X77525431Y-66440702D01*
X77436354Y-66235840D01*
X77396906Y-66174862D01*
X77317822Y-66052617D01*
X77317820Y-66052614D01*
X77315014Y-66048277D01*
X77164670Y-65883051D01*
X77160619Y-65879852D01*
X77160615Y-65879848D01*
X76993414Y-65747800D01*
X76993410Y-65747798D01*
X76989359Y-65744598D01*
X76948053Y-65721796D01*
X76898084Y-65671364D01*
X76883312Y-65601921D01*
X76908428Y-65535516D01*
X76935780Y-65508909D01*
X76992651Y-65468343D01*
X77114860Y-65381173D01*
X77273096Y-65223489D01*
X77294428Y-65193803D01*
X77400435Y-65046277D01*
X77403453Y-65042077D01*
X77424320Y-64999857D01*
X77500136Y-64846453D01*
X77500137Y-64846451D01*
X77502430Y-64841811D01*
X77549276Y-64687623D01*
X77565865Y-64633023D01*
X77565865Y-64633021D01*
X77567370Y-64628069D01*
X77596529Y-64406590D01*
X77596690Y-64400000D01*
X77598074Y-64343365D01*
X77598074Y-64343361D01*
X77598156Y-64340000D01*
X77579852Y-64117361D01*
X77525431Y-63900702D01*
X77436354Y-63695840D01*
X77396843Y-63634765D01*
X77317822Y-63512617D01*
X77317820Y-63512614D01*
X77315014Y-63508277D01*
X77170993Y-63350000D01*
X82686496Y-63350000D01*
X82687186Y-63356565D01*
X82703588Y-63512617D01*
X82706458Y-63539928D01*
X82765473Y-63721556D01*
X82860960Y-63886944D01*
X82865378Y-63891851D01*
X82865379Y-63891852D01*
X82901587Y-63932065D01*
X82988747Y-64028866D01*
X83057566Y-64078866D01*
X83128312Y-64130266D01*
X83143248Y-64141118D01*
X83149276Y-64143802D01*
X83149278Y-64143803D01*
X83246833Y-64187237D01*
X83317712Y-64218794D01*
X83411065Y-64238637D01*
X83498056Y-64257128D01*
X83498061Y-64257128D01*
X83504513Y-64258500D01*
X83695487Y-64258500D01*
X83701939Y-64257128D01*
X83701944Y-64257128D01*
X83788935Y-64238637D01*
X83882288Y-64218794D01*
X83953167Y-64187237D01*
X84050722Y-64143803D01*
X84050724Y-64143802D01*
X84056752Y-64141118D01*
X84071689Y-64130266D01*
X84142434Y-64078866D01*
X84211253Y-64028866D01*
X84298413Y-63932065D01*
X84334621Y-63891852D01*
X84334622Y-63891851D01*
X84339040Y-63886944D01*
X84434527Y-63721556D01*
X84493542Y-63539928D01*
X84496413Y-63512617D01*
X84508249Y-63400000D01*
X87086496Y-63400000D01*
X87087186Y-63406565D01*
X87102524Y-63552494D01*
X87106458Y-63589928D01*
X87165473Y-63771556D01*
X87260960Y-63936944D01*
X87388747Y-64078866D01*
X87543248Y-64191118D01*
X87549276Y-64193802D01*
X87549278Y-64193803D01*
X87710841Y-64265735D01*
X87717712Y-64268794D01*
X87796985Y-64285644D01*
X87898056Y-64307128D01*
X87898061Y-64307128D01*
X87904513Y-64308500D01*
X88095487Y-64308500D01*
X88101939Y-64307128D01*
X88101944Y-64307128D01*
X88203015Y-64285644D01*
X88282288Y-64268794D01*
X88289159Y-64265735D01*
X88450722Y-64193803D01*
X88450724Y-64193802D01*
X88456752Y-64191118D01*
X88611253Y-64078866D01*
X88739040Y-63936944D01*
X88834527Y-63771556D01*
X88893542Y-63589928D01*
X88897477Y-63552494D01*
X88912814Y-63406565D01*
X88913504Y-63400000D01*
X88907559Y-63343435D01*
X88894232Y-63216635D01*
X88894232Y-63216633D01*
X88893542Y-63210072D01*
X88834527Y-63028444D01*
X88830847Y-63022069D01*
X88762476Y-62903649D01*
X88739040Y-62863056D01*
X88721805Y-62843914D01*
X88615675Y-62726045D01*
X88615674Y-62726044D01*
X88611253Y-62721134D01*
X88512157Y-62649136D01*
X88462094Y-62612763D01*
X88462093Y-62612762D01*
X88456752Y-62608882D01*
X88450724Y-62606198D01*
X88450722Y-62606197D01*
X88288319Y-62533891D01*
X88288318Y-62533891D01*
X88282288Y-62531206D01*
X88188887Y-62511353D01*
X88101944Y-62492872D01*
X88101939Y-62492872D01*
X88095487Y-62491500D01*
X87904513Y-62491500D01*
X87898061Y-62492872D01*
X87898056Y-62492872D01*
X87811113Y-62511353D01*
X87717712Y-62531206D01*
X87711682Y-62533891D01*
X87711681Y-62533891D01*
X87549278Y-62606197D01*
X87549276Y-62606198D01*
X87543248Y-62608882D01*
X87537907Y-62612762D01*
X87537906Y-62612763D01*
X87487843Y-62649136D01*
X87388747Y-62721134D01*
X87384326Y-62726044D01*
X87384325Y-62726045D01*
X87278196Y-62843914D01*
X87260960Y-62863056D01*
X87237524Y-62903649D01*
X87169154Y-63022069D01*
X87165473Y-63028444D01*
X87106458Y-63210072D01*
X87105768Y-63216633D01*
X87105768Y-63216635D01*
X87092441Y-63343435D01*
X87086496Y-63400000D01*
X84508249Y-63400000D01*
X84512814Y-63356565D01*
X84513504Y-63350000D01*
X84504889Y-63268035D01*
X84494232Y-63166635D01*
X84494232Y-63166633D01*
X84493542Y-63160072D01*
X84434527Y-62978444D01*
X84339040Y-62813056D01*
X84299973Y-62769667D01*
X84215675Y-62676045D01*
X84215674Y-62676044D01*
X84211253Y-62671134D01*
X84056752Y-62558882D01*
X84050724Y-62556198D01*
X84050722Y-62556197D01*
X83888319Y-62483891D01*
X83888318Y-62483891D01*
X83882288Y-62481206D01*
X83786780Y-62460905D01*
X83701944Y-62442872D01*
X83701939Y-62442872D01*
X83695487Y-62441500D01*
X83504513Y-62441500D01*
X83498061Y-62442872D01*
X83498056Y-62442872D01*
X83413220Y-62460905D01*
X83317712Y-62481206D01*
X83311682Y-62483891D01*
X83311681Y-62483891D01*
X83149278Y-62556197D01*
X83149276Y-62556198D01*
X83143248Y-62558882D01*
X82988747Y-62671134D01*
X82984326Y-62676044D01*
X82984325Y-62676045D01*
X82900028Y-62769667D01*
X82860960Y-62813056D01*
X82765473Y-62978444D01*
X82706458Y-63160072D01*
X82705768Y-63166633D01*
X82705768Y-63166635D01*
X82695111Y-63268035D01*
X82686496Y-63350000D01*
X77170993Y-63350000D01*
X77164670Y-63343051D01*
X77160619Y-63339852D01*
X77160615Y-63339848D01*
X76993414Y-63207800D01*
X76993410Y-63207798D01*
X76989359Y-63204598D01*
X76947569Y-63181529D01*
X76897598Y-63131097D01*
X76882826Y-63061654D01*
X76907942Y-62995248D01*
X76935294Y-62968641D01*
X77110328Y-62843792D01*
X77118200Y-62837139D01*
X77269052Y-62686812D01*
X77275730Y-62678965D01*
X77400003Y-62506020D01*
X77405313Y-62497183D01*
X77499670Y-62306267D01*
X77503469Y-62296672D01*
X77565377Y-62092910D01*
X77567555Y-62082837D01*
X77568986Y-62071962D01*
X77566775Y-62057778D01*
X77553617Y-62054000D01*
X64735116Y-62054000D01*
X64719877Y-62058475D01*
X64718672Y-62059865D01*
X64717001Y-62067548D01*
X64717001Y-62694669D01*
X64717371Y-62701490D01*
X64722895Y-62752352D01*
X64726521Y-62767604D01*
X64771676Y-62888054D01*
X64780214Y-62903649D01*
X64847942Y-62994018D01*
X64872790Y-63060525D01*
X64857737Y-63129907D01*
X64847942Y-63145148D01*
X64774385Y-63243295D01*
X64723255Y-63379684D01*
X64716500Y-63441866D01*
X64716500Y-65238134D01*
X64723255Y-65300316D01*
X64774385Y-65436705D01*
X64847630Y-65534435D01*
X64872478Y-65600941D01*
X64857425Y-65670324D01*
X64847632Y-65685562D01*
X64774385Y-65783295D01*
X64723255Y-65919684D01*
X64716500Y-65981866D01*
X64716500Y-67778134D01*
X62556944Y-67778134D01*
X62567468Y-67763489D01*
X62680435Y-67606277D01*
X62683453Y-67602077D01*
X62688828Y-67591203D01*
X62780136Y-67406453D01*
X62780137Y-67406451D01*
X62782430Y-67401811D01*
X62847370Y-67188069D01*
X62876529Y-66966590D01*
X62878156Y-66900000D01*
X62859852Y-66677361D01*
X62805431Y-66460702D01*
X62716354Y-66255840D01*
X62595014Y-66068277D01*
X62444670Y-65903051D01*
X62440619Y-65899852D01*
X62440615Y-65899848D01*
X62273414Y-65767800D01*
X62273410Y-65767798D01*
X62269359Y-65764598D01*
X62238930Y-65747800D01*
X62126190Y-65685565D01*
X62073789Y-65656638D01*
X62068920Y-65654914D01*
X62068916Y-65654912D01*
X61868087Y-65583795D01*
X61868083Y-65583794D01*
X61863212Y-65582069D01*
X61858119Y-65581162D01*
X61858116Y-65581161D01*
X61648373Y-65543800D01*
X61648367Y-65543799D01*
X61643284Y-65542894D01*
X61569452Y-65541992D01*
X61425081Y-65540228D01*
X61425079Y-65540228D01*
X61419911Y-65540165D01*
X61199091Y-65573955D01*
X60986756Y-65643357D01*
X60956443Y-65659137D01*
X60827027Y-65726507D01*
X60788607Y-65746507D01*
X60784474Y-65749610D01*
X60784471Y-65749612D01*
X60631624Y-65864373D01*
X60609965Y-65880635D01*
X60606393Y-65884373D01*
X60528898Y-65965466D01*
X60467374Y-66000895D01*
X60396462Y-65997438D01*
X60338676Y-65956192D01*
X60319823Y-65922644D01*
X60278324Y-65811946D01*
X60269786Y-65796351D01*
X60193285Y-65694276D01*
X60180724Y-65681715D01*
X60078649Y-65605214D01*
X60063054Y-65596676D01*
X59942606Y-65551522D01*
X59927351Y-65547895D01*
X59876486Y-65542369D01*
X59869672Y-65542000D01*
X59247115Y-65542000D01*
X59231876Y-65546475D01*
X59230671Y-65547865D01*
X59229000Y-65555548D01*
X59229000Y-68239884D01*
X58721000Y-68239884D01*
X58721000Y-65560116D01*
X58716525Y-65544877D01*
X58715135Y-65543672D01*
X58707452Y-65542001D01*
X58134000Y-65542001D01*
X58065879Y-65521999D01*
X58019386Y-65468343D01*
X58008000Y-65416001D01*
X58008000Y-64686032D01*
X58028002Y-64617911D01*
X58081658Y-64571418D01*
X58151932Y-64561314D01*
X58213038Y-64587904D01*
X58425486Y-64759023D01*
X58431659Y-64763409D01*
X58702271Y-64932178D01*
X58708931Y-64935794D01*
X58997852Y-65070827D01*
X59004905Y-65073620D01*
X59307970Y-65172970D01*
X59315282Y-65174888D01*
X59628092Y-65237109D01*
X59635590Y-65238137D01*
X59953610Y-65262328D01*
X59961173Y-65262446D01*
X60279785Y-65248257D01*
X60287326Y-65247465D01*
X60601924Y-65195101D01*
X60609302Y-65193411D01*
X60915355Y-65103625D01*
X60922450Y-65101071D01*
X61215496Y-64975169D01*
X61222263Y-64971765D01*
X61498042Y-64811580D01*
X61504349Y-64807390D01*
X61714305Y-64648889D01*
X61722761Y-64637496D01*
X61716045Y-64625256D01*
X59729885Y-62639095D01*
X59695859Y-62576783D01*
X59700924Y-62505967D01*
X59729885Y-62460905D01*
X59910905Y-62279885D01*
X59973217Y-62245859D01*
X60044032Y-62250924D01*
X60089095Y-62279885D01*
X62073285Y-64264074D01*
X62086408Y-64271240D01*
X62096709Y-64263851D01*
X62200751Y-64136055D01*
X62205164Y-64129914D01*
X62375349Y-63860187D01*
X62379005Y-63853536D01*
X62515544Y-63565335D01*
X62518375Y-63558295D01*
X62619306Y-63255767D01*
X62621270Y-63248433D01*
X62685122Y-62935989D01*
X62686194Y-62928465D01*
X62712173Y-62609051D01*
X62712378Y-62604576D01*
X62712927Y-62552221D01*
X62712817Y-62547789D01*
X62693529Y-62227853D01*
X62692621Y-62220351D01*
X62635319Y-61906593D01*
X62633518Y-61899260D01*
X62538935Y-61594655D01*
X62536263Y-61587583D01*
X62405781Y-61296570D01*
X62402264Y-61289843D01*
X62237771Y-61016621D01*
X62233481Y-61010377D01*
X62037350Y-60758889D01*
X62032333Y-60753199D01*
X62002154Y-60722861D01*
X61968293Y-60660460D01*
X61973543Y-60589658D01*
X62016239Y-60532934D01*
X62082824Y-60508298D01*
X62091483Y-60508000D01*
X64670702Y-60508000D01*
X64738823Y-60528002D01*
G37*
%TD.AperFunction*%
%TA.AperFunction,Conductor*%
G36*
X76677424Y-73572647D02*
G01*
X76734260Y-73615194D01*
X76758702Y-73677532D01*
X76776758Y-73849328D01*
X76835773Y-74030956D01*
X76931260Y-74196344D01*
X77059047Y-74338266D01*
X77115931Y-74379595D01*
X77205765Y-74444863D01*
X77213548Y-74450518D01*
X77219576Y-74453202D01*
X77219578Y-74453203D01*
X77367090Y-74518879D01*
X77388012Y-74528194D01*
X77481412Y-74548047D01*
X77568356Y-74566528D01*
X77568361Y-74566528D01*
X77574813Y-74567900D01*
X77765787Y-74567900D01*
X77772239Y-74566528D01*
X77772244Y-74566528D01*
X77859188Y-74548047D01*
X77952588Y-74528194D01*
X77973510Y-74518879D01*
X78121022Y-74453203D01*
X78121024Y-74453202D01*
X78127052Y-74450518D01*
X78134836Y-74444863D01*
X78259971Y-74353946D01*
X78281553Y-74338266D01*
X78285968Y-74333363D01*
X78290880Y-74328940D01*
X78292005Y-74330189D01*
X78345314Y-74297349D01*
X78378500Y-74292900D01*
X78844806Y-74292900D01*
X78912927Y-74312902D01*
X78933901Y-74329805D01*
X79845083Y-75240988D01*
X80746348Y-76142253D01*
X80753888Y-76150539D01*
X80758000Y-76157018D01*
X80763777Y-76162443D01*
X80807651Y-76203643D01*
X80810493Y-76206398D01*
X80830230Y-76226135D01*
X80833427Y-76228615D01*
X80842447Y-76236318D01*
X80874679Y-76266586D01*
X80881625Y-76270405D01*
X80881628Y-76270407D01*
X80892434Y-76276348D01*
X80908953Y-76287199D01*
X80924959Y-76299614D01*
X80932228Y-76302759D01*
X80932232Y-76302762D01*
X80965537Y-76317174D01*
X80976187Y-76322391D01*
X81014940Y-76343695D01*
X81022615Y-76345666D01*
X81022616Y-76345666D01*
X81034562Y-76348733D01*
X81053267Y-76355137D01*
X81071855Y-76363181D01*
X81079678Y-76364420D01*
X81079688Y-76364423D01*
X81115524Y-76370099D01*
X81127144Y-76372505D01*
X81162289Y-76381528D01*
X81169970Y-76383500D01*
X81190224Y-76383500D01*
X81209934Y-76385051D01*
X81229943Y-76388220D01*
X81237835Y-76387474D01*
X81273961Y-76384059D01*
X81285819Y-76383500D01*
X93435406Y-76383500D01*
X93503527Y-76403502D01*
X93524501Y-76420405D01*
X94002878Y-76898782D01*
X94036904Y-76961094D01*
X94039092Y-76974703D01*
X94056458Y-77139928D01*
X94115473Y-77321556D01*
X94210960Y-77486944D01*
X94215378Y-77491851D01*
X94215379Y-77491852D01*
X94313717Y-77601067D01*
X94338747Y-77628866D01*
X94493248Y-77741118D01*
X94499276Y-77743802D01*
X94499278Y-77743803D01*
X94661681Y-77816109D01*
X94667712Y-77818794D01*
X94761113Y-77838647D01*
X94848056Y-77857128D01*
X94848061Y-77857128D01*
X94854513Y-77858500D01*
X95045487Y-77858500D01*
X95051939Y-77857128D01*
X95051944Y-77857128D01*
X95138887Y-77838647D01*
X95232288Y-77818794D01*
X95238319Y-77816109D01*
X95400722Y-77743803D01*
X95400724Y-77743802D01*
X95406752Y-77741118D01*
X95561253Y-77628866D01*
X95592195Y-77594502D01*
X95596864Y-77589316D01*
X95657310Y-77552076D01*
X95728294Y-77553428D01*
X95787278Y-77592941D01*
X95815536Y-77658072D01*
X95816500Y-77673626D01*
X95816500Y-79835406D01*
X95796498Y-79903527D01*
X95779595Y-79924501D01*
X93799500Y-81904595D01*
X93737188Y-81938621D01*
X93710405Y-81941500D01*
X93654513Y-81941500D01*
X93648061Y-81942872D01*
X93648056Y-81942872D01*
X93567802Y-81959931D01*
X93467712Y-81981206D01*
X93461682Y-81983891D01*
X93461681Y-81983891D01*
X93299278Y-82056197D01*
X93299276Y-82056198D01*
X93293248Y-82058882D01*
X93138747Y-82171134D01*
X93134326Y-82176044D01*
X93134325Y-82176045D01*
X93025392Y-82297028D01*
X93010960Y-82313056D01*
X92915473Y-82478444D01*
X92856458Y-82660072D01*
X92855768Y-82666633D01*
X92855768Y-82666635D01*
X92854527Y-82678444D01*
X92836496Y-82850000D01*
X92856458Y-83039928D01*
X92915473Y-83221556D01*
X92918776Y-83227278D01*
X92918777Y-83227279D01*
X92929705Y-83246206D01*
X93010960Y-83386944D01*
X93015378Y-83391851D01*
X93015379Y-83391852D01*
X93114545Y-83501987D01*
X93138747Y-83528866D01*
X93196463Y-83570799D01*
X93224454Y-83591136D01*
X93267808Y-83647358D01*
X93273883Y-83718095D01*
X93240751Y-83780886D01*
X93178931Y-83815798D01*
X93135917Y-83818011D01*
X93130030Y-83816500D01*
X93109776Y-83816500D01*
X93090065Y-83814949D01*
X93077886Y-83813020D01*
X93070057Y-83811780D01*
X93027552Y-83815798D01*
X93026039Y-83815941D01*
X93014181Y-83816500D01*
X90515347Y-83816500D01*
X90447226Y-83796498D01*
X90400733Y-83742842D01*
X90390629Y-83672568D01*
X90421709Y-83606192D01*
X90439040Y-83586944D01*
X90513197Y-83458500D01*
X90531223Y-83427279D01*
X90531224Y-83427278D01*
X90534527Y-83421556D01*
X90593542Y-83239928D01*
X90594872Y-83227279D01*
X90612814Y-83056565D01*
X90613504Y-83050000D01*
X90593542Y-82860072D01*
X90534527Y-82678444D01*
X90439040Y-82513056D01*
X90412873Y-82483994D01*
X90315675Y-82376045D01*
X90315674Y-82376044D01*
X90311253Y-82371134D01*
X90183283Y-82278158D01*
X90162094Y-82262763D01*
X90162093Y-82262762D01*
X90156752Y-82258882D01*
X90150724Y-82256198D01*
X90150722Y-82256197D01*
X89988319Y-82183891D01*
X89988318Y-82183891D01*
X89982288Y-82181206D01*
X89888887Y-82161353D01*
X89801944Y-82142872D01*
X89801939Y-82142872D01*
X89795487Y-82141500D01*
X89604513Y-82141500D01*
X89598061Y-82142872D01*
X89598056Y-82142872D01*
X89511113Y-82161353D01*
X89417712Y-82181206D01*
X89411682Y-82183891D01*
X89411681Y-82183891D01*
X89249278Y-82256197D01*
X89249276Y-82256198D01*
X89243248Y-82258882D01*
X89237907Y-82262762D01*
X89237906Y-82262763D01*
X89160814Y-82318774D01*
X89088747Y-82371134D01*
X89084332Y-82376037D01*
X89079420Y-82380460D01*
X89078295Y-82379211D01*
X89024986Y-82412051D01*
X88991800Y-82416500D01*
X81864594Y-82416500D01*
X81796473Y-82396498D01*
X81775499Y-82379595D01*
X79045905Y-79650000D01*
X84836496Y-79650000D01*
X84856458Y-79839928D01*
X84915473Y-80021556D01*
X85010960Y-80186944D01*
X85138747Y-80328866D01*
X85293248Y-80441118D01*
X85299276Y-80443802D01*
X85299278Y-80443803D01*
X85461681Y-80516109D01*
X85467712Y-80518794D01*
X85561113Y-80538647D01*
X85648056Y-80557128D01*
X85648061Y-80557128D01*
X85654513Y-80558500D01*
X85845487Y-80558500D01*
X85851939Y-80557128D01*
X85851944Y-80557128D01*
X85938887Y-80538647D01*
X86032288Y-80518794D01*
X86038319Y-80516109D01*
X86200722Y-80443803D01*
X86200724Y-80443802D01*
X86206752Y-80441118D01*
X86361253Y-80328866D01*
X86489040Y-80186944D01*
X86584527Y-80021556D01*
X86643542Y-79839928D01*
X86663504Y-79650000D01*
X86643542Y-79460072D01*
X86584527Y-79278444D01*
X86489040Y-79113056D01*
X86361253Y-78971134D01*
X86206752Y-78858882D01*
X86200724Y-78856198D01*
X86200722Y-78856197D01*
X86038319Y-78783891D01*
X86038318Y-78783891D01*
X86032288Y-78781206D01*
X85938887Y-78761353D01*
X85851944Y-78742872D01*
X85851939Y-78742872D01*
X85845487Y-78741500D01*
X85722254Y-78741500D01*
X85656399Y-78722163D01*
X85613244Y-78749898D01*
X85603942Y-78752249D01*
X85467712Y-78781206D01*
X85461682Y-78783891D01*
X85461681Y-78783891D01*
X85299278Y-78856197D01*
X85299276Y-78856198D01*
X85293248Y-78858882D01*
X85138747Y-78971134D01*
X85010960Y-79113056D01*
X84915473Y-79278444D01*
X84856458Y-79460072D01*
X84836496Y-79650000D01*
X79045905Y-79650000D01*
X76990407Y-77594502D01*
X84636496Y-77594502D01*
X84656458Y-77784430D01*
X84715473Y-77966058D01*
X84810960Y-78131446D01*
X84938747Y-78273368D01*
X85093248Y-78385620D01*
X85099276Y-78388304D01*
X85099278Y-78388305D01*
X85261681Y-78460611D01*
X85267712Y-78463296D01*
X85361112Y-78483149D01*
X85448056Y-78501630D01*
X85448061Y-78501630D01*
X85454513Y-78503002D01*
X85577746Y-78503002D01*
X85643601Y-78522339D01*
X85686756Y-78494604D01*
X85696057Y-78492253D01*
X85707145Y-78489896D01*
X85832288Y-78463296D01*
X85838319Y-78460611D01*
X86000722Y-78388305D01*
X86000724Y-78388304D01*
X86006752Y-78385620D01*
X86161253Y-78273368D01*
X86289040Y-78131446D01*
X86384527Y-77966058D01*
X86443542Y-77784430D01*
X86463504Y-77594502D01*
X86443542Y-77404574D01*
X86384527Y-77222946D01*
X86289040Y-77057558D01*
X86192195Y-76950000D01*
X86165675Y-76920547D01*
X86165674Y-76920546D01*
X86161253Y-76915636D01*
X86006752Y-76803384D01*
X86000724Y-76800700D01*
X86000722Y-76800699D01*
X85838319Y-76728393D01*
X85838318Y-76728393D01*
X85832288Y-76725708D01*
X85738887Y-76705855D01*
X85651944Y-76687374D01*
X85651939Y-76687374D01*
X85645487Y-76686002D01*
X85454513Y-76686002D01*
X85448061Y-76687374D01*
X85448056Y-76687374D01*
X85361113Y-76705855D01*
X85267712Y-76725708D01*
X85261682Y-76728393D01*
X85261681Y-76728393D01*
X85099278Y-76800699D01*
X85099276Y-76800700D01*
X85093248Y-76803384D01*
X84938747Y-76915636D01*
X84934326Y-76920546D01*
X84934325Y-76920547D01*
X84907806Y-76950000D01*
X84810960Y-77057558D01*
X84715473Y-77222946D01*
X84656458Y-77404574D01*
X84636496Y-77594502D01*
X76990407Y-77594502D01*
X76051994Y-76656089D01*
X76017968Y-76593777D01*
X76023033Y-76522962D01*
X76065580Y-76466126D01*
X76114890Y-76443748D01*
X76232288Y-76418794D01*
X76266635Y-76403502D01*
X76400722Y-76343803D01*
X76400724Y-76343802D01*
X76406752Y-76341118D01*
X76561253Y-76228866D01*
X76581483Y-76206398D01*
X76684621Y-76091852D01*
X76684622Y-76091851D01*
X76689040Y-76086944D01*
X76784527Y-75921556D01*
X76843542Y-75739928D01*
X76850371Y-75674959D01*
X76862814Y-75556565D01*
X76863504Y-75550000D01*
X76852749Y-75447670D01*
X76844232Y-75366635D01*
X76844232Y-75366633D01*
X76843542Y-75360072D01*
X76784527Y-75178444D01*
X76689040Y-75013056D01*
X76674798Y-74997238D01*
X76565675Y-74876045D01*
X76565674Y-74876044D01*
X76561253Y-74871134D01*
X76406752Y-74758882D01*
X76400724Y-74756198D01*
X76400722Y-74756197D01*
X76238319Y-74683891D01*
X76238318Y-74683891D01*
X76232288Y-74681206D01*
X76121923Y-74657747D01*
X76051944Y-74642872D01*
X76051939Y-74642872D01*
X76045487Y-74641500D01*
X75854513Y-74641500D01*
X75848061Y-74642872D01*
X75848056Y-74642872D01*
X75778077Y-74657747D01*
X75667712Y-74681206D01*
X75661682Y-74683891D01*
X75661681Y-74683891D01*
X75499278Y-74756197D01*
X75499276Y-74756198D01*
X75493248Y-74758882D01*
X75338747Y-74871134D01*
X75334326Y-74876044D01*
X75334325Y-74876045D01*
X75225203Y-74997238D01*
X75210960Y-75013056D01*
X75115473Y-75178444D01*
X75056458Y-75360072D01*
X75055768Y-75366638D01*
X75055493Y-75369252D01*
X75054911Y-75370666D01*
X75054394Y-75373100D01*
X75053949Y-75373005D01*
X75028484Y-75434910D01*
X74970264Y-75475543D01*
X74899319Y-75478250D01*
X74841088Y-75445183D01*
X74553652Y-75157747D01*
X74546112Y-75149461D01*
X74542000Y-75142982D01*
X74492348Y-75096356D01*
X74489507Y-75093602D01*
X74469770Y-75073865D01*
X74466573Y-75071385D01*
X74457551Y-75063680D01*
X74425321Y-75033414D01*
X74418375Y-75029595D01*
X74418372Y-75029593D01*
X74407566Y-75023652D01*
X74391047Y-75012801D01*
X74385048Y-75008148D01*
X74375041Y-75000386D01*
X74367772Y-74997241D01*
X74367768Y-74997238D01*
X74334463Y-74982826D01*
X74323813Y-74977609D01*
X74285060Y-74956305D01*
X74265437Y-74951267D01*
X74246734Y-74944863D01*
X74235420Y-74939967D01*
X74235419Y-74939967D01*
X74228145Y-74936819D01*
X74220322Y-74935580D01*
X74220312Y-74935577D01*
X74184476Y-74929901D01*
X74172856Y-74927495D01*
X74137711Y-74918472D01*
X74137710Y-74918472D01*
X74130030Y-74916500D01*
X74109776Y-74916500D01*
X74090065Y-74914949D01*
X74077886Y-74913020D01*
X74070057Y-74911780D01*
X74062165Y-74912526D01*
X74026039Y-74915941D01*
X74014181Y-74916500D01*
X72308200Y-74916500D01*
X72240079Y-74896498D01*
X72220853Y-74880157D01*
X72220580Y-74880460D01*
X72215668Y-74876037D01*
X72211253Y-74871134D01*
X72056752Y-74758882D01*
X72050724Y-74756198D01*
X72050722Y-74756197D01*
X71888319Y-74683891D01*
X71888318Y-74683891D01*
X71882288Y-74681206D01*
X71771923Y-74657747D01*
X71701944Y-74642872D01*
X71701939Y-74642872D01*
X71695487Y-74641500D01*
X71628059Y-74641500D01*
X71559938Y-74621498D01*
X71513445Y-74567842D01*
X71502749Y-74502330D01*
X71512814Y-74406565D01*
X71513504Y-74400000D01*
X71502715Y-74297349D01*
X71494232Y-74216635D01*
X71494232Y-74216633D01*
X71493542Y-74210072D01*
X71457269Y-74098436D01*
X71455241Y-74027469D01*
X71491904Y-73966671D01*
X71555616Y-73935345D01*
X71577102Y-73933500D01*
X75871233Y-73933500D01*
X75882416Y-73934027D01*
X75889909Y-73935702D01*
X75897835Y-73935453D01*
X75897836Y-73935453D01*
X75957986Y-73933562D01*
X75961945Y-73933500D01*
X75989856Y-73933500D01*
X75993791Y-73933003D01*
X75993856Y-73932995D01*
X76005693Y-73932062D01*
X76037951Y-73931048D01*
X76041970Y-73930922D01*
X76049889Y-73930673D01*
X76069343Y-73925021D01*
X76088700Y-73921013D01*
X76100930Y-73919468D01*
X76100931Y-73919468D01*
X76108797Y-73918474D01*
X76116168Y-73915555D01*
X76116170Y-73915555D01*
X76149912Y-73902196D01*
X76161142Y-73898351D01*
X76195983Y-73888229D01*
X76195984Y-73888229D01*
X76203593Y-73886018D01*
X76210412Y-73881985D01*
X76210417Y-73881983D01*
X76221028Y-73875707D01*
X76238776Y-73867012D01*
X76257617Y-73859552D01*
X76271690Y-73849328D01*
X76293387Y-73833564D01*
X76303307Y-73827048D01*
X76334535Y-73808580D01*
X76334538Y-73808578D01*
X76341362Y-73804542D01*
X76355683Y-73790221D01*
X76370717Y-73777380D01*
X76380694Y-73770131D01*
X76387107Y-73765472D01*
X76392158Y-73759367D01*
X76392163Y-73759362D01*
X76415299Y-73731396D01*
X76423287Y-73722618D01*
X76544297Y-73601608D01*
X76606609Y-73567582D01*
X76677424Y-73572647D01*
G37*
%TD.AperFunction*%
%TD*%
M02*
