G04 #@! TF.GenerationSoftware,KiCad,Pcbnew,(6.0.11)*
G04 #@! TF.CreationDate,2023-03-15T17:37:52+01:00*
G04 #@! TF.ProjectId,ProtoBoard,50726f74-6f42-46f6-9172-642e6b696361,rev?*
G04 #@! TF.SameCoordinates,Original*
G04 #@! TF.FileFunction,Soldermask,Bot*
G04 #@! TF.FilePolarity,Negative*
%FSLAX46Y46*%
G04 Gerber Fmt 4.6, Leading zero omitted, Abs format (unit mm)*
G04 Created by KiCad (PCBNEW (6.0.11)) date 2023-03-15 17:37:52*
%MOMM*%
%LPD*%
G01*
G04 APERTURE LIST*
%ADD10R,1.700000X1.700000*%
%ADD11O,1.700000X1.700000*%
%ADD12C,4.400000*%
%ADD13C,0.700000*%
%ADD14O,2.100000X1.050000*%
%ADD15C,1.500000*%
%ADD16R,1.100000X4.600000*%
%ADD17R,10.800000X9.400000*%
G04 APERTURE END LIST*
D10*
X71600000Y-66190000D03*
D11*
X74140000Y-66190000D03*
X76680000Y-66190000D03*
X79220000Y-66190000D03*
X81760000Y-66190000D03*
X84300000Y-66190000D03*
X86840000Y-66190000D03*
X89380000Y-66190000D03*
X91920000Y-66190000D03*
X94460000Y-66190000D03*
D10*
X56825000Y-68730000D03*
D11*
X59365000Y-68730000D03*
X61905000Y-68730000D03*
X64445000Y-68730000D03*
X66985000Y-68730000D03*
D10*
X71600000Y-68730000D03*
D11*
X74140000Y-68730000D03*
X76680000Y-68730000D03*
X79220000Y-68730000D03*
X81760000Y-68730000D03*
X84300000Y-68730000D03*
X86840000Y-68730000D03*
X89380000Y-68730000D03*
X91920000Y-68730000D03*
X94460000Y-68730000D03*
D10*
X71600000Y-63650000D03*
D11*
X74140000Y-63650000D03*
X76680000Y-63650000D03*
X79220000Y-63650000D03*
X81760000Y-63650000D03*
X84300000Y-63650000D03*
X86840000Y-63650000D03*
X89380000Y-63650000D03*
X91920000Y-63650000D03*
X94460000Y-63650000D03*
D10*
X102150000Y-69750000D03*
D11*
X102150000Y-72290000D03*
X102150000Y-74830000D03*
X102150000Y-77370000D03*
X102150000Y-79910000D03*
X102150000Y-82450000D03*
X102150000Y-84990000D03*
X102150000Y-87530000D03*
D12*
X50650000Y-64550000D03*
D10*
X56825000Y-66190000D03*
D11*
X59365000Y-66190000D03*
X61905000Y-66190000D03*
X64445000Y-66190000D03*
X66985000Y-66190000D03*
D10*
X56825000Y-63650000D03*
D11*
X59365000Y-63650000D03*
X61905000Y-63650000D03*
X64445000Y-63650000D03*
X66985000Y-63650000D03*
D10*
X97150000Y-102250000D03*
D11*
X99690000Y-102250000D03*
X102230000Y-102250000D03*
D12*
X50650000Y-106750000D03*
D10*
X49650000Y-69750000D03*
D11*
X49650000Y-72290000D03*
X49650000Y-74830000D03*
X49650000Y-77370000D03*
X49650000Y-79910000D03*
X49650000Y-82450000D03*
X49650000Y-84990000D03*
X49650000Y-87530000D03*
D13*
X98500000Y-91860000D03*
X98500000Y-97640000D03*
D14*
X97970000Y-99070000D03*
X97970000Y-90430000D03*
X102150000Y-99070000D03*
X102150000Y-90430000D03*
D12*
X100650000Y-64750000D03*
D10*
X63750000Y-108150000D03*
D11*
X61210000Y-108150000D03*
X58670000Y-108150000D03*
X56130000Y-108150000D03*
D12*
X100650000Y-106750000D03*
D15*
X74650000Y-78750000D03*
X71150000Y-86250000D03*
D16*
X85190000Y-86525000D03*
D17*
X82650000Y-77375000D03*
D16*
X80110000Y-86525000D03*
X65190000Y-86525000D03*
D17*
X62650000Y-77375000D03*
D16*
X60110000Y-86525000D03*
M02*
