%TF.GenerationSoftware,KiCad,Pcbnew,(6.0.0-0)*%
%TF.CreationDate,2022-04-22T00:51:05+02:00*%
%TF.ProjectId,ProtoBoard,50726f74-6f42-46f6-9172-642e6b696361,rev?*%
%TF.SameCoordinates,Original*%
%TF.FileFunction,Paste,Bot*%
%TF.FilePolarity,Positive*%
%FSLAX46Y46*%
G04 Gerber Fmt 4.6, Leading zero omitted, Abs format (unit mm)*
G04 Created by KiCad (PCBNEW (6.0.0-0)) date 2022-04-22 00:51:05*
%MOMM*%
%LPD*%
G01*
G04 APERTURE LIST*
G04 Aperture macros list*
%AMRoundRect*
0 Rectangle with rounded corners*
0 $1 Rounding radius*
0 $2 $3 $4 $5 $6 $7 $8 $9 X,Y pos of 4 corners*
0 Add a 4 corners polygon primitive as box body*
4,1,4,$2,$3,$4,$5,$6,$7,$8,$9,$2,$3,0*
0 Add four circle primitives for the rounded corners*
1,1,$1+$1,$2,$3*
1,1,$1+$1,$4,$5*
1,1,$1+$1,$6,$7*
1,1,$1+$1,$8,$9*
0 Add four rect primitives between the rounded corners*
20,1,$1+$1,$2,$3,$4,$5,0*
20,1,$1+$1,$4,$5,$6,$7,0*
20,1,$1+$1,$6,$7,$8,$9,0*
20,1,$1+$1,$8,$9,$2,$3,0*%
G04 Aperture macros list end*
%ADD10RoundRect,0.140000X-0.140000X-0.170000X0.140000X-0.170000X0.140000X0.170000X-0.140000X0.170000X0*%
%ADD11R,2.000000X0.900000*%
%ADD12R,0.900000X2.000000*%
%ADD13R,5.000000X5.000000*%
%ADD14RoundRect,0.140000X-0.170000X0.140000X-0.170000X-0.140000X0.170000X-0.140000X0.170000X0.140000X0*%
%ADD15RoundRect,0.135000X0.135000X0.185000X-0.135000X0.185000X-0.135000X-0.185000X0.135000X-0.185000X0*%
%ADD16R,0.508000X1.003300*%
%ADD17RoundRect,0.140000X0.170000X-0.140000X0.170000X0.140000X-0.170000X0.140000X-0.170000X-0.140000X0*%
%ADD18RoundRect,0.135000X0.185000X-0.135000X0.185000X0.135000X-0.185000X0.135000X-0.185000X-0.135000X0*%
%ADD19R,5.250000X4.550000*%
%ADD20R,1.100000X4.600000*%
%ADD21RoundRect,0.140000X0.140000X0.170000X-0.140000X0.170000X-0.140000X-0.170000X0.140000X-0.170000X0*%
G04 APERTURE END LIST*
D10*
%TO.C,C6*%
X64370000Y-88350000D03*
X65330000Y-88350000D03*
%TD*%
D11*
%TO.C,U1*%
X74750000Y-93505000D03*
X74750000Y-92235000D03*
X74750000Y-90965000D03*
X74750000Y-89695000D03*
X74750000Y-88425000D03*
X74750000Y-87155000D03*
X74750000Y-85885000D03*
X74750000Y-84615000D03*
X74750000Y-83345000D03*
X74750000Y-82075000D03*
X74750000Y-80805000D03*
X74750000Y-79535000D03*
X74750000Y-78265000D03*
X74750000Y-76995000D03*
D12*
X77535000Y-75995000D03*
X78805000Y-75995000D03*
X80075000Y-75995000D03*
X81345000Y-75995000D03*
X82615000Y-75995000D03*
X83885000Y-75995000D03*
X85155000Y-75995000D03*
X86425000Y-75995000D03*
X87695000Y-75995000D03*
X88965000Y-75995000D03*
D11*
X91750000Y-76995000D03*
X91750000Y-78265000D03*
X91750000Y-79535000D03*
X91750000Y-80805000D03*
X91750000Y-82075000D03*
X91750000Y-83345000D03*
X91750000Y-84615000D03*
X91750000Y-85885000D03*
X91750000Y-87155000D03*
X91750000Y-88425000D03*
X91750000Y-89695000D03*
X91750000Y-90965000D03*
X91750000Y-92235000D03*
X91750000Y-93505000D03*
D13*
X82250000Y-86005000D03*
%TD*%
D14*
%TO.C,C4*%
X71050000Y-92470000D03*
X71050000Y-93430000D03*
%TD*%
D10*
%TO.C,C8*%
X101170000Y-87500000D03*
X102130000Y-87500000D03*
%TD*%
D15*
%TO.C,R10*%
X86960000Y-66050000D03*
X85940000Y-66050000D03*
%TD*%
D14*
%TO.C,C3*%
X72250000Y-92470000D03*
X72250000Y-93430000D03*
%TD*%
D16*
%TO.C,U8*%
X87950001Y-64502550D03*
X87000000Y-64502550D03*
X86049999Y-64502550D03*
X86049999Y-61797450D03*
X87950001Y-61797450D03*
%TD*%
D17*
%TO.C,C9*%
X104200000Y-68600000D03*
X104200000Y-67640000D03*
%TD*%
D15*
%TO.C,R12*%
X91210000Y-66100000D03*
X90190000Y-66100000D03*
%TD*%
D16*
%TO.C,U10*%
X92150001Y-64502550D03*
X91200000Y-64502550D03*
X90249999Y-64502550D03*
X90249999Y-61797450D03*
X92150001Y-61797450D03*
%TD*%
%TO.C,U9*%
X83700001Y-64502550D03*
X82750000Y-64502550D03*
X81799999Y-64502550D03*
X81799999Y-61797450D03*
X83700001Y-61797450D03*
%TD*%
D18*
%TO.C,R8*%
X67300000Y-92010000D03*
X67300000Y-90990000D03*
%TD*%
D15*
%TO.C,R11*%
X82760000Y-66050000D03*
X81740000Y-66050000D03*
%TD*%
D19*
%TO.C,U6*%
X98775000Y-72300000D03*
X104325000Y-72300000D03*
X104325000Y-77150000D03*
X98775000Y-77150000D03*
D20*
X104090000Y-83875000D03*
X99010000Y-83875000D03*
%TD*%
D17*
%TO.C,C2*%
X65900000Y-91980000D03*
X65900000Y-91020000D03*
%TD*%
D19*
%TO.C,U3*%
X61625000Y-77900000D03*
X61625000Y-73050000D03*
X67175000Y-73050000D03*
X67175000Y-77900000D03*
D20*
X66940000Y-84625000D03*
X61860000Y-84625000D03*
%TD*%
D21*
%TO.C,C7*%
X64880000Y-69650000D03*
X63920000Y-69650000D03*
%TD*%
D15*
%TO.C,R9*%
X97260000Y-66050000D03*
X96240000Y-66050000D03*
%TD*%
D16*
%TO.C,U7*%
X98200001Y-64552550D03*
X97250000Y-64552550D03*
X96299999Y-64552550D03*
X96299999Y-61847450D03*
X98200001Y-61847450D03*
%TD*%
M02*
