%TF.GenerationSoftware,KiCad,Pcbnew,(6.0.0-0)*%
%TF.CreationDate,2022-04-22T00:51:05+02:00*%
%TF.ProjectId,ProtoBoard,50726f74-6f42-46f6-9172-642e6b696361,rev?*%
%TF.SameCoordinates,Original*%
%TF.FileFunction,Legend,Top*%
%TF.FilePolarity,Positive*%
%FSLAX46Y46*%
G04 Gerber Fmt 4.6, Leading zero omitted, Abs format (unit mm)*
G04 Created by KiCad (PCBNEW (6.0.0-0)) date 2022-04-22 00:51:05*
%MOMM*%
%LPD*%
G01*
G04 APERTURE LIST*
%ADD10C,0.200000*%
%ADD11C,0.100000*%
%ADD12C,0.150000*%
%ADD13C,0.127000*%
%ADD14C,0.120000*%
%ADD15C,0.250000*%
%ADD16C,0.254000*%
%ADD17C,0.398780*%
G04 APERTURE END LIST*
D10*
X61069047Y-64921428D02*
X61830952Y-64921428D01*
X61450000Y-65302380D02*
X61450000Y-64540476D01*
D11*
X100885714Y-72840476D02*
X100885714Y-72459523D01*
X101076190Y-72650000D02*
X100695238Y-72650000D01*
X98759523Y-88385714D02*
X99140476Y-88385714D01*
X98950000Y-88576190D02*
X98950000Y-88195238D01*
X81309523Y-66585714D02*
X81690476Y-66585714D01*
X87345238Y-66776190D02*
X87345238Y-66276190D01*
X87511904Y-66633333D01*
X87678571Y-66276190D01*
X87678571Y-66776190D01*
X87869047Y-66276190D02*
X88178571Y-66276190D01*
X88011904Y-66466666D01*
X88083333Y-66466666D01*
X88130952Y-66490476D01*
X88154761Y-66514285D01*
X88178571Y-66561904D01*
X88178571Y-66680952D01*
X88154761Y-66728571D01*
X88130952Y-66752380D01*
X88083333Y-66776190D01*
X87940476Y-66776190D01*
X87892857Y-66752380D01*
X87869047Y-66728571D01*
D10*
X63828571Y-63919047D02*
X63828571Y-64680952D01*
X63447619Y-64300000D02*
X64209523Y-64300000D01*
D11*
X97509523Y-88385714D02*
X97890476Y-88385714D01*
D10*
X63828571Y-61419047D02*
X63828571Y-62180952D01*
X63495238Y-66835714D02*
X63447619Y-66930952D01*
X63447619Y-67121428D01*
X63495238Y-67216666D01*
X63590476Y-67264285D01*
X63638095Y-67264285D01*
X63733333Y-67216666D01*
X63780952Y-67121428D01*
X63780952Y-66978571D01*
X63828571Y-66883333D01*
X63923809Y-66835714D01*
X63971428Y-66835714D01*
X64066666Y-66883333D01*
X64114285Y-66978571D01*
X64114285Y-67121428D01*
X64066666Y-67216666D01*
D11*
X77159523Y-88385714D02*
X77540476Y-88385714D01*
X77350000Y-88576190D02*
X77350000Y-88195238D01*
X83645238Y-66776190D02*
X83645238Y-66276190D01*
X83811904Y-66633333D01*
X83978571Y-66276190D01*
X83978571Y-66776190D01*
X84430952Y-66276190D02*
X84335714Y-66276190D01*
X84288095Y-66300000D01*
X84264285Y-66323809D01*
X84216666Y-66395238D01*
X84192857Y-66490476D01*
X84192857Y-66680952D01*
X84216666Y-66728571D01*
X84240476Y-66752380D01*
X84288095Y-66776190D01*
X84383333Y-66776190D01*
X84430952Y-66752380D01*
X84454761Y-66728571D01*
X84478571Y-66680952D01*
X84478571Y-66561904D01*
X84454761Y-66514285D01*
X84430952Y-66490476D01*
X84383333Y-66466666D01*
X84288095Y-66466666D01*
X84240476Y-66490476D01*
X84216666Y-66514285D01*
X84192857Y-66561904D01*
D12*
X78321428Y-87397380D02*
X78321428Y-86397380D01*
X78702380Y-86397380D01*
X78797619Y-86445000D01*
X78845238Y-86492619D01*
X78892857Y-86587857D01*
X78892857Y-86730714D01*
X78845238Y-86825952D01*
X78797619Y-86873571D01*
X78702380Y-86921190D01*
X78321428Y-86921190D01*
X79321428Y-87397380D02*
X79321428Y-86730714D01*
X79321428Y-86921190D02*
X79369047Y-86825952D01*
X79416666Y-86778333D01*
X79511904Y-86730714D01*
X79607142Y-86730714D01*
X80083333Y-87397380D02*
X79988095Y-87349761D01*
X79940476Y-87302142D01*
X79892857Y-87206904D01*
X79892857Y-86921190D01*
X79940476Y-86825952D01*
X79988095Y-86778333D01*
X80083333Y-86730714D01*
X80226190Y-86730714D01*
X80321428Y-86778333D01*
X80369047Y-86825952D01*
X80416666Y-86921190D01*
X80416666Y-87206904D01*
X80369047Y-87302142D01*
X80321428Y-87349761D01*
X80226190Y-87397380D01*
X80083333Y-87397380D01*
X80702380Y-86730714D02*
X81083333Y-86730714D01*
X80845238Y-86397380D02*
X80845238Y-87254523D01*
X80892857Y-87349761D01*
X80988095Y-87397380D01*
X81083333Y-87397380D01*
X81559523Y-87397380D02*
X81464285Y-87349761D01*
X81416666Y-87302142D01*
X81369047Y-87206904D01*
X81369047Y-86921190D01*
X81416666Y-86825952D01*
X81464285Y-86778333D01*
X81559523Y-86730714D01*
X81702380Y-86730714D01*
X81797619Y-86778333D01*
X81845238Y-86825952D01*
X81892857Y-86921190D01*
X81892857Y-87206904D01*
X81845238Y-87302142D01*
X81797619Y-87349761D01*
X81702380Y-87397380D01*
X81559523Y-87397380D01*
X82654761Y-86873571D02*
X82797619Y-86921190D01*
X82845238Y-86968809D01*
X82892857Y-87064047D01*
X82892857Y-87206904D01*
X82845238Y-87302142D01*
X82797619Y-87349761D01*
X82702380Y-87397380D01*
X82321428Y-87397380D01*
X82321428Y-86397380D01*
X82654761Y-86397380D01*
X82750000Y-86445000D01*
X82797619Y-86492619D01*
X82845238Y-86587857D01*
X82845238Y-86683095D01*
X82797619Y-86778333D01*
X82750000Y-86825952D01*
X82654761Y-86873571D01*
X82321428Y-86873571D01*
X83464285Y-87397380D02*
X83369047Y-87349761D01*
X83321428Y-87302142D01*
X83273809Y-87206904D01*
X83273809Y-86921190D01*
X83321428Y-86825952D01*
X83369047Y-86778333D01*
X83464285Y-86730714D01*
X83607142Y-86730714D01*
X83702380Y-86778333D01*
X83750000Y-86825952D01*
X83797619Y-86921190D01*
X83797619Y-87206904D01*
X83750000Y-87302142D01*
X83702380Y-87349761D01*
X83607142Y-87397380D01*
X83464285Y-87397380D01*
X84654761Y-87397380D02*
X84654761Y-86873571D01*
X84607142Y-86778333D01*
X84511904Y-86730714D01*
X84321428Y-86730714D01*
X84226190Y-86778333D01*
X84654761Y-87349761D02*
X84559523Y-87397380D01*
X84321428Y-87397380D01*
X84226190Y-87349761D01*
X84178571Y-87254523D01*
X84178571Y-87159285D01*
X84226190Y-87064047D01*
X84321428Y-87016428D01*
X84559523Y-87016428D01*
X84654761Y-86968809D01*
X85130952Y-87397380D02*
X85130952Y-86730714D01*
X85130952Y-86921190D02*
X85178571Y-86825952D01*
X85226190Y-86778333D01*
X85321428Y-86730714D01*
X85416666Y-86730714D01*
X86178571Y-87397380D02*
X86178571Y-86397380D01*
X86178571Y-87349761D02*
X86083333Y-87397380D01*
X85892857Y-87397380D01*
X85797619Y-87349761D01*
X85750000Y-87302142D01*
X85702380Y-87206904D01*
X85702380Y-86921190D01*
X85750000Y-86825952D01*
X85797619Y-86778333D01*
X85892857Y-86730714D01*
X86083333Y-86730714D01*
X86178571Y-86778333D01*
X80726190Y-88007380D02*
X81059523Y-89007380D01*
X81392857Y-88007380D01*
X81916666Y-88007380D02*
X82011904Y-88007380D01*
X82107142Y-88055000D01*
X82154761Y-88102619D01*
X82202380Y-88197857D01*
X82250000Y-88388333D01*
X82250000Y-88626428D01*
X82202380Y-88816904D01*
X82154761Y-88912142D01*
X82107142Y-88959761D01*
X82011904Y-89007380D01*
X81916666Y-89007380D01*
X81821428Y-88959761D01*
X81773809Y-88912142D01*
X81726190Y-88816904D01*
X81678571Y-88626428D01*
X81678571Y-88388333D01*
X81726190Y-88197857D01*
X81773809Y-88102619D01*
X81821428Y-88055000D01*
X81916666Y-88007380D01*
X82678571Y-88912142D02*
X82726190Y-88959761D01*
X82678571Y-89007380D01*
X82630952Y-88959761D01*
X82678571Y-88912142D01*
X82678571Y-89007380D01*
X83678571Y-89007380D02*
X83107142Y-89007380D01*
X83392857Y-89007380D02*
X83392857Y-88007380D01*
X83297619Y-88150238D01*
X83202380Y-88245476D01*
X83107142Y-88293095D01*
D10*
X58569047Y-64921428D02*
X59330952Y-64921428D01*
D11*
X64714285Y-82659523D02*
X64714285Y-83040476D01*
X64523809Y-82850000D02*
X64904761Y-82850000D01*
X75909523Y-88385714D02*
X76290476Y-88385714D01*
X89845238Y-66776190D02*
X89845238Y-66276190D01*
X90011904Y-66633333D01*
X90178571Y-66276190D01*
X90178571Y-66776190D01*
X90678571Y-66776190D02*
X90392857Y-66776190D01*
X90535714Y-66776190D02*
X90535714Y-66276190D01*
X90488095Y-66347619D01*
X90440476Y-66395238D01*
X90392857Y-66419047D01*
X64714285Y-81409523D02*
X64714285Y-81790476D01*
X100885714Y-74090476D02*
X100885714Y-73709523D01*
X84845238Y-66776190D02*
X84845238Y-66276190D01*
X85011904Y-66633333D01*
X85178571Y-66276190D01*
X85178571Y-66776190D01*
X85654761Y-66276190D02*
X85416666Y-66276190D01*
X85392857Y-66514285D01*
X85416666Y-66490476D01*
X85464285Y-66466666D01*
X85583333Y-66466666D01*
X85630952Y-66490476D01*
X85654761Y-66514285D01*
X85678571Y-66561904D01*
X85678571Y-66680952D01*
X85654761Y-66728571D01*
X85630952Y-66752380D01*
X85583333Y-66776190D01*
X85464285Y-66776190D01*
X85416666Y-66752380D01*
X85392857Y-66728571D01*
X86145238Y-66776190D02*
X86145238Y-66276190D01*
X86311904Y-66633333D01*
X86478571Y-66276190D01*
X86478571Y-66776190D01*
X86930952Y-66442857D02*
X86930952Y-66776190D01*
X86811904Y-66252380D02*
X86692857Y-66609523D01*
X87002380Y-66609523D01*
X82559523Y-66585714D02*
X82940476Y-66585714D01*
X88645238Y-66776190D02*
X88645238Y-66276190D01*
X88811904Y-66633333D01*
X88978571Y-66276190D01*
X88978571Y-66776190D01*
X89192857Y-66323809D02*
X89216666Y-66300000D01*
X89264285Y-66276190D01*
X89383333Y-66276190D01*
X89430952Y-66300000D01*
X89454761Y-66323809D01*
X89478571Y-66371428D01*
X89478571Y-66419047D01*
X89454761Y-66490476D01*
X89169047Y-66776190D01*
X89478571Y-66776190D01*
%TO.C,J7*%
X71533333Y-87626190D02*
X71533333Y-87983333D01*
X71509523Y-88054761D01*
X71461904Y-88102380D01*
X71390476Y-88126190D01*
X71342857Y-88126190D01*
X71723809Y-87626190D02*
X72057142Y-87626190D01*
X71842857Y-88126190D01*
%TO.C,IC3*%
X92411904Y-71626190D02*
X92411904Y-71126190D01*
X92935714Y-71578571D02*
X92911904Y-71602380D01*
X92840476Y-71626190D01*
X92792857Y-71626190D01*
X92721428Y-71602380D01*
X92673809Y-71554761D01*
X92650000Y-71507142D01*
X92626190Y-71411904D01*
X92626190Y-71340476D01*
X92650000Y-71245238D01*
X92673809Y-71197619D01*
X92721428Y-71150000D01*
X92792857Y-71126190D01*
X92840476Y-71126190D01*
X92911904Y-71150000D01*
X92935714Y-71173809D01*
X93102380Y-71126190D02*
X93411904Y-71126190D01*
X93245238Y-71316666D01*
X93316666Y-71316666D01*
X93364285Y-71340476D01*
X93388095Y-71364285D01*
X93411904Y-71411904D01*
X93411904Y-71530952D01*
X93388095Y-71578571D01*
X93364285Y-71602380D01*
X93316666Y-71626190D01*
X93173809Y-71626190D01*
X93126190Y-71602380D01*
X93102380Y-71578571D01*
%TO.C,R5*%
X98316666Y-72776190D02*
X98150000Y-72538095D01*
X98030952Y-72776190D02*
X98030952Y-72276190D01*
X98221428Y-72276190D01*
X98269047Y-72300000D01*
X98292857Y-72323809D01*
X98316666Y-72371428D01*
X98316666Y-72442857D01*
X98292857Y-72490476D01*
X98269047Y-72514285D01*
X98221428Y-72538095D01*
X98030952Y-72538095D01*
X98769047Y-72276190D02*
X98530952Y-72276190D01*
X98507142Y-72514285D01*
X98530952Y-72490476D01*
X98578571Y-72466666D01*
X98697619Y-72466666D01*
X98745238Y-72490476D01*
X98769047Y-72514285D01*
X98792857Y-72561904D01*
X98792857Y-72680952D01*
X98769047Y-72728571D01*
X98745238Y-72752380D01*
X98697619Y-72776190D01*
X98578571Y-72776190D01*
X98530952Y-72752380D01*
X98507142Y-72728571D01*
%TO.C,J9*%
X64176190Y-77316666D02*
X64533333Y-77316666D01*
X64604761Y-77340476D01*
X64652380Y-77388095D01*
X64676190Y-77459523D01*
X64676190Y-77507142D01*
X64676190Y-77054761D02*
X64676190Y-76959523D01*
X64652380Y-76911904D01*
X64628571Y-76888095D01*
X64557142Y-76840476D01*
X64461904Y-76816666D01*
X64271428Y-76816666D01*
X64223809Y-76840476D01*
X64200000Y-76864285D01*
X64176190Y-76911904D01*
X64176190Y-77007142D01*
X64200000Y-77054761D01*
X64223809Y-77078571D01*
X64271428Y-77102380D01*
X64390476Y-77102380D01*
X64438095Y-77078571D01*
X64461904Y-77054761D01*
X64485714Y-77007142D01*
X64485714Y-76911904D01*
X64461904Y-76864285D01*
X64438095Y-76840476D01*
X64390476Y-76816666D01*
%TO.C,IC2*%
X86811904Y-71676190D02*
X86811904Y-71176190D01*
X87335714Y-71628571D02*
X87311904Y-71652380D01*
X87240476Y-71676190D01*
X87192857Y-71676190D01*
X87121428Y-71652380D01*
X87073809Y-71604761D01*
X87050000Y-71557142D01*
X87026190Y-71461904D01*
X87026190Y-71390476D01*
X87050000Y-71295238D01*
X87073809Y-71247619D01*
X87121428Y-71200000D01*
X87192857Y-71176190D01*
X87240476Y-71176190D01*
X87311904Y-71200000D01*
X87335714Y-71223809D01*
X87526190Y-71223809D02*
X87550000Y-71200000D01*
X87597619Y-71176190D01*
X87716666Y-71176190D01*
X87764285Y-71200000D01*
X87788095Y-71223809D01*
X87811904Y-71271428D01*
X87811904Y-71319047D01*
X87788095Y-71390476D01*
X87502380Y-71676190D01*
X87811904Y-71676190D01*
%TO.C,R15*%
X98328571Y-71676190D02*
X98161904Y-71438095D01*
X98042857Y-71676190D02*
X98042857Y-71176190D01*
X98233333Y-71176190D01*
X98280952Y-71200000D01*
X98304761Y-71223809D01*
X98328571Y-71271428D01*
X98328571Y-71342857D01*
X98304761Y-71390476D01*
X98280952Y-71414285D01*
X98233333Y-71438095D01*
X98042857Y-71438095D01*
X98804761Y-71676190D02*
X98519047Y-71676190D01*
X98661904Y-71676190D02*
X98661904Y-71176190D01*
X98614285Y-71247619D01*
X98566666Y-71295238D01*
X98519047Y-71319047D01*
X99257142Y-71176190D02*
X99019047Y-71176190D01*
X98995238Y-71414285D01*
X99019047Y-71390476D01*
X99066666Y-71366666D01*
X99185714Y-71366666D01*
X99233333Y-71390476D01*
X99257142Y-71414285D01*
X99280952Y-71461904D01*
X99280952Y-71580952D01*
X99257142Y-71628571D01*
X99233333Y-71652380D01*
X99185714Y-71676190D01*
X99066666Y-71676190D01*
X99019047Y-71652380D01*
X98995238Y-71628571D01*
%TO.C,R4*%
X75616666Y-70426190D02*
X75450000Y-70188095D01*
X75330952Y-70426190D02*
X75330952Y-69926190D01*
X75521428Y-69926190D01*
X75569047Y-69950000D01*
X75592857Y-69973809D01*
X75616666Y-70021428D01*
X75616666Y-70092857D01*
X75592857Y-70140476D01*
X75569047Y-70164285D01*
X75521428Y-70188095D01*
X75330952Y-70188095D01*
X76045238Y-70092857D02*
X76045238Y-70426190D01*
X75926190Y-69902380D02*
X75807142Y-70259523D01*
X76116666Y-70259523D01*
%TO.C,J4*%
X93133333Y-87576190D02*
X93133333Y-87933333D01*
X93109523Y-88004761D01*
X93061904Y-88052380D01*
X92990476Y-88076190D01*
X92942857Y-88076190D01*
X93585714Y-87742857D02*
X93585714Y-88076190D01*
X93466666Y-87552380D02*
X93347619Y-87909523D01*
X93657142Y-87909523D01*
%TO.C,R6*%
X97666666Y-66726190D02*
X97500000Y-66488095D01*
X97380952Y-66726190D02*
X97380952Y-66226190D01*
X97571428Y-66226190D01*
X97619047Y-66250000D01*
X97642857Y-66273809D01*
X97666666Y-66321428D01*
X97666666Y-66392857D01*
X97642857Y-66440476D01*
X97619047Y-66464285D01*
X97571428Y-66488095D01*
X97380952Y-66488095D01*
X98095238Y-66226190D02*
X98000000Y-66226190D01*
X97952380Y-66250000D01*
X97928571Y-66273809D01*
X97880952Y-66345238D01*
X97857142Y-66440476D01*
X97857142Y-66630952D01*
X97880952Y-66678571D01*
X97904761Y-66702380D01*
X97952380Y-66726190D01*
X98047619Y-66726190D01*
X98095238Y-66702380D01*
X98119047Y-66678571D01*
X98142857Y-66630952D01*
X98142857Y-66511904D01*
X98119047Y-66464285D01*
X98095238Y-66440476D01*
X98047619Y-66416666D01*
X97952380Y-66416666D01*
X97904761Y-66440476D01*
X97880952Y-66464285D01*
X97857142Y-66511904D01*
%TO.C,U4*%
X95076190Y-81430952D02*
X95480952Y-81430952D01*
X95528571Y-81407142D01*
X95552380Y-81383333D01*
X95576190Y-81335714D01*
X95576190Y-81240476D01*
X95552380Y-81192857D01*
X95528571Y-81169047D01*
X95480952Y-81145238D01*
X95076190Y-81145238D01*
X95242857Y-80692857D02*
X95576190Y-80692857D01*
X95052380Y-80811904D02*
X95409523Y-80930952D01*
X95409523Y-80621428D01*
%TO.C,R3*%
X98316666Y-70426190D02*
X98150000Y-70188095D01*
X98030952Y-70426190D02*
X98030952Y-69926190D01*
X98221428Y-69926190D01*
X98269047Y-69950000D01*
X98292857Y-69973809D01*
X98316666Y-70021428D01*
X98316666Y-70092857D01*
X98292857Y-70140476D01*
X98269047Y-70164285D01*
X98221428Y-70188095D01*
X98030952Y-70188095D01*
X98483333Y-69926190D02*
X98792857Y-69926190D01*
X98626190Y-70116666D01*
X98697619Y-70116666D01*
X98745238Y-70140476D01*
X98769047Y-70164285D01*
X98792857Y-70211904D01*
X98792857Y-70330952D01*
X98769047Y-70378571D01*
X98745238Y-70402380D01*
X98697619Y-70426190D01*
X98554761Y-70426190D01*
X98507142Y-70402380D01*
X98483333Y-70378571D01*
%TO.C,R2*%
X75616666Y-72726190D02*
X75450000Y-72488095D01*
X75330952Y-72726190D02*
X75330952Y-72226190D01*
X75521428Y-72226190D01*
X75569047Y-72250000D01*
X75592857Y-72273809D01*
X75616666Y-72321428D01*
X75616666Y-72392857D01*
X75592857Y-72440476D01*
X75569047Y-72464285D01*
X75521428Y-72488095D01*
X75330952Y-72488095D01*
X75807142Y-72273809D02*
X75830952Y-72250000D01*
X75878571Y-72226190D01*
X75997619Y-72226190D01*
X76045238Y-72250000D01*
X76069047Y-72273809D01*
X76092857Y-72321428D01*
X76092857Y-72369047D01*
X76069047Y-72440476D01*
X75783333Y-72726190D01*
X76092857Y-72726190D01*
%TO.C,R7*%
X96166666Y-66726190D02*
X96000000Y-66488095D01*
X95880952Y-66726190D02*
X95880952Y-66226190D01*
X96071428Y-66226190D01*
X96119047Y-66250000D01*
X96142857Y-66273809D01*
X96166666Y-66321428D01*
X96166666Y-66392857D01*
X96142857Y-66440476D01*
X96119047Y-66464285D01*
X96071428Y-66488095D01*
X95880952Y-66488095D01*
X96333333Y-66226190D02*
X96666666Y-66226190D01*
X96452380Y-66726190D01*
%TO.C,J2*%
X85683333Y-67076190D02*
X85683333Y-67433333D01*
X85659523Y-67504761D01*
X85611904Y-67552380D01*
X85540476Y-67576190D01*
X85492857Y-67576190D01*
X85897619Y-67123809D02*
X85921428Y-67100000D01*
X85969047Y-67076190D01*
X86088095Y-67076190D01*
X86135714Y-67100000D01*
X86159523Y-67123809D01*
X86183333Y-67171428D01*
X86183333Y-67219047D01*
X86159523Y-67290476D01*
X85873809Y-67576190D01*
X86183333Y-67576190D01*
%TO.C,J11*%
X99976190Y-78654761D02*
X100333333Y-78654761D01*
X100404761Y-78678571D01*
X100452380Y-78726190D01*
X100476190Y-78797619D01*
X100476190Y-78845238D01*
X100476190Y-78154761D02*
X100476190Y-78440476D01*
X100476190Y-78297619D02*
X99976190Y-78297619D01*
X100047619Y-78345238D01*
X100095238Y-78392857D01*
X100119047Y-78440476D01*
X100476190Y-77678571D02*
X100476190Y-77964285D01*
X100476190Y-77821428D02*
X99976190Y-77821428D01*
X100047619Y-77869047D01*
X100095238Y-77916666D01*
X100119047Y-77964285D01*
%TO.C,R14*%
X84626190Y-79421428D02*
X84388095Y-79588095D01*
X84626190Y-79707142D02*
X84126190Y-79707142D01*
X84126190Y-79516666D01*
X84150000Y-79469047D01*
X84173809Y-79445238D01*
X84221428Y-79421428D01*
X84292857Y-79421428D01*
X84340476Y-79445238D01*
X84364285Y-79469047D01*
X84388095Y-79516666D01*
X84388095Y-79707142D01*
X84626190Y-78945238D02*
X84626190Y-79230952D01*
X84626190Y-79088095D02*
X84126190Y-79088095D01*
X84197619Y-79135714D01*
X84245238Y-79183333D01*
X84269047Y-79230952D01*
X84292857Y-78516666D02*
X84626190Y-78516666D01*
X84102380Y-78635714D02*
X84459523Y-78754761D01*
X84459523Y-78445238D01*
%TO.C,IC1*%
X81211904Y-71676190D02*
X81211904Y-71176190D01*
X81735714Y-71628571D02*
X81711904Y-71652380D01*
X81640476Y-71676190D01*
X81592857Y-71676190D01*
X81521428Y-71652380D01*
X81473809Y-71604761D01*
X81450000Y-71557142D01*
X81426190Y-71461904D01*
X81426190Y-71390476D01*
X81450000Y-71295238D01*
X81473809Y-71247619D01*
X81521428Y-71200000D01*
X81592857Y-71176190D01*
X81640476Y-71176190D01*
X81711904Y-71200000D01*
X81735714Y-71223809D01*
X82211904Y-71676190D02*
X81926190Y-71676190D01*
X82069047Y-71676190D02*
X82069047Y-71176190D01*
X82021428Y-71247619D01*
X81973809Y-71295238D01*
X81926190Y-71319047D01*
%TO.C,R1*%
X75616666Y-71576190D02*
X75450000Y-71338095D01*
X75330952Y-71576190D02*
X75330952Y-71076190D01*
X75521428Y-71076190D01*
X75569047Y-71100000D01*
X75592857Y-71123809D01*
X75616666Y-71171428D01*
X75616666Y-71242857D01*
X75592857Y-71290476D01*
X75569047Y-71314285D01*
X75521428Y-71338095D01*
X75330952Y-71338095D01*
X76092857Y-71576190D02*
X75807142Y-71576190D01*
X75950000Y-71576190D02*
X75950000Y-71076190D01*
X75902380Y-71147619D01*
X75854761Y-71195238D01*
X75807142Y-71219047D01*
%TO.C,U2*%
X77426190Y-81380952D02*
X77830952Y-81380952D01*
X77878571Y-81357142D01*
X77902380Y-81333333D01*
X77926190Y-81285714D01*
X77926190Y-81190476D01*
X77902380Y-81142857D01*
X77878571Y-81119047D01*
X77830952Y-81095238D01*
X77426190Y-81095238D01*
X77473809Y-80880952D02*
X77450000Y-80857142D01*
X77426190Y-80809523D01*
X77426190Y-80690476D01*
X77450000Y-80642857D01*
X77473809Y-80619047D01*
X77521428Y-80595238D01*
X77569047Y-80595238D01*
X77640476Y-80619047D01*
X77926190Y-80904761D01*
X77926190Y-80595238D01*
%TO.C,R13*%
X80428571Y-81676190D02*
X80261904Y-81438095D01*
X80142857Y-81676190D02*
X80142857Y-81176190D01*
X80333333Y-81176190D01*
X80380952Y-81200000D01*
X80404761Y-81223809D01*
X80428571Y-81271428D01*
X80428571Y-81342857D01*
X80404761Y-81390476D01*
X80380952Y-81414285D01*
X80333333Y-81438095D01*
X80142857Y-81438095D01*
X80904761Y-81676190D02*
X80619047Y-81676190D01*
X80761904Y-81676190D02*
X80761904Y-81176190D01*
X80714285Y-81247619D01*
X80666666Y-81295238D01*
X80619047Y-81319047D01*
X81071428Y-81176190D02*
X81380952Y-81176190D01*
X81214285Y-81366666D01*
X81285714Y-81366666D01*
X81333333Y-81390476D01*
X81357142Y-81414285D01*
X81380952Y-81461904D01*
X81380952Y-81580952D01*
X81357142Y-81628571D01*
X81333333Y-81652380D01*
X81285714Y-81676190D01*
X81142857Y-81676190D01*
X81095238Y-81652380D01*
X81071428Y-81628571D01*
D13*
%TO.C,J3*%
X100949171Y-64340500D02*
X101384600Y-64340500D01*
X101471685Y-64369528D01*
X101529742Y-64427585D01*
X101558771Y-64514671D01*
X101558771Y-64572728D01*
X100949171Y-64108271D02*
X100949171Y-63730900D01*
X101181400Y-63934100D01*
X101181400Y-63847014D01*
X101210428Y-63788957D01*
X101239457Y-63759928D01*
X101297514Y-63730900D01*
X101442657Y-63730900D01*
X101500714Y-63759928D01*
X101529742Y-63788957D01*
X101558771Y-63847014D01*
X101558771Y-64021185D01*
X101529742Y-64079242D01*
X101500714Y-64108271D01*
D14*
%TO.C,J7*%
X64985000Y-94360000D02*
X78415000Y-94360000D01*
X79685000Y-90090000D02*
X77885000Y-90090000D01*
X63715000Y-90090000D02*
X65515000Y-90090000D01*
X63715000Y-91540000D02*
X63715000Y-90090000D01*
X79685000Y-91540000D02*
X79685000Y-90090000D01*
X65515000Y-90090000D02*
X65515000Y-89100000D01*
%TO.C,J8*%
X64745000Y-68210000D02*
X64745000Y-66880000D01*
X67345000Y-65550000D02*
X77565000Y-65550000D01*
X66075000Y-68210000D02*
X64745000Y-68210000D01*
X67345000Y-68210000D02*
X77565000Y-68210000D01*
X77565000Y-68210000D02*
X77565000Y-65550000D01*
X67345000Y-68210000D02*
X67345000Y-65550000D01*
%TO.C,IC3*%
X90386400Y-69450000D02*
X90386400Y-73350000D01*
X95413600Y-69450000D02*
X95413600Y-73350000D01*
D15*
X95728600Y-68717700D02*
G75*
G03*
X95728600Y-68717700I-125000J0D01*
G01*
D14*
%TO.C,R5*%
X96746359Y-72170000D02*
X97053641Y-72170000D01*
X96746359Y-72930000D02*
X97053641Y-72930000D01*
%TO.C,J9*%
X60910000Y-85185000D02*
X62360000Y-85185000D01*
X58090000Y-70485000D02*
X58090000Y-83915000D01*
X60910000Y-69215000D02*
X62360000Y-69215000D01*
X62360000Y-85185000D02*
X62360000Y-83385000D01*
X62360000Y-71015000D02*
X63350000Y-71015000D01*
X62360000Y-69215000D02*
X62360000Y-71015000D01*
%TO.C,IC2*%
X84786400Y-69500000D02*
X84786400Y-73400000D01*
X89813600Y-69500000D02*
X89813600Y-73400000D01*
D15*
X90128600Y-68767700D02*
G75*
G03*
X90128600Y-68767700I-125000J0D01*
G01*
D14*
%TO.C,R15*%
X96746359Y-71780000D02*
X97053641Y-71780000D01*
X96746359Y-71020000D02*
X97053641Y-71020000D01*
%TO.C,R4*%
X77403641Y-69820000D02*
X77096359Y-69820000D01*
X77403641Y-70580000D02*
X77096359Y-70580000D01*
%TO.C,J4*%
X86585000Y-94310000D02*
X100015000Y-94310000D01*
X87115000Y-90040000D02*
X87115000Y-89050000D01*
X85315000Y-90040000D02*
X87115000Y-90040000D01*
X85315000Y-91490000D02*
X85315000Y-90040000D01*
X101285000Y-90040000D02*
X99485000Y-90040000D01*
X101285000Y-91490000D02*
X101285000Y-90040000D01*
%TO.C,R6*%
X97420000Y-67756359D02*
X97420000Y-68063641D01*
X98180000Y-67756359D02*
X98180000Y-68063641D01*
%TO.C,J1*%
X62845000Y-68230000D02*
X62845000Y-65570000D01*
X60245000Y-68230000D02*
X60245000Y-65570000D01*
X60245000Y-68230000D02*
X62845000Y-68230000D01*
X57645000Y-68230000D02*
X57645000Y-66900000D01*
X60245000Y-65570000D02*
X62845000Y-65570000D01*
X58975000Y-68230000D02*
X57645000Y-68230000D01*
D12*
%TO.C,U4*%
X94325000Y-83925000D02*
X94325000Y-78175000D01*
X94325000Y-78175000D02*
X94025000Y-78175000D01*
X85675000Y-83925000D02*
X85675000Y-78175000D01*
X85675000Y-78175000D02*
X85975000Y-78175000D01*
X85900000Y-83925000D02*
X85900000Y-85525000D01*
X85675000Y-83925000D02*
X85900000Y-83925000D01*
X94325000Y-83925000D02*
X94025000Y-83925000D01*
D14*
%TO.C,R3*%
X96746359Y-69820000D02*
X97053641Y-69820000D01*
X96746359Y-70580000D02*
X97053641Y-70580000D01*
%TO.C,J6*%
X67345000Y-63010000D02*
X77565000Y-63010000D01*
X64745000Y-65670000D02*
X64745000Y-64340000D01*
X67345000Y-65670000D02*
X77565000Y-65670000D01*
X67345000Y-65670000D02*
X67345000Y-63010000D01*
X66075000Y-65670000D02*
X64745000Y-65670000D01*
X77565000Y-65670000D02*
X77565000Y-63010000D01*
%TO.C,J5*%
X64745000Y-63130000D02*
X64745000Y-61800000D01*
X67345000Y-63130000D02*
X77565000Y-63130000D01*
X77565000Y-63130000D02*
X77565000Y-60470000D01*
X66075000Y-63130000D02*
X64745000Y-63130000D01*
X67345000Y-63130000D02*
X67345000Y-60470000D01*
X67345000Y-60470000D02*
X77565000Y-60470000D01*
%TO.C,R2*%
X77403641Y-72880000D02*
X77096359Y-72880000D01*
X77403641Y-72120000D02*
X77096359Y-72120000D01*
%TO.C,R7*%
X95870000Y-67746359D02*
X95870000Y-68053641D01*
X96630000Y-67746359D02*
X96630000Y-68053641D01*
%TO.C,J2*%
X92635000Y-63460000D02*
X92635000Y-64910000D01*
X90835000Y-64910000D02*
X90835000Y-65900000D01*
X92635000Y-64910000D02*
X90835000Y-64910000D01*
X91365000Y-60640000D02*
X80435000Y-60640000D01*
X79165000Y-64910000D02*
X80965000Y-64910000D01*
X79165000Y-63460000D02*
X79165000Y-64910000D01*
%TO.C,J11*%
X102540000Y-70265000D02*
X102540000Y-72065000D01*
X102540000Y-84435000D02*
X101550000Y-84435000D01*
X103990000Y-86235000D02*
X102540000Y-86235000D01*
X106810000Y-84965000D02*
X106810000Y-71535000D01*
X102540000Y-86235000D02*
X102540000Y-84435000D01*
X103990000Y-70265000D02*
X102540000Y-70265000D01*
%TO.C,R14*%
X84730000Y-81103641D02*
X84730000Y-80796359D01*
X83970000Y-81103641D02*
X83970000Y-80796359D01*
%TO.C,IC1*%
X79176400Y-69500000D02*
X79176400Y-73400000D01*
X84203600Y-69500000D02*
X84203600Y-73400000D01*
D15*
X84518600Y-68767700D02*
G75*
G03*
X84518600Y-68767700I-125000J0D01*
G01*
D14*
%TO.C,R1*%
X77403641Y-71730000D02*
X77096359Y-71730000D01*
X77403641Y-70970000D02*
X77096359Y-70970000D01*
D12*
%TO.C,U2*%
X76775000Y-78125000D02*
X76775000Y-83875000D01*
X68125000Y-83875000D02*
X68425000Y-83875000D01*
X68125000Y-78125000D02*
X68425000Y-78125000D01*
X68125000Y-78125000D02*
X68125000Y-83875000D01*
X76775000Y-83875000D02*
X76475000Y-83875000D01*
X76775000Y-78125000D02*
X76550000Y-78125000D01*
X76550000Y-78125000D02*
X76550000Y-76525000D01*
D14*
%TO.C,R13*%
X82703641Y-81830000D02*
X82396359Y-81830000D01*
X82703641Y-81070000D02*
X82396359Y-81070000D01*
D16*
%TO.C,J3*%
X100599740Y-63027320D02*
X100599740Y-64678320D01*
X94600260Y-64678320D02*
X94600260Y-63027320D01*
X100599740Y-64678320D02*
X99847900Y-64678320D01*
X95352100Y-64678320D02*
X94600260Y-64678320D01*
X99098600Y-60426360D02*
X96101400Y-60426360D01*
D17*
X100239060Y-65326020D02*
G75*
G03*
X100239060Y-65326020I-139700J0D01*
G01*
%TD*%
M02*
