M48
INCH
T1C0.0157
T2C0.0394
T3C0.0866
%
G90
G05
T1
X2.4354Y-3.45
X2.5207Y-3.2618
X2.5591Y-3.5217
X2.5807Y-3.4114
X2.6807Y-3.3287
X2.7795Y-2.9291
X2.8189Y-2.9744
X2.8568Y-3.2544
X2.9836Y-2.8287
X2.9902Y-2.9744
X3.0388Y-3.2132
X3.0453Y-3.6122
X3.0531Y-3.2756
X3.0531Y-3.3287
X3.0579Y-2.9
X3.1201Y-2.8091
X3.128Y-3.061
X3.1398Y-3.25
X3.154Y-2.8538
X3.1575Y-2.7638
X3.2854Y-3.5846
X3.2913Y-2.4941
X3.3248Y-2.9173
X3.3681Y-3.0549
X3.376Y-3.1358
X3.4646Y-2.4961
X3.4856Y-3.6313
X3.5315Y-3.2697
X3.5315Y-2.9173
X3.6594Y-2.6594
X3.6693Y-2.5354
X3.6909Y-3.2618
X3.7106Y-3.6043
X3.7165Y-2.5886
X3.7319Y-2.8587
X3.7343Y-3.3957
X3.7382Y-2.9862
X3.7382Y-3.0295
X3.7421Y-3.2618
X3.752Y-2.7638
X3.752Y-2.811
X3.7657Y-2.4862
X3.7657Y-3.4429
X3.7972Y-3.2618
X3.8228Y-2.4981
X3.8445Y-3.6004
X3.8465Y-3.3228
X3.8681Y-2.7854
X3.935Y-3.5413
X3.941Y-2.5098
X4.1191Y-2.8593
T2
X2.3219Y-2.6339
X2.4219Y-2.6339
X2.6014Y-2.4331
X2.6014Y-2.5331
X2.6014Y-2.6331
X2.7014Y-2.4331
X2.7014Y-2.5331
X2.7014Y-2.6331
X2.8014Y-2.4331
X2.8014Y-2.5331
X2.8014Y-2.6331
X2.9014Y-2.4331
X2.9014Y-2.5331
X2.9014Y-2.6331
X3.0014Y-2.4331
X3.0014Y-2.5331
X3.0014Y-2.6331
T3
X2.3622Y-2.4626
X2.3622Y-3.6417
X4.1339Y-2.4626
X4.1339Y-3.6417
T0
M30
