%TF.GenerationSoftware,KiCad,Pcbnew,(6.0.0-0)*%
%TF.CreationDate,2022-04-22T00:51:05+02:00*%
%TF.ProjectId,ProtoBoard,50726f74-6f42-46f6-9172-642e6b696361,rev?*%
%TF.SameCoordinates,Original*%
%TF.FileFunction,Copper,L1,Top*%
%TF.FilePolarity,Positive*%
%FSLAX46Y46*%
G04 Gerber Fmt 4.6, Leading zero omitted, Abs format (unit mm)*
G04 Created by KiCad (PCBNEW (6.0.0-0)) date 2022-04-22 00:51:05*
%MOMM*%
%LPD*%
G01*
G04 APERTURE LIST*
G04 Aperture macros list*
%AMRoundRect*
0 Rectangle with rounded corners*
0 $1 Rounding radius*
0 $2 $3 $4 $5 $6 $7 $8 $9 X,Y pos of 4 corners*
0 Add a 4 corners polygon primitive as box body*
4,1,4,$2,$3,$4,$5,$6,$7,$8,$9,$2,$3,0*
0 Add four circle primitives for the rounded corners*
1,1,$1+$1,$2,$3*
1,1,$1+$1,$4,$5*
1,1,$1+$1,$6,$7*
1,1,$1+$1,$8,$9*
0 Add four rect primitives between the rounded corners*
20,1,$1+$1,$2,$3,$4,$5,0*
20,1,$1+$1,$4,$5,$6,$7,0*
20,1,$1+$1,$6,$7,$8,$9,0*
20,1,$1+$1,$8,$9,$2,$3,0*%
G04 Aperture macros list end*
%TA.AperFunction,SMDPad,CuDef*%
%ADD10RoundRect,0.150000X-0.150000X-0.700000X0.150000X-0.700000X0.150000X0.700000X-0.150000X0.700000X0*%
%TD*%
%TA.AperFunction,SMDPad,CuDef*%
%ADD11RoundRect,0.250000X-0.250000X-1.100000X0.250000X-1.100000X0.250000X1.100000X-0.250000X1.100000X0*%
%TD*%
%TA.AperFunction,ComponentPad*%
%ADD12R,1.700000X1.700000*%
%TD*%
%TA.AperFunction,ComponentPad*%
%ADD13O,1.700000X1.700000*%
%TD*%
%TA.AperFunction,SMDPad,CuDef*%
%ADD14RoundRect,0.070692X-0.223858X0.719308X-0.223858X-0.719308X0.223858X-0.719308X0.223858X0.719308X0*%
%TD*%
%TA.AperFunction,SMDPad,CuDef*%
%ADD15RoundRect,0.135000X-0.135000X-0.185000X0.135000X-0.185000X0.135000X0.185000X-0.135000X0.185000X0*%
%TD*%
%TA.AperFunction,SMDPad,CuDef*%
%ADD16RoundRect,0.150000X-0.700000X0.150000X-0.700000X-0.150000X0.700000X-0.150000X0.700000X0.150000X0*%
%TD*%
%TA.AperFunction,SMDPad,CuDef*%
%ADD17RoundRect,0.250000X-1.100000X0.250000X-1.100000X-0.250000X1.100000X-0.250000X1.100000X0.250000X0*%
%TD*%
%TA.AperFunction,SMDPad,CuDef*%
%ADD18RoundRect,0.135000X0.135000X0.185000X-0.135000X0.185000X-0.135000X-0.185000X0.135000X-0.185000X0*%
%TD*%
%TA.AperFunction,SMDPad,CuDef*%
%ADD19RoundRect,0.135000X-0.185000X0.135000X-0.185000X-0.135000X0.185000X-0.135000X0.185000X0.135000X0*%
%TD*%
%TA.AperFunction,SMDPad,CuDef*%
%ADD20R,0.450000X1.750000*%
%TD*%
%TA.AperFunction,ComponentPad*%
%ADD21C,4.400000*%
%TD*%
%TA.AperFunction,SMDPad,CuDef*%
%ADD22RoundRect,0.150000X0.150000X0.700000X-0.150000X0.700000X-0.150000X-0.700000X0.150000X-0.700000X0*%
%TD*%
%TA.AperFunction,SMDPad,CuDef*%
%ADD23RoundRect,0.250000X0.250000X1.100000X-0.250000X1.100000X-0.250000X-1.100000X0.250000X-1.100000X0*%
%TD*%
%TA.AperFunction,SMDPad,CuDef*%
%ADD24RoundRect,0.150000X0.700000X-0.150000X0.700000X0.150000X-0.700000X0.150000X-0.700000X-0.150000X0*%
%TD*%
%TA.AperFunction,SMDPad,CuDef*%
%ADD25RoundRect,0.250000X1.100000X-0.250000X1.100000X0.250000X-1.100000X0.250000X-1.100000X-0.250000X0*%
%TD*%
%TA.AperFunction,SMDPad,CuDef*%
%ADD26RoundRect,0.135000X0.185000X-0.135000X0.185000X0.135000X-0.185000X0.135000X-0.185000X-0.135000X0*%
%TD*%
%TA.AperFunction,SMDPad,CuDef*%
%ADD27R,0.599440X1.348740*%
%TD*%
%TA.AperFunction,SMDPad,CuDef*%
%ADD28R,1.198880X1.998980*%
%TD*%
%TA.AperFunction,ViaPad*%
%ADD29C,0.800000*%
%TD*%
%TA.AperFunction,Conductor*%
%ADD30C,0.250000*%
%TD*%
%TA.AperFunction,Conductor*%
%ADD31C,1.200000*%
%TD*%
%TA.AperFunction,Conductor*%
%ADD32C,1.000000*%
%TD*%
G04 APERTURE END LIST*
D10*
%TO.P,J7,1,Pin_1*%
%TO.N,/CH16*%
X66075000Y-89950000D03*
%TO.P,J7,2,Pin_2*%
%TO.N,/CH15*%
X67325000Y-89950000D03*
%TO.P,J7,3,Pin_3*%
%TO.N,/CH14*%
X68575000Y-89950000D03*
%TO.P,J7,4,Pin_4*%
%TO.N,/CH13*%
X69825000Y-89950000D03*
%TO.P,J7,5,Pin_5*%
%TO.N,/CH12*%
X71075000Y-89950000D03*
%TO.P,J7,6,Pin_6*%
%TO.N,/CH11*%
X72325000Y-89950000D03*
%TO.P,J7,7,Pin_7*%
%TO.N,/CH10*%
X73575000Y-89950000D03*
%TO.P,J7,8,Pin_8*%
%TO.N,/CH9*%
X74825000Y-89950000D03*
%TO.P,J7,9,Pin_9*%
%TO.N,GND*%
X76075000Y-89950000D03*
%TO.P,J7,10,Pin_10*%
%TO.N,+3V3*%
X77325000Y-89950000D03*
D11*
%TO.P,J7,MP*%
%TO.N,N/C*%
X64225000Y-93150000D03*
X79175000Y-93150000D03*
%TD*%
D12*
%TO.P,J8,1,Pin_1*%
%TO.N,/Servo1*%
X66075000Y-66880000D03*
D13*
%TO.P,J8,2,Pin_2*%
%TO.N,/Servo2*%
X68615000Y-66880000D03*
%TO.P,J8,3,Pin_3*%
%TO.N,/Servo3*%
X71155000Y-66880000D03*
%TO.P,J8,4,Pin_4*%
%TO.N,/Servo4*%
X73695000Y-66880000D03*
%TO.P,J8,5,Pin_5*%
%TO.N,/Servo5*%
X76235000Y-66880000D03*
%TD*%
D14*
%TO.P,IC3,1,OA*%
%TO.N,/M1+*%
X94805000Y-68775400D03*
%TO.P,IC3,2,VCC*%
%TO.N,/POWER4*%
X93535000Y-68775400D03*
%TO.P,IC3,3,VCC1*%
X92265000Y-68775400D03*
%TO.P,IC3,4,OB*%
%TO.N,/M2+*%
X90995000Y-68775400D03*
%TO.P,IC3,5,GND1*%
%TO.N,GND*%
X90995000Y-74024600D03*
%TO.P,IC3,6,IA*%
%TO.N,/LRA2*%
X92265000Y-74024600D03*
%TO.P,IC3,7,IB*%
%TO.N,/LRA1*%
X93535000Y-74024600D03*
%TO.P,IC3,8,GND*%
%TO.N,GND*%
X94805000Y-74024600D03*
%TD*%
D15*
%TO.P,R5,1*%
%TO.N,/LRA1*%
X96390000Y-72550000D03*
%TO.P,R5,2*%
%TO.N,+3V3*%
X97410000Y-72550000D03*
%TD*%
D16*
%TO.P,J9,1,Pin_1*%
%TO.N,/CH1*%
X62500000Y-71575000D03*
%TO.P,J9,2,Pin_2*%
%TO.N,/CH2*%
X62500000Y-72825000D03*
%TO.P,J9,3,Pin_3*%
%TO.N,/CH3*%
X62500000Y-74075000D03*
%TO.P,J9,4,Pin_4*%
%TO.N,/CH4*%
X62500000Y-75325000D03*
%TO.P,J9,5,Pin_5*%
%TO.N,/CH5*%
X62500000Y-76575000D03*
%TO.P,J9,6,Pin_6*%
%TO.N,/CH6*%
X62500000Y-77825000D03*
%TO.P,J9,7,Pin_7*%
%TO.N,/CH7*%
X62500000Y-79075000D03*
%TO.P,J9,8,Pin_8*%
%TO.N,/CH8*%
X62500000Y-80325000D03*
%TO.P,J9,9,Pin_9*%
%TO.N,GND*%
X62500000Y-81575000D03*
%TO.P,J9,10,Pin_10*%
%TO.N,+3V3*%
X62500000Y-82825000D03*
D17*
%TO.P,J9,MP*%
%TO.N,N/C*%
X59300000Y-69725000D03*
X59300000Y-84675000D03*
%TD*%
D14*
%TO.P,IC2,1,OA*%
%TO.N,/M3+*%
X89205000Y-68825400D03*
%TO.P,IC2,2,VCC*%
%TO.N,/POWER4*%
X87935000Y-68825400D03*
%TO.P,IC2,3,VCC1*%
X86665000Y-68825400D03*
%TO.P,IC2,4,OB*%
%TO.N,/M4+*%
X85395000Y-68825400D03*
%TO.P,IC2,5,GND1*%
%TO.N,GND*%
X85395000Y-74074600D03*
%TO.P,IC2,6,IA*%
%TO.N,/LRA4*%
X86665000Y-74074600D03*
%TO.P,IC2,7,IB*%
%TO.N,/LRA3*%
X87935000Y-74074600D03*
%TO.P,IC2,8,GND*%
%TO.N,GND*%
X89205000Y-74074600D03*
%TD*%
D15*
%TO.P,R15,1*%
%TO.N,/LRA2*%
X96390000Y-71400000D03*
%TO.P,R15,2*%
%TO.N,+3V3*%
X97410000Y-71400000D03*
%TD*%
D18*
%TO.P,R4,1*%
%TO.N,/LRA4*%
X77760000Y-70200000D03*
%TO.P,R4,2*%
%TO.N,+3V3*%
X76740000Y-70200000D03*
%TD*%
D10*
%TO.P,J4,1,Pin_1*%
%TO.N,/RGB*%
X87675000Y-89900000D03*
%TO.P,J4,2,Pin_2*%
%TO.N,/ButA*%
X88925000Y-89900000D03*
%TO.P,J4,3,Pin_3*%
%TO.N,/Menu*%
X90175000Y-89900000D03*
%TO.P,J4,4,Pin_4*%
%TO.N,/ButB*%
X91425000Y-89900000D03*
%TO.P,J4,5,Pin_5*%
%TO.N,/ButC*%
X92675000Y-89900000D03*
%TO.P,J4,6,Pin_6*%
%TO.N,/ButJ*%
X93925000Y-89900000D03*
%TO.P,J4,7,Pin_7*%
%TO.N,/JoyY*%
X95175000Y-89900000D03*
%TO.P,J4,8,Pin_8*%
%TO.N,/JoyX*%
X96425000Y-89900000D03*
%TO.P,J4,9,Pin_9*%
%TO.N,GND*%
X97675000Y-89900000D03*
%TO.P,J4,10,Pin_10*%
%TO.N,+3V3*%
X98925000Y-89900000D03*
D11*
%TO.P,J4,MP*%
%TO.N,N/C*%
X85825000Y-93100000D03*
X100775000Y-93100000D03*
%TD*%
D19*
%TO.P,R6,1*%
%TO.N,/I2C_SDA*%
X97800000Y-67400000D03*
%TO.P,R6,2*%
%TO.N,+3V3*%
X97800000Y-68420000D03*
%TD*%
D12*
%TO.P,J1,1,Pin_1*%
%TO.N,GND*%
X58975000Y-66900000D03*
D13*
%TO.P,J1,2,Pin_2*%
%TO.N,+BATT*%
X61515000Y-66900000D03*
%TD*%
D20*
%TO.P,U4,1,COM*%
%TO.N,/COM2*%
X86425000Y-84650000D03*
%TO.P,U4,2,I7*%
%TO.N,Net-(R13-Pad1)*%
X87075000Y-84650000D03*
%TO.P,U4,3,I6*%
%TO.N,/ButA*%
X87725000Y-84650000D03*
%TO.P,U4,4,I5*%
%TO.N,/Menu*%
X88375000Y-84650000D03*
%TO.P,U4,5,I4*%
%TO.N,/ButB*%
X89025000Y-84650000D03*
%TO.P,U4,6,I3*%
%TO.N,/ButC*%
X89675000Y-84650000D03*
%TO.P,U4,7,I2*%
%TO.N,/ButJ*%
X90325000Y-84650000D03*
%TO.P,U4,8,I1*%
%TO.N,/JoyY*%
X90975000Y-84650000D03*
%TO.P,U4,9,I0*%
%TO.N,/JoyX*%
X91625000Y-84650000D03*
%TO.P,U4,10,S0*%
%TO.N,/SEL1*%
X92275000Y-84650000D03*
%TO.P,U4,11,S1*%
%TO.N,/SEL2*%
X92925000Y-84650000D03*
%TO.P,U4,12,GND*%
%TO.N,GND*%
X93575000Y-84650000D03*
%TO.P,U4,13,S3*%
%TO.N,/SEL4*%
X93575000Y-77450000D03*
%TO.P,U4,14,S2*%
%TO.N,/SEL3*%
X92925000Y-77450000D03*
%TO.P,U4,15,~{E}*%
%TO.N,GND*%
X92275000Y-77450000D03*
%TO.P,U4,16,I15*%
%TO.N,/CH24*%
X91625000Y-77450000D03*
%TO.P,U4,17,I14*%
%TO.N,/CH23*%
X90975000Y-77450000D03*
%TO.P,U4,18,I13*%
%TO.N,/CH22*%
X90325000Y-77450000D03*
%TO.P,U4,19,I12*%
%TO.N,/CH21*%
X89675000Y-77450000D03*
%TO.P,U4,20,I11*%
%TO.N,/CH20*%
X89025000Y-77450000D03*
%TO.P,U4,21,I10*%
%TO.N,/CH19*%
X88375000Y-77450000D03*
%TO.P,U4,22,I9*%
%TO.N,/CH18*%
X87725000Y-77450000D03*
%TO.P,U4,23,I8*%
%TO.N,/CH17*%
X87075000Y-77450000D03*
%TO.P,U4,24,VCC*%
%TO.N,+3V3*%
X86425000Y-77450000D03*
%TD*%
D15*
%TO.P,R3,1*%
%TO.N,/LRA3*%
X96390000Y-70200000D03*
%TO.P,R3,2*%
%TO.N,+3V3*%
X97410000Y-70200000D03*
%TD*%
D21*
%TO.P,H1,1,1*%
%TO.N,GND*%
X60000000Y-62550000D03*
%TD*%
D12*
%TO.P,J6,1,Pin_1*%
%TO.N,/POWER2*%
X66075000Y-64340000D03*
D13*
%TO.P,J6,2,Pin_2*%
X68615000Y-64340000D03*
%TO.P,J6,3,Pin_3*%
%TO.N,/POWER3*%
X71155000Y-64340000D03*
%TO.P,J6,4,Pin_4*%
%TO.N,/POWER1*%
X73695000Y-64340000D03*
%TO.P,J6,5,Pin_5*%
X76235000Y-64340000D03*
%TD*%
D12*
%TO.P,J5,1,Pin_1*%
%TO.N,GND*%
X66075000Y-61800000D03*
D13*
%TO.P,J5,2,Pin_2*%
X68615000Y-61800000D03*
%TO.P,J5,3,Pin_3*%
X71155000Y-61800000D03*
%TO.P,J5,4,Pin_4*%
X73695000Y-61800000D03*
%TO.P,J5,5,Pin_5*%
X76235000Y-61800000D03*
%TD*%
D18*
%TO.P,R2,1*%
%TO.N,/LRA6*%
X77760000Y-72500000D03*
%TO.P,R2,2*%
%TO.N,+3V3*%
X76740000Y-72500000D03*
%TD*%
D19*
%TO.P,R7,1*%
%TO.N,/I2C_SCL*%
X96250000Y-67390000D03*
%TO.P,R7,2*%
%TO.N,+3V3*%
X96250000Y-68410000D03*
%TD*%
D21*
%TO.P,H4,1,1*%
%TO.N,GND*%
X60000000Y-92500000D03*
%TD*%
D22*
%TO.P,J2,1,Pin_1*%
%TO.N,/M1+*%
X90275000Y-65050000D03*
%TO.P,J2,2,Pin_2*%
%TO.N,/M2+*%
X89025000Y-65050000D03*
%TO.P,J2,3,Pin_3*%
%TO.N,/M3+*%
X87775000Y-65050000D03*
%TO.P,J2,4,Pin_4*%
%TO.N,/M4+*%
X86525000Y-65050000D03*
%TO.P,J2,5,Pin_5*%
%TO.N,/M5+*%
X85275000Y-65050000D03*
%TO.P,J2,6,Pin_6*%
%TO.N,/M6+*%
X84025000Y-65050000D03*
%TO.P,J2,7,Pin_7*%
%TO.N,GND*%
X82775000Y-65050000D03*
%TO.P,J2,8,Pin_8*%
X81525000Y-65050000D03*
D23*
%TO.P,J2,MP*%
%TO.N,N/C*%
X92125000Y-61850000D03*
X79675000Y-61850000D03*
%TD*%
D24*
%TO.P,J11,1,Pin_1*%
%TO.N,/CH17*%
X102400000Y-83875000D03*
%TO.P,J11,2,Pin_2*%
%TO.N,/CH18*%
X102400000Y-82625000D03*
%TO.P,J11,3,Pin_3*%
%TO.N,/CH19*%
X102400000Y-81375000D03*
%TO.P,J11,4,Pin_4*%
%TO.N,/CH20*%
X102400000Y-80125000D03*
%TO.P,J11,5,Pin_5*%
%TO.N,/CH21*%
X102400000Y-78875000D03*
%TO.P,J11,6,Pin_6*%
%TO.N,/CH22*%
X102400000Y-77625000D03*
%TO.P,J11,7,Pin_7*%
%TO.N,/CH23*%
X102400000Y-76375000D03*
%TO.P,J11,8,Pin_8*%
%TO.N,/CH24*%
X102400000Y-75125000D03*
%TO.P,J11,9,Pin_9*%
%TO.N,GND*%
X102400000Y-73875000D03*
%TO.P,J11,10,Pin_10*%
%TO.N,+3V3*%
X102400000Y-72625000D03*
D25*
%TO.P,J11,MP*%
%TO.N,N/C*%
X105600000Y-70775000D03*
X105600000Y-85725000D03*
%TD*%
D26*
%TO.P,R14,1*%
%TO.N,Net-(R13-Pad1)*%
X84350000Y-81460000D03*
%TO.P,R14,2*%
%TO.N,+BATT*%
X84350000Y-80440000D03*
%TD*%
D14*
%TO.P,IC1,1,OA*%
%TO.N,/M5+*%
X83595000Y-68825400D03*
%TO.P,IC1,2,VCC*%
%TO.N,/POWER4*%
X82325000Y-68825400D03*
%TO.P,IC1,3,VCC1*%
X81055000Y-68825400D03*
%TO.P,IC1,4,OB*%
%TO.N,/M6+*%
X79785000Y-68825400D03*
%TO.P,IC1,5,GND1*%
%TO.N,GND*%
X79785000Y-74074600D03*
%TO.P,IC1,6,IA*%
%TO.N,/LRA6*%
X81055000Y-74074600D03*
%TO.P,IC1,7,IB*%
%TO.N,/LRA5*%
X82325000Y-74074600D03*
%TO.P,IC1,8,GND*%
%TO.N,GND*%
X83595000Y-74074600D03*
%TD*%
D18*
%TO.P,R1,1*%
%TO.N,/LRA5*%
X77760000Y-71350000D03*
%TO.P,R1,2*%
%TO.N,+3V3*%
X76740000Y-71350000D03*
%TD*%
D20*
%TO.P,U2,1,COM*%
%TO.N,/COM1*%
X76025000Y-77400000D03*
%TO.P,U2,2,I7*%
%TO.N,/CH8*%
X75375000Y-77400000D03*
%TO.P,U2,3,I6*%
%TO.N,/CH7*%
X74725000Y-77400000D03*
%TO.P,U2,4,I5*%
%TO.N,/CH6*%
X74075000Y-77400000D03*
%TO.P,U2,5,I4*%
%TO.N,/CH5*%
X73425000Y-77400000D03*
%TO.P,U2,6,I3*%
%TO.N,/CH4*%
X72775000Y-77400000D03*
%TO.P,U2,7,I2*%
%TO.N,/CH3*%
X72125000Y-77400000D03*
%TO.P,U2,8,I1*%
%TO.N,/CH2*%
X71475000Y-77400000D03*
%TO.P,U2,9,I0*%
%TO.N,/CH1*%
X70825000Y-77400000D03*
%TO.P,U2,10,S0*%
%TO.N,/SEL1*%
X70175000Y-77400000D03*
%TO.P,U2,11,S1*%
%TO.N,/SEL2*%
X69525000Y-77400000D03*
%TO.P,U2,12,GND*%
%TO.N,GND*%
X68875000Y-77400000D03*
%TO.P,U2,13,S3*%
%TO.N,/SEL4*%
X68875000Y-84600000D03*
%TO.P,U2,14,S2*%
%TO.N,/SEL3*%
X69525000Y-84600000D03*
%TO.P,U2,15,~{E}*%
%TO.N,GND*%
X70175000Y-84600000D03*
%TO.P,U2,16,I15*%
%TO.N,/CH16*%
X70825000Y-84600000D03*
%TO.P,U2,17,I14*%
%TO.N,/CH15*%
X71475000Y-84600000D03*
%TO.P,U2,18,I13*%
%TO.N,/CH14*%
X72125000Y-84600000D03*
%TO.P,U2,19,I12*%
%TO.N,/CH13*%
X72775000Y-84600000D03*
%TO.P,U2,20,I11*%
%TO.N,/CH12*%
X73425000Y-84600000D03*
%TO.P,U2,21,I10*%
%TO.N,/CH11*%
X74075000Y-84600000D03*
%TO.P,U2,22,I9*%
%TO.N,/CH10*%
X74725000Y-84600000D03*
%TO.P,U2,23,I8*%
%TO.N,/CH9*%
X75375000Y-84600000D03*
%TO.P,U2,24,VCC*%
%TO.N,+3V3*%
X76025000Y-84600000D03*
%TD*%
D18*
%TO.P,R13,1*%
%TO.N,Net-(R13-Pad1)*%
X83060000Y-81450000D03*
%TO.P,R13,2*%
%TO.N,GND*%
X82040000Y-81450000D03*
%TD*%
D21*
%TO.P,H3,1,1*%
%TO.N,GND*%
X105000000Y-62550000D03*
%TD*%
D27*
%TO.P,J3,1,GND*%
%TO.N,GND*%
X99098600Y-65026300D03*
%TO.P,J3,2,VCC*%
%TO.N,+3V3*%
X98097840Y-65026300D03*
%TO.P,J3,3,SDA*%
%TO.N,/I2C_SDA*%
X97102160Y-65026300D03*
%TO.P,J3,4,SCL*%
%TO.N,/I2C_SCL*%
X96101400Y-65026300D03*
D28*
%TO.P,J3,NC1*%
%TO.N,N/C*%
X94800920Y-61353460D03*
%TO.P,J3,NC2*%
X100399080Y-61353460D03*
%TD*%
D21*
%TO.P,H2,1,1*%
%TO.N,GND*%
X105000000Y-92500000D03*
%TD*%
D29*
%TO.N,GND*%
X79450000Y-77750000D03*
X89700200Y-74100000D03*
X97650000Y-91450000D03*
X65000000Y-89450000D03*
X94400000Y-65750000D03*
X84450000Y-74100000D03*
%TO.N,+3V3*%
X64025500Y-82850000D03*
X104625000Y-72625000D03*
X77184800Y-81615200D03*
X75782500Y-71850000D03*
X100101000Y-63748700D03*
X77350000Y-91750000D03*
X85550000Y-77594502D03*
X99950000Y-89950000D03*
X98250000Y-70750000D03*
%TO.N,+BATT*%
X61860000Y-87630000D03*
X85750000Y-79650000D03*
X97700000Y-84400000D03*
%TO.N,/RGB*%
X88535000Y-92235000D03*
%TO.N,/I2C_SDA*%
X95650000Y-87450000D03*
X97100000Y-63451400D03*
%TO.N,/I2C_SCL*%
X95650000Y-63150000D03*
X94250000Y-91550000D03*
%TO.N,/POWER3*%
X88000000Y-63400000D03*
%TO.N,/POWER2*%
X83600000Y-63350000D03*
%TO.N,/POWER1*%
X93200000Y-64400000D03*
%TO.N,/POWER4*%
X92950000Y-67550000D03*
%TO.N,/COM1*%
X75950000Y-75550000D03*
X72562299Y-82662299D03*
%TO.N,/COM2*%
X83450000Y-91050000D03*
%TO.N,/SEL3*%
X94950000Y-75850000D03*
X77550000Y-84550000D03*
X65550000Y-86650000D03*
%TO.N,/SEL4*%
X77670300Y-73659400D03*
X94950000Y-76950000D03*
X77550000Y-83200000D03*
X68089502Y-84550000D03*
%TO.N,/SEL2*%
X70600000Y-74400000D03*
X94850000Y-86250000D03*
X79750000Y-82550000D03*
%TO.N,/SEL1*%
X71600000Y-75550000D03*
X89700000Y-83050000D03*
%TO.N,/LRA6*%
X80112299Y-72487701D03*
%TO.N,/LRA5*%
X79250000Y-71350000D03*
%TO.N,/LRA4*%
X80200000Y-70200000D03*
%TO.N,/LRA3*%
X95300000Y-70200000D03*
X96450000Y-82850000D03*
%TO.N,/LRA2*%
X95300000Y-71400000D03*
X95050000Y-82850000D03*
%TO.N,/LRA1*%
X93750000Y-82850000D03*
X94789400Y-72611400D03*
%TD*%
D30*
%TO.N,GND*%
X70175000Y-84600000D02*
X70175000Y-85675000D01*
X92275000Y-76325000D02*
X93200000Y-75400000D01*
X84450000Y-74100000D02*
X85369600Y-74100000D01*
X89700200Y-74100000D02*
X90919600Y-74100000D01*
X97650000Y-89925000D02*
X97675000Y-89900000D01*
X94805000Y-74495000D02*
X94805000Y-74024600D01*
X90919600Y-74100000D02*
X90995000Y-74024600D01*
X79785000Y-77415000D02*
X79450000Y-77750000D01*
X68950479Y-86899520D02*
X67300480Y-86899520D01*
X97650000Y-91450000D02*
X97650000Y-89925000D01*
X89205000Y-74074600D02*
X89674800Y-74074600D01*
X92275000Y-77450000D02*
X92275000Y-76325000D01*
X83595000Y-74074600D02*
X84424600Y-74074600D01*
X70175000Y-85675000D02*
X68950479Y-86899520D01*
X85369600Y-74100000D02*
X85395000Y-74074600D01*
X93200000Y-75400000D02*
X93900000Y-75400000D01*
X65000000Y-89200000D02*
X65000000Y-89450000D01*
X93900000Y-75400000D02*
X94805000Y-74495000D01*
X84424600Y-74074600D02*
X84450000Y-74100000D01*
X67300480Y-86899520D02*
X65000000Y-89200000D01*
X79785000Y-74074600D02*
X79785000Y-77415000D01*
X89674800Y-74074600D02*
X89700200Y-74100000D01*
%TO.N,+3V3*%
X64025500Y-82850000D02*
X62525000Y-82850000D01*
X97410000Y-72550000D02*
X97410000Y-71400000D01*
X85694502Y-77450000D02*
X85550000Y-77594502D01*
X99750000Y-63300000D02*
X100101000Y-63651300D01*
X99900000Y-89900000D02*
X99950000Y-89950000D01*
X98097800Y-65026300D02*
X98097800Y-64101900D01*
X102422700Y-72625000D02*
X104625000Y-72625000D01*
X97800000Y-69810000D02*
X97410000Y-70200000D01*
X96250000Y-68410000D02*
X96890000Y-68410000D01*
X76740000Y-70200000D02*
X76740000Y-71350000D01*
X100101000Y-63651300D02*
X100101000Y-63748700D01*
X97400000Y-68410000D02*
X97410000Y-68420000D01*
X98925000Y-89900000D02*
X99900000Y-89900000D01*
X86425000Y-77450000D02*
X85694502Y-77450000D01*
X97570000Y-70750000D02*
X97410000Y-70910000D01*
X97800000Y-68420000D02*
X97800000Y-69810000D01*
X97410000Y-70910000D02*
X97410000Y-71400000D01*
X77325000Y-89950000D02*
X77325000Y-87975000D01*
X76282500Y-71350000D02*
X75782500Y-71850000D01*
X77350000Y-89975000D02*
X77325000Y-89950000D01*
X76740000Y-71350000D02*
X76740000Y-72500000D01*
X76025000Y-86675000D02*
X77325000Y-87975000D01*
X77350000Y-91750000D02*
X77350000Y-89975000D01*
X98899800Y-63300000D02*
X99750000Y-63300000D01*
X97410000Y-70200000D02*
X97410000Y-70910000D01*
X98250000Y-70750000D02*
X97570000Y-70750000D01*
X76025000Y-84600000D02*
X76025000Y-82775000D01*
X97410000Y-68420000D02*
X97800000Y-68420000D01*
X76025000Y-82775000D02*
X77184800Y-81615200D01*
X76025000Y-84600000D02*
X76025000Y-86675000D01*
X62525000Y-82850000D02*
X62500000Y-82825000D01*
X98097800Y-64101900D02*
X98899800Y-63300000D01*
X96890000Y-68410000D02*
X97400000Y-68410000D01*
X76740000Y-71350000D02*
X76282500Y-71350000D01*
D31*
%TO.N,+BATT*%
X85041000Y-79650000D02*
X84300500Y-80390500D01*
X84300500Y-80390500D02*
X84350000Y-80390500D01*
X85750000Y-79650000D02*
X85041000Y-79650000D01*
D30*
%TO.N,/M5+*%
X85275000Y-65050000D02*
X85275000Y-65725000D01*
X83595000Y-67405000D02*
X83595000Y-68825400D01*
X85275000Y-65725000D02*
X83595000Y-67405000D01*
%TO.N,/M6+*%
X82650000Y-67350000D02*
X84025000Y-65975000D01*
X79785000Y-68215000D02*
X80650000Y-67350000D01*
X79785000Y-68825400D02*
X79785000Y-68215000D01*
X80650000Y-67350000D02*
X82650000Y-67350000D01*
X84025000Y-65975000D02*
X84025000Y-65050000D01*
%TO.N,/M3+*%
X89205000Y-67955000D02*
X87775000Y-66525000D01*
X89205000Y-68825400D02*
X89205000Y-67955000D01*
X87775000Y-66525000D02*
X87775000Y-65050000D01*
%TO.N,/RGB*%
X87650000Y-91350000D02*
X88535000Y-92235000D01*
X87650000Y-89925000D02*
X87675000Y-89900000D01*
X87650000Y-91350000D02*
X87650000Y-89925000D01*
%TO.N,/M4+*%
X86525000Y-66865000D02*
X85395000Y-67995000D01*
X85395000Y-67995000D02*
X85395000Y-68825400D01*
X86525000Y-65050000D02*
X86525000Y-66865000D01*
%TO.N,/M1+*%
X92150000Y-65850000D02*
X93150000Y-65850000D01*
X90275000Y-65050000D02*
X91350000Y-65050000D01*
X93150000Y-65850000D02*
X94805000Y-67505000D01*
X91350000Y-65050000D02*
X92150000Y-65850000D01*
X94805000Y-67505000D02*
X94805000Y-68775400D01*
%TO.N,/I2C_SDA*%
X97102200Y-63453600D02*
X97100000Y-63451400D01*
X97102200Y-65026300D02*
X97102200Y-63453600D01*
X97102200Y-66702200D02*
X97800000Y-67400000D01*
X97102200Y-65026300D02*
X97102200Y-66702200D01*
%TO.N,/I2C_SCL*%
X96101400Y-65026300D02*
X96101400Y-67241400D01*
X96101400Y-67241400D02*
X96250000Y-67390000D01*
X95650000Y-64574900D02*
X96101400Y-65026300D01*
X95650000Y-63150000D02*
X95650000Y-64574900D01*
%TO.N,/ButA*%
X88925000Y-88125000D02*
X88925000Y-89900000D01*
X87725000Y-86925000D02*
X88925000Y-88125000D01*
X87725000Y-84650000D02*
X87725000Y-86925000D01*
%TO.N,/ButB*%
X89025000Y-86725000D02*
X91425000Y-89125000D01*
X91425000Y-89125000D02*
X91425000Y-89900000D01*
X89025000Y-84650000D02*
X89025000Y-86725000D01*
%TO.N,/Menu*%
X90175000Y-88625000D02*
X90175000Y-89900000D01*
X88375000Y-86825000D02*
X90175000Y-88625000D01*
X88375000Y-84650000D02*
X88375000Y-86825000D01*
%TO.N,/ButJ*%
X93925000Y-89900000D02*
X93925000Y-89628900D01*
X93925000Y-89628900D02*
X90325000Y-86028900D01*
X90325000Y-86028900D02*
X90325000Y-84650000D01*
%TO.N,/ButC*%
X92675000Y-89575000D02*
X89675000Y-86575000D01*
X89675000Y-86575000D02*
X89675000Y-84650000D01*
X92675000Y-89900000D02*
X92675000Y-89575000D01*
%TO.N,/JoyX*%
X93300000Y-87450000D02*
X94450000Y-87450000D01*
X91625000Y-85775000D02*
X93300000Y-87450000D01*
X96425000Y-89425000D02*
X96425000Y-89900000D01*
X91625000Y-84650000D02*
X91625000Y-85775000D01*
X94450000Y-87450000D02*
X96425000Y-89425000D01*
%TO.N,/JoyY*%
X90975000Y-85775000D02*
X90975000Y-84650000D01*
X95175000Y-89900000D02*
X95175000Y-89375000D01*
X93550000Y-88350000D02*
X90975000Y-85775000D01*
X95175000Y-89375000D02*
X94150000Y-88350000D01*
X94150000Y-88350000D02*
X93550000Y-88350000D01*
%TO.N,/CH1*%
X67892906Y-78850000D02*
X68644346Y-79601440D01*
X63775000Y-71575000D02*
X67150000Y-74950000D01*
X67150000Y-78107100D02*
X67892900Y-78850000D01*
X62500000Y-71575000D02*
X63775000Y-71575000D01*
X67150000Y-74950000D02*
X67150000Y-78107100D01*
X67892900Y-78850000D02*
X67892906Y-78850000D01*
X70825000Y-78525000D02*
X70825000Y-77400000D01*
X69748560Y-79601440D02*
X70825000Y-78525000D01*
X68644346Y-79601440D02*
X69748560Y-79601440D01*
%TO.N,/CH2*%
X62500000Y-72825000D02*
X64125000Y-72825000D01*
X69934758Y-80050960D02*
X71475000Y-78510718D01*
X66700480Y-78293342D02*
X66753569Y-78346431D01*
X64125000Y-72825000D02*
X66700480Y-75400480D01*
X71475000Y-78510718D02*
X71475000Y-77400000D01*
X66700480Y-75400480D02*
X66700480Y-78293342D01*
X67753594Y-79346406D02*
X68458148Y-80050960D01*
X66753569Y-78346431D02*
X67753594Y-79346406D01*
X68458148Y-80050960D02*
X69934758Y-80050960D01*
%TO.N,/CH3*%
X68271912Y-80500480D02*
X70120956Y-80500480D01*
X67285722Y-79514278D02*
X67621432Y-79850000D01*
X67621432Y-79850000D02*
X68271912Y-80500480D01*
X66250000Y-78478580D02*
X67285699Y-79514278D01*
X62500000Y-74075000D02*
X64575000Y-74075000D01*
X70120956Y-80500480D02*
X72125000Y-78496435D01*
X72125000Y-78496435D02*
X72125000Y-77400000D01*
X67285699Y-79514278D02*
X67285722Y-79514278D01*
X66250000Y-75750000D02*
X66250000Y-78478580D01*
X64575000Y-74075000D02*
X66250000Y-75750000D01*
%TO.N,/CH4*%
X65189282Y-75325000D02*
X62500000Y-75325000D01*
X70450000Y-80950000D02*
X68085703Y-80950000D01*
X65782141Y-78646438D02*
X65782141Y-75917859D01*
X72775000Y-78625000D02*
X70450000Y-80950000D01*
X72775000Y-77400000D02*
X72775000Y-78625000D01*
X68085703Y-80950000D02*
X65782141Y-78646438D01*
X65782141Y-75917859D02*
X65189282Y-75325000D01*
%TO.N,/CH5*%
X65300000Y-78800000D02*
X67900478Y-81400480D01*
X62500000Y-76575000D02*
X63975000Y-76575000D01*
X73425000Y-78610718D02*
X73425000Y-77400000D01*
X65300000Y-77900000D02*
X65300000Y-78800000D01*
X70635237Y-81400480D02*
X73425000Y-78610718D01*
X63975000Y-76575000D02*
X65300000Y-77900000D01*
X67900478Y-81400480D02*
X70635237Y-81400480D01*
%TO.N,/CH6*%
X64775000Y-79025000D02*
X67600000Y-81850000D01*
X62500000Y-77825000D02*
X64025000Y-77825000D01*
X64775000Y-78575000D02*
X64775000Y-79025000D01*
X64025000Y-77825000D02*
X64775000Y-78575000D01*
X67600000Y-81850000D02*
X70850000Y-81850000D01*
X74075000Y-78625000D02*
X74075000Y-77400000D01*
X70850000Y-81850000D02*
X74075000Y-78625000D01*
%TO.N,/CH7*%
X66392875Y-81507125D02*
X65992900Y-81107100D01*
X74725000Y-77400000D02*
X74725000Y-78775000D01*
X67186230Y-82300480D02*
X66392875Y-81507125D01*
X74725000Y-78775000D02*
X71199520Y-82300480D01*
X63960700Y-79075000D02*
X62500000Y-79075000D01*
X71199520Y-82300480D02*
X67186230Y-82300480D01*
X66186200Y-81300500D02*
X63960700Y-79075000D01*
%TO.N,/CH8*%
X66450000Y-82750000D02*
X71450000Y-82750000D01*
X75375000Y-78825000D02*
X75375000Y-77400000D01*
X71450000Y-82750000D02*
X75375000Y-78825000D01*
X64025000Y-80325000D02*
X66450000Y-82750000D01*
X62500000Y-80325000D02*
X64025000Y-80325000D01*
%TO.N,/CH9*%
X75375000Y-84600000D02*
X75375000Y-87025000D01*
X74825000Y-89950000D02*
X74825000Y-87575000D01*
X74825000Y-87575000D02*
X75375000Y-87025000D01*
%TO.N,/CH10*%
X74725000Y-84600000D02*
X74725000Y-86625000D01*
X73575000Y-89950000D02*
X73575000Y-87775000D01*
X73575000Y-87775000D02*
X74725000Y-86625000D01*
%TO.N,/CH11*%
X74075000Y-86325000D02*
X74075000Y-84600000D01*
X72325000Y-88075000D02*
X74075000Y-86325000D01*
X72325000Y-89950000D02*
X72325000Y-88075000D01*
%TO.N,/CH12*%
X71075000Y-89950000D02*
X71075000Y-88425000D01*
X71075000Y-88425000D02*
X73425000Y-86075000D01*
X73425000Y-86075000D02*
X73425000Y-84600000D01*
%TO.N,/CH13*%
X69825000Y-89950000D02*
X69825000Y-88975000D01*
X72775000Y-86025000D02*
X72775000Y-84600000D01*
X69825000Y-88975000D02*
X72775000Y-86025000D01*
%TO.N,/CH14*%
X72125000Y-85875000D02*
X72125000Y-84600000D01*
X68850000Y-88350000D02*
X69650000Y-88350000D01*
X68575000Y-89950000D02*
X68575000Y-88625000D01*
X69650000Y-88350000D02*
X72125000Y-85875000D01*
X68575000Y-88625000D02*
X68850000Y-88350000D01*
%TO.N,/CH15*%
X71475000Y-85710700D02*
X71475000Y-84600000D01*
X67325000Y-88775000D02*
X68200000Y-87900000D01*
X69285718Y-87900000D02*
X68200000Y-87900000D01*
X69636200Y-87549500D02*
X71475000Y-85710700D01*
X67325000Y-89950000D02*
X67325000Y-88775000D01*
X70042859Y-87142859D02*
X69285718Y-87900000D01*
%TO.N,/CH16*%
X66075000Y-88925000D02*
X66075000Y-89950000D01*
X67650960Y-87349040D02*
X66075000Y-88925000D01*
X69200960Y-87349040D02*
X67650960Y-87349040D01*
X70825000Y-85725000D02*
X69200960Y-87349040D01*
X70825000Y-84600000D02*
X70825000Y-85725000D01*
%TO.N,/CH17*%
X89956652Y-81999520D02*
X87075000Y-79117868D01*
X87075000Y-79117868D02*
X87075000Y-77450000D01*
X101475000Y-83875000D02*
X99599520Y-81999520D01*
X102400000Y-83875000D02*
X101475000Y-83875000D01*
X99599520Y-81999520D02*
X89956652Y-81999520D01*
D32*
%TO.N,/POWER4*%
X92900000Y-69900000D02*
X92150000Y-70650000D01*
X87350000Y-69410400D02*
X87935000Y-68825400D01*
X87350000Y-69510400D02*
X86665000Y-68825400D01*
X87350000Y-70650000D02*
X87350000Y-69510400D01*
X92900000Y-68850000D02*
X92900000Y-69900000D01*
X87350000Y-70650000D02*
X87350000Y-69510400D01*
X87350000Y-69510400D02*
X87350000Y-69410400D01*
X81724600Y-68825400D02*
X82325000Y-68825400D01*
X81055000Y-68825400D02*
X81724600Y-68825400D01*
X81724600Y-68825400D02*
X81724600Y-69974600D01*
X81724600Y-69974600D02*
X82400000Y-70650000D01*
X82400000Y-70650000D02*
X87350000Y-70650000D01*
X92900000Y-69410400D02*
X92900000Y-68850000D01*
X87350000Y-70650000D02*
X92150000Y-70650000D01*
X92900000Y-69410400D02*
X93535000Y-68775400D01*
X92900000Y-68850000D02*
X92825400Y-68775400D01*
X92950000Y-68800000D02*
X92950000Y-67550000D01*
X92900000Y-68850000D02*
X92950000Y-68800000D01*
X92825400Y-68775400D02*
X92265000Y-68775400D01*
D30*
%TO.N,/CH18*%
X100350000Y-81550000D02*
X101425000Y-82625000D01*
X101425000Y-82625000D02*
X102400000Y-82625000D01*
X90142849Y-81550000D02*
X100350000Y-81550000D01*
X87725000Y-79132151D02*
X90142849Y-81550000D01*
X87725000Y-77450000D02*
X87725000Y-79025000D01*
X87725000Y-77450000D02*
X87725000Y-79132151D01*
%TO.N,/CH19*%
X88375000Y-77450000D02*
X88375000Y-79146434D01*
X101575000Y-81375000D02*
X102400000Y-81375000D01*
X88375000Y-79146434D02*
X90328086Y-81099520D01*
X101299520Y-81099520D02*
X101575000Y-81375000D01*
X90328086Y-81099520D02*
X101299520Y-81099520D01*
%TO.N,/CH20*%
X90514283Y-80650000D02*
X100600000Y-80650000D01*
X101125000Y-80125000D02*
X102400000Y-80125000D01*
X89025000Y-77450000D02*
X89025000Y-79160717D01*
X89025000Y-79160717D02*
X90514283Y-80650000D01*
X100600000Y-80650000D02*
X101125000Y-80125000D01*
%TO.N,/CH21*%
X98603360Y-80200480D02*
X99650000Y-80200480D01*
X98601440Y-80198560D02*
X98603360Y-80200480D01*
X100975000Y-78875480D02*
X100975000Y-78875000D01*
X89675000Y-77450000D02*
X89675000Y-79175000D01*
X100975000Y-78875000D02*
X102400000Y-78875000D01*
X99650000Y-80200480D02*
X100975000Y-78875480D01*
X89675000Y-79175000D02*
X90698560Y-80198560D01*
X90698560Y-80198560D02*
X98601440Y-80198560D01*
%TO.N,/CH22*%
X91349040Y-79749040D02*
X99000960Y-79749040D01*
X90325000Y-78725000D02*
X91349040Y-79749040D01*
X90325000Y-77450000D02*
X90325000Y-78725000D01*
X99000960Y-79749040D02*
X101125000Y-77625000D01*
X101125000Y-77625000D02*
X102400000Y-77625000D01*
%TO.N,/CH23*%
X91599520Y-79299520D02*
X98400480Y-79299520D01*
X101350000Y-76350000D02*
X102375000Y-76350000D01*
X98400480Y-79299520D02*
X101350000Y-76350000D01*
X90975000Y-78675000D02*
X91599520Y-79299520D01*
X90975000Y-77450000D02*
X90975000Y-78675000D01*
X102375000Y-76350000D02*
X102400000Y-76375000D01*
%TO.N,/CH24*%
X97950000Y-78850000D02*
X101675000Y-75125000D01*
X91625000Y-78575000D02*
X91900000Y-78850000D01*
X101675000Y-75125000D02*
X102400000Y-75125000D01*
X91625000Y-77450000D02*
X91625000Y-78575000D01*
X91900000Y-78850000D02*
X97950000Y-78850000D01*
%TO.N,Net-(R13-Pad1)*%
X87075000Y-84650000D02*
X87075000Y-82175000D01*
X87075000Y-82175000D02*
X86350000Y-81450000D01*
X83060000Y-81450000D02*
X84340000Y-81450000D01*
X86350000Y-81450000D02*
X84360000Y-81450000D01*
X84340000Y-81450000D02*
X84350000Y-81460000D01*
X84360000Y-81450000D02*
X84350000Y-81460000D01*
%TO.N,/COM1*%
X76025000Y-79199598D02*
X72562299Y-82662299D01*
X76025000Y-75625000D02*
X75950000Y-75550000D01*
X76025000Y-77400000D02*
X76025000Y-79199598D01*
X76025000Y-77400000D02*
X76025000Y-75625000D01*
%TO.N,/COM2*%
X83850000Y-91050000D02*
X86425000Y-88475000D01*
X86425000Y-88475000D02*
X86425000Y-84650000D01*
X83450000Y-91050000D02*
X83850000Y-91050000D01*
%TO.N,/M2+*%
X89025000Y-66675000D02*
X89025000Y-65050000D01*
X90995000Y-67895000D02*
X90325000Y-67225000D01*
X89575000Y-67225000D02*
X89025000Y-66675000D01*
X90995000Y-68775400D02*
X90995000Y-67895000D01*
X90325000Y-67225000D02*
X89575000Y-67225000D01*
%TO.N,/SEL3*%
X69525000Y-85689282D02*
X68764282Y-86450000D01*
X68764282Y-86450000D02*
X65750000Y-86450000D01*
X93285718Y-75950000D02*
X93750000Y-75950000D01*
X69525000Y-84600000D02*
X69525000Y-85689282D01*
X92925000Y-76310718D02*
X93267859Y-75967859D01*
X92925000Y-77450000D02*
X92925000Y-76310718D01*
X65750000Y-86450000D02*
X65550000Y-86650000D01*
X93750000Y-75950000D02*
X94850000Y-75950000D01*
X93267859Y-75967859D02*
X93285718Y-75950000D01*
X94850000Y-75950000D02*
X94950000Y-75850000D01*
%TO.N,/SEL4*%
X77670300Y-77470300D02*
X77670300Y-73659400D01*
X93575000Y-77450000D02*
X94450000Y-77450000D01*
X94450000Y-77450000D02*
X94950000Y-76950000D01*
X77550000Y-83200000D02*
X78400000Y-82350000D01*
X78400000Y-82350000D02*
X78400000Y-78200000D01*
X68875000Y-84600000D02*
X68139502Y-84600000D01*
X78400000Y-78200000D02*
X77670300Y-77470300D01*
X68139502Y-84600000D02*
X68089502Y-84550000D01*
%TO.N,/SEL2*%
X93350000Y-86250000D02*
X94850000Y-86250000D01*
X69525000Y-77400000D02*
X69525000Y-75475000D01*
X92925000Y-84650000D02*
X92925000Y-85825000D01*
X69525000Y-75475000D02*
X70600000Y-74400000D01*
X92925000Y-85825000D02*
X93350000Y-86250000D01*
%TO.N,/SEL1*%
X70175000Y-76175000D02*
X70800000Y-75550000D01*
X92275000Y-83525000D02*
X91800000Y-83050000D01*
X91800000Y-83050000D02*
X89700000Y-83050000D01*
X70800000Y-75550000D02*
X71600000Y-75550000D01*
X70175000Y-77400000D02*
X70175000Y-76175000D01*
X92275000Y-84650000D02*
X92275000Y-83525000D01*
%TO.N,/LRA6*%
X80500000Y-72500000D02*
X77760000Y-72500000D01*
X81055000Y-74074600D02*
X81055000Y-73055000D01*
X81055000Y-73055000D02*
X80500000Y-72500000D01*
%TO.N,/LRA5*%
X82325000Y-73310718D02*
X82325000Y-74074600D01*
X80364282Y-71350000D02*
X82325000Y-73310718D01*
X79250000Y-71350000D02*
X80364282Y-71350000D01*
X77760000Y-71350000D02*
X79250000Y-71350000D01*
%TO.N,/LRA4*%
X80200000Y-70200000D02*
X82400000Y-72400000D01*
X85222500Y-72400000D02*
X86665000Y-73842500D01*
X77760000Y-70200000D02*
X80200000Y-70200000D01*
X82400000Y-72400000D02*
X85222500Y-72400000D01*
X86665000Y-73842500D02*
X86665000Y-74074600D01*
%TO.N,/LRA3*%
X95300000Y-70200000D02*
X94974600Y-70200000D01*
X94974600Y-70200000D02*
X94750000Y-70200000D01*
X94750000Y-70200000D02*
X92650000Y-72300000D01*
X92650000Y-72300000D02*
X89300000Y-72300000D01*
X89300000Y-72300000D02*
X87935000Y-73665000D01*
X87935000Y-73665000D02*
X87935000Y-74074600D01*
X96390000Y-70200000D02*
X95300000Y-70200000D01*
%TO.N,/LRA2*%
X92265000Y-73792500D02*
X94657500Y-71400000D01*
X94657500Y-71400000D02*
X95300000Y-71400000D01*
X95300000Y-71400000D02*
X96390000Y-71400000D01*
%TO.N,/LRA1*%
X94728400Y-72550400D02*
X94789400Y-72611400D01*
X94299600Y-72550400D02*
X94728400Y-72550400D01*
X94300000Y-72550000D02*
X96390000Y-72550000D01*
X94299600Y-72550400D02*
X94300000Y-72550000D01*
X93535000Y-73315000D02*
X94299600Y-72550400D01*
X93535000Y-74024600D02*
X93535000Y-73315000D01*
%TD*%
%TA.AperFunction,Conductor*%
%TO.N,GND*%
G36*
X64738823Y-60528002D02*
G01*
X64785316Y-60581658D01*
X64795420Y-60651932D01*
X64781222Y-60694509D01*
X64771677Y-60711942D01*
X64726522Y-60832394D01*
X64722895Y-60847649D01*
X64717369Y-60898514D01*
X64717000Y-60905328D01*
X64717000Y-61527885D01*
X64721475Y-61543124D01*
X64722865Y-61544329D01*
X64730548Y-61546000D01*
X77553344Y-61546000D01*
X77566875Y-61542027D01*
X77568180Y-61532947D01*
X77526214Y-61365875D01*
X77522894Y-61356124D01*
X77437972Y-61160814D01*
X77433105Y-61151739D01*
X77317426Y-60972926D01*
X77311136Y-60964757D01*
X77167806Y-60807240D01*
X77160273Y-60800216D01*
X77075013Y-60732882D01*
X77033950Y-60674965D01*
X77030718Y-60604042D01*
X77066343Y-60542631D01*
X77129514Y-60510228D01*
X77153105Y-60508000D01*
X78546561Y-60508000D01*
X78614682Y-60528002D01*
X78661175Y-60581658D01*
X78671905Y-60646842D01*
X78671889Y-60647003D01*
X78666500Y-60699600D01*
X78666500Y-63000400D01*
X78666837Y-63003646D01*
X78666837Y-63003650D01*
X78672856Y-63061654D01*
X78677474Y-63106166D01*
X78679655Y-63112702D01*
X78679655Y-63112704D01*
X78710045Y-63203794D01*
X78733450Y-63273946D01*
X78826522Y-63424348D01*
X78951697Y-63549305D01*
X78957927Y-63553145D01*
X78957928Y-63553146D01*
X79095090Y-63637694D01*
X79102262Y-63642115D01*
X79160821Y-63661538D01*
X79263611Y-63695632D01*
X79263613Y-63695632D01*
X79270139Y-63697797D01*
X79276975Y-63698497D01*
X79276978Y-63698498D01*
X79320031Y-63702909D01*
X79374600Y-63708500D01*
X79975400Y-63708500D01*
X79978646Y-63708163D01*
X79978650Y-63708163D01*
X80074308Y-63698238D01*
X80074312Y-63698237D01*
X80081166Y-63697526D01*
X80087702Y-63695345D01*
X80087704Y-63695345D01*
X80219806Y-63651272D01*
X80248946Y-63641550D01*
X80399348Y-63548478D01*
X80524305Y-63423303D01*
X80528146Y-63417072D01*
X80613275Y-63278968D01*
X80613276Y-63278966D01*
X80617115Y-63272738D01*
X80644687Y-63189612D01*
X80670632Y-63111389D01*
X80670632Y-63111387D01*
X80672797Y-63104861D01*
X80675484Y-63078642D01*
X80679983Y-63034729D01*
X80683500Y-63000400D01*
X80683500Y-60699600D01*
X80678043Y-60647003D01*
X80690908Y-60577182D01*
X80739479Y-60525400D01*
X80803370Y-60508000D01*
X90996561Y-60508000D01*
X91064682Y-60528002D01*
X91111175Y-60581658D01*
X91121905Y-60646842D01*
X91121889Y-60647003D01*
X91116500Y-60699600D01*
X91116500Y-63000400D01*
X91116837Y-63003646D01*
X91116837Y-63003650D01*
X91122856Y-63061654D01*
X91127474Y-63106166D01*
X91129655Y-63112702D01*
X91129655Y-63112704D01*
X91160045Y-63203794D01*
X91183450Y-63273946D01*
X91276522Y-63424348D01*
X91401697Y-63549305D01*
X91407927Y-63553145D01*
X91407928Y-63553146D01*
X91545090Y-63637694D01*
X91552262Y-63642115D01*
X91610821Y-63661538D01*
X91713611Y-63695632D01*
X91713613Y-63695632D01*
X91720139Y-63697797D01*
X91726975Y-63698497D01*
X91726978Y-63698498D01*
X91770031Y-63702909D01*
X91824600Y-63708500D01*
X92331955Y-63708500D01*
X92400076Y-63728502D01*
X92446569Y-63782158D01*
X92456673Y-63852432D01*
X92441074Y-63897499D01*
X92365473Y-64028444D01*
X92306458Y-64210072D01*
X92305768Y-64216633D01*
X92305768Y-64216635D01*
X92287186Y-64393435D01*
X92286496Y-64400000D01*
X92287186Y-64406565D01*
X92304513Y-64571418D01*
X92306458Y-64589928D01*
X92365473Y-64771556D01*
X92368776Y-64777278D01*
X92368777Y-64777279D01*
X92430636Y-64884422D01*
X92447374Y-64953418D01*
X92424153Y-65020509D01*
X92368346Y-65064396D01*
X92297671Y-65071145D01*
X92232421Y-65036517D01*
X92128083Y-64932178D01*
X91853647Y-64657742D01*
X91846113Y-64649463D01*
X91842000Y-64642982D01*
X91792348Y-64596356D01*
X91789507Y-64593602D01*
X91769770Y-64573865D01*
X91766573Y-64571385D01*
X91757551Y-64563680D01*
X91725321Y-64533414D01*
X91718375Y-64529595D01*
X91718372Y-64529593D01*
X91707566Y-64523652D01*
X91691047Y-64512801D01*
X91684848Y-64507993D01*
X91675041Y-64500386D01*
X91667772Y-64497241D01*
X91667768Y-64497238D01*
X91634463Y-64482826D01*
X91623813Y-64477609D01*
X91585060Y-64456305D01*
X91565437Y-64451267D01*
X91546734Y-64444863D01*
X91535420Y-64439967D01*
X91535419Y-64439967D01*
X91528145Y-64436819D01*
X91520322Y-64435580D01*
X91520312Y-64435577D01*
X91484476Y-64429901D01*
X91472856Y-64427495D01*
X91437711Y-64418472D01*
X91437710Y-64418472D01*
X91430030Y-64416500D01*
X91409776Y-64416500D01*
X91390065Y-64414949D01*
X91377886Y-64413020D01*
X91370057Y-64411780D01*
X91362165Y-64412526D01*
X91326039Y-64415941D01*
X91314181Y-64416500D01*
X91209500Y-64416500D01*
X91141379Y-64396498D01*
X91094886Y-64342842D01*
X91083500Y-64290500D01*
X91083500Y-64283498D01*
X91083219Y-64279926D01*
X91081067Y-64252579D01*
X91081066Y-64252574D01*
X91080562Y-64246169D01*
X91041682Y-64112342D01*
X91036357Y-64094012D01*
X91036356Y-64094010D01*
X91034145Y-64086399D01*
X91000120Y-64028866D01*
X90953491Y-63950020D01*
X90953489Y-63950017D01*
X90949453Y-63943193D01*
X90831807Y-63825547D01*
X90824983Y-63821511D01*
X90824980Y-63821509D01*
X90695427Y-63744892D01*
X90695428Y-63744892D01*
X90688601Y-63740855D01*
X90680990Y-63738644D01*
X90680988Y-63738643D01*
X90620720Y-63721134D01*
X90528831Y-63694438D01*
X90522426Y-63693934D01*
X90522421Y-63693933D01*
X90493958Y-63691693D01*
X90493950Y-63691693D01*
X90491502Y-63691500D01*
X90058498Y-63691500D01*
X90056050Y-63691693D01*
X90056042Y-63691693D01*
X90027579Y-63693933D01*
X90027574Y-63693934D01*
X90021169Y-63694438D01*
X89929280Y-63721134D01*
X89869012Y-63738643D01*
X89869010Y-63738644D01*
X89861399Y-63740855D01*
X89718193Y-63825547D01*
X89717136Y-63823759D01*
X89661149Y-63845745D01*
X89591525Y-63831849D01*
X89581966Y-63825706D01*
X89581807Y-63825547D01*
X89438601Y-63740855D01*
X89430990Y-63738644D01*
X89430988Y-63738643D01*
X89370720Y-63721134D01*
X89278831Y-63694438D01*
X89272426Y-63693934D01*
X89272421Y-63693933D01*
X89243958Y-63691693D01*
X89243950Y-63691693D01*
X89241502Y-63691500D01*
X89022804Y-63691500D01*
X88954683Y-63671498D01*
X88908190Y-63617842D01*
X88897494Y-63552330D01*
X88912814Y-63406565D01*
X88913504Y-63400000D01*
X88907559Y-63343435D01*
X88894232Y-63216635D01*
X88894232Y-63216633D01*
X88893542Y-63210072D01*
X88834527Y-63028444D01*
X88830847Y-63022069D01*
X88762476Y-62903649D01*
X88739040Y-62863056D01*
X88721805Y-62843914D01*
X88615675Y-62726045D01*
X88615674Y-62726044D01*
X88611253Y-62721134D01*
X88512157Y-62649136D01*
X88462094Y-62612763D01*
X88462093Y-62612762D01*
X88456752Y-62608882D01*
X88450724Y-62606198D01*
X88450722Y-62606197D01*
X88288319Y-62533891D01*
X88288318Y-62533891D01*
X88282288Y-62531206D01*
X88188887Y-62511353D01*
X88101944Y-62492872D01*
X88101939Y-62492872D01*
X88095487Y-62491500D01*
X87904513Y-62491500D01*
X87898061Y-62492872D01*
X87898056Y-62492872D01*
X87811113Y-62511353D01*
X87717712Y-62531206D01*
X87711682Y-62533891D01*
X87711681Y-62533891D01*
X87549278Y-62606197D01*
X87549276Y-62606198D01*
X87543248Y-62608882D01*
X87537907Y-62612762D01*
X87537906Y-62612763D01*
X87487843Y-62649136D01*
X87388747Y-62721134D01*
X87384326Y-62726044D01*
X87384325Y-62726045D01*
X87278196Y-62843914D01*
X87260960Y-62863056D01*
X87237524Y-62903649D01*
X87169154Y-63022069D01*
X87165473Y-63028444D01*
X87106458Y-63210072D01*
X87105768Y-63216633D01*
X87105768Y-63216635D01*
X87092441Y-63343435D01*
X87086496Y-63400000D01*
X87106458Y-63589928D01*
X87108500Y-63596213D01*
X87109067Y-63598880D01*
X87103667Y-63669671D01*
X87060852Y-63726305D01*
X86994215Y-63750800D01*
X86939434Y-63741348D01*
X86938601Y-63740855D01*
X86930988Y-63738643D01*
X86930985Y-63738642D01*
X86826073Y-63708163D01*
X86778831Y-63694438D01*
X86772426Y-63693934D01*
X86772421Y-63693933D01*
X86743958Y-63691693D01*
X86743950Y-63691693D01*
X86741502Y-63691500D01*
X86308498Y-63691500D01*
X86306050Y-63691693D01*
X86306042Y-63691693D01*
X86277579Y-63693933D01*
X86277574Y-63693934D01*
X86271169Y-63694438D01*
X86179280Y-63721134D01*
X86119012Y-63738643D01*
X86119010Y-63738644D01*
X86111399Y-63740855D01*
X85968193Y-63825547D01*
X85967136Y-63823759D01*
X85911149Y-63845745D01*
X85841525Y-63831849D01*
X85831966Y-63825706D01*
X85831807Y-63825547D01*
X85688601Y-63740855D01*
X85680990Y-63738644D01*
X85680988Y-63738643D01*
X85620720Y-63721134D01*
X85528831Y-63694438D01*
X85522426Y-63693934D01*
X85522421Y-63693933D01*
X85493958Y-63691693D01*
X85493950Y-63691693D01*
X85491502Y-63691500D01*
X85058498Y-63691500D01*
X85056050Y-63691693D01*
X85056042Y-63691693D01*
X85027579Y-63693933D01*
X85027574Y-63693934D01*
X85021169Y-63694438D01*
X84929280Y-63721134D01*
X84869012Y-63738643D01*
X84869010Y-63738644D01*
X84861399Y-63740855D01*
X84718193Y-63825547D01*
X84717136Y-63823759D01*
X84661149Y-63845745D01*
X84591525Y-63831849D01*
X84581963Y-63825703D01*
X84581807Y-63825547D01*
X84516808Y-63787106D01*
X84468359Y-63735217D01*
X84455653Y-63665367D01*
X84461116Y-63639725D01*
X84493542Y-63539928D01*
X84494233Y-63533360D01*
X84512814Y-63356565D01*
X84513504Y-63350000D01*
X84506038Y-63278968D01*
X84494232Y-63166635D01*
X84494232Y-63166633D01*
X84493542Y-63160072D01*
X84434527Y-62978444D01*
X84339040Y-62813056D01*
X84333333Y-62806717D01*
X84215675Y-62676045D01*
X84215674Y-62676044D01*
X84211253Y-62671134D01*
X84081391Y-62576783D01*
X84062094Y-62562763D01*
X84062093Y-62562762D01*
X84056752Y-62558882D01*
X84050724Y-62556198D01*
X84050722Y-62556197D01*
X83888319Y-62483891D01*
X83888318Y-62483891D01*
X83882288Y-62481206D01*
X83786780Y-62460905D01*
X83701944Y-62442872D01*
X83701939Y-62442872D01*
X83695487Y-62441500D01*
X83504513Y-62441500D01*
X83498061Y-62442872D01*
X83498056Y-62442872D01*
X83413220Y-62460905D01*
X83317712Y-62481206D01*
X83311682Y-62483891D01*
X83311681Y-62483891D01*
X83149278Y-62556197D01*
X83149276Y-62556198D01*
X83143248Y-62558882D01*
X83137907Y-62562762D01*
X83137906Y-62562763D01*
X83118609Y-62576783D01*
X82988747Y-62671134D01*
X82984326Y-62676044D01*
X82984325Y-62676045D01*
X82866668Y-62806717D01*
X82860960Y-62813056D01*
X82765473Y-62978444D01*
X82706458Y-63160072D01*
X82705768Y-63166633D01*
X82705768Y-63166635D01*
X82693962Y-63278968D01*
X82686496Y-63350000D01*
X82706458Y-63539928D01*
X82707000Y-63541596D01*
X82701737Y-63610592D01*
X82658922Y-63667225D01*
X82592285Y-63691721D01*
X82583891Y-63692001D01*
X82561017Y-63692001D01*
X82556080Y-63692195D01*
X82527664Y-63694430D01*
X82515069Y-63696730D01*
X82369210Y-63739107D01*
X82354779Y-63745352D01*
X82218502Y-63825945D01*
X82217502Y-63824254D01*
X82161136Y-63846382D01*
X82091514Y-63832479D01*
X82079605Y-63824826D01*
X81945221Y-63745352D01*
X81930790Y-63739107D01*
X81796395Y-63700061D01*
X81782294Y-63700101D01*
X81779000Y-63707370D01*
X81779000Y-64777885D01*
X81783475Y-64793124D01*
X81784865Y-64794329D01*
X81792548Y-64796000D01*
X82903000Y-64796000D01*
X82971121Y-64816002D01*
X83017614Y-64869658D01*
X83029000Y-64922000D01*
X83029000Y-65178000D01*
X83008998Y-65246121D01*
X82955342Y-65292614D01*
X82903000Y-65304000D01*
X81797115Y-65304000D01*
X81781876Y-65308475D01*
X81780671Y-65309865D01*
X81779000Y-65317548D01*
X81779000Y-66386878D01*
X81782973Y-66400409D01*
X81790871Y-66401544D01*
X81930790Y-66360893D01*
X81945221Y-66354648D01*
X82081498Y-66274055D01*
X82082498Y-66275746D01*
X82138864Y-66253618D01*
X82208486Y-66267521D01*
X82220395Y-66275174D01*
X82354779Y-66354648D01*
X82369212Y-66360894D01*
X82454413Y-66385647D01*
X82514248Y-66423860D01*
X82543926Y-66488356D01*
X82534023Y-66558659D01*
X82508355Y-66595739D01*
X82424499Y-66679595D01*
X82362187Y-66713621D01*
X82335404Y-66716500D01*
X80728768Y-66716500D01*
X80717585Y-66715973D01*
X80710092Y-66714298D01*
X80702166Y-66714547D01*
X80702165Y-66714547D01*
X80642002Y-66716438D01*
X80638044Y-66716500D01*
X80610144Y-66716500D01*
X80606154Y-66717004D01*
X80594320Y-66717936D01*
X80550111Y-66719326D01*
X80542497Y-66721538D01*
X80542492Y-66721539D01*
X80530659Y-66724977D01*
X80511296Y-66728988D01*
X80491203Y-66731526D01*
X80483836Y-66734443D01*
X80483831Y-66734444D01*
X80450092Y-66747802D01*
X80438865Y-66751646D01*
X80396407Y-66763982D01*
X80389581Y-66768019D01*
X80378972Y-66774293D01*
X80361224Y-66782988D01*
X80342383Y-66790448D01*
X80335967Y-66795110D01*
X80335966Y-66795110D01*
X80306613Y-66816436D01*
X80296693Y-66822952D01*
X80265465Y-66841420D01*
X80265462Y-66841422D01*
X80258638Y-66845458D01*
X80244317Y-66859779D01*
X80229284Y-66872619D01*
X80212893Y-66884528D01*
X80207842Y-66890633D01*
X80207837Y-66890638D01*
X80184701Y-66918604D01*
X80176713Y-66927382D01*
X79614099Y-67489996D01*
X79551787Y-67524022D01*
X79531395Y-67526214D01*
X79531422Y-67526631D01*
X79527301Y-67526901D01*
X79523180Y-67526901D01*
X79519095Y-67527439D01*
X79519091Y-67527439D01*
X79418130Y-67540730D01*
X79418128Y-67540730D01*
X79409943Y-67541808D01*
X79269047Y-67600169D01*
X79148057Y-67693007D01*
X79055219Y-67813997D01*
X78996858Y-67954893D01*
X78981950Y-68068129D01*
X78981951Y-68812596D01*
X78981951Y-69440500D01*
X78961949Y-69508621D01*
X78908293Y-69555114D01*
X78855951Y-69566500D01*
X78408737Y-69566500D01*
X78340616Y-69546498D01*
X78319642Y-69529595D01*
X78292541Y-69502494D01*
X78277029Y-69493320D01*
X78159419Y-69423766D01*
X78159418Y-69423766D01*
X78152596Y-69419731D01*
X78144985Y-69417520D01*
X78144983Y-69417519D01*
X78002644Y-69376166D01*
X78002645Y-69376166D01*
X77996466Y-69374371D01*
X77990059Y-69373867D01*
X77990055Y-69373866D01*
X77962444Y-69371693D01*
X77962438Y-69371693D01*
X77959989Y-69371500D01*
X77760122Y-69371500D01*
X77560012Y-69371501D01*
X77523534Y-69374371D01*
X77476888Y-69387923D01*
X77375017Y-69417519D01*
X77375015Y-69417520D01*
X77367404Y-69419731D01*
X77360579Y-69423767D01*
X77360575Y-69423769D01*
X77314139Y-69451231D01*
X77245323Y-69468691D01*
X77185861Y-69451231D01*
X77139425Y-69423769D01*
X77139421Y-69423767D01*
X77132596Y-69419731D01*
X77124985Y-69417520D01*
X77124983Y-69417519D01*
X76982644Y-69376166D01*
X76982645Y-69376166D01*
X76976466Y-69374371D01*
X76970059Y-69373867D01*
X76970055Y-69373866D01*
X76942444Y-69371693D01*
X76942438Y-69371693D01*
X76939989Y-69371500D01*
X76740122Y-69371500D01*
X76540012Y-69371501D01*
X76503534Y-69374371D01*
X76456888Y-69387923D01*
X76355017Y-69417519D01*
X76355015Y-69417520D01*
X76347404Y-69419731D01*
X76340582Y-69423766D01*
X76340581Y-69423766D01*
X76222971Y-69493320D01*
X76207459Y-69502494D01*
X76092494Y-69617459D01*
X76009731Y-69757404D01*
X75964371Y-69913534D01*
X75963867Y-69919941D01*
X75963866Y-69919945D01*
X75962941Y-69931704D01*
X75961500Y-69950011D01*
X75961501Y-70449988D01*
X75964371Y-70486466D01*
X76009731Y-70642596D01*
X76011092Y-70644898D01*
X76019503Y-70713039D01*
X75988726Y-70777018D01*
X75969229Y-70794556D01*
X75939113Y-70816436D01*
X75929193Y-70822952D01*
X75897965Y-70841420D01*
X75897962Y-70841422D01*
X75891138Y-70845458D01*
X75876817Y-70859779D01*
X75861784Y-70872619D01*
X75845393Y-70884528D01*
X75840340Y-70890636D01*
X75840338Y-70890638D01*
X75836057Y-70895813D01*
X75777225Y-70935553D01*
X75738971Y-70941500D01*
X75687013Y-70941500D01*
X75680561Y-70942872D01*
X75680556Y-70942872D01*
X75597263Y-70960577D01*
X75500212Y-70981206D01*
X75494182Y-70983891D01*
X75494181Y-70983891D01*
X75331778Y-71056197D01*
X75331776Y-71056198D01*
X75325748Y-71058882D01*
X75320407Y-71062762D01*
X75320406Y-71062763D01*
X75307508Y-71072134D01*
X75171247Y-71171134D01*
X75166826Y-71176044D01*
X75166825Y-71176045D01*
X75160791Y-71182747D01*
X75043460Y-71313056D01*
X74947973Y-71478444D01*
X74888958Y-71660072D01*
X74888268Y-71666633D01*
X74888268Y-71666635D01*
X74873745Y-71804818D01*
X74868996Y-71850000D01*
X74869686Y-71856565D01*
X74884653Y-71998964D01*
X74888958Y-72039928D01*
X74947973Y-72221556D01*
X74951276Y-72227278D01*
X74951277Y-72227279D01*
X74968639Y-72257350D01*
X75043460Y-72386944D01*
X75047878Y-72391851D01*
X75047879Y-72391852D01*
X75092704Y-72441635D01*
X75171247Y-72528866D01*
X75270343Y-72600864D01*
X75303564Y-72625000D01*
X75325748Y-72641118D01*
X75331776Y-72643802D01*
X75331778Y-72643803D01*
X75494181Y-72716109D01*
X75500212Y-72718794D01*
X75593613Y-72738647D01*
X75680556Y-72757128D01*
X75680561Y-72757128D01*
X75687013Y-72758500D01*
X75861643Y-72758500D01*
X75929764Y-72778502D01*
X75976257Y-72832158D01*
X75982640Y-72849348D01*
X76007518Y-72934981D01*
X76007520Y-72934985D01*
X76009731Y-72942596D01*
X76013766Y-72949418D01*
X76013766Y-72949419D01*
X76068224Y-73041502D01*
X76092494Y-73082541D01*
X76207459Y-73197506D01*
X76214280Y-73201540D01*
X76325524Y-73267329D01*
X76347404Y-73280269D01*
X76355015Y-73282480D01*
X76355017Y-73282481D01*
X76428625Y-73303866D01*
X76503534Y-73325629D01*
X76509941Y-73326133D01*
X76509945Y-73326134D01*
X76537556Y-73328307D01*
X76537562Y-73328307D01*
X76540011Y-73328500D01*
X76651831Y-73328500D01*
X76719952Y-73348502D01*
X76766445Y-73402158D01*
X76776114Y-73469404D01*
X76776758Y-73469472D01*
X76756796Y-73659400D01*
X76757486Y-73665965D01*
X76773739Y-73820600D01*
X76776758Y-73849328D01*
X76835773Y-74030956D01*
X76931260Y-74196344D01*
X77004437Y-74277615D01*
X77035153Y-74341621D01*
X77036800Y-74361924D01*
X77036800Y-75159328D01*
X77016798Y-75227449D01*
X76963142Y-75273942D01*
X76892868Y-75284046D01*
X76828288Y-75254552D01*
X76790967Y-75198265D01*
X76790228Y-75195989D01*
X76784527Y-75178444D01*
X76768155Y-75150086D01*
X76726292Y-75077579D01*
X76689040Y-75013056D01*
X76661978Y-74983000D01*
X76565675Y-74876045D01*
X76565674Y-74876044D01*
X76561253Y-74871134D01*
X76438392Y-74781870D01*
X76412094Y-74762763D01*
X76412093Y-74762762D01*
X76406752Y-74758882D01*
X76400724Y-74756198D01*
X76400722Y-74756197D01*
X76238319Y-74683891D01*
X76238318Y-74683891D01*
X76232288Y-74681206D01*
X76138229Y-74661213D01*
X76051944Y-74642872D01*
X76051939Y-74642872D01*
X76045487Y-74641500D01*
X75854513Y-74641500D01*
X75848061Y-74642872D01*
X75848056Y-74642872D01*
X75761771Y-74661213D01*
X75667712Y-74681206D01*
X75661682Y-74683891D01*
X75661681Y-74683891D01*
X75499278Y-74756197D01*
X75499276Y-74756198D01*
X75493248Y-74758882D01*
X75487907Y-74762762D01*
X75487906Y-74762763D01*
X75461608Y-74781870D01*
X75338747Y-74871134D01*
X75334326Y-74876044D01*
X75334325Y-74876045D01*
X75238023Y-74983000D01*
X75210960Y-75013056D01*
X75173708Y-75077579D01*
X75131846Y-75150086D01*
X75115473Y-75178444D01*
X75056458Y-75360072D01*
X75055768Y-75366633D01*
X75055768Y-75366635D01*
X75053837Y-75385008D01*
X75036496Y-75550000D01*
X75037186Y-75556565D01*
X75038853Y-75572421D01*
X75056458Y-75739928D01*
X75058498Y-75746206D01*
X75092731Y-75851564D01*
X75094759Y-75922531D01*
X75058096Y-75983329D01*
X74994384Y-76014655D01*
X74972898Y-76016500D01*
X74451866Y-76016500D01*
X74448471Y-76016869D01*
X74448467Y-76016869D01*
X74426172Y-76019291D01*
X74413606Y-76020656D01*
X74386394Y-76020656D01*
X74373828Y-76019291D01*
X74351533Y-76016869D01*
X74351529Y-76016869D01*
X74348134Y-76016500D01*
X73801866Y-76016500D01*
X73798471Y-76016869D01*
X73798467Y-76016869D01*
X73776172Y-76019291D01*
X73763606Y-76020656D01*
X73736394Y-76020656D01*
X73723828Y-76019291D01*
X73701533Y-76016869D01*
X73701529Y-76016869D01*
X73698134Y-76016500D01*
X73151866Y-76016500D01*
X73148471Y-76016869D01*
X73148467Y-76016869D01*
X73126172Y-76019291D01*
X73113606Y-76020656D01*
X73086394Y-76020656D01*
X73073828Y-76019291D01*
X73051533Y-76016869D01*
X73051529Y-76016869D01*
X73048134Y-76016500D01*
X72577102Y-76016500D01*
X72508981Y-75996498D01*
X72462488Y-75942842D01*
X72452384Y-75872568D01*
X72457269Y-75851564D01*
X72491502Y-75746206D01*
X72493542Y-75739928D01*
X72511148Y-75572421D01*
X72512814Y-75556565D01*
X72513504Y-75550000D01*
X72496163Y-75385008D01*
X72494232Y-75366635D01*
X72494232Y-75366633D01*
X72493542Y-75360072D01*
X72434527Y-75178444D01*
X72418155Y-75150086D01*
X72376292Y-75077579D01*
X72339040Y-75013056D01*
X72311978Y-74983000D01*
X72215675Y-74876045D01*
X72215674Y-74876044D01*
X72211253Y-74871134D01*
X72088392Y-74781870D01*
X72062094Y-74762763D01*
X72062093Y-74762762D01*
X72056752Y-74758882D01*
X72050724Y-74756198D01*
X72050722Y-74756197D01*
X71888319Y-74683891D01*
X71888318Y-74683891D01*
X71882288Y-74681206D01*
X71788229Y-74661213D01*
X71701944Y-74642872D01*
X71701939Y-74642872D01*
X71695487Y-74641500D01*
X71628059Y-74641500D01*
X71559938Y-74621498D01*
X71513445Y-74567842D01*
X71502749Y-74502330D01*
X71512814Y-74406565D01*
X71513504Y-74400000D01*
X71504419Y-74313558D01*
X71494232Y-74216635D01*
X71494232Y-74216633D01*
X71493542Y-74210072D01*
X71434527Y-74028444D01*
X71339040Y-73863056D01*
X71318823Y-73840602D01*
X71215675Y-73726045D01*
X71215674Y-73726044D01*
X71211253Y-73721134D01*
X71056752Y-73608882D01*
X71050724Y-73606198D01*
X71050722Y-73606197D01*
X70888319Y-73533891D01*
X70888318Y-73533891D01*
X70882288Y-73531206D01*
X70775348Y-73508475D01*
X70701944Y-73492872D01*
X70701939Y-73492872D01*
X70695487Y-73491500D01*
X70504513Y-73491500D01*
X70498061Y-73492872D01*
X70498056Y-73492872D01*
X70424652Y-73508475D01*
X70317712Y-73531206D01*
X70311682Y-73533891D01*
X70311681Y-73533891D01*
X70149278Y-73606197D01*
X70149276Y-73606198D01*
X70143248Y-73608882D01*
X69988747Y-73721134D01*
X69984326Y-73726044D01*
X69984325Y-73726045D01*
X69881178Y-73840602D01*
X69860960Y-73863056D01*
X69765473Y-74028444D01*
X69706458Y-74210072D01*
X69705768Y-74216633D01*
X69705768Y-74216635D01*
X69689093Y-74375292D01*
X69662080Y-74440949D01*
X69652879Y-74451217D01*
X69392696Y-74711399D01*
X69132742Y-74971353D01*
X69124463Y-74978887D01*
X69117982Y-74983000D01*
X69075611Y-75028121D01*
X69071357Y-75032651D01*
X69068602Y-75035493D01*
X69048865Y-75055230D01*
X69046385Y-75058427D01*
X69038682Y-75067447D01*
X69008414Y-75099679D01*
X69004595Y-75106625D01*
X69004593Y-75106628D01*
X68998652Y-75117434D01*
X68987801Y-75133953D01*
X68975386Y-75149959D01*
X68972241Y-75157228D01*
X68972238Y-75157232D01*
X68957826Y-75190537D01*
X68952609Y-75201187D01*
X68931305Y-75239940D01*
X68929334Y-75247615D01*
X68929334Y-75247616D01*
X68926267Y-75259562D01*
X68919863Y-75278266D01*
X68911819Y-75296855D01*
X68910580Y-75304678D01*
X68910577Y-75304688D01*
X68904901Y-75340524D01*
X68902495Y-75352144D01*
X68895512Y-75379342D01*
X68891500Y-75394970D01*
X68891500Y-75415224D01*
X68889949Y-75434934D01*
X68886780Y-75454943D01*
X68887526Y-75462835D01*
X68890941Y-75498961D01*
X68891500Y-75510819D01*
X68891500Y-75891000D01*
X68871498Y-75959121D01*
X68817842Y-76005614D01*
X68765501Y-76017000D01*
X68605332Y-76017001D01*
X68598510Y-76017371D01*
X68547648Y-76022895D01*
X68532396Y-76026521D01*
X68411946Y-76071676D01*
X68396351Y-76080214D01*
X68294276Y-76156715D01*
X68281715Y-76169276D01*
X68205214Y-76271351D01*
X68196676Y-76286946D01*
X68151522Y-76407394D01*
X68147895Y-76422649D01*
X68142369Y-76473514D01*
X68142000Y-76480328D01*
X68142000Y-77156885D01*
X68146475Y-77172124D01*
X68147865Y-77173329D01*
X68155548Y-77175000D01*
X68665500Y-77175000D01*
X68733621Y-77195002D01*
X68780114Y-77248658D01*
X68791500Y-77301000D01*
X68791500Y-77499000D01*
X68771498Y-77567121D01*
X68717842Y-77613614D01*
X68665500Y-77625000D01*
X68160116Y-77625000D01*
X68144877Y-77629475D01*
X68143672Y-77630865D01*
X68142001Y-77638548D01*
X68142001Y-77899006D01*
X68121999Y-77967127D01*
X68068343Y-78013620D01*
X67998069Y-78023724D01*
X67933489Y-77994230D01*
X67926906Y-77988101D01*
X67820405Y-77881600D01*
X67786379Y-77819288D01*
X67783500Y-77792505D01*
X67783500Y-75028768D01*
X67784027Y-75017585D01*
X67785702Y-75010092D01*
X67784485Y-74971353D01*
X67783562Y-74942002D01*
X67783500Y-74938044D01*
X67783500Y-74910144D01*
X67782996Y-74906153D01*
X67782063Y-74894311D01*
X67781412Y-74873577D01*
X67780674Y-74850111D01*
X67778462Y-74842497D01*
X67778461Y-74842492D01*
X67775023Y-74830659D01*
X67771012Y-74811295D01*
X67769467Y-74799064D01*
X67768474Y-74791203D01*
X67765557Y-74783836D01*
X67765556Y-74783831D01*
X67752198Y-74750092D01*
X67748354Y-74738865D01*
X67746232Y-74731561D01*
X67736018Y-74696407D01*
X67725707Y-74678972D01*
X67717012Y-74661224D01*
X67709552Y-74642383D01*
X67683564Y-74606613D01*
X67677048Y-74596693D01*
X67658580Y-74565465D01*
X67658578Y-74565462D01*
X67654542Y-74558638D01*
X67640221Y-74544317D01*
X67627380Y-74529283D01*
X67620131Y-74519306D01*
X67615472Y-74512893D01*
X67581395Y-74484702D01*
X67572616Y-74476712D01*
X64278652Y-71182747D01*
X64271112Y-71174461D01*
X64267000Y-71167982D01*
X64217348Y-71121356D01*
X64214507Y-71118602D01*
X64194770Y-71098865D01*
X64191573Y-71096385D01*
X64182551Y-71088680D01*
X64156100Y-71063841D01*
X64150321Y-71058414D01*
X64143375Y-71054595D01*
X64143372Y-71054593D01*
X64132566Y-71048652D01*
X64116047Y-71037801D01*
X64115583Y-71037441D01*
X64100041Y-71025386D01*
X64092772Y-71022241D01*
X64092768Y-71022238D01*
X64059463Y-71007826D01*
X64048813Y-71002609D01*
X64010060Y-70981305D01*
X63990437Y-70976267D01*
X63971734Y-70969863D01*
X63960420Y-70964967D01*
X63960419Y-70964967D01*
X63953145Y-70961819D01*
X63945322Y-70960580D01*
X63945312Y-70960577D01*
X63909476Y-70954901D01*
X63897856Y-70952495D01*
X63862711Y-70943472D01*
X63862710Y-70943472D01*
X63855030Y-70941500D01*
X63834776Y-70941500D01*
X63815065Y-70939949D01*
X63814933Y-70939928D01*
X63795057Y-70936780D01*
X63787165Y-70937526D01*
X63751039Y-70940941D01*
X63739181Y-70941500D01*
X63699950Y-70941500D01*
X63631829Y-70921498D01*
X63618729Y-70910941D01*
X63618675Y-70911011D01*
X63612415Y-70906155D01*
X63606807Y-70900547D01*
X63599983Y-70896511D01*
X63599980Y-70896509D01*
X63470427Y-70819892D01*
X63470428Y-70819892D01*
X63463601Y-70815855D01*
X63455990Y-70813644D01*
X63455988Y-70813643D01*
X63403769Y-70798472D01*
X63303831Y-70769438D01*
X63297426Y-70768934D01*
X63297421Y-70768933D01*
X63268958Y-70766693D01*
X63268950Y-70766693D01*
X63266502Y-70766500D01*
X61733498Y-70766500D01*
X61731050Y-70766693D01*
X61731042Y-70766693D01*
X61702579Y-70768933D01*
X61702574Y-70768934D01*
X61696169Y-70769438D01*
X61596231Y-70798472D01*
X61544012Y-70813643D01*
X61544010Y-70813644D01*
X61536399Y-70815855D01*
X61529572Y-70819892D01*
X61529573Y-70819892D01*
X61400020Y-70896509D01*
X61400017Y-70896511D01*
X61393193Y-70900547D01*
X61275547Y-71018193D01*
X61271511Y-71025017D01*
X61271509Y-71025020D01*
X61226179Y-71101669D01*
X61190855Y-71161399D01*
X61188644Y-71169010D01*
X61188643Y-71169012D01*
X61186600Y-71176045D01*
X61144438Y-71321169D01*
X61143934Y-71327574D01*
X61143933Y-71327579D01*
X61141761Y-71355176D01*
X61141500Y-71358498D01*
X61141500Y-71791502D01*
X61141693Y-71793950D01*
X61141693Y-71793958D01*
X61143699Y-71819438D01*
X61144438Y-71828831D01*
X61164586Y-71898182D01*
X61186904Y-71975000D01*
X61190855Y-71988601D01*
X61194892Y-71995427D01*
X61275547Y-72131807D01*
X61273759Y-72132864D01*
X61295745Y-72188851D01*
X61281849Y-72258475D01*
X61275706Y-72268034D01*
X61275547Y-72268193D01*
X61190855Y-72411399D01*
X61144438Y-72571169D01*
X61141500Y-72608498D01*
X61141500Y-73041502D01*
X61141693Y-73043950D01*
X61141693Y-73043958D01*
X61143208Y-73063197D01*
X61144438Y-73078831D01*
X61166341Y-73154223D01*
X61187085Y-73225623D01*
X61190855Y-73238601D01*
X61270831Y-73373832D01*
X61275547Y-73381807D01*
X61273759Y-73382864D01*
X61295745Y-73438851D01*
X61281849Y-73508475D01*
X61275706Y-73518034D01*
X61275547Y-73518193D01*
X61190855Y-73661399D01*
X61144438Y-73821169D01*
X61143934Y-73827574D01*
X61143933Y-73827579D01*
X61141693Y-73856042D01*
X61141500Y-73858498D01*
X61141500Y-74291502D01*
X61141693Y-74293950D01*
X61141693Y-74293958D01*
X61143699Y-74319438D01*
X61144438Y-74328831D01*
X61190855Y-74488601D01*
X61194892Y-74495427D01*
X61275547Y-74631807D01*
X61273759Y-74632864D01*
X61295745Y-74688851D01*
X61281849Y-74758475D01*
X61275706Y-74768034D01*
X61275547Y-74768193D01*
X61190855Y-74911399D01*
X61188644Y-74919010D01*
X61188643Y-74919012D01*
X61178883Y-74952608D01*
X61144438Y-75071169D01*
X61143934Y-75077574D01*
X61143933Y-75077579D01*
X61142649Y-75093900D01*
X61141500Y-75108498D01*
X61141500Y-75541502D01*
X61141693Y-75543950D01*
X61141693Y-75543958D01*
X61142686Y-75556565D01*
X61144438Y-75578831D01*
X61190855Y-75738601D01*
X61236072Y-75815059D01*
X61275547Y-75881807D01*
X61273759Y-75882864D01*
X61295745Y-75938851D01*
X61281849Y-76008475D01*
X61275706Y-76018034D01*
X61275547Y-76018193D01*
X61190855Y-76161399D01*
X61188644Y-76169010D01*
X61188643Y-76169012D01*
X61177993Y-76205670D01*
X61144438Y-76321169D01*
X61141500Y-76358498D01*
X61141500Y-76791502D01*
X61141693Y-76793950D01*
X61141693Y-76793958D01*
X61142741Y-76807265D01*
X61144438Y-76828831D01*
X61190855Y-76988601D01*
X61194892Y-76995427D01*
X61275547Y-77131807D01*
X61273759Y-77132864D01*
X61295745Y-77188851D01*
X61281849Y-77258475D01*
X61275706Y-77268034D01*
X61275547Y-77268193D01*
X61190855Y-77411399D01*
X61144438Y-77571169D01*
X61143934Y-77577574D01*
X61143933Y-77577579D01*
X61142235Y-77599161D01*
X61141500Y-77608498D01*
X61141500Y-78041502D01*
X61141693Y-78043950D01*
X61141693Y-78043958D01*
X61143921Y-78072256D01*
X61144438Y-78078831D01*
X61190855Y-78238601D01*
X61194892Y-78245427D01*
X61275547Y-78381807D01*
X61273759Y-78382864D01*
X61295745Y-78438851D01*
X61281849Y-78508475D01*
X61275706Y-78518034D01*
X61275547Y-78518193D01*
X61190855Y-78661399D01*
X61188644Y-78669010D01*
X61188643Y-78669012D01*
X61174804Y-78716647D01*
X61144438Y-78821169D01*
X61143934Y-78827574D01*
X61143933Y-78827579D01*
X61141693Y-78856042D01*
X61141500Y-78858498D01*
X61141500Y-79291502D01*
X61144438Y-79328831D01*
X61190855Y-79488601D01*
X61194892Y-79495427D01*
X61275547Y-79631807D01*
X61273759Y-79632864D01*
X61295745Y-79688851D01*
X61281849Y-79758475D01*
X61275706Y-79768034D01*
X61275547Y-79768193D01*
X61190855Y-79911399D01*
X61188644Y-79919010D01*
X61188643Y-79919012D01*
X61182646Y-79939656D01*
X61144438Y-80071169D01*
X61141500Y-80108498D01*
X61141500Y-80541502D01*
X61141693Y-80543950D01*
X61141693Y-80543958D01*
X61143009Y-80560673D01*
X61144438Y-80578831D01*
X61164562Y-80648100D01*
X61181986Y-80708072D01*
X61190855Y-80738601D01*
X61237301Y-80817136D01*
X61275547Y-80881807D01*
X61273887Y-80882789D01*
X61296063Y-80939263D01*
X61282166Y-81008886D01*
X61275462Y-81019319D01*
X61195352Y-81154779D01*
X61189107Y-81169210D01*
X61150061Y-81303605D01*
X61150101Y-81317706D01*
X61157370Y-81321000D01*
X63836878Y-81321000D01*
X63852117Y-81316525D01*
X63857237Y-81310617D01*
X63878109Y-81264915D01*
X63937835Y-81226531D01*
X64008831Y-81226531D01*
X64062426Y-81258330D01*
X64742458Y-81938362D01*
X64776483Y-82000674D01*
X64771418Y-82071490D01*
X64728871Y-82128325D01*
X64662351Y-82153136D01*
X64592977Y-82138045D01*
X64579306Y-82129396D01*
X64504589Y-82075111D01*
X64487594Y-82062763D01*
X64487593Y-82062762D01*
X64482252Y-82058882D01*
X64476224Y-82056198D01*
X64476222Y-82056197D01*
X64313819Y-81983891D01*
X64313818Y-81983891D01*
X64307788Y-81981206D01*
X64214387Y-81961353D01*
X64127444Y-81942872D01*
X64127439Y-81942872D01*
X64120987Y-81941500D01*
X63975851Y-81941500D01*
X63907730Y-81921498D01*
X63861237Y-81867842D01*
X63854684Y-81837921D01*
X63851520Y-81833029D01*
X63842630Y-81829000D01*
X61163122Y-81829000D01*
X61149591Y-81832973D01*
X61148456Y-81840871D01*
X61189107Y-81980790D01*
X61195352Y-81995221D01*
X61275945Y-82131498D01*
X61274124Y-82132575D01*
X61296063Y-82188438D01*
X61282168Y-82258062D01*
X61275856Y-82267884D01*
X61275547Y-82268193D01*
X61274271Y-82270350D01*
X61274263Y-82270363D01*
X61222187Y-82358419D01*
X61190855Y-82411399D01*
X61188644Y-82419010D01*
X61188643Y-82419012D01*
X61181471Y-82443699D01*
X61144438Y-82571169D01*
X61141500Y-82608498D01*
X61141500Y-83041502D01*
X61141693Y-83043950D01*
X61141693Y-83043958D01*
X61142686Y-83056565D01*
X61144438Y-83078831D01*
X61165414Y-83151032D01*
X61187938Y-83228559D01*
X61190855Y-83238601D01*
X61194892Y-83245427D01*
X61271509Y-83374980D01*
X61271511Y-83374983D01*
X61275547Y-83381807D01*
X61393193Y-83499453D01*
X61400017Y-83503489D01*
X61400020Y-83503491D01*
X61484990Y-83553742D01*
X61536399Y-83584145D01*
X61544010Y-83586356D01*
X61544012Y-83586357D01*
X61577280Y-83596022D01*
X61696169Y-83630562D01*
X61702574Y-83631066D01*
X61702579Y-83631067D01*
X61731042Y-83633307D01*
X61731050Y-83633307D01*
X61733498Y-83633500D01*
X63266502Y-83633500D01*
X63268950Y-83633307D01*
X63268958Y-83633307D01*
X63297421Y-83631067D01*
X63297426Y-83631066D01*
X63303831Y-83630562D01*
X63310007Y-83628768D01*
X63310011Y-83628767D01*
X63423421Y-83595819D01*
X63494417Y-83596022D01*
X63532633Y-83614879D01*
X63568748Y-83641118D01*
X63574776Y-83643802D01*
X63574778Y-83643803D01*
X63737181Y-83716109D01*
X63743212Y-83718794D01*
X63809505Y-83732885D01*
X63923556Y-83757128D01*
X63923561Y-83757128D01*
X63930013Y-83758500D01*
X64120987Y-83758500D01*
X64127439Y-83757128D01*
X64127444Y-83757128D01*
X64241495Y-83732885D01*
X64307788Y-83718794D01*
X64313819Y-83716109D01*
X64476222Y-83643803D01*
X64476224Y-83643802D01*
X64482252Y-83641118D01*
X64636753Y-83528866D01*
X64641185Y-83523944D01*
X64760121Y-83391852D01*
X64760122Y-83391851D01*
X64764540Y-83386944D01*
X64833594Y-83267340D01*
X64856723Y-83227279D01*
X64856724Y-83227278D01*
X64860027Y-83221556D01*
X64919042Y-83039928D01*
X64923951Y-82993227D01*
X64938314Y-82856565D01*
X64939004Y-82850000D01*
X64924814Y-82714988D01*
X64919732Y-82666635D01*
X64919732Y-82666633D01*
X64919042Y-82660072D01*
X64860027Y-82478444D01*
X64851003Y-82462813D01*
X64767843Y-82318777D01*
X64764540Y-82313056D01*
X64764643Y-82312997D01*
X64741747Y-82248834D01*
X64757825Y-82179682D01*
X64808736Y-82130200D01*
X64878318Y-82116098D01*
X64944479Y-82141853D01*
X64956636Y-82152541D01*
X65946348Y-83142253D01*
X65953888Y-83150539D01*
X65958000Y-83157018D01*
X65963777Y-83162443D01*
X66007651Y-83203643D01*
X66010493Y-83206398D01*
X66030230Y-83226135D01*
X66033427Y-83228615D01*
X66042447Y-83236318D01*
X66074679Y-83266586D01*
X66081625Y-83270405D01*
X66081628Y-83270407D01*
X66092434Y-83276348D01*
X66108953Y-83287199D01*
X66124959Y-83299614D01*
X66132228Y-83302759D01*
X66132232Y-83302762D01*
X66165537Y-83317174D01*
X66176187Y-83322391D01*
X66214940Y-83343695D01*
X66222615Y-83345666D01*
X66222616Y-83345666D01*
X66234562Y-83348733D01*
X66253267Y-83355137D01*
X66271855Y-83363181D01*
X66279678Y-83364420D01*
X66279688Y-83364423D01*
X66315524Y-83370099D01*
X66327144Y-83372505D01*
X66361113Y-83381226D01*
X66369970Y-83383500D01*
X66390224Y-83383500D01*
X66409934Y-83385051D01*
X66429943Y-83388220D01*
X66437835Y-83387474D01*
X66473961Y-83384059D01*
X66485819Y-83383500D01*
X68053124Y-83383500D01*
X68121245Y-83403502D01*
X68167738Y-83457158D01*
X68177842Y-83527432D01*
X68171101Y-83553742D01*
X68168851Y-83559742D01*
X68126204Y-83616502D01*
X68059640Y-83641195D01*
X68050874Y-83641500D01*
X67994015Y-83641500D01*
X67987563Y-83642872D01*
X67987558Y-83642872D01*
X67914046Y-83658498D01*
X67807214Y-83681206D01*
X67801184Y-83683891D01*
X67801183Y-83683891D01*
X67638780Y-83756197D01*
X67638778Y-83756198D01*
X67632750Y-83758882D01*
X67478249Y-83871134D01*
X67473828Y-83876044D01*
X67473827Y-83876045D01*
X67411309Y-83945479D01*
X67350462Y-84013056D01*
X67254975Y-84178444D01*
X67195960Y-84360072D01*
X67195270Y-84366633D01*
X67195270Y-84366635D01*
X67188705Y-84429100D01*
X67175998Y-84550000D01*
X67176688Y-84556565D01*
X67194623Y-84727203D01*
X67195960Y-84739928D01*
X67254975Y-84921556D01*
X67350462Y-85086944D01*
X67354880Y-85091851D01*
X67354881Y-85091852D01*
X67446678Y-85193803D01*
X67478249Y-85228866D01*
X67632750Y-85341118D01*
X67638778Y-85343802D01*
X67638780Y-85343803D01*
X67801183Y-85416109D01*
X67807214Y-85418794D01*
X67900614Y-85438647D01*
X67987558Y-85457128D01*
X67987563Y-85457128D01*
X67994015Y-85458500D01*
X68021425Y-85458500D01*
X68089546Y-85478502D01*
X68136039Y-85532158D01*
X68146688Y-85570892D01*
X68148255Y-85585316D01*
X68169773Y-85642715D01*
X68171106Y-85646270D01*
X68176289Y-85717077D01*
X68142369Y-85779446D01*
X68080113Y-85813575D01*
X68053124Y-85816500D01*
X65938343Y-85816500D01*
X65887095Y-85805607D01*
X65838323Y-85783892D01*
X65838315Y-85783889D01*
X65832288Y-85781206D01*
X65738887Y-85761353D01*
X65651944Y-85742872D01*
X65651939Y-85742872D01*
X65645487Y-85741500D01*
X65454513Y-85741500D01*
X65448061Y-85742872D01*
X65448056Y-85742872D01*
X65361113Y-85761353D01*
X65267712Y-85781206D01*
X65261682Y-85783891D01*
X65261681Y-85783891D01*
X65099278Y-85856197D01*
X65099276Y-85856198D01*
X65093248Y-85858882D01*
X64938747Y-85971134D01*
X64934326Y-85976044D01*
X64934325Y-85976045D01*
X64852758Y-86066635D01*
X64810960Y-86113056D01*
X64715473Y-86278444D01*
X64656458Y-86460072D01*
X64636496Y-86650000D01*
X64637186Y-86656565D01*
X64649228Y-86771134D01*
X64656458Y-86839928D01*
X64715473Y-87021556D01*
X64810960Y-87186944D01*
X64815378Y-87191851D01*
X64815379Y-87191852D01*
X64911491Y-87298595D01*
X64938747Y-87328866D01*
X65093248Y-87441118D01*
X65099276Y-87443802D01*
X65099278Y-87443803D01*
X65261681Y-87516109D01*
X65267712Y-87518794D01*
X65357565Y-87537893D01*
X65448056Y-87557128D01*
X65448061Y-87557128D01*
X65454513Y-87558500D01*
X65645487Y-87558500D01*
X65651939Y-87557128D01*
X65651944Y-87557128D01*
X65742435Y-87537893D01*
X65832288Y-87518794D01*
X65838319Y-87516109D01*
X66000722Y-87443803D01*
X66000724Y-87443802D01*
X66006752Y-87441118D01*
X66161253Y-87328866D01*
X66188509Y-87298595D01*
X66284621Y-87191852D01*
X66284622Y-87191851D01*
X66289040Y-87186944D01*
X66292344Y-87181222D01*
X66312392Y-87146499D01*
X66363775Y-87097506D01*
X66421510Y-87083500D01*
X66716406Y-87083500D01*
X66784527Y-87103502D01*
X66831020Y-87157158D01*
X66841124Y-87227432D01*
X66811630Y-87292012D01*
X66805503Y-87298593D01*
X66236602Y-87867493D01*
X65682747Y-88421348D01*
X65674461Y-88428888D01*
X65667982Y-88433000D01*
X65662557Y-88438777D01*
X65621357Y-88482651D01*
X65618602Y-88485493D01*
X65598865Y-88505230D01*
X65596385Y-88508427D01*
X65588682Y-88517447D01*
X65558414Y-88549679D01*
X65554595Y-88556625D01*
X65554593Y-88556628D01*
X65548652Y-88567434D01*
X65537801Y-88583953D01*
X65525386Y-88599959D01*
X65522241Y-88607228D01*
X65522238Y-88607232D01*
X65507826Y-88640537D01*
X65502609Y-88651187D01*
X65481305Y-88689940D01*
X65479334Y-88697615D01*
X65479334Y-88697616D01*
X65476267Y-88709562D01*
X65469863Y-88728266D01*
X65461819Y-88746855D01*
X65460578Y-88754687D01*
X65458367Y-88762299D01*
X65454900Y-88761292D01*
X65426270Y-88817470D01*
X65400547Y-88843193D01*
X65396511Y-88850017D01*
X65396509Y-88850020D01*
X65349462Y-88929572D01*
X65315855Y-88986399D01*
X65269438Y-89146169D01*
X65268934Y-89152574D01*
X65268933Y-89152579D01*
X65268500Y-89158086D01*
X65266500Y-89183498D01*
X65266500Y-90716502D01*
X65266693Y-90718950D01*
X65266693Y-90718958D01*
X65268649Y-90743803D01*
X65269438Y-90753831D01*
X65315855Y-90913601D01*
X65319890Y-90920423D01*
X65319892Y-90920427D01*
X65396509Y-91049980D01*
X65396511Y-91049983D01*
X65400547Y-91056807D01*
X65518193Y-91174453D01*
X65525017Y-91178489D01*
X65525020Y-91178491D01*
X65623748Y-91236878D01*
X65661399Y-91259145D01*
X65669010Y-91261356D01*
X65669012Y-91261357D01*
X65719363Y-91275985D01*
X65821169Y-91305562D01*
X65827574Y-91306066D01*
X65827579Y-91306067D01*
X65856042Y-91308307D01*
X65856050Y-91308307D01*
X65858498Y-91308500D01*
X66291502Y-91308500D01*
X66293950Y-91308307D01*
X66293958Y-91308307D01*
X66322421Y-91306067D01*
X66322426Y-91306066D01*
X66328831Y-91305562D01*
X66430637Y-91275985D01*
X66480988Y-91261357D01*
X66480990Y-91261356D01*
X66488601Y-91259145D01*
X66631807Y-91174453D01*
X66632864Y-91176241D01*
X66688851Y-91154255D01*
X66758475Y-91168151D01*
X66768034Y-91174294D01*
X66768193Y-91174453D01*
X66911399Y-91259145D01*
X66919010Y-91261356D01*
X66919012Y-91261357D01*
X66969363Y-91275985D01*
X67071169Y-91305562D01*
X67077574Y-91306066D01*
X67077579Y-91306067D01*
X67106042Y-91308307D01*
X67106050Y-91308307D01*
X67108498Y-91308500D01*
X67541502Y-91308500D01*
X67543950Y-91308307D01*
X67543958Y-91308307D01*
X67572421Y-91306067D01*
X67572426Y-91306066D01*
X67578831Y-91305562D01*
X67680637Y-91275985D01*
X67730988Y-91261357D01*
X67730990Y-91261356D01*
X67738601Y-91259145D01*
X67881807Y-91174453D01*
X67882864Y-91176241D01*
X67938851Y-91154255D01*
X68008475Y-91168151D01*
X68018034Y-91174294D01*
X68018193Y-91174453D01*
X68161399Y-91259145D01*
X68169010Y-91261356D01*
X68169012Y-91261357D01*
X68219363Y-91275985D01*
X68321169Y-91305562D01*
X68327574Y-91306066D01*
X68327579Y-91306067D01*
X68356042Y-91308307D01*
X68356050Y-91308307D01*
X68358498Y-91308500D01*
X68791502Y-91308500D01*
X68793950Y-91308307D01*
X68793958Y-91308307D01*
X68822421Y-91306067D01*
X68822426Y-91306066D01*
X68828831Y-91305562D01*
X68930637Y-91275985D01*
X68980988Y-91261357D01*
X68980990Y-91261356D01*
X68988601Y-91259145D01*
X69131807Y-91174453D01*
X69132864Y-91176241D01*
X69188851Y-91154255D01*
X69258475Y-91168151D01*
X69268034Y-91174294D01*
X69268193Y-91174453D01*
X69411399Y-91259145D01*
X69419010Y-91261356D01*
X69419012Y-91261357D01*
X69469363Y-91275985D01*
X69571169Y-91305562D01*
X69577574Y-91306066D01*
X69577579Y-91306067D01*
X69606042Y-91308307D01*
X69606050Y-91308307D01*
X69608498Y-91308500D01*
X70041502Y-91308500D01*
X70043950Y-91308307D01*
X70043958Y-91308307D01*
X70072421Y-91306067D01*
X70072426Y-91306066D01*
X70078831Y-91305562D01*
X70180637Y-91275985D01*
X70230988Y-91261357D01*
X70230990Y-91261356D01*
X70238601Y-91259145D01*
X70381807Y-91174453D01*
X70382864Y-91176241D01*
X70438851Y-91154255D01*
X70508475Y-91168151D01*
X70518034Y-91174294D01*
X70518193Y-91174453D01*
X70661399Y-91259145D01*
X70669010Y-91261356D01*
X70669012Y-91261357D01*
X70719363Y-91275985D01*
X70821169Y-91305562D01*
X70827574Y-91306066D01*
X70827579Y-91306067D01*
X70856042Y-91308307D01*
X70856050Y-91308307D01*
X70858498Y-91308500D01*
X71291502Y-91308500D01*
X71293950Y-91308307D01*
X71293958Y-91308307D01*
X71322421Y-91306067D01*
X71322426Y-91306066D01*
X71328831Y-91305562D01*
X71430637Y-91275985D01*
X71480988Y-91261357D01*
X71480990Y-91261356D01*
X71488601Y-91259145D01*
X71631807Y-91174453D01*
X71632864Y-91176241D01*
X71688851Y-91154255D01*
X71758475Y-91168151D01*
X71768034Y-91174294D01*
X71768193Y-91174453D01*
X71911399Y-91259145D01*
X71919010Y-91261356D01*
X71919012Y-91261357D01*
X71969363Y-91275985D01*
X72071169Y-91305562D01*
X72077574Y-91306066D01*
X72077579Y-91306067D01*
X72106042Y-91308307D01*
X72106050Y-91308307D01*
X72108498Y-91308500D01*
X72541502Y-91308500D01*
X72543950Y-91308307D01*
X72543958Y-91308307D01*
X72572421Y-91306067D01*
X72572426Y-91306066D01*
X72578831Y-91305562D01*
X72680637Y-91275985D01*
X72730988Y-91261357D01*
X72730990Y-91261356D01*
X72738601Y-91259145D01*
X72881807Y-91174453D01*
X72882864Y-91176241D01*
X72938851Y-91154255D01*
X73008475Y-91168151D01*
X73018034Y-91174294D01*
X73018193Y-91174453D01*
X73161399Y-91259145D01*
X73169010Y-91261356D01*
X73169012Y-91261357D01*
X73219363Y-91275985D01*
X73321169Y-91305562D01*
X73327574Y-91306066D01*
X73327579Y-91306067D01*
X73356042Y-91308307D01*
X73356050Y-91308307D01*
X73358498Y-91308500D01*
X73791502Y-91308500D01*
X73793950Y-91308307D01*
X73793958Y-91308307D01*
X73822421Y-91306067D01*
X73822426Y-91306066D01*
X73828831Y-91305562D01*
X73930637Y-91275985D01*
X73980988Y-91261357D01*
X73980990Y-91261356D01*
X73988601Y-91259145D01*
X74131807Y-91174453D01*
X74132864Y-91176241D01*
X74188851Y-91154255D01*
X74258475Y-91168151D01*
X74268034Y-91174294D01*
X74268193Y-91174453D01*
X74411399Y-91259145D01*
X74419010Y-91261356D01*
X74419012Y-91261357D01*
X74469363Y-91275985D01*
X74571169Y-91305562D01*
X74577574Y-91306066D01*
X74577579Y-91306067D01*
X74606042Y-91308307D01*
X74606050Y-91308307D01*
X74608498Y-91308500D01*
X75041502Y-91308500D01*
X75043950Y-91308307D01*
X75043958Y-91308307D01*
X75072421Y-91306067D01*
X75072426Y-91306066D01*
X75078831Y-91305562D01*
X75180637Y-91275985D01*
X75230988Y-91261357D01*
X75230990Y-91261356D01*
X75238601Y-91259145D01*
X75381807Y-91174453D01*
X75382788Y-91176111D01*
X75439277Y-91153936D01*
X75508899Y-91167840D01*
X75519322Y-91174540D01*
X75654779Y-91254648D01*
X75669210Y-91260893D01*
X75803605Y-91299939D01*
X75817706Y-91299899D01*
X75821000Y-91292630D01*
X75821000Y-88613122D01*
X75817027Y-88599591D01*
X75809129Y-88598456D01*
X75669210Y-88639107D01*
X75654779Y-88645352D01*
X75648639Y-88648983D01*
X75579822Y-88666442D01*
X75512491Y-88643925D01*
X75468022Y-88588580D01*
X75458500Y-88540529D01*
X75458500Y-87889594D01*
X75478502Y-87821473D01*
X75495405Y-87800499D01*
X75767247Y-87528657D01*
X75775537Y-87521113D01*
X75782018Y-87517000D01*
X75787443Y-87511223D01*
X75793552Y-87506169D01*
X75795130Y-87508076D01*
X75845776Y-87478310D01*
X75916716Y-87481138D01*
X75965525Y-87511429D01*
X76654595Y-88200499D01*
X76688621Y-88262811D01*
X76691500Y-88289594D01*
X76691500Y-88540529D01*
X76671498Y-88608650D01*
X76617842Y-88655143D01*
X76547568Y-88665247D01*
X76501361Y-88648983D01*
X76495221Y-88645352D01*
X76480790Y-88639107D01*
X76346395Y-88600061D01*
X76332294Y-88600101D01*
X76329000Y-88607370D01*
X76329000Y-91286878D01*
X76332973Y-91300409D01*
X76357798Y-91303978D01*
X76403745Y-91304112D01*
X76463358Y-91342670D01*
X76492662Y-91407337D01*
X76487726Y-91463839D01*
X76456458Y-91560072D01*
X76455768Y-91566633D01*
X76455768Y-91566635D01*
X76450051Y-91621028D01*
X76436496Y-91750000D01*
X76437186Y-91756565D01*
X76455129Y-91927279D01*
X76456458Y-91939928D01*
X76515473Y-92121556D01*
X76518776Y-92127278D01*
X76518777Y-92127279D01*
X76531705Y-92149670D01*
X76610960Y-92286944D01*
X76615378Y-92291851D01*
X76615379Y-92291852D01*
X76729292Y-92418365D01*
X76738747Y-92428866D01*
X76776050Y-92455968D01*
X76873518Y-92526783D01*
X76893248Y-92541118D01*
X76899276Y-92543802D01*
X76899278Y-92543803D01*
X77053079Y-92612279D01*
X77067712Y-92618794D01*
X77161113Y-92638647D01*
X77248056Y-92657128D01*
X77248061Y-92657128D01*
X77254513Y-92658500D01*
X77445487Y-92658500D01*
X77451939Y-92657128D01*
X77451944Y-92657128D01*
X77538887Y-92638647D01*
X77632288Y-92618794D01*
X77646921Y-92612279D01*
X77800722Y-92543803D01*
X77800724Y-92543802D01*
X77806752Y-92541118D01*
X77826483Y-92526783D01*
X77923950Y-92455968D01*
X77961253Y-92428866D01*
X77961900Y-92429757D01*
X78020190Y-92401780D01*
X78090644Y-92410540D01*
X78145178Y-92456000D01*
X78166500Y-92526132D01*
X78166500Y-94300400D01*
X78166837Y-94303644D01*
X78166837Y-94303652D01*
X78171957Y-94352997D01*
X78159092Y-94422818D01*
X78110521Y-94474600D01*
X78046630Y-94492000D01*
X65353439Y-94492000D01*
X65285318Y-94471998D01*
X65238825Y-94418342D01*
X65228095Y-94353158D01*
X65233172Y-94303601D01*
X65233500Y-94300400D01*
X65233500Y-91999600D01*
X65229236Y-91958500D01*
X65223238Y-91900692D01*
X65223237Y-91900688D01*
X65222526Y-91893834D01*
X65210102Y-91856593D01*
X65168868Y-91733002D01*
X65166550Y-91726054D01*
X65073478Y-91575652D01*
X64948303Y-91450695D01*
X64942072Y-91446854D01*
X64803968Y-91361725D01*
X64803966Y-91361724D01*
X64797738Y-91357885D01*
X64717995Y-91331436D01*
X64636389Y-91304368D01*
X64636387Y-91304368D01*
X64629861Y-91302203D01*
X64623025Y-91301503D01*
X64623022Y-91301502D01*
X64576015Y-91296686D01*
X64525400Y-91291500D01*
X63924600Y-91291500D01*
X63921354Y-91291837D01*
X63921350Y-91291837D01*
X63825692Y-91301762D01*
X63825688Y-91301763D01*
X63818834Y-91302474D01*
X63812298Y-91304655D01*
X63812296Y-91304655D01*
X63742827Y-91327832D01*
X63651054Y-91358450D01*
X63500652Y-91451522D01*
X63375695Y-91576697D01*
X63371855Y-91582927D01*
X63371854Y-91582928D01*
X63313706Y-91677262D01*
X63282885Y-91727262D01*
X63263035Y-91787107D01*
X63246389Y-91837296D01*
X63227203Y-91895139D01*
X63216500Y-91999600D01*
X63216500Y-94300400D01*
X63216837Y-94303644D01*
X63216837Y-94303652D01*
X63221957Y-94352997D01*
X63209092Y-94422818D01*
X63160521Y-94474600D01*
X63096630Y-94492000D01*
X62135317Y-94492000D01*
X62067196Y-94471998D01*
X62020703Y-94418342D01*
X62010599Y-94348068D01*
X62037604Y-94286450D01*
X62200751Y-94086055D01*
X62205164Y-94079914D01*
X62375349Y-93810187D01*
X62379005Y-93803536D01*
X62515544Y-93515335D01*
X62518375Y-93508295D01*
X62619306Y-93205767D01*
X62621270Y-93198433D01*
X62685122Y-92885989D01*
X62686194Y-92878465D01*
X62712173Y-92559051D01*
X62712378Y-92554576D01*
X62712927Y-92502221D01*
X62712817Y-92497789D01*
X62693529Y-92177853D01*
X62692621Y-92170351D01*
X62635319Y-91856593D01*
X62633518Y-91849260D01*
X62538935Y-91544655D01*
X62536263Y-91537583D01*
X62405781Y-91246570D01*
X62402264Y-91239843D01*
X62237771Y-90966621D01*
X62233481Y-90960377D01*
X62097991Y-90786647D01*
X62086199Y-90778178D01*
X62074486Y-90784725D01*
X60089095Y-92770115D01*
X60026783Y-92804141D01*
X59955967Y-92799076D01*
X59910905Y-92770115D01*
X59729885Y-92589095D01*
X59695859Y-92526783D01*
X59700924Y-92455968D01*
X59729885Y-92410905D01*
X61714559Y-90426230D01*
X61721571Y-90413389D01*
X61713777Y-90402701D01*
X61551298Y-90274613D01*
X61545075Y-90270288D01*
X61272702Y-90104357D01*
X61266025Y-90100822D01*
X60975686Y-89968813D01*
X60968616Y-89966099D01*
X60664537Y-89869932D01*
X60657186Y-89868085D01*
X60343746Y-89809142D01*
X60336237Y-89808194D01*
X60017989Y-89787335D01*
X60010424Y-89787295D01*
X59691964Y-89804821D01*
X59684450Y-89805690D01*
X59370405Y-89861348D01*
X59363044Y-89863115D01*
X59057980Y-89956092D01*
X59050860Y-89958740D01*
X58759182Y-90087690D01*
X58752445Y-90091167D01*
X58478355Y-90254233D01*
X58472091Y-90258490D01*
X58219583Y-90453299D01*
X58216829Y-90455701D01*
X58152347Y-90485409D01*
X58082039Y-90475539D01*
X58028229Y-90429225D01*
X58008000Y-90360752D01*
X58008000Y-87630000D01*
X60946496Y-87630000D01*
X60947186Y-87636565D01*
X60965292Y-87808831D01*
X60966458Y-87819928D01*
X61025473Y-88001556D01*
X61028776Y-88007278D01*
X61028777Y-88007279D01*
X61055618Y-88053768D01*
X61120960Y-88166944D01*
X61125378Y-88171851D01*
X61125379Y-88171852D01*
X61231394Y-88289594D01*
X61248747Y-88308866D01*
X61403248Y-88421118D01*
X61409276Y-88423802D01*
X61409278Y-88423803D01*
X61571681Y-88496109D01*
X61577712Y-88498794D01*
X61671113Y-88518647D01*
X61758056Y-88537128D01*
X61758061Y-88537128D01*
X61764513Y-88538500D01*
X61955487Y-88538500D01*
X61961939Y-88537128D01*
X61961944Y-88537128D01*
X62048887Y-88518647D01*
X62142288Y-88498794D01*
X62148319Y-88496109D01*
X62310722Y-88423803D01*
X62310724Y-88423802D01*
X62316752Y-88421118D01*
X62471253Y-88308866D01*
X62488606Y-88289594D01*
X62594621Y-88171852D01*
X62594622Y-88171851D01*
X62599040Y-88166944D01*
X62664382Y-88053768D01*
X62691223Y-88007279D01*
X62691224Y-88007278D01*
X62694527Y-88001556D01*
X62753542Y-87819928D01*
X62754709Y-87808831D01*
X62772814Y-87636565D01*
X62773504Y-87630000D01*
X62763823Y-87537893D01*
X62754232Y-87446635D01*
X62754232Y-87446633D01*
X62753542Y-87440072D01*
X62694527Y-87258444D01*
X62599040Y-87093056D01*
X62591543Y-87084729D01*
X62475675Y-86956045D01*
X62475674Y-86956044D01*
X62471253Y-86951134D01*
X62339016Y-86855058D01*
X62322094Y-86842763D01*
X62322093Y-86842762D01*
X62316752Y-86838882D01*
X62310724Y-86836198D01*
X62310722Y-86836197D01*
X62148319Y-86763891D01*
X62148318Y-86763891D01*
X62142288Y-86761206D01*
X62048887Y-86741353D01*
X61961944Y-86722872D01*
X61961939Y-86722872D01*
X61955487Y-86721500D01*
X61764513Y-86721500D01*
X61758061Y-86722872D01*
X61758056Y-86722872D01*
X61671113Y-86741353D01*
X61577712Y-86761206D01*
X61571682Y-86763891D01*
X61571681Y-86763891D01*
X61409278Y-86836197D01*
X61409276Y-86836198D01*
X61403248Y-86838882D01*
X61397907Y-86842762D01*
X61397906Y-86842763D01*
X61380984Y-86855058D01*
X61248747Y-86951134D01*
X61244326Y-86956044D01*
X61244325Y-86956045D01*
X61128458Y-87084729D01*
X61120960Y-87093056D01*
X61025473Y-87258444D01*
X60966458Y-87440072D01*
X60965768Y-87446633D01*
X60965768Y-87446635D01*
X60956177Y-87537893D01*
X60946496Y-87630000D01*
X58008000Y-87630000D01*
X58008000Y-85808562D01*
X58028002Y-85740441D01*
X58081658Y-85693948D01*
X58143143Y-85683822D01*
X58143185Y-85683008D01*
X58146402Y-85683172D01*
X58149600Y-85683500D01*
X60450400Y-85683500D01*
X60453646Y-85683163D01*
X60453650Y-85683163D01*
X60549308Y-85673238D01*
X60549312Y-85673237D01*
X60556166Y-85672526D01*
X60562702Y-85670345D01*
X60562704Y-85670345D01*
X60716998Y-85618868D01*
X60723946Y-85616550D01*
X60874348Y-85523478D01*
X60999305Y-85398303D01*
X61032040Y-85345198D01*
X61088275Y-85253968D01*
X61088276Y-85253966D01*
X61092115Y-85247738D01*
X61147797Y-85079861D01*
X61158500Y-84975400D01*
X61158500Y-84374600D01*
X61154019Y-84331413D01*
X61148238Y-84275692D01*
X61148237Y-84275688D01*
X61147526Y-84268834D01*
X61127922Y-84210072D01*
X61093868Y-84108002D01*
X61091550Y-84101054D01*
X60998478Y-83950652D01*
X60873303Y-83825695D01*
X60764293Y-83758500D01*
X60728968Y-83736725D01*
X60728966Y-83736724D01*
X60722738Y-83732885D01*
X60642995Y-83706436D01*
X60561389Y-83679368D01*
X60561387Y-83679368D01*
X60554861Y-83677203D01*
X60548025Y-83676503D01*
X60548022Y-83676502D01*
X60504969Y-83672091D01*
X60450400Y-83666500D01*
X58149600Y-83666500D01*
X58146350Y-83666837D01*
X58143108Y-83667005D01*
X58143058Y-83666047D01*
X58077167Y-83653897D01*
X58025392Y-83605319D01*
X58008000Y-83541442D01*
X58008000Y-70858562D01*
X58028002Y-70790441D01*
X58081658Y-70743948D01*
X58143143Y-70733822D01*
X58143185Y-70733008D01*
X58146402Y-70733172D01*
X58149600Y-70733500D01*
X60450400Y-70733500D01*
X60453646Y-70733163D01*
X60453650Y-70733163D01*
X60549308Y-70723238D01*
X60549312Y-70723237D01*
X60556166Y-70722526D01*
X60562702Y-70720345D01*
X60562704Y-70720345D01*
X60716998Y-70668868D01*
X60723946Y-70666550D01*
X60874348Y-70573478D01*
X60999305Y-70448303D01*
X61092115Y-70297738D01*
X61147797Y-70129861D01*
X61150304Y-70105398D01*
X61155167Y-70057928D01*
X61158500Y-70025400D01*
X61158500Y-69424600D01*
X61157974Y-69419528D01*
X61148238Y-69325692D01*
X61148237Y-69325688D01*
X61147526Y-69318834D01*
X61136310Y-69285214D01*
X61093868Y-69158002D01*
X61091550Y-69151054D01*
X60998478Y-69000652D01*
X60873303Y-68875695D01*
X60770938Y-68812596D01*
X60728968Y-68786725D01*
X60728966Y-68786724D01*
X60722738Y-68782885D01*
X60642995Y-68756436D01*
X60561389Y-68729368D01*
X60561387Y-68729368D01*
X60554861Y-68727203D01*
X60548025Y-68726503D01*
X60548022Y-68726502D01*
X60504969Y-68722091D01*
X60450400Y-68716500D01*
X58149600Y-68716500D01*
X58146350Y-68716837D01*
X58143108Y-68717005D01*
X58143058Y-68716047D01*
X58077167Y-68703897D01*
X58025392Y-68655319D01*
X58008000Y-68591442D01*
X58008000Y-68384000D01*
X58028002Y-68315879D01*
X58081658Y-68269386D01*
X58134000Y-68258000D01*
X58702885Y-68258000D01*
X58718124Y-68253525D01*
X58719329Y-68252135D01*
X58721000Y-68244452D01*
X58721000Y-68239884D01*
X59229000Y-68239884D01*
X59233475Y-68255123D01*
X59234865Y-68256328D01*
X59242548Y-68257999D01*
X59869669Y-68257999D01*
X59876490Y-68257629D01*
X59927352Y-68252105D01*
X59942604Y-68248479D01*
X60063054Y-68203324D01*
X60078649Y-68194786D01*
X60180724Y-68118285D01*
X60193285Y-68105724D01*
X60269786Y-68003649D01*
X60278324Y-67988054D01*
X60319225Y-67878952D01*
X60361867Y-67822188D01*
X60428428Y-67797488D01*
X60497777Y-67812696D01*
X60532444Y-67840684D01*
X60557865Y-67870031D01*
X60557869Y-67870035D01*
X60561250Y-67873938D01*
X60733126Y-68016632D01*
X60926000Y-68129338D01*
X61134692Y-68209030D01*
X61139760Y-68210061D01*
X61139763Y-68210062D01*
X61246339Y-68231745D01*
X61353597Y-68253567D01*
X61358772Y-68253757D01*
X61358774Y-68253757D01*
X61571673Y-68261564D01*
X61571677Y-68261564D01*
X61576837Y-68261753D01*
X61581957Y-68261097D01*
X61581959Y-68261097D01*
X61793288Y-68234025D01*
X61793289Y-68234025D01*
X61798416Y-68233368D01*
X61851140Y-68217550D01*
X62007429Y-68170661D01*
X62007434Y-68170659D01*
X62012384Y-68169174D01*
X62212994Y-68070896D01*
X62394860Y-67941173D01*
X62430836Y-67905323D01*
X62496070Y-67840316D01*
X62553096Y-67783489D01*
X62556944Y-67778134D01*
X64716500Y-67778134D01*
X64723255Y-67840316D01*
X64774385Y-67976705D01*
X64861739Y-68093261D01*
X64978295Y-68180615D01*
X65114684Y-68231745D01*
X65176866Y-68238500D01*
X66973134Y-68238500D01*
X67035316Y-68231745D01*
X67171705Y-68180615D01*
X67288261Y-68093261D01*
X67375615Y-67976705D01*
X67386653Y-67947262D01*
X67419598Y-67859382D01*
X67462240Y-67802618D01*
X67528802Y-67777918D01*
X67598150Y-67793126D01*
X67632817Y-67821114D01*
X67661250Y-67853938D01*
X67833126Y-67996632D01*
X68026000Y-68109338D01*
X68030825Y-68111180D01*
X68030826Y-68111181D01*
X68078375Y-68129338D01*
X68234692Y-68189030D01*
X68239760Y-68190061D01*
X68239763Y-68190062D01*
X68338067Y-68210062D01*
X68453597Y-68233567D01*
X68458772Y-68233757D01*
X68458774Y-68233757D01*
X68671673Y-68241564D01*
X68671677Y-68241564D01*
X68676837Y-68241753D01*
X68681957Y-68241097D01*
X68681959Y-68241097D01*
X68893288Y-68214025D01*
X68893289Y-68214025D01*
X68898416Y-68213368D01*
X68903366Y-68211883D01*
X69107429Y-68150661D01*
X69107434Y-68150659D01*
X69112384Y-68149174D01*
X69312994Y-68050896D01*
X69494860Y-67921173D01*
X69510766Y-67905323D01*
X69583884Y-67832460D01*
X69653096Y-67763489D01*
X69739932Y-67642644D01*
X69783453Y-67582077D01*
X69784776Y-67583028D01*
X69831645Y-67539857D01*
X69901580Y-67527625D01*
X69967026Y-67555144D01*
X69994875Y-67586994D01*
X70006628Y-67606173D01*
X70054987Y-67685088D01*
X70201250Y-67853938D01*
X70373126Y-67996632D01*
X70566000Y-68109338D01*
X70570825Y-68111180D01*
X70570826Y-68111181D01*
X70618375Y-68129338D01*
X70774692Y-68189030D01*
X70779760Y-68190061D01*
X70779763Y-68190062D01*
X70878067Y-68210062D01*
X70993597Y-68233567D01*
X70998772Y-68233757D01*
X70998774Y-68233757D01*
X71211673Y-68241564D01*
X71211677Y-68241564D01*
X71216837Y-68241753D01*
X71221957Y-68241097D01*
X71221959Y-68241097D01*
X71433288Y-68214025D01*
X71433289Y-68214025D01*
X71438416Y-68213368D01*
X71443366Y-68211883D01*
X71647429Y-68150661D01*
X71647434Y-68150659D01*
X71652384Y-68149174D01*
X71852994Y-68050896D01*
X72034860Y-67921173D01*
X72050766Y-67905323D01*
X72123884Y-67832460D01*
X72193096Y-67763489D01*
X72279932Y-67642644D01*
X72323453Y-67582077D01*
X72324776Y-67583028D01*
X72371645Y-67539857D01*
X72441580Y-67527625D01*
X72507026Y-67555144D01*
X72534875Y-67586994D01*
X72546628Y-67606173D01*
X72594987Y-67685088D01*
X72741250Y-67853938D01*
X72913126Y-67996632D01*
X73106000Y-68109338D01*
X73110825Y-68111180D01*
X73110826Y-68111181D01*
X73158375Y-68129338D01*
X73314692Y-68189030D01*
X73319760Y-68190061D01*
X73319763Y-68190062D01*
X73418067Y-68210062D01*
X73533597Y-68233567D01*
X73538772Y-68233757D01*
X73538774Y-68233757D01*
X73751673Y-68241564D01*
X73751677Y-68241564D01*
X73756837Y-68241753D01*
X73761957Y-68241097D01*
X73761959Y-68241097D01*
X73973288Y-68214025D01*
X73973289Y-68214025D01*
X73978416Y-68213368D01*
X73983366Y-68211883D01*
X74187429Y-68150661D01*
X74187434Y-68150659D01*
X74192384Y-68149174D01*
X74392994Y-68050896D01*
X74574860Y-67921173D01*
X74590766Y-67905323D01*
X74663884Y-67832460D01*
X74733096Y-67763489D01*
X74819932Y-67642644D01*
X74863453Y-67582077D01*
X74864776Y-67583028D01*
X74911645Y-67539857D01*
X74981580Y-67527625D01*
X75047026Y-67555144D01*
X75074875Y-67586994D01*
X75086628Y-67606173D01*
X75134987Y-67685088D01*
X75281250Y-67853938D01*
X75453126Y-67996632D01*
X75646000Y-68109338D01*
X75650825Y-68111180D01*
X75650826Y-68111181D01*
X75698375Y-68129338D01*
X75854692Y-68189030D01*
X75859760Y-68190061D01*
X75859763Y-68190062D01*
X75958067Y-68210062D01*
X76073597Y-68233567D01*
X76078772Y-68233757D01*
X76078774Y-68233757D01*
X76291673Y-68241564D01*
X76291677Y-68241564D01*
X76296837Y-68241753D01*
X76301957Y-68241097D01*
X76301959Y-68241097D01*
X76513288Y-68214025D01*
X76513289Y-68214025D01*
X76518416Y-68213368D01*
X76523366Y-68211883D01*
X76727429Y-68150661D01*
X76727434Y-68150659D01*
X76732384Y-68149174D01*
X76932994Y-68050896D01*
X77114860Y-67921173D01*
X77130766Y-67905323D01*
X77203884Y-67832460D01*
X77273096Y-67763489D01*
X77403453Y-67582077D01*
X77408471Y-67571925D01*
X77500136Y-67386453D01*
X77500137Y-67386451D01*
X77502430Y-67381811D01*
X77560694Y-67190041D01*
X77565865Y-67173023D01*
X77565865Y-67173021D01*
X77567370Y-67168069D01*
X77596529Y-66946590D01*
X77597585Y-66903365D01*
X77598074Y-66883365D01*
X77598074Y-66883361D01*
X77598156Y-66880000D01*
X77579852Y-66657361D01*
X77525431Y-66440702D01*
X77436354Y-66235840D01*
X77339435Y-66086026D01*
X77317822Y-66052617D01*
X77317820Y-66052614D01*
X77315014Y-66048277D01*
X77164670Y-65883051D01*
X77160619Y-65879852D01*
X77160615Y-65879848D01*
X77077217Y-65813984D01*
X80717001Y-65813984D01*
X80717195Y-65818920D01*
X80719430Y-65847336D01*
X80721730Y-65859931D01*
X80764107Y-66005790D01*
X80770352Y-66020221D01*
X80846911Y-66149678D01*
X80856551Y-66162104D01*
X80962896Y-66268449D01*
X80975322Y-66278089D01*
X81104779Y-66354648D01*
X81119210Y-66360893D01*
X81253605Y-66399939D01*
X81267706Y-66399899D01*
X81271000Y-66392630D01*
X81271000Y-65322115D01*
X81266525Y-65306876D01*
X81265135Y-65305671D01*
X81257452Y-65304000D01*
X80735116Y-65304000D01*
X80719877Y-65308475D01*
X80718672Y-65309865D01*
X80717001Y-65317548D01*
X80717001Y-65813984D01*
X77077217Y-65813984D01*
X76993414Y-65747800D01*
X76993410Y-65747798D01*
X76989359Y-65744598D01*
X76948053Y-65721796D01*
X76898084Y-65671364D01*
X76883312Y-65601921D01*
X76908428Y-65535516D01*
X76935780Y-65508909D01*
X76992651Y-65468343D01*
X77114860Y-65381173D01*
X77187813Y-65308475D01*
X77215268Y-65281115D01*
X77273096Y-65223489D01*
X77403453Y-65042077D01*
X77418315Y-65012007D01*
X77500136Y-64846453D01*
X77500137Y-64846451D01*
X77502430Y-64841811D01*
X77521852Y-64777885D01*
X80717000Y-64777885D01*
X80721475Y-64793124D01*
X80722865Y-64794329D01*
X80730548Y-64796000D01*
X81252885Y-64796000D01*
X81268124Y-64791525D01*
X81269329Y-64790135D01*
X81271000Y-64782452D01*
X81271000Y-63713122D01*
X81267027Y-63699591D01*
X81259129Y-63698456D01*
X81119210Y-63739107D01*
X81104779Y-63745352D01*
X80975322Y-63821911D01*
X80962896Y-63831551D01*
X80856551Y-63937896D01*
X80846911Y-63950322D01*
X80770352Y-64079779D01*
X80764107Y-64094210D01*
X80721731Y-64240065D01*
X80719430Y-64252667D01*
X80717193Y-64281084D01*
X80717000Y-64286014D01*
X80717000Y-64777885D01*
X77521852Y-64777885D01*
X77549276Y-64687623D01*
X77565865Y-64633023D01*
X77565865Y-64633021D01*
X77567370Y-64628069D01*
X77596529Y-64406590D01*
X77596776Y-64396498D01*
X77598074Y-64343365D01*
X77598074Y-64343361D01*
X77598156Y-64340000D01*
X77579852Y-64117361D01*
X77525431Y-63900702D01*
X77436354Y-63695840D01*
X77371382Y-63595409D01*
X77317822Y-63512617D01*
X77317820Y-63512614D01*
X77315014Y-63508277D01*
X77164670Y-63343051D01*
X77160619Y-63339852D01*
X77160615Y-63339848D01*
X76993414Y-63207800D01*
X76993410Y-63207798D01*
X76989359Y-63204598D01*
X76947569Y-63181529D01*
X76897598Y-63131097D01*
X76882826Y-63061654D01*
X76907942Y-62995248D01*
X76935294Y-62968641D01*
X77110328Y-62843792D01*
X77118200Y-62837139D01*
X77269052Y-62686812D01*
X77275730Y-62678965D01*
X77400003Y-62506020D01*
X77405313Y-62497183D01*
X77499670Y-62306267D01*
X77503469Y-62296672D01*
X77565377Y-62092910D01*
X77567555Y-62082837D01*
X77568986Y-62071962D01*
X77566775Y-62057778D01*
X77553617Y-62054000D01*
X64735116Y-62054000D01*
X64719877Y-62058475D01*
X64718672Y-62059865D01*
X64717001Y-62067548D01*
X64717001Y-62694669D01*
X64717371Y-62701490D01*
X64722895Y-62752352D01*
X64726521Y-62767604D01*
X64771676Y-62888054D01*
X64780214Y-62903649D01*
X64847942Y-62994018D01*
X64872790Y-63060525D01*
X64857737Y-63129907D01*
X64847942Y-63145148D01*
X64836757Y-63160072D01*
X64774385Y-63243295D01*
X64723255Y-63379684D01*
X64716500Y-63441866D01*
X64716500Y-65238134D01*
X64723255Y-65300316D01*
X64774385Y-65436705D01*
X64847630Y-65534435D01*
X64872478Y-65600941D01*
X64857425Y-65670324D01*
X64847632Y-65685562D01*
X64774385Y-65783295D01*
X64723255Y-65919684D01*
X64716500Y-65981866D01*
X64716500Y-67778134D01*
X62556944Y-67778134D01*
X62567468Y-67763489D01*
X62680435Y-67606277D01*
X62683453Y-67602077D01*
X62685959Y-67597008D01*
X62780136Y-67406453D01*
X62780137Y-67406451D01*
X62782430Y-67401811D01*
X62828127Y-67251406D01*
X62845865Y-67193023D01*
X62845865Y-67193021D01*
X62847370Y-67188069D01*
X62876529Y-66966590D01*
X62876639Y-66962107D01*
X62878074Y-66903365D01*
X62878074Y-66903361D01*
X62878156Y-66900000D01*
X62859852Y-66677361D01*
X62805431Y-66460702D01*
X62716354Y-66255840D01*
X62655915Y-66162416D01*
X62597822Y-66072617D01*
X62597820Y-66072614D01*
X62595014Y-66068277D01*
X62444670Y-65903051D01*
X62440619Y-65899852D01*
X62440615Y-65899848D01*
X62273414Y-65767800D01*
X62273410Y-65767798D01*
X62269359Y-65764598D01*
X62238930Y-65747800D01*
X62126190Y-65685565D01*
X62073789Y-65656638D01*
X62068920Y-65654914D01*
X62068916Y-65654912D01*
X61868087Y-65583795D01*
X61868083Y-65583794D01*
X61863212Y-65582069D01*
X61858119Y-65581162D01*
X61858116Y-65581161D01*
X61648373Y-65543800D01*
X61648367Y-65543799D01*
X61643284Y-65542894D01*
X61569452Y-65541992D01*
X61425081Y-65540228D01*
X61425079Y-65540228D01*
X61419911Y-65540165D01*
X61199091Y-65573955D01*
X60986756Y-65643357D01*
X60956443Y-65659137D01*
X60827027Y-65726507D01*
X60788607Y-65746507D01*
X60784474Y-65749610D01*
X60784471Y-65749612D01*
X60631624Y-65864373D01*
X60609965Y-65880635D01*
X60606393Y-65884373D01*
X60528898Y-65965466D01*
X60467374Y-66000895D01*
X60396462Y-65997438D01*
X60338676Y-65956192D01*
X60319823Y-65922644D01*
X60278324Y-65811946D01*
X60269786Y-65796351D01*
X60193285Y-65694276D01*
X60180724Y-65681715D01*
X60078649Y-65605214D01*
X60063054Y-65596676D01*
X59942606Y-65551522D01*
X59927351Y-65547895D01*
X59876486Y-65542369D01*
X59869672Y-65542000D01*
X59247115Y-65542000D01*
X59231876Y-65546475D01*
X59230671Y-65547865D01*
X59229000Y-65555548D01*
X59229000Y-68239884D01*
X58721000Y-68239884D01*
X58721000Y-65560116D01*
X58716525Y-65544877D01*
X58715135Y-65543672D01*
X58707452Y-65542001D01*
X58134000Y-65542001D01*
X58065879Y-65521999D01*
X58019386Y-65468343D01*
X58008000Y-65416001D01*
X58008000Y-64686032D01*
X58028002Y-64617911D01*
X58081658Y-64571418D01*
X58151932Y-64561314D01*
X58213038Y-64587904D01*
X58425486Y-64759023D01*
X58431659Y-64763409D01*
X58702271Y-64932178D01*
X58708931Y-64935794D01*
X58997852Y-65070827D01*
X59004905Y-65073620D01*
X59307970Y-65172970D01*
X59315282Y-65174888D01*
X59628092Y-65237109D01*
X59635590Y-65238137D01*
X59953610Y-65262328D01*
X59961173Y-65262446D01*
X60279785Y-65248257D01*
X60287326Y-65247465D01*
X60601924Y-65195101D01*
X60609302Y-65193411D01*
X60915355Y-65103625D01*
X60922450Y-65101071D01*
X61215496Y-64975169D01*
X61222263Y-64971765D01*
X61498042Y-64811580D01*
X61504349Y-64807390D01*
X61714305Y-64648889D01*
X61722761Y-64637496D01*
X61716045Y-64625256D01*
X59729885Y-62639095D01*
X59695859Y-62576783D01*
X59700924Y-62505967D01*
X59729885Y-62460905D01*
X59910905Y-62279885D01*
X59973217Y-62245859D01*
X60044032Y-62250924D01*
X60089095Y-62279885D01*
X62073285Y-64264074D01*
X62086408Y-64271240D01*
X62096709Y-64263851D01*
X62200751Y-64136055D01*
X62205164Y-64129914D01*
X62375349Y-63860187D01*
X62379005Y-63853536D01*
X62515544Y-63565335D01*
X62518375Y-63558295D01*
X62619306Y-63255767D01*
X62621270Y-63248433D01*
X62685122Y-62935989D01*
X62686194Y-62928465D01*
X62712173Y-62609051D01*
X62712378Y-62604576D01*
X62712927Y-62552221D01*
X62712817Y-62547789D01*
X62693529Y-62227853D01*
X62692621Y-62220351D01*
X62635319Y-61906593D01*
X62633518Y-61899260D01*
X62538935Y-61594655D01*
X62536263Y-61587583D01*
X62405781Y-61296570D01*
X62402264Y-61289843D01*
X62237771Y-61016621D01*
X62233481Y-61010377D01*
X62037350Y-60758889D01*
X62032333Y-60753199D01*
X62002154Y-60722861D01*
X61968293Y-60660460D01*
X61973543Y-60589658D01*
X62016239Y-60532934D01*
X62082824Y-60508298D01*
X62091483Y-60508000D01*
X64670702Y-60508000D01*
X64738823Y-60528002D01*
G37*
%TD.AperFunction*%
%TA.AperFunction,Conductor*%
G36*
X102974675Y-60528002D02*
G01*
X103021168Y-60581658D01*
X103031272Y-60651932D01*
X103001778Y-60716512D01*
X102994949Y-60723791D01*
X102986586Y-60732024D01*
X102981518Y-60737652D01*
X102782766Y-60987071D01*
X102778410Y-60993270D01*
X102611059Y-61264764D01*
X102607479Y-61271440D01*
X102473956Y-61561074D01*
X102471206Y-61568125D01*
X102373444Y-61871708D01*
X102371561Y-61879041D01*
X102310979Y-62192170D01*
X102309992Y-62199670D01*
X102287467Y-62517802D01*
X102287388Y-62525383D01*
X102303245Y-62843914D01*
X102304076Y-62851443D01*
X102358085Y-63165759D01*
X102359818Y-63173146D01*
X102451196Y-63478695D01*
X102453799Y-63485808D01*
X102581227Y-63778173D01*
X102584669Y-63784929D01*
X102746296Y-64059865D01*
X102750519Y-64066150D01*
X102901463Y-64263934D01*
X102912989Y-64272396D01*
X102925054Y-64265735D01*
X104910905Y-62279885D01*
X104973217Y-62245859D01*
X105044033Y-62250924D01*
X105089095Y-62279885D01*
X105270115Y-62460905D01*
X105304141Y-62523217D01*
X105299076Y-62594032D01*
X105270115Y-62639095D01*
X103285818Y-64623393D01*
X103278703Y-64636423D01*
X103286227Y-64646854D01*
X103425483Y-64759020D01*
X103431657Y-64763408D01*
X103702271Y-64932178D01*
X103708931Y-64935794D01*
X103997852Y-65070827D01*
X104004905Y-65073620D01*
X104307970Y-65172970D01*
X104315282Y-65174888D01*
X104628092Y-65237109D01*
X104635590Y-65238137D01*
X104953610Y-65262328D01*
X104961173Y-65262446D01*
X105279785Y-65248257D01*
X105287326Y-65247465D01*
X105601924Y-65195101D01*
X105609302Y-65193411D01*
X105915355Y-65103625D01*
X105922450Y-65101071D01*
X106215496Y-64975169D01*
X106222263Y-64971765D01*
X106498042Y-64811580D01*
X106504349Y-64807390D01*
X106758895Y-64615226D01*
X106764651Y-64610310D01*
X106778553Y-64596909D01*
X106841479Y-64564032D01*
X106912190Y-64570394D01*
X106968236Y-64613976D01*
X106992000Y-64687623D01*
X106992000Y-69651684D01*
X106971998Y-69719805D01*
X106918342Y-69766298D01*
X106853158Y-69777028D01*
X106753601Y-69766828D01*
X106753602Y-69766828D01*
X106750400Y-69766500D01*
X104449600Y-69766500D01*
X104446354Y-69766837D01*
X104446350Y-69766837D01*
X104350692Y-69776762D01*
X104350688Y-69776763D01*
X104343834Y-69777474D01*
X104337298Y-69779655D01*
X104337296Y-69779655D01*
X104208306Y-69822690D01*
X104176054Y-69833450D01*
X104025652Y-69926522D01*
X103900695Y-70051697D01*
X103896855Y-70057927D01*
X103896854Y-70057928D01*
X103864329Y-70110694D01*
X103807885Y-70202262D01*
X103752203Y-70370139D01*
X103741500Y-70474600D01*
X103741500Y-71075400D01*
X103741837Y-71078646D01*
X103741837Y-71078650D01*
X103749715Y-71154573D01*
X103752474Y-71181166D01*
X103808450Y-71348946D01*
X103901522Y-71499348D01*
X104026697Y-71624305D01*
X104032927Y-71628145D01*
X104032928Y-71628146D01*
X104099262Y-71669035D01*
X104146755Y-71721808D01*
X104158179Y-71791879D01*
X104129905Y-71857003D01*
X104107207Y-71878231D01*
X104013747Y-71946134D01*
X104009332Y-71951037D01*
X104004420Y-71955460D01*
X104003295Y-71954211D01*
X103949986Y-71987051D01*
X103916800Y-71991500D01*
X103599950Y-71991500D01*
X103531829Y-71971498D01*
X103518729Y-71960941D01*
X103518675Y-71961011D01*
X103512415Y-71956155D01*
X103506807Y-71950547D01*
X103499983Y-71946511D01*
X103499980Y-71946509D01*
X103370427Y-71869892D01*
X103370428Y-71869892D01*
X103363601Y-71865855D01*
X103355990Y-71863644D01*
X103355988Y-71863643D01*
X103283542Y-71842596D01*
X103203831Y-71819438D01*
X103197426Y-71818934D01*
X103197421Y-71818933D01*
X103168958Y-71816693D01*
X103168950Y-71816693D01*
X103166502Y-71816500D01*
X101633498Y-71816500D01*
X101631050Y-71816693D01*
X101631042Y-71816693D01*
X101602579Y-71818933D01*
X101602574Y-71818934D01*
X101596169Y-71819438D01*
X101516458Y-71842596D01*
X101444012Y-71863643D01*
X101444010Y-71863644D01*
X101436399Y-71865855D01*
X101429572Y-71869892D01*
X101429573Y-71869892D01*
X101300020Y-71946509D01*
X101300017Y-71946511D01*
X101293193Y-71950547D01*
X101175547Y-72068193D01*
X101171511Y-72075017D01*
X101171509Y-72075020D01*
X101107893Y-72182589D01*
X101090855Y-72211399D01*
X101088644Y-72219010D01*
X101088643Y-72219012D01*
X101078640Y-72253444D01*
X101044438Y-72371169D01*
X101041500Y-72408498D01*
X101041500Y-72841502D01*
X101041693Y-72843950D01*
X101041693Y-72843958D01*
X101042118Y-72849348D01*
X101044438Y-72878831D01*
X101066132Y-72953502D01*
X101083475Y-73013197D01*
X101090855Y-73038601D01*
X101158662Y-73153256D01*
X101175547Y-73181807D01*
X101173887Y-73182789D01*
X101196063Y-73239263D01*
X101182166Y-73308886D01*
X101175462Y-73319319D01*
X101095352Y-73454779D01*
X101089107Y-73469210D01*
X101050061Y-73603605D01*
X101050101Y-73617706D01*
X101057370Y-73621000D01*
X103736878Y-73621000D01*
X103750409Y-73617027D01*
X103751544Y-73609129D01*
X103710893Y-73469210D01*
X103704648Y-73454779D01*
X103701017Y-73448639D01*
X103683558Y-73379822D01*
X103706075Y-73312491D01*
X103761420Y-73268022D01*
X103809471Y-73258500D01*
X103916800Y-73258500D01*
X103984921Y-73278502D01*
X104004147Y-73294843D01*
X104004420Y-73294540D01*
X104009332Y-73298963D01*
X104013747Y-73303866D01*
X104020656Y-73308886D01*
X104140835Y-73396201D01*
X104168248Y-73416118D01*
X104174276Y-73418802D01*
X104174278Y-73418803D01*
X104336681Y-73491109D01*
X104342712Y-73493794D01*
X104436113Y-73513647D01*
X104523056Y-73532128D01*
X104523061Y-73532128D01*
X104529513Y-73533500D01*
X104720487Y-73533500D01*
X104726939Y-73532128D01*
X104726944Y-73532128D01*
X104813887Y-73513647D01*
X104907288Y-73493794D01*
X104913319Y-73491109D01*
X105075722Y-73418803D01*
X105075724Y-73418802D01*
X105081752Y-73416118D01*
X105236253Y-73303866D01*
X105244650Y-73294540D01*
X105359621Y-73166852D01*
X105359622Y-73166851D01*
X105364040Y-73161944D01*
X105459527Y-72996556D01*
X105518542Y-72814928D01*
X105521170Y-72789930D01*
X105537814Y-72631565D01*
X105538504Y-72625000D01*
X105518542Y-72435072D01*
X105459527Y-72253444D01*
X105441117Y-72221556D01*
X105379606Y-72115017D01*
X105364040Y-72088056D01*
X105359621Y-72083148D01*
X105279181Y-71993810D01*
X105248463Y-71929803D01*
X105257228Y-71859349D01*
X105302691Y-71804818D01*
X105372817Y-71783500D01*
X106750400Y-71783500D01*
X106753646Y-71783163D01*
X106753650Y-71783163D01*
X106852996Y-71772855D01*
X106922818Y-71785720D01*
X106974600Y-71834291D01*
X106992000Y-71898182D01*
X106992000Y-84601684D01*
X106971998Y-84669805D01*
X106918342Y-84716298D01*
X106853158Y-84727028D01*
X106753601Y-84716828D01*
X106753602Y-84716828D01*
X106750400Y-84716500D01*
X104449600Y-84716500D01*
X104446354Y-84716837D01*
X104446350Y-84716837D01*
X104350692Y-84726762D01*
X104350688Y-84726763D01*
X104343834Y-84727474D01*
X104337298Y-84729655D01*
X104337296Y-84729655D01*
X104230543Y-84765271D01*
X104176054Y-84783450D01*
X104025652Y-84876522D01*
X103900695Y-85001697D01*
X103896855Y-85007927D01*
X103896854Y-85007928D01*
X103850734Y-85082749D01*
X103807885Y-85152262D01*
X103794997Y-85191118D01*
X103756519Y-85307128D01*
X103752203Y-85320139D01*
X103751503Y-85326975D01*
X103751502Y-85326978D01*
X103750014Y-85341500D01*
X103741500Y-85424600D01*
X103741500Y-86025400D01*
X103741837Y-86028646D01*
X103741837Y-86028650D01*
X103750086Y-86108148D01*
X103752474Y-86131166D01*
X103808450Y-86298946D01*
X103901522Y-86449348D01*
X104026697Y-86574305D01*
X104032927Y-86578145D01*
X104032928Y-86578146D01*
X104170202Y-86662763D01*
X104177262Y-86667115D01*
X104207692Y-86677208D01*
X104338611Y-86720632D01*
X104338613Y-86720632D01*
X104345139Y-86722797D01*
X104351975Y-86723497D01*
X104351978Y-86723498D01*
X104395031Y-86727909D01*
X104449600Y-86733500D01*
X106750400Y-86733500D01*
X106753646Y-86733163D01*
X106753650Y-86733163D01*
X106852996Y-86722855D01*
X106922818Y-86735720D01*
X106974600Y-86784291D01*
X106992000Y-86848182D01*
X106992000Y-90362259D01*
X106971998Y-90430380D01*
X106918342Y-90476873D01*
X106848068Y-90486977D01*
X106787994Y-90461209D01*
X106551298Y-90274613D01*
X106545075Y-90270288D01*
X106272702Y-90104357D01*
X106266025Y-90100822D01*
X105975686Y-89968813D01*
X105968616Y-89966099D01*
X105664537Y-89869932D01*
X105657186Y-89868085D01*
X105343746Y-89809142D01*
X105336237Y-89808194D01*
X105017989Y-89787335D01*
X105010424Y-89787295D01*
X104691964Y-89804821D01*
X104684450Y-89805690D01*
X104370405Y-89861348D01*
X104363044Y-89863115D01*
X104057980Y-89956092D01*
X104050860Y-89958740D01*
X103759182Y-90087690D01*
X103752445Y-90091167D01*
X103478355Y-90254233D01*
X103472091Y-90258490D01*
X103286385Y-90401762D01*
X103277917Y-90413423D01*
X103284520Y-90425309D01*
X105270115Y-92410905D01*
X105304141Y-92473217D01*
X105299076Y-92544033D01*
X105270115Y-92589095D01*
X105089095Y-92770115D01*
X105026783Y-92804141D01*
X104955968Y-92799076D01*
X104910905Y-92770115D01*
X102926445Y-90785656D01*
X102913510Y-90778592D01*
X102902949Y-90786252D01*
X102782766Y-90937072D01*
X102778410Y-90943270D01*
X102611059Y-91214764D01*
X102607479Y-91221440D01*
X102473956Y-91511074D01*
X102471206Y-91518125D01*
X102373444Y-91821708D01*
X102371561Y-91829041D01*
X102310979Y-92142170D01*
X102309992Y-92149670D01*
X102287467Y-92467802D01*
X102287388Y-92475383D01*
X102303245Y-92793914D01*
X102304076Y-92801443D01*
X102358085Y-93115759D01*
X102359818Y-93123146D01*
X102451196Y-93428695D01*
X102453799Y-93435808D01*
X102581227Y-93728173D01*
X102584669Y-93734929D01*
X102746296Y-94009865D01*
X102750519Y-94016150D01*
X102944010Y-94269684D01*
X102948953Y-94275411D01*
X102951552Y-94278078D01*
X102984758Y-94340830D01*
X102978767Y-94411573D01*
X102935481Y-94467847D01*
X102868642Y-94491786D01*
X102861298Y-94492000D01*
X101898316Y-94492000D01*
X101830195Y-94471998D01*
X101783702Y-94418342D01*
X101772972Y-94353158D01*
X101783172Y-94253601D01*
X101783500Y-94250400D01*
X101783500Y-91949600D01*
X101783148Y-91946206D01*
X101773238Y-91850692D01*
X101773237Y-91850688D01*
X101772526Y-91843834D01*
X101764267Y-91819077D01*
X101718868Y-91683002D01*
X101716550Y-91676054D01*
X101623478Y-91525652D01*
X101498303Y-91400695D01*
X101474288Y-91385892D01*
X101353968Y-91311725D01*
X101353966Y-91311724D01*
X101347738Y-91307885D01*
X101263842Y-91280058D01*
X101186389Y-91254368D01*
X101186387Y-91254368D01*
X101179861Y-91252203D01*
X101173025Y-91251503D01*
X101173022Y-91251502D01*
X101121330Y-91246206D01*
X101075400Y-91241500D01*
X100474600Y-91241500D01*
X100471354Y-91241837D01*
X100471350Y-91241837D01*
X100375692Y-91251762D01*
X100375688Y-91251763D01*
X100368834Y-91252474D01*
X100362298Y-91254655D01*
X100362296Y-91254655D01*
X100236315Y-91296686D01*
X100201054Y-91308450D01*
X100050652Y-91401522D01*
X99925695Y-91526697D01*
X99921855Y-91532927D01*
X99921854Y-91532928D01*
X99891034Y-91582928D01*
X99832885Y-91677262D01*
X99818768Y-91719824D01*
X99784975Y-91821708D01*
X99777203Y-91845139D01*
X99776503Y-91851975D01*
X99776502Y-91851978D01*
X99772884Y-91887296D01*
X99766500Y-91949600D01*
X99766500Y-94250400D01*
X99766837Y-94253646D01*
X99766837Y-94253650D01*
X99777145Y-94352996D01*
X99764280Y-94422818D01*
X99715709Y-94474600D01*
X99651818Y-94492000D01*
X86948316Y-94492000D01*
X86880195Y-94471998D01*
X86833702Y-94418342D01*
X86822972Y-94353158D01*
X86833172Y-94253601D01*
X86833500Y-94250400D01*
X86833500Y-91949600D01*
X86833148Y-91946206D01*
X86823238Y-91850692D01*
X86823237Y-91850688D01*
X86822526Y-91843834D01*
X86814267Y-91819077D01*
X86768868Y-91683002D01*
X86766550Y-91676054D01*
X86673478Y-91525652D01*
X86548303Y-91400695D01*
X86524288Y-91385892D01*
X86403968Y-91311725D01*
X86403966Y-91311724D01*
X86397738Y-91307885D01*
X86313842Y-91280058D01*
X86236389Y-91254368D01*
X86236387Y-91254368D01*
X86229861Y-91252203D01*
X86223025Y-91251503D01*
X86223022Y-91251502D01*
X86171330Y-91246206D01*
X86125400Y-91241500D01*
X85524600Y-91241500D01*
X85521354Y-91241837D01*
X85521350Y-91241837D01*
X85425692Y-91251762D01*
X85425688Y-91251763D01*
X85418834Y-91252474D01*
X85412298Y-91254655D01*
X85412296Y-91254655D01*
X85286315Y-91296686D01*
X85251054Y-91308450D01*
X85100652Y-91401522D01*
X84975695Y-91526697D01*
X84971855Y-91532927D01*
X84971854Y-91532928D01*
X84941034Y-91582928D01*
X84882885Y-91677262D01*
X84868768Y-91719824D01*
X84834975Y-91821708D01*
X84827203Y-91845139D01*
X84826503Y-91851975D01*
X84826502Y-91851978D01*
X84822884Y-91887296D01*
X84816500Y-91949600D01*
X84816500Y-94250400D01*
X84816837Y-94253646D01*
X84816837Y-94253650D01*
X84827145Y-94352996D01*
X84814280Y-94422818D01*
X84765709Y-94474600D01*
X84701818Y-94492000D01*
X80303439Y-94492000D01*
X80235318Y-94471998D01*
X80188825Y-94418342D01*
X80178095Y-94353158D01*
X80183172Y-94303601D01*
X80183500Y-94300400D01*
X80183500Y-91999600D01*
X80179236Y-91958500D01*
X80173238Y-91900692D01*
X80173237Y-91900688D01*
X80172526Y-91893834D01*
X80160102Y-91856593D01*
X80118868Y-91733002D01*
X80116550Y-91726054D01*
X80023478Y-91575652D01*
X79898303Y-91450695D01*
X79892072Y-91446854D01*
X79753968Y-91361725D01*
X79753966Y-91361724D01*
X79747738Y-91357885D01*
X79667995Y-91331436D01*
X79586389Y-91304368D01*
X79586387Y-91304368D01*
X79579861Y-91302203D01*
X79573025Y-91301503D01*
X79573022Y-91301502D01*
X79526015Y-91296686D01*
X79475400Y-91291500D01*
X78874600Y-91291500D01*
X78871354Y-91291837D01*
X78871350Y-91291837D01*
X78775692Y-91301762D01*
X78775688Y-91301763D01*
X78768834Y-91302474D01*
X78762298Y-91304655D01*
X78762296Y-91304655D01*
X78692827Y-91327832D01*
X78601054Y-91358450D01*
X78450652Y-91451522D01*
X78445479Y-91456704D01*
X78413196Y-91489043D01*
X78350913Y-91523122D01*
X78280093Y-91518119D01*
X78223220Y-91475621D01*
X78204190Y-91438961D01*
X78200395Y-91427279D01*
X78184527Y-91378444D01*
X78177462Y-91366206D01*
X78140509Y-91302203D01*
X78089040Y-91213056D01*
X78081884Y-91205108D01*
X78041127Y-91159843D01*
X78010409Y-91095836D01*
X78019174Y-91025382D01*
X78026305Y-91011403D01*
X78084145Y-90913601D01*
X78130562Y-90753831D01*
X78131352Y-90743803D01*
X78133307Y-90718958D01*
X78133307Y-90718950D01*
X78133500Y-90716502D01*
X78133500Y-89183498D01*
X78131500Y-89158086D01*
X78131067Y-89152579D01*
X78131066Y-89152574D01*
X78130562Y-89146169D01*
X78084145Y-88986399D01*
X78050538Y-88929572D01*
X78003491Y-88850020D01*
X78003489Y-88850017D01*
X77999453Y-88843193D01*
X77993844Y-88837584D01*
X77988989Y-88831325D01*
X77990496Y-88830156D01*
X77961379Y-88776833D01*
X77958500Y-88750050D01*
X77958500Y-88053768D01*
X77959027Y-88042585D01*
X77960702Y-88035092D01*
X77959451Y-87995271D01*
X77958562Y-87967002D01*
X77958500Y-87963044D01*
X77958500Y-87935144D01*
X77957996Y-87931153D01*
X77957063Y-87919311D01*
X77955923Y-87883036D01*
X77955674Y-87875111D01*
X77950021Y-87855652D01*
X77946012Y-87836293D01*
X77944873Y-87827279D01*
X77943474Y-87816203D01*
X77940558Y-87808837D01*
X77940556Y-87808831D01*
X77927200Y-87775098D01*
X77923355Y-87763868D01*
X77913230Y-87729017D01*
X77913230Y-87729016D01*
X77911019Y-87721407D01*
X77900705Y-87703966D01*
X77892008Y-87686213D01*
X77887472Y-87674758D01*
X77884552Y-87667383D01*
X77864605Y-87639928D01*
X77858563Y-87631612D01*
X77852047Y-87621692D01*
X77833578Y-87590463D01*
X77829542Y-87583638D01*
X77815221Y-87569317D01*
X77802380Y-87554283D01*
X77795131Y-87544306D01*
X77790472Y-87537893D01*
X77756395Y-87509702D01*
X77747616Y-87501712D01*
X76695405Y-86449500D01*
X76661379Y-86387188D01*
X76658500Y-86360405D01*
X76658500Y-85819874D01*
X76678502Y-85751753D01*
X76683661Y-85744327D01*
X76700615Y-85721705D01*
X76751745Y-85585316D01*
X76758500Y-85523134D01*
X76758500Y-85345198D01*
X76778502Y-85277077D01*
X76832158Y-85230584D01*
X76902432Y-85220480D01*
X76958561Y-85243262D01*
X76990007Y-85266109D01*
X77093248Y-85341118D01*
X77099276Y-85343802D01*
X77099278Y-85343803D01*
X77261681Y-85416109D01*
X77267712Y-85418794D01*
X77361112Y-85438647D01*
X77448056Y-85457128D01*
X77448061Y-85457128D01*
X77454513Y-85458500D01*
X77645487Y-85458500D01*
X77651939Y-85457128D01*
X77651944Y-85457128D01*
X77738888Y-85438647D01*
X77832288Y-85418794D01*
X77838319Y-85416109D01*
X78000722Y-85343803D01*
X78000724Y-85343802D01*
X78006752Y-85341118D01*
X78161253Y-85228866D01*
X78192824Y-85193803D01*
X78284621Y-85091852D01*
X78284622Y-85091851D01*
X78289040Y-85086944D01*
X78384527Y-84921556D01*
X78443542Y-84739928D01*
X78444880Y-84727203D01*
X78462814Y-84556565D01*
X78463504Y-84550000D01*
X78450797Y-84429100D01*
X78444232Y-84366635D01*
X78444232Y-84366633D01*
X78443542Y-84360072D01*
X78384527Y-84178444D01*
X78289040Y-84013056D01*
X78240647Y-83959310D01*
X78209929Y-83895303D01*
X78218694Y-83824849D01*
X78240647Y-83790690D01*
X78284621Y-83741852D01*
X78284622Y-83741851D01*
X78289040Y-83736944D01*
X78377259Y-83584145D01*
X78381223Y-83577279D01*
X78381224Y-83577278D01*
X78384527Y-83571556D01*
X78443542Y-83389928D01*
X78444342Y-83382322D01*
X78455894Y-83272402D01*
X78460907Y-83224706D01*
X78487920Y-83159050D01*
X78497122Y-83148782D01*
X78729405Y-82916499D01*
X78791717Y-82882473D01*
X78862532Y-82887538D01*
X78919368Y-82930085D01*
X78927619Y-82942594D01*
X79010960Y-83086944D01*
X79015378Y-83091851D01*
X79015379Y-83091852D01*
X79127945Y-83216869D01*
X79138747Y-83228866D01*
X79191702Y-83267340D01*
X79261695Y-83318193D01*
X79293248Y-83341118D01*
X79299276Y-83343802D01*
X79299278Y-83343803D01*
X79407199Y-83391852D01*
X79467712Y-83418794D01*
X79561112Y-83438647D01*
X79648056Y-83457128D01*
X79648061Y-83457128D01*
X79654513Y-83458500D01*
X79845487Y-83458500D01*
X79851939Y-83457128D01*
X79851944Y-83457128D01*
X79938888Y-83438647D01*
X80032288Y-83418794D01*
X80092801Y-83391852D01*
X80200722Y-83343803D01*
X80200724Y-83343802D01*
X80206752Y-83341118D01*
X80238306Y-83318193D01*
X80308298Y-83267340D01*
X80361253Y-83228866D01*
X80372055Y-83216869D01*
X80484621Y-83091852D01*
X80484622Y-83091851D01*
X80489040Y-83086944D01*
X80584527Y-82921556D01*
X80643542Y-82739928D01*
X80646139Y-82715224D01*
X80662814Y-82556565D01*
X80663504Y-82550000D01*
X80653754Y-82457232D01*
X80644232Y-82366635D01*
X80644232Y-82366633D01*
X80643542Y-82360072D01*
X80584527Y-82178444D01*
X80577921Y-82167001D01*
X80537509Y-82097006D01*
X80489040Y-82013056D01*
X80477285Y-82000000D01*
X80365675Y-81876045D01*
X80365674Y-81876044D01*
X80361253Y-81871134D01*
X80233103Y-81778027D01*
X80212094Y-81762763D01*
X80212093Y-81762762D01*
X80206752Y-81758882D01*
X80200724Y-81756198D01*
X80200722Y-81756197D01*
X80119428Y-81720003D01*
X81263579Y-81720003D01*
X81264363Y-81729977D01*
X81266662Y-81742564D01*
X81307981Y-81884783D01*
X81314230Y-81899222D01*
X81388854Y-82025405D01*
X81398501Y-82037841D01*
X81502159Y-82141499D01*
X81514595Y-82151146D01*
X81640778Y-82225770D01*
X81655217Y-82232019D01*
X81768605Y-82264961D01*
X81782705Y-82264921D01*
X81786000Y-82257651D01*
X81786000Y-81722115D01*
X81781525Y-81706876D01*
X81780135Y-81705671D01*
X81772452Y-81704000D01*
X81280434Y-81704000D01*
X81265639Y-81708344D01*
X81263579Y-81720003D01*
X80119428Y-81720003D01*
X80038319Y-81683891D01*
X80038318Y-81683891D01*
X80032288Y-81681206D01*
X79914405Y-81656149D01*
X79851944Y-81642872D01*
X79851939Y-81642872D01*
X79845487Y-81641500D01*
X79654513Y-81641500D01*
X79648061Y-81642872D01*
X79648056Y-81642872D01*
X79585595Y-81656149D01*
X79467712Y-81681206D01*
X79461682Y-81683891D01*
X79461681Y-81683891D01*
X79299278Y-81756197D01*
X79299276Y-81756198D01*
X79293248Y-81758882D01*
X79287907Y-81762762D01*
X79287906Y-81762763D01*
X79233561Y-81802247D01*
X79166693Y-81826106D01*
X79097541Y-81810025D01*
X79048061Y-81759111D01*
X79033500Y-81700311D01*
X79033500Y-81177943D01*
X81263740Y-81177943D01*
X81266910Y-81193030D01*
X81278374Y-81196000D01*
X81767885Y-81196000D01*
X81783124Y-81191525D01*
X81784329Y-81190135D01*
X81786000Y-81182452D01*
X81786000Y-80648100D01*
X81782027Y-80634569D01*
X81774129Y-80633434D01*
X81655217Y-80667981D01*
X81640778Y-80674230D01*
X81514595Y-80748854D01*
X81502159Y-80758501D01*
X81398501Y-80862159D01*
X81388854Y-80874595D01*
X81314230Y-81000778D01*
X81307981Y-81015217D01*
X81266662Y-81157436D01*
X81264363Y-81170023D01*
X81263740Y-81177943D01*
X79033500Y-81177943D01*
X79033500Y-78278768D01*
X79034027Y-78267585D01*
X79035702Y-78260092D01*
X79034242Y-78213621D01*
X79033562Y-78192002D01*
X79033500Y-78188044D01*
X79033500Y-78160144D01*
X79032996Y-78156153D01*
X79032063Y-78144311D01*
X79030923Y-78108036D01*
X79030674Y-78100111D01*
X79025021Y-78080652D01*
X79021012Y-78061293D01*
X79020846Y-78059983D01*
X79018474Y-78041203D01*
X79015558Y-78033837D01*
X79015556Y-78033831D01*
X79002200Y-78000098D01*
X78998355Y-77988868D01*
X78988230Y-77954017D01*
X78988230Y-77954016D01*
X78986019Y-77946407D01*
X78975705Y-77928966D01*
X78967008Y-77911213D01*
X78963981Y-77903568D01*
X78959552Y-77892383D01*
X78933563Y-77856612D01*
X78927047Y-77846692D01*
X78923978Y-77841502D01*
X78904542Y-77808638D01*
X78890221Y-77794317D01*
X78877380Y-77779283D01*
X78870132Y-77769307D01*
X78865472Y-77762893D01*
X78831407Y-77734712D01*
X78822626Y-77726722D01*
X78340704Y-77244799D01*
X78306679Y-77182487D01*
X78303800Y-77155704D01*
X78303800Y-74827718D01*
X78982450Y-74827718D01*
X78982988Y-74835926D01*
X78996267Y-74936788D01*
X79000506Y-74952608D01*
X79052495Y-75078121D01*
X79060683Y-75092304D01*
X79143388Y-75200086D01*
X79154964Y-75211662D01*
X79262746Y-75294367D01*
X79276929Y-75302555D01*
X79402442Y-75354544D01*
X79418262Y-75358783D01*
X79516081Y-75371661D01*
X79528124Y-75368125D01*
X79529329Y-75366735D01*
X79531000Y-75359052D01*
X79531000Y-74346715D01*
X79526525Y-74331476D01*
X79525135Y-74330271D01*
X79517452Y-74328600D01*
X79000565Y-74328600D01*
X78985326Y-74333075D01*
X78984121Y-74334465D01*
X78982450Y-74342148D01*
X78982450Y-74827718D01*
X78303800Y-74827718D01*
X78303800Y-74361924D01*
X78323802Y-74293803D01*
X78336158Y-74277621D01*
X78409340Y-74196344D01*
X78504827Y-74030956D01*
X78563842Y-73849328D01*
X78566862Y-73820600D01*
X78583114Y-73665965D01*
X78583804Y-73659400D01*
X78579422Y-73617706D01*
X78564532Y-73476035D01*
X78564532Y-73476033D01*
X78563842Y-73469472D01*
X78534283Y-73378499D01*
X78508269Y-73298436D01*
X78506241Y-73227469D01*
X78542904Y-73166671D01*
X78606616Y-73135345D01*
X78628102Y-73133500D01*
X78862980Y-73133500D01*
X78931101Y-73153502D01*
X78977594Y-73207158D01*
X78987902Y-73275946D01*
X78982988Y-73313271D01*
X78982450Y-73321482D01*
X78982450Y-73802485D01*
X78986925Y-73817724D01*
X78988315Y-73818929D01*
X78995998Y-73820600D01*
X79913000Y-73820600D01*
X79981121Y-73840602D01*
X80027614Y-73894258D01*
X80039000Y-73946600D01*
X80039000Y-75354485D01*
X80043475Y-75369724D01*
X80044865Y-75370929D01*
X80050261Y-75372102D01*
X80050876Y-75372062D01*
X80151738Y-75358783D01*
X80167558Y-75354544D01*
X80293071Y-75302555D01*
X80307254Y-75294366D01*
X80342885Y-75267026D01*
X80409105Y-75241425D01*
X80478654Y-75255690D01*
X80496293Y-75267025D01*
X80539047Y-75299831D01*
X80679943Y-75358192D01*
X80793179Y-75373100D01*
X81054968Y-75373100D01*
X81316820Y-75373099D01*
X81320905Y-75372561D01*
X81320909Y-75372561D01*
X81421870Y-75359270D01*
X81421872Y-75359270D01*
X81430057Y-75358192D01*
X81570953Y-75299831D01*
X81577504Y-75294804D01*
X81577508Y-75294802D01*
X81613297Y-75267340D01*
X81679518Y-75241740D01*
X81749066Y-75256005D01*
X81766703Y-75267340D01*
X81802492Y-75294802D01*
X81802496Y-75294804D01*
X81809047Y-75299831D01*
X81949943Y-75358192D01*
X82063179Y-75373100D01*
X82324968Y-75373100D01*
X82586820Y-75373099D01*
X82590905Y-75372561D01*
X82590909Y-75372561D01*
X82691870Y-75359270D01*
X82691872Y-75359270D01*
X82700057Y-75358192D01*
X82840953Y-75299831D01*
X82883707Y-75267025D01*
X82949928Y-75241425D01*
X83019477Y-75255690D01*
X83037115Y-75267026D01*
X83072746Y-75294366D01*
X83086929Y-75302555D01*
X83212442Y-75354544D01*
X83228262Y-75358783D01*
X83326081Y-75371661D01*
X83338124Y-75368125D01*
X83339329Y-75366735D01*
X83341000Y-75359052D01*
X83341000Y-73946600D01*
X83361002Y-73878479D01*
X83414658Y-73831986D01*
X83467000Y-73820600D01*
X83723000Y-73820600D01*
X83791121Y-73840602D01*
X83837614Y-73894258D01*
X83849000Y-73946600D01*
X83849000Y-75354485D01*
X83853475Y-75369724D01*
X83854865Y-75370929D01*
X83860261Y-75372102D01*
X83860876Y-75372062D01*
X83961738Y-75358783D01*
X83977558Y-75354544D01*
X84103071Y-75302555D01*
X84117254Y-75294367D01*
X84225036Y-75211662D01*
X84236612Y-75200086D01*
X84319317Y-75092304D01*
X84327505Y-75078121D01*
X84378591Y-74954788D01*
X84423139Y-74899507D01*
X84490502Y-74877086D01*
X84559294Y-74894644D01*
X84607672Y-74946606D01*
X84611409Y-74954788D01*
X84662495Y-75078121D01*
X84670683Y-75092304D01*
X84753388Y-75200086D01*
X84764964Y-75211662D01*
X84872746Y-75294367D01*
X84886929Y-75302555D01*
X85012442Y-75354544D01*
X85028262Y-75358783D01*
X85126081Y-75371661D01*
X85138124Y-75368125D01*
X85139329Y-75366735D01*
X85141000Y-75359052D01*
X85141000Y-73946600D01*
X85161002Y-73878479D01*
X85214658Y-73831986D01*
X85267000Y-73820600D01*
X85523000Y-73820600D01*
X85591121Y-73840602D01*
X85637614Y-73894258D01*
X85649000Y-73946600D01*
X85649000Y-75354485D01*
X85653475Y-75369724D01*
X85654865Y-75370929D01*
X85660261Y-75372102D01*
X85660876Y-75372062D01*
X85761738Y-75358783D01*
X85777558Y-75354544D01*
X85903071Y-75302555D01*
X85917254Y-75294366D01*
X85952885Y-75267026D01*
X86019105Y-75241425D01*
X86088654Y-75255690D01*
X86106293Y-75267025D01*
X86149047Y-75299831D01*
X86289943Y-75358192D01*
X86403179Y-75373100D01*
X86664968Y-75373100D01*
X86926820Y-75373099D01*
X86930905Y-75372561D01*
X86930909Y-75372561D01*
X87031870Y-75359270D01*
X87031872Y-75359270D01*
X87040057Y-75358192D01*
X87180953Y-75299831D01*
X87187504Y-75294804D01*
X87187508Y-75294802D01*
X87223297Y-75267340D01*
X87289518Y-75241740D01*
X87359066Y-75256005D01*
X87376703Y-75267340D01*
X87412492Y-75294802D01*
X87412496Y-75294804D01*
X87419047Y-75299831D01*
X87559943Y-75358192D01*
X87673179Y-75373100D01*
X87934968Y-75373100D01*
X88196820Y-75373099D01*
X88200905Y-75372561D01*
X88200909Y-75372561D01*
X88301870Y-75359270D01*
X88301872Y-75359270D01*
X88310057Y-75358192D01*
X88450953Y-75299831D01*
X88493707Y-75267025D01*
X88559928Y-75241425D01*
X88629477Y-75255690D01*
X88647115Y-75267026D01*
X88682746Y-75294366D01*
X88696929Y-75302555D01*
X88822442Y-75354544D01*
X88838262Y-75358783D01*
X88936081Y-75371661D01*
X88948124Y-75368125D01*
X88949329Y-75366735D01*
X88951000Y-75359052D01*
X88951000Y-73946600D01*
X88971002Y-73878479D01*
X89024658Y-73831986D01*
X89077000Y-73820600D01*
X89333000Y-73820600D01*
X89401121Y-73840602D01*
X89447614Y-73894258D01*
X89459000Y-73946600D01*
X89459000Y-75354485D01*
X89463475Y-75369724D01*
X89464865Y-75370929D01*
X89470261Y-75372102D01*
X89470876Y-75372062D01*
X89571738Y-75358783D01*
X89587558Y-75354544D01*
X89713071Y-75302555D01*
X89727254Y-75294367D01*
X89835036Y-75211662D01*
X89846612Y-75200086D01*
X89929317Y-75092304D01*
X89937505Y-75078121D01*
X89992655Y-74944977D01*
X89994990Y-74945944D01*
X90025312Y-74896185D01*
X90089169Y-74865156D01*
X90159665Y-74873577D01*
X90214417Y-74918773D01*
X90226487Y-74941191D01*
X90262495Y-75028121D01*
X90270683Y-75042304D01*
X90353388Y-75150086D01*
X90364964Y-75161662D01*
X90472746Y-75244367D01*
X90486929Y-75252555D01*
X90612442Y-75304544D01*
X90628262Y-75308783D01*
X90726081Y-75321661D01*
X90738124Y-75318125D01*
X90739329Y-75316735D01*
X90741000Y-75309052D01*
X90741000Y-73896600D01*
X90761002Y-73828479D01*
X90814658Y-73781986D01*
X90867000Y-73770600D01*
X91123000Y-73770600D01*
X91191121Y-73790602D01*
X91237614Y-73844258D01*
X91249000Y-73896600D01*
X91249000Y-75304485D01*
X91253475Y-75319724D01*
X91254865Y-75320929D01*
X91260261Y-75322102D01*
X91260876Y-75322062D01*
X91361738Y-75308783D01*
X91377558Y-75304544D01*
X91503071Y-75252555D01*
X91517254Y-75244366D01*
X91552885Y-75217026D01*
X91619105Y-75191425D01*
X91688654Y-75205690D01*
X91706293Y-75217025D01*
X91749047Y-75249831D01*
X91889943Y-75308192D01*
X92003179Y-75323100D01*
X92264968Y-75323100D01*
X92526820Y-75323099D01*
X92530905Y-75322561D01*
X92530909Y-75322561D01*
X92631870Y-75309270D01*
X92631872Y-75309270D01*
X92640057Y-75308192D01*
X92714381Y-75277406D01*
X92784971Y-75269817D01*
X92848458Y-75301596D01*
X92884685Y-75362654D01*
X92882151Y-75433606D01*
X92850419Y-75483214D01*
X92848611Y-75484528D01*
X92843558Y-75490636D01*
X92843557Y-75490637D01*
X92820430Y-75518593D01*
X92812440Y-75527373D01*
X92532742Y-75807071D01*
X92524463Y-75814605D01*
X92517982Y-75818718D01*
X92487138Y-75851564D01*
X92471356Y-75868370D01*
X92468601Y-75871212D01*
X92448865Y-75890948D01*
X92446385Y-75894145D01*
X92438682Y-75903165D01*
X92408414Y-75935397D01*
X92404595Y-75942343D01*
X92404593Y-75942346D01*
X92398652Y-75953152D01*
X92387801Y-75969671D01*
X92375386Y-75985677D01*
X92372241Y-75992946D01*
X92372238Y-75992950D01*
X92357826Y-76026255D01*
X92352609Y-76036905D01*
X92331305Y-76075658D01*
X92329334Y-76083334D01*
X92326416Y-76090705D01*
X92324724Y-76090035D01*
X92293491Y-76142503D01*
X92229958Y-76174191D01*
X92159380Y-76166500D01*
X92132200Y-76150987D01*
X92107630Y-76132573D01*
X92096705Y-76124385D01*
X92096921Y-76124096D01*
X92050861Y-76077935D01*
X92048647Y-76072582D01*
X92044135Y-76068672D01*
X92036452Y-76067001D01*
X92005330Y-76067001D01*
X91998512Y-76067370D01*
X91965933Y-76070909D01*
X91938720Y-76070909D01*
X91898134Y-76066500D01*
X91351866Y-76066500D01*
X91348471Y-76066869D01*
X91348467Y-76066869D01*
X91322469Y-76069693D01*
X91313606Y-76070656D01*
X91286394Y-76070656D01*
X91277531Y-76069693D01*
X91251533Y-76066869D01*
X91251529Y-76066869D01*
X91248134Y-76066500D01*
X90701866Y-76066500D01*
X90698471Y-76066869D01*
X90698467Y-76066869D01*
X90672469Y-76069693D01*
X90663606Y-76070656D01*
X90636394Y-76070656D01*
X90627531Y-76069693D01*
X90601533Y-76066869D01*
X90601529Y-76066869D01*
X90598134Y-76066500D01*
X90051866Y-76066500D01*
X90048471Y-76066869D01*
X90048467Y-76066869D01*
X90022469Y-76069693D01*
X90013606Y-76070656D01*
X89986394Y-76070656D01*
X89977531Y-76069693D01*
X89951533Y-76066869D01*
X89951529Y-76066869D01*
X89948134Y-76066500D01*
X89401866Y-76066500D01*
X89398471Y-76066869D01*
X89398467Y-76066869D01*
X89372469Y-76069693D01*
X89363606Y-76070656D01*
X89336394Y-76070656D01*
X89327531Y-76069693D01*
X89301533Y-76066869D01*
X89301529Y-76066869D01*
X89298134Y-76066500D01*
X88751866Y-76066500D01*
X88748471Y-76066869D01*
X88748467Y-76066869D01*
X88722469Y-76069693D01*
X88713606Y-76070656D01*
X88686394Y-76070656D01*
X88677531Y-76069693D01*
X88651533Y-76066869D01*
X88651529Y-76066869D01*
X88648134Y-76066500D01*
X88101866Y-76066500D01*
X88098471Y-76066869D01*
X88098467Y-76066869D01*
X88072469Y-76069693D01*
X88063606Y-76070656D01*
X88036394Y-76070656D01*
X88027531Y-76069693D01*
X88001533Y-76066869D01*
X88001529Y-76066869D01*
X87998134Y-76066500D01*
X87451866Y-76066500D01*
X87448471Y-76066869D01*
X87448467Y-76066869D01*
X87422469Y-76069693D01*
X87413606Y-76070656D01*
X87386394Y-76070656D01*
X87377531Y-76069693D01*
X87351533Y-76066869D01*
X87351529Y-76066869D01*
X87348134Y-76066500D01*
X86801866Y-76066500D01*
X86798471Y-76066869D01*
X86798467Y-76066869D01*
X86772469Y-76069693D01*
X86763606Y-76070656D01*
X86736394Y-76070656D01*
X86727531Y-76069693D01*
X86701533Y-76066869D01*
X86701529Y-76066869D01*
X86698134Y-76066500D01*
X86151866Y-76066500D01*
X86089684Y-76073255D01*
X85953295Y-76124385D01*
X85836739Y-76211739D01*
X85749385Y-76328295D01*
X85698255Y-76464684D01*
X85691500Y-76526866D01*
X85691500Y-76560002D01*
X85671498Y-76628123D01*
X85617842Y-76674616D01*
X85565500Y-76686002D01*
X85454513Y-76686002D01*
X85448061Y-76687374D01*
X85448056Y-76687374D01*
X85361113Y-76705855D01*
X85267712Y-76725708D01*
X85261682Y-76728393D01*
X85261681Y-76728393D01*
X85099278Y-76800699D01*
X85099276Y-76800700D01*
X85093248Y-76803384D01*
X84938747Y-76915636D01*
X84934326Y-76920546D01*
X84934325Y-76920547D01*
X84907806Y-76950000D01*
X84810960Y-77057558D01*
X84807659Y-77063276D01*
X84731607Y-77195002D01*
X84715473Y-77222946D01*
X84656458Y-77404574D01*
X84655768Y-77411135D01*
X84655768Y-77411137D01*
X84645778Y-77506192D01*
X84636496Y-77594502D01*
X84637186Y-77601067D01*
X84654869Y-77769307D01*
X84656458Y-77784430D01*
X84715473Y-77966058D01*
X84718776Y-77971780D01*
X84718777Y-77971781D01*
X84728465Y-77988561D01*
X84810960Y-78131446D01*
X84815378Y-78136353D01*
X84815379Y-78136354D01*
X84887543Y-78216500D01*
X84938747Y-78273368D01*
X84982721Y-78305317D01*
X84997196Y-78315834D01*
X85040550Y-78372057D01*
X85046625Y-78442793D01*
X85013493Y-78505584D01*
X84951673Y-78540496D01*
X84925884Y-78543740D01*
X84917079Y-78543932D01*
X84917077Y-78543932D01*
X84911082Y-78544063D01*
X84905223Y-78545324D01*
X84905218Y-78545325D01*
X84878325Y-78551115D01*
X84863774Y-78553367D01*
X84850405Y-78554643D01*
X84830434Y-78556548D01*
X84824674Y-78558238D01*
X84824673Y-78558238D01*
X84772388Y-78573576D01*
X84763440Y-78575848D01*
X84710164Y-78587318D01*
X84710153Y-78587321D01*
X84704298Y-78588582D01*
X84698782Y-78590929D01*
X84698779Y-78590930D01*
X84673468Y-78601700D01*
X84659619Y-78606659D01*
X84627466Y-78616092D01*
X84573674Y-78643797D01*
X84565340Y-78647710D01*
X84509664Y-78671400D01*
X84481870Y-78690112D01*
X84469203Y-78697603D01*
X84444754Y-78710194D01*
X84444747Y-78710198D01*
X84439420Y-78712942D01*
X84423287Y-78725615D01*
X84391857Y-78750303D01*
X84384391Y-78755737D01*
X84337974Y-78786987D01*
X84337966Y-78786993D01*
X84334201Y-78789528D01*
X84330075Y-78793269D01*
X84309467Y-78813877D01*
X84298205Y-78823868D01*
X84277797Y-78839898D01*
X84277793Y-78839902D01*
X84273080Y-78843604D01*
X84269149Y-78848134D01*
X84269148Y-78848135D01*
X84232291Y-78890609D01*
X84226221Y-78897123D01*
X83568967Y-79554377D01*
X83557705Y-79564368D01*
X83537297Y-79580398D01*
X83537293Y-79580402D01*
X83532580Y-79584104D01*
X83528649Y-79588634D01*
X83528648Y-79588635D01*
X83491791Y-79631109D01*
X83485721Y-79637623D01*
X83479304Y-79644040D01*
X83477390Y-79646358D01*
X83477388Y-79646360D01*
X83455370Y-79673023D01*
X83453380Y-79675374D01*
X83432011Y-79700000D01*
X83393948Y-79743863D01*
X83390946Y-79749052D01*
X83387463Y-79753935D01*
X83387333Y-79753843D01*
X83385468Y-79756527D01*
X83385600Y-79756616D01*
X83382239Y-79761580D01*
X83378420Y-79766205D01*
X83334940Y-79845787D01*
X83333439Y-79848455D01*
X83288027Y-79926954D01*
X83286059Y-79932621D01*
X83283563Y-79938073D01*
X83283417Y-79938006D01*
X83282095Y-79940990D01*
X83282242Y-79941053D01*
X83279877Y-79946571D01*
X83277004Y-79951829D01*
X83275178Y-79957534D01*
X83275177Y-79957536D01*
X83249363Y-80038178D01*
X83248389Y-80041097D01*
X83223231Y-80113546D01*
X83218639Y-80126771D01*
X83217778Y-80132708D01*
X83216359Y-80138530D01*
X83216203Y-80138492D01*
X83215467Y-80141677D01*
X83215624Y-80141711D01*
X83214345Y-80147575D01*
X83212519Y-80153281D01*
X83211805Y-80159227D01*
X83201703Y-80243318D01*
X83201298Y-80246371D01*
X83188287Y-80336104D01*
X83188564Y-80342100D01*
X83188272Y-80348082D01*
X83188111Y-80348074D01*
X83187992Y-80351336D01*
X83188151Y-80351340D01*
X83188004Y-80357347D01*
X83187290Y-80363293D01*
X83187713Y-80369268D01*
X83187713Y-80369272D01*
X83193694Y-80453735D01*
X83193874Y-80456810D01*
X83195395Y-80489675D01*
X83178564Y-80558648D01*
X83127115Y-80607571D01*
X83069531Y-80621500D01*
X82865950Y-80621501D01*
X82860012Y-80621501D01*
X82823534Y-80624371D01*
X82726730Y-80652495D01*
X82675017Y-80667519D01*
X82675015Y-80667520D01*
X82667404Y-80669731D01*
X82613647Y-80701523D01*
X82544834Y-80718982D01*
X82485370Y-80701522D01*
X82439220Y-80674229D01*
X82424783Y-80667981D01*
X82311395Y-80635039D01*
X82297295Y-80635079D01*
X82294000Y-80642349D01*
X82294000Y-81112458D01*
X82288997Y-81147610D01*
X82286166Y-81157353D01*
X82286165Y-81157360D01*
X82284371Y-81163534D01*
X82283867Y-81169941D01*
X82283866Y-81169945D01*
X82281693Y-81197556D01*
X82281500Y-81200011D01*
X82281501Y-81699988D01*
X82284371Y-81736466D01*
X82286167Y-81742648D01*
X82286168Y-81742653D01*
X82288997Y-81752390D01*
X82294000Y-81787542D01*
X82294000Y-82251900D01*
X82297973Y-82265431D01*
X82305871Y-82266566D01*
X82424783Y-82232019D01*
X82439220Y-82225771D01*
X82485370Y-82198478D01*
X82554187Y-82181018D01*
X82613646Y-82198477D01*
X82667404Y-82230269D01*
X82675015Y-82232480D01*
X82675017Y-82232481D01*
X82753726Y-82255348D01*
X82823534Y-82275629D01*
X82829941Y-82276133D01*
X82829945Y-82276134D01*
X82857556Y-82278307D01*
X82857562Y-82278307D01*
X82860011Y-82278500D01*
X83059878Y-82278500D01*
X83259988Y-82278499D01*
X83296466Y-82275629D01*
X83424265Y-82238500D01*
X83444983Y-82232481D01*
X83444985Y-82232480D01*
X83452596Y-82230269D01*
X83460204Y-82225770D01*
X83585720Y-82151540D01*
X83592541Y-82147506D01*
X83613638Y-82126409D01*
X83675950Y-82092383D01*
X83746765Y-82097448D01*
X83766800Y-82108621D01*
X83767459Y-82107506D01*
X83840238Y-82150547D01*
X83907404Y-82190269D01*
X83915015Y-82192480D01*
X83915017Y-82192481D01*
X83980134Y-82211399D01*
X84063534Y-82235629D01*
X84069941Y-82236133D01*
X84069945Y-82236134D01*
X84097556Y-82238307D01*
X84097562Y-82238307D01*
X84100011Y-82238500D01*
X84349848Y-82238500D01*
X84599988Y-82238499D01*
X84636466Y-82235629D01*
X84733270Y-82207505D01*
X84784983Y-82192481D01*
X84784985Y-82192480D01*
X84792596Y-82190269D01*
X84831940Y-82167001D01*
X84925719Y-82111541D01*
X84925722Y-82111539D01*
X84932541Y-82107506D01*
X84932813Y-82107965D01*
X84993866Y-82083994D01*
X85005008Y-82083500D01*
X86035405Y-82083500D01*
X86103526Y-82103502D01*
X86124501Y-82120405D01*
X86404596Y-82400501D01*
X86438621Y-82462813D01*
X86441500Y-82489596D01*
X86441500Y-83140500D01*
X86421498Y-83208621D01*
X86367842Y-83255114D01*
X86315500Y-83266500D01*
X86151866Y-83266500D01*
X86089684Y-83273255D01*
X85953295Y-83324385D01*
X85836739Y-83411739D01*
X85749385Y-83528295D01*
X85698255Y-83664684D01*
X85691500Y-83726866D01*
X85691500Y-85573134D01*
X85698255Y-85635316D01*
X85749385Y-85771705D01*
X85766327Y-85794311D01*
X85791174Y-85860815D01*
X85791500Y-85869874D01*
X85791500Y-88160406D01*
X85771498Y-88228527D01*
X85754595Y-88249501D01*
X83854721Y-90149374D01*
X83792409Y-90183400D01*
X83732459Y-90180401D01*
X83732288Y-90181206D01*
X83725841Y-90179836D01*
X83725839Y-90179835D01*
X83551944Y-90142872D01*
X83551939Y-90142872D01*
X83545487Y-90141500D01*
X83354513Y-90141500D01*
X83348061Y-90142872D01*
X83348056Y-90142872D01*
X83261113Y-90161353D01*
X83167712Y-90181206D01*
X83161682Y-90183891D01*
X83161681Y-90183891D01*
X82999278Y-90256197D01*
X82999276Y-90256198D01*
X82993248Y-90258882D01*
X82838747Y-90371134D01*
X82834326Y-90376044D01*
X82834325Y-90376045D01*
X82734442Y-90486977D01*
X82710960Y-90513056D01*
X82615473Y-90678444D01*
X82556458Y-90860072D01*
X82555768Y-90866633D01*
X82555768Y-90866635D01*
X82548365Y-90937072D01*
X82536496Y-91050000D01*
X82537186Y-91056565D01*
X82554235Y-91218774D01*
X82556458Y-91239928D01*
X82615473Y-91421556D01*
X82618776Y-91427278D01*
X82618777Y-91427279D01*
X82647384Y-91476827D01*
X82710960Y-91586944D01*
X82715378Y-91591851D01*
X82715379Y-91591852D01*
X82831693Y-91721032D01*
X82838747Y-91728866D01*
X82937843Y-91800864D01*
X82976626Y-91829041D01*
X82993248Y-91841118D01*
X82999276Y-91843802D01*
X82999278Y-91843803D01*
X83127054Y-91900692D01*
X83167712Y-91918794D01*
X83236263Y-91933365D01*
X83348056Y-91957128D01*
X83348061Y-91957128D01*
X83354513Y-91958500D01*
X83545487Y-91958500D01*
X83551939Y-91957128D01*
X83551944Y-91957128D01*
X83663737Y-91933365D01*
X83732288Y-91918794D01*
X83772946Y-91900692D01*
X83900722Y-91843803D01*
X83900724Y-91843802D01*
X83906752Y-91841118D01*
X83923375Y-91829041D01*
X83962157Y-91800864D01*
X84061253Y-91728866D01*
X84178948Y-91598152D01*
X84208442Y-91574012D01*
X84234532Y-91558582D01*
X84234536Y-91558579D01*
X84241362Y-91554542D01*
X84255683Y-91540221D01*
X84270717Y-91527380D01*
X84271657Y-91526697D01*
X84287107Y-91515472D01*
X84315298Y-91481395D01*
X84323288Y-91472616D01*
X86651405Y-89144500D01*
X86713717Y-89110474D01*
X86784533Y-89115539D01*
X86841368Y-89158086D01*
X86866179Y-89224606D01*
X86866500Y-89233595D01*
X86866500Y-90666502D01*
X86866693Y-90668950D01*
X86866693Y-90668958D01*
X86867935Y-90684729D01*
X86869438Y-90703831D01*
X86880271Y-90741118D01*
X86910662Y-90845725D01*
X86915855Y-90863601D01*
X86919892Y-90870427D01*
X86998953Y-91004112D01*
X87016500Y-91068251D01*
X87016500Y-91271233D01*
X87015973Y-91282416D01*
X87014298Y-91289909D01*
X87014547Y-91297835D01*
X87014547Y-91297836D01*
X87016438Y-91357986D01*
X87016500Y-91361945D01*
X87016500Y-91389856D01*
X87016997Y-91393790D01*
X87016997Y-91393791D01*
X87017005Y-91393856D01*
X87017938Y-91405693D01*
X87019327Y-91449889D01*
X87024978Y-91469339D01*
X87028987Y-91488700D01*
X87031526Y-91508797D01*
X87034445Y-91516168D01*
X87034445Y-91516170D01*
X87047804Y-91549912D01*
X87051649Y-91561142D01*
X87056168Y-91576697D01*
X87063982Y-91603593D01*
X87068015Y-91610412D01*
X87068017Y-91610417D01*
X87074293Y-91621028D01*
X87082988Y-91638776D01*
X87090448Y-91657617D01*
X87095110Y-91664033D01*
X87095110Y-91664034D01*
X87116436Y-91693387D01*
X87122952Y-91703307D01*
X87141228Y-91734209D01*
X87145458Y-91741362D01*
X87159779Y-91755683D01*
X87172619Y-91770716D01*
X87184528Y-91787107D01*
X87190633Y-91792158D01*
X87190638Y-91792163D01*
X87218598Y-91815294D01*
X87227376Y-91823281D01*
X87587878Y-92183782D01*
X87621903Y-92246095D01*
X87624093Y-92259706D01*
X87627471Y-92291852D01*
X87632932Y-92343803D01*
X87641458Y-92424928D01*
X87700473Y-92606556D01*
X87703776Y-92612278D01*
X87703777Y-92612279D01*
X87708331Y-92620166D01*
X87795960Y-92771944D01*
X87923747Y-92913866D01*
X88078248Y-93026118D01*
X88084276Y-93028802D01*
X88084278Y-93028803D01*
X88246681Y-93101109D01*
X88252712Y-93103794D01*
X88346113Y-93123647D01*
X88433056Y-93142128D01*
X88433061Y-93142128D01*
X88439513Y-93143500D01*
X88630487Y-93143500D01*
X88636939Y-93142128D01*
X88636944Y-93142128D01*
X88723887Y-93123647D01*
X88817288Y-93103794D01*
X88823319Y-93101109D01*
X88985722Y-93028803D01*
X88985724Y-93028802D01*
X88991752Y-93026118D01*
X89146253Y-92913866D01*
X89274040Y-92771944D01*
X89361669Y-92620166D01*
X89366223Y-92612279D01*
X89366224Y-92612278D01*
X89369527Y-92606556D01*
X89428542Y-92424928D01*
X89437069Y-92343803D01*
X89447814Y-92241565D01*
X89448504Y-92235000D01*
X89441709Y-92170351D01*
X89429232Y-92051635D01*
X89429232Y-92051633D01*
X89428542Y-92045072D01*
X89369527Y-91863444D01*
X89354431Y-91837296D01*
X89315991Y-91770717D01*
X89274040Y-91698056D01*
X89260486Y-91683002D01*
X89150675Y-91561045D01*
X89150674Y-91561044D01*
X89146253Y-91556134D01*
X89137811Y-91550000D01*
X89081099Y-91508797D01*
X89050322Y-91486435D01*
X89006968Y-91430214D01*
X89000893Y-91359478D01*
X89034024Y-91296686D01*
X89095844Y-91261774D01*
X89124383Y-91258500D01*
X89141502Y-91258500D01*
X89143950Y-91258307D01*
X89143958Y-91258307D01*
X89172421Y-91256067D01*
X89172426Y-91256066D01*
X89178831Y-91255562D01*
X89296281Y-91221440D01*
X89330988Y-91211357D01*
X89330990Y-91211356D01*
X89338601Y-91209145D01*
X89481807Y-91124453D01*
X89482864Y-91126241D01*
X89538851Y-91104255D01*
X89608475Y-91118151D01*
X89618034Y-91124294D01*
X89618193Y-91124453D01*
X89761399Y-91209145D01*
X89769010Y-91211356D01*
X89769012Y-91211357D01*
X89803719Y-91221440D01*
X89921169Y-91255562D01*
X89927574Y-91256066D01*
X89927579Y-91256067D01*
X89956042Y-91258307D01*
X89956050Y-91258307D01*
X89958498Y-91258500D01*
X90391502Y-91258500D01*
X90393950Y-91258307D01*
X90393958Y-91258307D01*
X90422421Y-91256067D01*
X90422426Y-91256066D01*
X90428831Y-91255562D01*
X90546281Y-91221440D01*
X90580988Y-91211357D01*
X90580990Y-91211356D01*
X90588601Y-91209145D01*
X90731807Y-91124453D01*
X90732864Y-91126241D01*
X90788851Y-91104255D01*
X90858475Y-91118151D01*
X90868034Y-91124294D01*
X90868193Y-91124453D01*
X91011399Y-91209145D01*
X91019010Y-91211356D01*
X91019012Y-91211357D01*
X91053719Y-91221440D01*
X91171169Y-91255562D01*
X91177574Y-91256066D01*
X91177579Y-91256067D01*
X91206042Y-91258307D01*
X91206050Y-91258307D01*
X91208498Y-91258500D01*
X91641502Y-91258500D01*
X91643950Y-91258307D01*
X91643958Y-91258307D01*
X91672421Y-91256067D01*
X91672426Y-91256066D01*
X91678831Y-91255562D01*
X91796281Y-91221440D01*
X91830988Y-91211357D01*
X91830990Y-91211356D01*
X91838601Y-91209145D01*
X91981807Y-91124453D01*
X91982864Y-91126241D01*
X92038851Y-91104255D01*
X92108475Y-91118151D01*
X92118034Y-91124294D01*
X92118193Y-91124453D01*
X92261399Y-91209145D01*
X92269010Y-91211356D01*
X92269012Y-91211357D01*
X92303719Y-91221440D01*
X92421169Y-91255562D01*
X92427574Y-91256066D01*
X92427579Y-91256067D01*
X92456042Y-91258307D01*
X92456050Y-91258307D01*
X92458498Y-91258500D01*
X92891502Y-91258500D01*
X92893950Y-91258307D01*
X92893958Y-91258307D01*
X92922421Y-91256067D01*
X92922426Y-91256066D01*
X92928831Y-91255562D01*
X93046281Y-91221440D01*
X93080988Y-91211357D01*
X93080990Y-91211356D01*
X93088601Y-91209145D01*
X93193863Y-91146893D01*
X93262679Y-91129433D01*
X93330010Y-91151950D01*
X93374479Y-91207294D01*
X93381968Y-91277895D01*
X93377837Y-91294274D01*
X93356458Y-91360072D01*
X93355768Y-91366633D01*
X93355768Y-91366635D01*
X93344974Y-91469339D01*
X93336496Y-91550000D01*
X93337186Y-91556565D01*
X93354780Y-91723959D01*
X93356458Y-91739928D01*
X93415473Y-91921556D01*
X93418776Y-91927278D01*
X93418777Y-91927279D01*
X93436803Y-91958500D01*
X93510960Y-92086944D01*
X93638747Y-92228866D01*
X93793248Y-92341118D01*
X93799276Y-92343802D01*
X93799278Y-92343803D01*
X93949173Y-92410540D01*
X93967712Y-92418794D01*
X94033365Y-92432749D01*
X94148056Y-92457128D01*
X94148061Y-92457128D01*
X94154513Y-92458500D01*
X94345487Y-92458500D01*
X94351939Y-92457128D01*
X94351944Y-92457128D01*
X94466635Y-92432749D01*
X94532288Y-92418794D01*
X94550827Y-92410540D01*
X94700722Y-92343803D01*
X94700724Y-92343802D01*
X94706752Y-92341118D01*
X94861253Y-92228866D01*
X94989040Y-92086944D01*
X95063197Y-91958500D01*
X95081223Y-91927279D01*
X95081224Y-91927278D01*
X95084527Y-91921556D01*
X95143542Y-91739928D01*
X95145221Y-91723959D01*
X95162814Y-91556565D01*
X95163504Y-91550000D01*
X95159233Y-91509366D01*
X95147494Y-91397670D01*
X95160266Y-91327832D01*
X95208768Y-91275985D01*
X95272804Y-91258500D01*
X95391502Y-91258500D01*
X95393950Y-91258307D01*
X95393958Y-91258307D01*
X95422421Y-91256067D01*
X95422426Y-91256066D01*
X95428831Y-91255562D01*
X95546281Y-91221440D01*
X95580988Y-91211357D01*
X95580990Y-91211356D01*
X95588601Y-91209145D01*
X95731807Y-91124453D01*
X95732864Y-91126241D01*
X95788851Y-91104255D01*
X95858475Y-91118151D01*
X95868034Y-91124294D01*
X95868193Y-91124453D01*
X96011399Y-91209145D01*
X96019010Y-91211356D01*
X96019012Y-91211357D01*
X96053719Y-91221440D01*
X96171169Y-91255562D01*
X96177574Y-91256066D01*
X96177579Y-91256067D01*
X96206042Y-91258307D01*
X96206050Y-91258307D01*
X96208498Y-91258500D01*
X96641502Y-91258500D01*
X96643950Y-91258307D01*
X96643958Y-91258307D01*
X96672421Y-91256067D01*
X96672426Y-91256066D01*
X96678831Y-91255562D01*
X96796281Y-91221440D01*
X96830988Y-91211357D01*
X96830990Y-91211356D01*
X96838601Y-91209145D01*
X96981807Y-91124453D01*
X96982788Y-91126111D01*
X97039277Y-91103936D01*
X97108899Y-91117840D01*
X97119322Y-91124540D01*
X97254779Y-91204648D01*
X97269210Y-91210893D01*
X97403605Y-91249939D01*
X97417706Y-91249899D01*
X97421000Y-91242630D01*
X97421000Y-91236878D01*
X97929000Y-91236878D01*
X97932973Y-91250409D01*
X97940871Y-91251544D01*
X98080790Y-91210893D01*
X98095221Y-91204648D01*
X98231498Y-91124055D01*
X98232573Y-91125874D01*
X98288454Y-91103936D01*
X98358076Y-91117839D01*
X98367880Y-91124140D01*
X98368193Y-91124453D01*
X98511399Y-91209145D01*
X98519010Y-91211356D01*
X98519012Y-91211357D01*
X98553719Y-91221440D01*
X98671169Y-91255562D01*
X98677574Y-91256066D01*
X98677579Y-91256067D01*
X98706042Y-91258307D01*
X98706050Y-91258307D01*
X98708498Y-91258500D01*
X99141502Y-91258500D01*
X99143950Y-91258307D01*
X99143958Y-91258307D01*
X99172421Y-91256067D01*
X99172426Y-91256066D01*
X99178831Y-91255562D01*
X99296281Y-91221440D01*
X99330988Y-91211357D01*
X99330990Y-91211356D01*
X99338601Y-91209145D01*
X99390434Y-91178491D01*
X99474980Y-91128491D01*
X99474983Y-91128489D01*
X99481807Y-91124453D01*
X99599453Y-91006807D01*
X99659761Y-90904832D01*
X99711654Y-90856380D01*
X99781505Y-90843675D01*
X99794411Y-90845725D01*
X99848056Y-90857128D01*
X99848060Y-90857128D01*
X99854513Y-90858500D01*
X100045487Y-90858500D01*
X100051939Y-90857128D01*
X100051944Y-90857128D01*
X100138887Y-90838647D01*
X100232288Y-90818794D01*
X100322584Y-90778592D01*
X100400722Y-90743803D01*
X100400724Y-90743802D01*
X100406752Y-90741118D01*
X100561253Y-90628866D01*
X100689040Y-90486944D01*
X100784527Y-90321556D01*
X100843542Y-90139928D01*
X100849033Y-90087690D01*
X100862814Y-89956565D01*
X100863504Y-89950000D01*
X100855089Y-89869932D01*
X100844232Y-89766635D01*
X100844232Y-89766633D01*
X100843542Y-89760072D01*
X100784527Y-89578444D01*
X100689040Y-89413056D01*
X100561253Y-89271134D01*
X100406752Y-89158882D01*
X100400724Y-89156198D01*
X100400722Y-89156197D01*
X100238319Y-89083891D01*
X100238318Y-89083891D01*
X100232288Y-89081206D01*
X100138887Y-89061353D01*
X100051944Y-89042872D01*
X100051939Y-89042872D01*
X100045487Y-89041500D01*
X99854513Y-89041500D01*
X99848056Y-89042872D01*
X99848051Y-89042873D01*
X99837338Y-89045150D01*
X99766548Y-89039747D01*
X99709916Y-88996930D01*
X99690146Y-88957055D01*
X99686358Y-88944015D01*
X99686357Y-88944012D01*
X99684145Y-88936399D01*
X99641799Y-88864796D01*
X99603491Y-88800020D01*
X99603489Y-88800017D01*
X99599453Y-88793193D01*
X99481807Y-88675547D01*
X99474983Y-88671511D01*
X99474980Y-88671509D01*
X99353373Y-88599591D01*
X99338601Y-88590855D01*
X99330990Y-88588644D01*
X99330988Y-88588643D01*
X99278769Y-88573472D01*
X99178831Y-88544438D01*
X99172426Y-88543934D01*
X99172421Y-88543933D01*
X99143958Y-88541693D01*
X99143950Y-88541693D01*
X99141502Y-88541500D01*
X98708498Y-88541500D01*
X98706050Y-88541693D01*
X98706042Y-88541693D01*
X98677579Y-88543933D01*
X98677574Y-88543934D01*
X98671169Y-88544438D01*
X98571231Y-88573472D01*
X98519012Y-88588643D01*
X98519010Y-88588644D01*
X98511399Y-88590855D01*
X98368193Y-88675547D01*
X98367212Y-88673889D01*
X98310723Y-88696064D01*
X98241101Y-88682160D01*
X98230678Y-88675460D01*
X98095221Y-88595352D01*
X98080790Y-88589107D01*
X97946395Y-88550061D01*
X97932294Y-88550101D01*
X97929000Y-88557370D01*
X97929000Y-91236878D01*
X97421000Y-91236878D01*
X97421000Y-88563122D01*
X97417027Y-88549591D01*
X97409129Y-88548456D01*
X97269210Y-88589107D01*
X97254779Y-88595352D01*
X97118502Y-88675945D01*
X97117427Y-88674126D01*
X97061546Y-88696064D01*
X96991924Y-88682161D01*
X96982120Y-88675860D01*
X96981807Y-88675547D01*
X96838601Y-88590855D01*
X96830990Y-88588644D01*
X96830988Y-88588643D01*
X96778769Y-88573472D01*
X96678831Y-88544438D01*
X96672426Y-88543934D01*
X96672421Y-88543933D01*
X96643958Y-88541693D01*
X96643950Y-88541693D01*
X96641502Y-88541500D01*
X96489594Y-88541500D01*
X96421473Y-88521498D01*
X96400499Y-88504595D01*
X96228601Y-88332697D01*
X96194575Y-88270385D01*
X96199640Y-88199570D01*
X96243635Y-88141666D01*
X96261253Y-88128866D01*
X96265675Y-88123955D01*
X96384621Y-87991852D01*
X96384622Y-87991851D01*
X96389040Y-87986944D01*
X96464842Y-87855652D01*
X96481223Y-87827279D01*
X96481224Y-87827278D01*
X96484527Y-87821556D01*
X96543542Y-87639928D01*
X96544586Y-87630000D01*
X96562814Y-87456565D01*
X96563504Y-87450000D01*
X96551181Y-87332749D01*
X96544232Y-87266635D01*
X96544232Y-87266633D01*
X96543542Y-87260072D01*
X96484527Y-87078444D01*
X96389040Y-86913056D01*
X96336819Y-86855058D01*
X96265675Y-86776045D01*
X96265674Y-86776044D01*
X96261253Y-86771134D01*
X96162157Y-86699136D01*
X96112094Y-86662763D01*
X96112093Y-86662762D01*
X96106752Y-86658882D01*
X96100724Y-86656198D01*
X96100722Y-86656197D01*
X95938319Y-86583891D01*
X95938318Y-86583891D01*
X95932288Y-86581206D01*
X95844114Y-86562464D01*
X95781641Y-86528736D01*
X95747319Y-86466586D01*
X95745001Y-86426047D01*
X95762814Y-86256565D01*
X95763504Y-86250000D01*
X95751014Y-86131166D01*
X95744232Y-86066635D01*
X95744232Y-86066633D01*
X95743542Y-86060072D01*
X95684527Y-85878444D01*
X95589040Y-85713056D01*
X95466113Y-85576531D01*
X95465675Y-85576045D01*
X95465674Y-85576044D01*
X95461253Y-85571134D01*
X95306752Y-85458882D01*
X95300724Y-85456198D01*
X95300722Y-85456197D01*
X95138319Y-85383891D01*
X95138318Y-85383891D01*
X95132288Y-85381206D01*
X95038887Y-85361353D01*
X94951944Y-85342872D01*
X94951939Y-85342872D01*
X94945487Y-85341500D01*
X94754513Y-85341500D01*
X94748061Y-85342872D01*
X94748056Y-85342872D01*
X94661113Y-85361353D01*
X94567712Y-85381206D01*
X94485248Y-85417921D01*
X94414882Y-85427355D01*
X94350585Y-85397249D01*
X94312771Y-85337160D01*
X94308000Y-85302814D01*
X94308000Y-84893115D01*
X94303525Y-84877876D01*
X94302135Y-84876671D01*
X94294452Y-84875000D01*
X93784500Y-84875000D01*
X93716379Y-84854998D01*
X93669886Y-84801342D01*
X93658500Y-84749000D01*
X93658500Y-84551000D01*
X93678502Y-84482879D01*
X93732158Y-84436386D01*
X93784500Y-84425000D01*
X94289884Y-84425000D01*
X94305123Y-84420525D01*
X94306328Y-84419135D01*
X94307999Y-84411452D01*
X94307999Y-83730331D01*
X94307630Y-83723512D01*
X94304145Y-83691432D01*
X94316674Y-83621550D01*
X94364995Y-83569535D01*
X94433767Y-83551901D01*
X94503469Y-83575890D01*
X94587906Y-83637237D01*
X94593248Y-83641118D01*
X94599276Y-83643802D01*
X94599278Y-83643803D01*
X94761681Y-83716109D01*
X94767712Y-83718794D01*
X94834005Y-83732885D01*
X94948056Y-83757128D01*
X94948061Y-83757128D01*
X94954513Y-83758500D01*
X95145487Y-83758500D01*
X95151939Y-83757128D01*
X95151944Y-83757128D01*
X95265995Y-83732885D01*
X95332288Y-83718794D01*
X95338319Y-83716109D01*
X95500722Y-83643803D01*
X95500724Y-83643802D01*
X95506752Y-83641118D01*
X95512094Y-83637237D01*
X95655909Y-83532749D01*
X95655911Y-83532747D01*
X95661253Y-83528866D01*
X95665675Y-83523955D01*
X95665687Y-83523944D01*
X95729694Y-83493225D01*
X95800148Y-83501987D01*
X95834313Y-83523944D01*
X95834325Y-83523955D01*
X95838747Y-83528866D01*
X95844089Y-83532747D01*
X95844091Y-83532749D01*
X95987906Y-83637237D01*
X95993248Y-83641118D01*
X95999276Y-83643802D01*
X95999278Y-83643803D01*
X96161681Y-83716109D01*
X96167712Y-83718794D01*
X96234005Y-83732885D01*
X96348056Y-83757128D01*
X96348061Y-83757128D01*
X96354513Y-83758500D01*
X96545487Y-83758500D01*
X96551939Y-83757128D01*
X96551944Y-83757128D01*
X96665995Y-83732885D01*
X96732288Y-83718794D01*
X96738321Y-83716108D01*
X96738327Y-83716106D01*
X96797923Y-83689572D01*
X96868289Y-83680137D01*
X96932587Y-83710243D01*
X96970400Y-83770332D01*
X96969725Y-83841325D01*
X96958291Y-83867678D01*
X96877191Y-84008148D01*
X96865473Y-84028444D01*
X96806458Y-84210072D01*
X96805768Y-84216633D01*
X96805768Y-84216635D01*
X96798896Y-84282018D01*
X96786496Y-84400000D01*
X96787186Y-84406565D01*
X96802367Y-84551000D01*
X96806458Y-84589928D01*
X96865473Y-84771556D01*
X96960960Y-84936944D01*
X97088747Y-85078866D01*
X97243248Y-85191118D01*
X97249276Y-85193802D01*
X97249278Y-85193803D01*
X97370419Y-85247738D01*
X97417712Y-85268794D01*
X97511113Y-85288647D01*
X97598056Y-85307128D01*
X97598061Y-85307128D01*
X97604513Y-85308500D01*
X97795487Y-85308500D01*
X97801939Y-85307128D01*
X97801944Y-85307128D01*
X97888887Y-85288647D01*
X97982288Y-85268794D01*
X98029581Y-85247738D01*
X98150722Y-85193803D01*
X98150724Y-85193802D01*
X98156752Y-85191118D01*
X98311253Y-85078866D01*
X98439040Y-84936944D01*
X98534527Y-84771556D01*
X98593542Y-84589928D01*
X98597634Y-84551000D01*
X98612814Y-84406565D01*
X98613504Y-84400000D01*
X98601104Y-84282018D01*
X98594232Y-84216635D01*
X98594232Y-84216633D01*
X98593542Y-84210072D01*
X98534527Y-84028444D01*
X98439040Y-83863056D01*
X98419474Y-83841325D01*
X98315675Y-83726045D01*
X98315674Y-83726044D01*
X98311253Y-83721134D01*
X98156752Y-83608882D01*
X98150724Y-83606198D01*
X98150722Y-83606197D01*
X97988319Y-83533891D01*
X97988318Y-83533891D01*
X97982288Y-83531206D01*
X97888887Y-83511353D01*
X97801944Y-83492872D01*
X97801939Y-83492872D01*
X97795487Y-83491500D01*
X97604513Y-83491500D01*
X97598061Y-83492872D01*
X97598056Y-83492872D01*
X97511113Y-83511353D01*
X97417712Y-83531206D01*
X97411679Y-83533892D01*
X97411673Y-83533894D01*
X97352077Y-83560428D01*
X97281711Y-83569863D01*
X97217413Y-83539757D01*
X97179600Y-83479668D01*
X97180275Y-83408675D01*
X97191709Y-83382322D01*
X97281223Y-83227279D01*
X97281224Y-83227278D01*
X97284527Y-83221556D01*
X97343542Y-83039928D01*
X97348451Y-82993227D01*
X97362814Y-82856565D01*
X97363504Y-82850000D01*
X97355326Y-82772190D01*
X97368098Y-82702352D01*
X97416600Y-82650505D01*
X97480636Y-82633020D01*
X99284926Y-82633020D01*
X99353047Y-82653022D01*
X99374021Y-82669925D01*
X100971343Y-84267247D01*
X100978887Y-84275537D01*
X100983000Y-84282018D01*
X100988777Y-84287443D01*
X101032667Y-84328658D01*
X101035509Y-84331413D01*
X101055230Y-84351134D01*
X101058425Y-84353612D01*
X101067447Y-84361318D01*
X101099679Y-84391586D01*
X101106628Y-84395406D01*
X101117432Y-84401346D01*
X101133956Y-84412199D01*
X101149959Y-84424613D01*
X101157236Y-84427762D01*
X101160327Y-84429100D01*
X101199382Y-84455642D01*
X101293193Y-84549453D01*
X101300017Y-84553489D01*
X101300020Y-84553491D01*
X101407589Y-84617107D01*
X101436399Y-84634145D01*
X101444010Y-84636356D01*
X101444012Y-84636357D01*
X101496231Y-84651528D01*
X101596169Y-84680562D01*
X101602574Y-84681066D01*
X101602579Y-84681067D01*
X101631042Y-84683307D01*
X101631050Y-84683307D01*
X101633498Y-84683500D01*
X103166502Y-84683500D01*
X103168950Y-84683307D01*
X103168958Y-84683307D01*
X103197421Y-84681067D01*
X103197426Y-84681066D01*
X103203831Y-84680562D01*
X103303769Y-84651528D01*
X103355988Y-84636357D01*
X103355990Y-84636356D01*
X103363601Y-84634145D01*
X103392411Y-84617107D01*
X103499980Y-84553491D01*
X103499983Y-84553489D01*
X103506807Y-84549453D01*
X103624453Y-84431807D01*
X103628489Y-84424983D01*
X103628491Y-84424980D01*
X103705108Y-84295427D01*
X103709145Y-84288601D01*
X103712799Y-84276026D01*
X103730053Y-84216635D01*
X103755562Y-84128831D01*
X103757202Y-84108002D01*
X103758307Y-84093958D01*
X103758307Y-84093950D01*
X103758500Y-84091502D01*
X103758500Y-83658498D01*
X103758138Y-83653897D01*
X103756067Y-83627579D01*
X103756066Y-83627574D01*
X103755562Y-83621169D01*
X103709145Y-83461399D01*
X103624453Y-83318193D01*
X103626241Y-83317136D01*
X103604255Y-83261149D01*
X103618151Y-83191525D01*
X103624294Y-83181966D01*
X103624453Y-83181807D01*
X103709145Y-83038601D01*
X103755562Y-82878831D01*
X103757039Y-82860072D01*
X103758307Y-82843958D01*
X103758307Y-82843950D01*
X103758500Y-82841502D01*
X103758500Y-82408498D01*
X103755562Y-82371169D01*
X103718008Y-82241907D01*
X103711357Y-82219012D01*
X103711356Y-82219010D01*
X103709145Y-82211399D01*
X103624453Y-82068193D01*
X103626241Y-82067136D01*
X103604255Y-82011149D01*
X103618151Y-81941525D01*
X103624294Y-81931966D01*
X103624453Y-81931807D01*
X103709145Y-81788601D01*
X103714748Y-81769317D01*
X103732064Y-81709712D01*
X103755562Y-81628831D01*
X103758500Y-81591502D01*
X103758500Y-81158498D01*
X103758307Y-81156042D01*
X103756067Y-81127579D01*
X103756066Y-81127574D01*
X103755562Y-81121169D01*
X103718501Y-80993602D01*
X103711357Y-80969012D01*
X103711356Y-80969010D01*
X103709145Y-80961399D01*
X103624453Y-80818193D01*
X103626241Y-80817136D01*
X103604255Y-80761149D01*
X103618151Y-80691525D01*
X103624294Y-80681966D01*
X103624453Y-80681807D01*
X103709145Y-80538601D01*
X103755562Y-80378831D01*
X103756315Y-80369272D01*
X103758307Y-80343958D01*
X103758307Y-80343950D01*
X103758500Y-80341502D01*
X103758500Y-79908498D01*
X103755562Y-79871169D01*
X103709145Y-79711399D01*
X103624453Y-79568193D01*
X103626241Y-79567136D01*
X103604255Y-79511149D01*
X103618151Y-79441525D01*
X103624294Y-79431966D01*
X103624453Y-79431807D01*
X103709145Y-79288601D01*
X103714056Y-79271699D01*
X103731468Y-79211763D01*
X103755562Y-79128831D01*
X103758500Y-79091502D01*
X103758500Y-78658498D01*
X103758191Y-78654573D01*
X103756067Y-78627579D01*
X103756066Y-78627574D01*
X103755562Y-78621169D01*
X103709145Y-78461399D01*
X103624453Y-78318193D01*
X103626241Y-78317136D01*
X103604255Y-78261149D01*
X103618151Y-78191525D01*
X103624294Y-78181966D01*
X103624453Y-78181807D01*
X103709145Y-78038601D01*
X103717585Y-78009552D01*
X103735196Y-77948931D01*
X103755562Y-77878831D01*
X103756695Y-77864447D01*
X103758307Y-77843958D01*
X103758307Y-77843950D01*
X103758500Y-77841502D01*
X103758500Y-77408498D01*
X103758191Y-77404573D01*
X103756067Y-77377579D01*
X103756066Y-77377574D01*
X103755562Y-77371169D01*
X103719970Y-77248658D01*
X103711357Y-77219012D01*
X103711356Y-77219010D01*
X103709145Y-77211399D01*
X103624453Y-77068193D01*
X103626241Y-77067136D01*
X103604255Y-77011149D01*
X103618151Y-76941525D01*
X103624294Y-76931966D01*
X103624453Y-76931807D01*
X103709145Y-76788601D01*
X103717434Y-76760072D01*
X103727417Y-76725708D01*
X103755562Y-76628831D01*
X103756520Y-76616667D01*
X103758307Y-76593958D01*
X103758307Y-76593950D01*
X103758500Y-76591502D01*
X103758500Y-76158498D01*
X103757909Y-76150987D01*
X103756067Y-76127579D01*
X103756066Y-76127574D01*
X103755562Y-76121169D01*
X103718311Y-75992950D01*
X103711357Y-75969012D01*
X103711356Y-75969010D01*
X103709145Y-75961399D01*
X103624453Y-75818193D01*
X103626241Y-75817136D01*
X103604255Y-75761149D01*
X103618151Y-75691525D01*
X103624294Y-75681966D01*
X103624453Y-75681807D01*
X103709145Y-75538601D01*
X103724855Y-75484528D01*
X103739262Y-75434935D01*
X103755562Y-75378831D01*
X103756127Y-75371661D01*
X103758307Y-75343958D01*
X103758307Y-75343950D01*
X103758500Y-75341502D01*
X103758500Y-74908498D01*
X103758191Y-74904573D01*
X103756067Y-74877579D01*
X103756066Y-74877574D01*
X103755562Y-74871169D01*
X103725645Y-74768193D01*
X103711357Y-74719012D01*
X103711356Y-74719010D01*
X103709145Y-74711399D01*
X103624453Y-74568193D01*
X103626113Y-74567211D01*
X103603937Y-74510737D01*
X103617834Y-74441114D01*
X103624538Y-74430681D01*
X103704648Y-74295221D01*
X103710893Y-74280790D01*
X103749939Y-74146395D01*
X103749899Y-74132294D01*
X103742630Y-74129000D01*
X101063122Y-74129000D01*
X101049591Y-74132973D01*
X101048456Y-74140871D01*
X101089107Y-74280790D01*
X101095352Y-74295221D01*
X101175945Y-74431498D01*
X101174124Y-74432575D01*
X101196063Y-74488438D01*
X101182168Y-74558062D01*
X101175856Y-74567884D01*
X101175547Y-74568193D01*
X101174271Y-74570350D01*
X101174263Y-74570363D01*
X101135466Y-74635966D01*
X101090855Y-74711399D01*
X101061833Y-74811295D01*
X101058178Y-74823877D01*
X101026276Y-74877820D01*
X97724500Y-78179595D01*
X97662188Y-78213621D01*
X97635405Y-78216500D01*
X94860566Y-78216500D01*
X94792445Y-78196498D01*
X94745952Y-78142842D01*
X94735848Y-78072568D01*
X94765342Y-78007988D01*
X94786504Y-77988565D01*
X94793397Y-77983557D01*
X94803307Y-77977048D01*
X94834535Y-77958580D01*
X94834538Y-77958578D01*
X94841362Y-77954542D01*
X94855683Y-77940221D01*
X94870717Y-77927380D01*
X94880693Y-77920132D01*
X94887107Y-77915472D01*
X94896442Y-77904187D01*
X94955275Y-77864447D01*
X94993529Y-77858500D01*
X95045487Y-77858500D01*
X95051939Y-77857128D01*
X95051944Y-77857128D01*
X95138887Y-77838647D01*
X95232288Y-77818794D01*
X95287265Y-77794317D01*
X95400722Y-77743803D01*
X95400724Y-77743802D01*
X95406752Y-77741118D01*
X95426567Y-77726722D01*
X95462157Y-77700864D01*
X95561253Y-77628866D01*
X95565675Y-77623955D01*
X95684621Y-77491852D01*
X95684622Y-77491851D01*
X95689040Y-77486944D01*
X95784527Y-77321556D01*
X95843542Y-77139928D01*
X95844285Y-77132864D01*
X95862814Y-76956565D01*
X95863504Y-76950000D01*
X95847104Y-76793958D01*
X95844232Y-76766635D01*
X95844232Y-76766633D01*
X95843542Y-76760072D01*
X95784527Y-76578444D01*
X95773880Y-76560002D01*
X95752787Y-76523469D01*
X95717875Y-76462999D01*
X95701137Y-76394005D01*
X95717875Y-76337000D01*
X95718047Y-76336703D01*
X95784527Y-76221556D01*
X95843542Y-76039928D01*
X95845071Y-76025386D01*
X95862814Y-75856565D01*
X95863504Y-75850000D01*
X95858992Y-75807071D01*
X95844232Y-75666635D01*
X95844232Y-75666633D01*
X95843542Y-75660072D01*
X95784527Y-75478444D01*
X95765483Y-75445458D01*
X95733722Y-75390448D01*
X95689040Y-75313056D01*
X95681506Y-75304688D01*
X95561253Y-75171134D01*
X95562447Y-75170059D01*
X95529467Y-75116532D01*
X95530816Y-75045548D01*
X95534607Y-75035119D01*
X95589494Y-74902608D01*
X95593733Y-74886788D01*
X95607012Y-74785926D01*
X95607550Y-74777718D01*
X95607550Y-74296715D01*
X95603075Y-74281476D01*
X95601685Y-74280271D01*
X95594002Y-74278600D01*
X94677000Y-74278600D01*
X94608879Y-74258598D01*
X94562386Y-74204942D01*
X94551000Y-74152600D01*
X94551000Y-73896600D01*
X94571002Y-73828479D01*
X94624658Y-73781986D01*
X94677000Y-73770600D01*
X95589435Y-73770600D01*
X95604674Y-73766125D01*
X95605879Y-73764735D01*
X95607550Y-73757052D01*
X95607550Y-73309500D01*
X95627552Y-73241379D01*
X95681208Y-73194886D01*
X95733550Y-73183500D01*
X95741263Y-73183500D01*
X95809384Y-73203502D01*
X95830358Y-73220405D01*
X95857459Y-73247506D01*
X95864280Y-73251540D01*
X95978889Y-73319319D01*
X95997404Y-73330269D01*
X96005015Y-73332480D01*
X96005017Y-73332481D01*
X96060162Y-73348502D01*
X96153534Y-73375629D01*
X96159941Y-73376133D01*
X96159945Y-73376134D01*
X96187556Y-73378307D01*
X96187562Y-73378307D01*
X96190011Y-73378500D01*
X96389878Y-73378500D01*
X96589988Y-73378499D01*
X96626466Y-73375629D01*
X96723270Y-73347505D01*
X96774983Y-73332481D01*
X96774985Y-73332480D01*
X96782596Y-73330269D01*
X96789421Y-73326233D01*
X96789425Y-73326231D01*
X96835861Y-73298769D01*
X96904677Y-73281309D01*
X96964139Y-73298769D01*
X97010575Y-73326231D01*
X97010579Y-73326233D01*
X97017404Y-73330269D01*
X97025015Y-73332480D01*
X97025017Y-73332481D01*
X97080162Y-73348502D01*
X97173534Y-73375629D01*
X97179941Y-73376133D01*
X97179945Y-73376134D01*
X97207556Y-73378307D01*
X97207562Y-73378307D01*
X97210011Y-73378500D01*
X97409878Y-73378500D01*
X97609988Y-73378499D01*
X97646466Y-73375629D01*
X97743270Y-73347505D01*
X97794983Y-73332481D01*
X97794985Y-73332480D01*
X97802596Y-73330269D01*
X97821112Y-73319319D01*
X97935720Y-73251540D01*
X97942541Y-73247506D01*
X98057506Y-73132541D01*
X98072186Y-73107718D01*
X98136234Y-72999419D01*
X98136234Y-72999418D01*
X98140269Y-72992596D01*
X98185629Y-72836466D01*
X98187325Y-72814928D01*
X98188307Y-72802444D01*
X98188307Y-72802438D01*
X98188500Y-72799989D01*
X98188499Y-72300012D01*
X98185629Y-72263534D01*
X98140269Y-72107404D01*
X98136233Y-72100579D01*
X98136231Y-72100575D01*
X98099898Y-72039139D01*
X98082438Y-71970323D01*
X98099898Y-71910861D01*
X98136231Y-71849425D01*
X98136233Y-71849421D01*
X98140269Y-71842596D01*
X98142480Y-71834985D01*
X98142482Y-71834981D01*
X98167360Y-71749348D01*
X98205573Y-71689512D01*
X98270069Y-71659834D01*
X98288357Y-71658500D01*
X98345487Y-71658500D01*
X98351939Y-71657128D01*
X98351944Y-71657128D01*
X98438887Y-71638647D01*
X98532288Y-71618794D01*
X98538319Y-71616109D01*
X98700722Y-71543803D01*
X98700724Y-71543802D01*
X98706752Y-71541118D01*
X98861253Y-71428866D01*
X98960380Y-71318774D01*
X98984621Y-71291852D01*
X98984622Y-71291851D01*
X98989040Y-71286944D01*
X99084527Y-71121556D01*
X99143542Y-70939928D01*
X99148106Y-70896509D01*
X99162814Y-70756565D01*
X99163504Y-70750000D01*
X99144951Y-70573478D01*
X99144232Y-70566635D01*
X99144232Y-70566633D01*
X99143542Y-70560072D01*
X99084527Y-70378444D01*
X98989040Y-70213056D01*
X98892105Y-70105398D01*
X98865675Y-70076045D01*
X98865674Y-70076044D01*
X98861253Y-70071134D01*
X98706752Y-69958882D01*
X98700724Y-69956198D01*
X98700722Y-69956197D01*
X98538317Y-69883890D01*
X98538315Y-69883889D01*
X98532288Y-69881206D01*
X98525833Y-69879834D01*
X98520564Y-69878122D01*
X98461958Y-69838049D01*
X98434321Y-69772652D01*
X98433500Y-69758289D01*
X98433500Y-69068737D01*
X98453502Y-69000616D01*
X98470405Y-68979642D01*
X98497506Y-68952541D01*
X98539894Y-68880866D01*
X98576234Y-68819419D01*
X98576234Y-68819418D01*
X98580269Y-68812596D01*
X98625629Y-68656466D01*
X98628500Y-68619989D01*
X98628499Y-68220012D01*
X98625629Y-68183534D01*
X98580269Y-68027404D01*
X98576233Y-68020579D01*
X98576231Y-68020575D01*
X98548769Y-67974139D01*
X98531309Y-67905323D01*
X98548769Y-67845861D01*
X98576231Y-67799425D01*
X98576233Y-67799421D01*
X98580269Y-67792596D01*
X98584534Y-67777918D01*
X98623834Y-67642644D01*
X98625629Y-67636466D01*
X98626259Y-67628468D01*
X98628307Y-67602444D01*
X98628307Y-67602438D01*
X98628500Y-67599989D01*
X98628499Y-67200012D01*
X98625629Y-67163534D01*
X98595707Y-67060541D01*
X98582481Y-67015017D01*
X98582480Y-67015015D01*
X98580269Y-67007404D01*
X98572388Y-66994077D01*
X98501540Y-66874280D01*
X98497506Y-66867459D01*
X98382541Y-66752494D01*
X98345407Y-66730533D01*
X98249419Y-66673766D01*
X98249418Y-66673766D01*
X98242596Y-66669731D01*
X98234985Y-66667520D01*
X98234983Y-66667519D01*
X98138540Y-66639500D01*
X98086466Y-66624371D01*
X98080059Y-66623867D01*
X98080055Y-66623866D01*
X98052444Y-66621693D01*
X98052438Y-66621693D01*
X98049989Y-66621500D01*
X97969595Y-66621500D01*
X97901474Y-66601498D01*
X97880500Y-66584595D01*
X97772605Y-66476700D01*
X97738579Y-66414388D01*
X97735700Y-66387605D01*
X97735700Y-66335170D01*
X97755702Y-66267049D01*
X97809358Y-66220556D01*
X97861700Y-66209170D01*
X98445694Y-66209170D01*
X98450306Y-66208669D01*
X98500026Y-66203268D01*
X98500028Y-66203268D01*
X98507876Y-66202415D01*
X98554704Y-66184860D01*
X98625511Y-66179678D01*
X98643160Y-66184860D01*
X98681282Y-66199151D01*
X98696523Y-66202775D01*
X98747394Y-66208301D01*
X98754208Y-66208670D01*
X98826485Y-66208670D01*
X98841724Y-66204195D01*
X98842929Y-66202805D01*
X98844600Y-66195122D01*
X98844600Y-66190554D01*
X99352600Y-66190554D01*
X99357075Y-66205793D01*
X99358465Y-66206998D01*
X99366148Y-66208669D01*
X99442989Y-66208669D01*
X99449810Y-66208299D01*
X99500672Y-66202775D01*
X99515924Y-66199149D01*
X99636374Y-66153994D01*
X99651969Y-66145456D01*
X99754044Y-66068955D01*
X99766605Y-66056394D01*
X99843106Y-65954319D01*
X99851644Y-65938724D01*
X99896798Y-65818276D01*
X99900425Y-65803021D01*
X99905951Y-65752156D01*
X99906320Y-65745342D01*
X99906320Y-65298415D01*
X99901845Y-65283176D01*
X99900455Y-65281971D01*
X99892772Y-65280300D01*
X99370715Y-65280300D01*
X99355476Y-65284775D01*
X99354271Y-65286165D01*
X99352600Y-65293848D01*
X99352600Y-66190554D01*
X98844600Y-66190554D01*
X98844600Y-65979753D01*
X98852618Y-65935523D01*
X98891623Y-65831477D01*
X98899305Y-65810986D01*
X98906060Y-65748804D01*
X98906060Y-64898300D01*
X98926062Y-64830179D01*
X98979718Y-64783686D01*
X99032060Y-64772300D01*
X99888204Y-64772300D01*
X99903443Y-64767825D01*
X99904648Y-64766435D01*
X99906827Y-64756417D01*
X99940852Y-64694105D01*
X100003164Y-64660080D01*
X100029948Y-64657200D01*
X100196487Y-64657200D01*
X100202939Y-64655828D01*
X100202944Y-64655828D01*
X100289887Y-64637347D01*
X100383288Y-64617494D01*
X100449749Y-64587904D01*
X100551722Y-64542503D01*
X100551724Y-64542502D01*
X100557752Y-64539818D01*
X100566567Y-64533414D01*
X100675410Y-64454334D01*
X100712253Y-64427566D01*
X100722720Y-64415941D01*
X100835621Y-64290552D01*
X100835622Y-64290551D01*
X100840040Y-64285644D01*
X100923482Y-64141118D01*
X100932223Y-64125979D01*
X100932224Y-64125978D01*
X100935527Y-64120256D01*
X100994542Y-63938628D01*
X101002787Y-63860187D01*
X101013814Y-63755265D01*
X101014504Y-63748700D01*
X101010160Y-63707370D01*
X100995232Y-63565335D01*
X100995232Y-63565333D01*
X100994542Y-63558772D01*
X100935527Y-63377144D01*
X100840040Y-63211756D01*
X100820102Y-63189612D01*
X100738791Y-63099308D01*
X100713987Y-63071760D01*
X100683270Y-63007753D01*
X100692034Y-62937299D01*
X100737497Y-62882768D01*
X100807623Y-62861450D01*
X101046654Y-62861450D01*
X101108836Y-62854695D01*
X101245225Y-62803565D01*
X101361781Y-62716211D01*
X101449135Y-62599655D01*
X101500265Y-62463266D01*
X101507020Y-62401084D01*
X101507020Y-60634000D01*
X101527022Y-60565879D01*
X101580678Y-60519386D01*
X101633020Y-60508000D01*
X102906554Y-60508000D01*
X102974675Y-60528002D01*
G37*
%TD.AperFunction*%
%TA.AperFunction,Conductor*%
G36*
X93635101Y-60528002D02*
G01*
X93681594Y-60581658D01*
X93692980Y-60634000D01*
X93692980Y-62401084D01*
X93699735Y-62463266D01*
X93750865Y-62599655D01*
X93838219Y-62716211D01*
X93954775Y-62803565D01*
X94091164Y-62854695D01*
X94153346Y-62861450D01*
X94626886Y-62861450D01*
X94695007Y-62881452D01*
X94741500Y-62935108D01*
X94752196Y-63000620D01*
X94741959Y-63098022D01*
X94736496Y-63150000D01*
X94737186Y-63156565D01*
X94746842Y-63248433D01*
X94756458Y-63339928D01*
X94815473Y-63521556D01*
X94818776Y-63527278D01*
X94818777Y-63527279D01*
X94836684Y-63558295D01*
X94910960Y-63686944D01*
X94984137Y-63768215D01*
X95014853Y-63832221D01*
X95016500Y-63852524D01*
X95016500Y-64496133D01*
X95015973Y-64507316D01*
X95014298Y-64514809D01*
X95014547Y-64522735D01*
X95014547Y-64522736D01*
X95016438Y-64582886D01*
X95016500Y-64586845D01*
X95016500Y-64614756D01*
X95016997Y-64618690D01*
X95016997Y-64618691D01*
X95017005Y-64618756D01*
X95017938Y-64630593D01*
X95019327Y-64674789D01*
X95023056Y-64687623D01*
X95024978Y-64694239D01*
X95028987Y-64713600D01*
X95031526Y-64733697D01*
X95034445Y-64741068D01*
X95034445Y-64741070D01*
X95047804Y-64774812D01*
X95051649Y-64786042D01*
X95054057Y-64794329D01*
X95063982Y-64828493D01*
X95068015Y-64835312D01*
X95068017Y-64835317D01*
X95074293Y-64845928D01*
X95082988Y-64863676D01*
X95090448Y-64882517D01*
X95095110Y-64888933D01*
X95095110Y-64888934D01*
X95116436Y-64918287D01*
X95122952Y-64928207D01*
X95125301Y-64932178D01*
X95145458Y-64966262D01*
X95159779Y-64980583D01*
X95172619Y-64995616D01*
X95184528Y-65012007D01*
X95190636Y-65017060D01*
X95218598Y-65040192D01*
X95227378Y-65048182D01*
X95256275Y-65077079D01*
X95290301Y-65139391D01*
X95293180Y-65166174D01*
X95293180Y-65748804D01*
X95299935Y-65810986D01*
X95351065Y-65947375D01*
X95376915Y-65981866D01*
X95438419Y-66063931D01*
X95436725Y-66065201D01*
X95465021Y-66117020D01*
X95467900Y-66143803D01*
X95467900Y-66963456D01*
X95447898Y-67031577D01*
X95394242Y-67078070D01*
X95323968Y-67088174D01*
X95261585Y-67060541D01*
X95236407Y-67039712D01*
X95227627Y-67031722D01*
X93653652Y-65457747D01*
X93646112Y-65449461D01*
X93642000Y-65442982D01*
X93603046Y-65406402D01*
X93567081Y-65345190D01*
X93569918Y-65274250D01*
X93610659Y-65216106D01*
X93638048Y-65199446D01*
X93650720Y-65193804D01*
X93650723Y-65193802D01*
X93656752Y-65191118D01*
X93674808Y-65178000D01*
X93777175Y-65103625D01*
X93811253Y-65078866D01*
X93866903Y-65017060D01*
X93934621Y-64941852D01*
X93934622Y-64941851D01*
X93939040Y-64936944D01*
X94022998Y-64791525D01*
X94031223Y-64777279D01*
X94031224Y-64777278D01*
X94034527Y-64771556D01*
X94093542Y-64589928D01*
X94095488Y-64571418D01*
X94112814Y-64406565D01*
X94113504Y-64400000D01*
X94112814Y-64393435D01*
X94094232Y-64216635D01*
X94094232Y-64216633D01*
X94093542Y-64210072D01*
X94034527Y-64028444D01*
X93939040Y-63863056D01*
X93911509Y-63832479D01*
X93815675Y-63726045D01*
X93815674Y-63726044D01*
X93811253Y-63721134D01*
X93702277Y-63641958D01*
X93662094Y-63612763D01*
X93662093Y-63612762D01*
X93656752Y-63608882D01*
X93650724Y-63606198D01*
X93650722Y-63606197D01*
X93488319Y-63533891D01*
X93488318Y-63533891D01*
X93482288Y-63531206D01*
X93388888Y-63511353D01*
X93301944Y-63492872D01*
X93301939Y-63492872D01*
X93295487Y-63491500D01*
X93157950Y-63491500D01*
X93089829Y-63471498D01*
X93043336Y-63417842D01*
X93033232Y-63347568D01*
X93050690Y-63299384D01*
X93063275Y-63278968D01*
X93063276Y-63278966D01*
X93067115Y-63272738D01*
X93094687Y-63189612D01*
X93120632Y-63111389D01*
X93120632Y-63111387D01*
X93122797Y-63104861D01*
X93125484Y-63078642D01*
X93129983Y-63034729D01*
X93133500Y-63000400D01*
X93133500Y-60699600D01*
X93128043Y-60647003D01*
X93140908Y-60577182D01*
X93189479Y-60525400D01*
X93253370Y-60508000D01*
X93566980Y-60508000D01*
X93635101Y-60528002D01*
G37*
%TD.AperFunction*%
%TD*%
M02*
