%TF.GenerationSoftware,KiCad,Pcbnew,(6.0.0-0)*%
%TF.CreationDate,2022-04-22T00:51:05+02:00*%
%TF.ProjectId,ProtoBoard,50726f74-6f42-46f6-9172-642e6b696361,rev?*%
%TF.SameCoordinates,Original*%
%TF.FileFunction,Copper,L3,Inr*%
%TF.FilePolarity,Positive*%
%FSLAX46Y46*%
G04 Gerber Fmt 4.6, Leading zero omitted, Abs format (unit mm)*
G04 Created by KiCad (PCBNEW (6.0.0-0)) date 2022-04-22 00:51:05*
%MOMM*%
%LPD*%
G01*
G04 APERTURE LIST*
%TA.AperFunction,ComponentPad*%
%ADD10R,1.700000X1.700000*%
%TD*%
%TA.AperFunction,ComponentPad*%
%ADD11O,1.700000X1.700000*%
%TD*%
%TA.AperFunction,ComponentPad*%
%ADD12C,4.400000*%
%TD*%
%TA.AperFunction,ViaPad*%
%ADD13C,0.800000*%
%TD*%
%TA.AperFunction,Conductor*%
%ADD14C,0.250000*%
%TD*%
%TA.AperFunction,Conductor*%
%ADD15C,1.200000*%
%TD*%
%TA.AperFunction,Conductor*%
%ADD16C,0.300000*%
%TD*%
G04 APERTURE END LIST*
D10*
%TO.N,/Servo1*%
%TO.C,J8*%
X66075000Y-66880000D03*
D11*
%TO.N,/Servo2*%
X68615000Y-66880000D03*
%TO.N,/Servo3*%
X71155000Y-66880000D03*
%TO.N,/Servo4*%
X73695000Y-66880000D03*
%TO.N,/Servo5*%
X76235000Y-66880000D03*
%TD*%
D10*
%TO.N,GND*%
%TO.C,J1*%
X58975000Y-66900000D03*
D11*
%TO.N,+BATT*%
X61515000Y-66900000D03*
%TD*%
D12*
%TO.N,GND*%
%TO.C,H1*%
X60000000Y-62550000D03*
%TD*%
D10*
%TO.N,/POWER2*%
%TO.C,J6*%
X66075000Y-64340000D03*
D11*
X68615000Y-64340000D03*
%TO.N,/POWER3*%
X71155000Y-64340000D03*
%TO.N,/POWER1*%
X73695000Y-64340000D03*
X76235000Y-64340000D03*
%TD*%
D10*
%TO.N,GND*%
%TO.C,J5*%
X66075000Y-61800000D03*
D11*
X68615000Y-61800000D03*
X71155000Y-61800000D03*
X73695000Y-61800000D03*
X76235000Y-61800000D03*
%TD*%
D12*
%TO.N,GND*%
%TO.C,H4*%
X60000000Y-92500000D03*
%TD*%
%TO.N,GND*%
%TO.C,H3*%
X105000000Y-62550000D03*
%TD*%
%TO.N,GND*%
%TO.C,H2*%
X105000000Y-92500000D03*
%TD*%
D13*
%TO.N,GND*%
X79450000Y-77750000D03*
X89700200Y-74100000D03*
X97650000Y-91450000D03*
X65000000Y-89450000D03*
X94400000Y-65750000D03*
X84450000Y-74100000D03*
%TO.N,+3V3*%
X64025500Y-82850000D03*
X104625000Y-72625000D03*
X77184800Y-81615200D03*
X75782500Y-71850000D03*
X100101000Y-63748700D03*
X77350000Y-91750000D03*
X85550000Y-77594502D03*
X99950000Y-89950000D03*
X98250000Y-70750000D03*
%TO.N,+BATT*%
X61860000Y-87630000D03*
X85750000Y-79650000D03*
X97700000Y-84400000D03*
%TO.N,/RGB*%
X88535000Y-92235000D03*
%TO.N,/I2C_SDA*%
X95650000Y-87450000D03*
X97100000Y-63451400D03*
%TO.N,/I2C_SCL*%
X95650000Y-63150000D03*
X94250000Y-91550000D03*
%TO.N,/POWER3*%
X88000000Y-63400000D03*
%TO.N,/POWER2*%
X83600000Y-63350000D03*
%TO.N,/POWER1*%
X93200000Y-64400000D03*
%TO.N,/POWER4*%
X92950000Y-67550000D03*
%TO.N,/COM1*%
X75950000Y-75550000D03*
X72562299Y-82662299D03*
%TO.N,/COM2*%
X83450000Y-91050000D03*
%TO.N,/SEL3*%
X94950000Y-75850000D03*
X77550000Y-84550000D03*
X65550000Y-86650000D03*
%TO.N,/SEL4*%
X77670300Y-73659400D03*
X94950000Y-76950000D03*
X77550000Y-83200000D03*
X68089502Y-84550000D03*
%TO.N,/SEL2*%
X70600000Y-74400000D03*
X94850000Y-86250000D03*
X79750000Y-82550000D03*
%TO.N,/SEL1*%
X71600000Y-75550000D03*
X89700000Y-83050000D03*
%TO.N,/LRA6*%
X80112299Y-72487701D03*
%TO.N,/LRA5*%
X79250000Y-71350000D03*
%TO.N,/LRA4*%
X80200000Y-70200000D03*
%TO.N,/LRA3*%
X95300000Y-70200000D03*
X96450000Y-82850000D03*
%TO.N,/LRA2*%
X95300000Y-71400000D03*
X95050000Y-82850000D03*
%TO.N,/LRA1*%
X93750000Y-82850000D03*
X94789400Y-72611400D03*
%TD*%
D14*
%TO.N,+3V3*%
X99950000Y-89950000D02*
X104625000Y-85275000D01*
X77184800Y-81615200D02*
X65260300Y-81615200D01*
X77350000Y-91750000D02*
X79150000Y-89950000D01*
X104625000Y-85275000D02*
X104625000Y-72625000D01*
X77550000Y-74950000D02*
X77550000Y-81250000D01*
X65260300Y-81615200D02*
X64025500Y-82850000D01*
X75782500Y-71850000D02*
X75782500Y-73182500D01*
X79150000Y-89950000D02*
X99950000Y-89950000D01*
X82105498Y-77594502D02*
X78084800Y-81615200D01*
X75782500Y-73182500D02*
X77550000Y-74950000D01*
X77550000Y-81250000D02*
X77184800Y-81615200D01*
X78084800Y-81615200D02*
X77184800Y-81615200D01*
X85550000Y-77594502D02*
X82105498Y-77594502D01*
D15*
%TO.N,+BATT*%
X61860000Y-88860000D02*
X64850000Y-91850000D01*
X61860000Y-87630000D02*
X61860000Y-85280000D01*
X74850000Y-87650000D02*
X82301366Y-87650000D01*
X97700000Y-84400000D02*
X93800000Y-84400000D01*
X82301366Y-87650000D02*
X84350000Y-87650000D01*
X85750000Y-86250000D02*
X85750000Y-79650000D01*
X93800000Y-84400000D02*
X92900000Y-84400000D01*
X84350000Y-87650000D02*
X89650000Y-87650000D01*
X61515000Y-66900000D02*
X61515000Y-84935000D01*
X89650000Y-87650000D02*
X91250000Y-86050000D01*
X64850000Y-91850000D02*
X70650000Y-91850000D01*
X70650000Y-91850000D02*
X74850000Y-87650000D01*
X61860000Y-85280000D02*
X61515000Y-84935000D01*
X61860000Y-87630000D02*
X61860000Y-88860000D01*
X92900000Y-84400000D02*
X91250000Y-86050000D01*
X84350000Y-87650000D02*
X85750000Y-86250000D01*
D16*
%TO.N,/POWER3*%
X81700000Y-62300000D02*
X87000000Y-62300000D01*
X87000000Y-62300000D02*
X88000000Y-63300000D01*
X88000000Y-63300000D02*
X88000000Y-63400000D01*
X72415000Y-65600000D02*
X78400000Y-65600000D01*
X71155000Y-64340000D02*
X72415000Y-65600000D01*
X78400000Y-65600000D02*
X81700000Y-62300000D01*
D15*
%TO.N,/POWER2*%
X65310000Y-64340000D02*
X66075000Y-64340000D01*
X83600000Y-63350000D02*
X83600000Y-63650000D01*
X63800000Y-67650000D02*
X63800000Y-65850000D01*
X78250000Y-69000000D02*
X65150000Y-69000000D01*
X63800000Y-65850000D02*
X65310000Y-64340000D01*
X83600000Y-63650000D02*
X78250000Y-69000000D01*
X65150000Y-69000000D02*
X63800000Y-67650000D01*
%TO.N,/POWER1*%
X79325000Y-61250000D02*
X90050000Y-61250000D01*
X90050000Y-61250000D02*
X93200000Y-64400000D01*
X76235000Y-64340000D02*
X79325000Y-61250000D01*
%TD*%
%TA.AperFunction,Conductor*%
%TO.N,GND*%
G36*
X102974675Y-60528002D02*
G01*
X103021168Y-60581658D01*
X103031272Y-60651932D01*
X103001778Y-60716512D01*
X102994949Y-60723791D01*
X102986586Y-60732024D01*
X102981518Y-60737652D01*
X102782766Y-60987071D01*
X102778410Y-60993270D01*
X102611059Y-61264764D01*
X102607479Y-61271440D01*
X102473956Y-61561074D01*
X102471206Y-61568125D01*
X102373444Y-61871708D01*
X102371561Y-61879041D01*
X102310979Y-62192170D01*
X102309992Y-62199670D01*
X102287467Y-62517802D01*
X102287388Y-62525383D01*
X102303245Y-62843914D01*
X102304076Y-62851443D01*
X102358085Y-63165759D01*
X102359818Y-63173146D01*
X102451196Y-63478695D01*
X102453799Y-63485808D01*
X102581227Y-63778173D01*
X102584669Y-63784929D01*
X102746296Y-64059865D01*
X102750519Y-64066150D01*
X102901463Y-64263934D01*
X102912989Y-64272396D01*
X102925054Y-64265735D01*
X104910905Y-62279885D01*
X104973217Y-62245859D01*
X105044033Y-62250924D01*
X105089095Y-62279885D01*
X105270115Y-62460905D01*
X105304141Y-62523217D01*
X105299076Y-62594032D01*
X105270115Y-62639095D01*
X103285818Y-64623393D01*
X103278703Y-64636423D01*
X103286227Y-64646854D01*
X103425483Y-64759020D01*
X103431657Y-64763408D01*
X103702271Y-64932178D01*
X103708931Y-64935794D01*
X103997852Y-65070827D01*
X104004905Y-65073620D01*
X104307970Y-65172970D01*
X104315282Y-65174888D01*
X104628092Y-65237109D01*
X104635590Y-65238137D01*
X104953610Y-65262328D01*
X104961173Y-65262446D01*
X105279785Y-65248257D01*
X105287326Y-65247465D01*
X105601924Y-65195101D01*
X105609302Y-65193411D01*
X105915355Y-65103625D01*
X105922450Y-65101071D01*
X106215496Y-64975169D01*
X106222263Y-64971765D01*
X106498042Y-64811580D01*
X106504349Y-64807390D01*
X106758895Y-64615226D01*
X106764651Y-64610310D01*
X106778553Y-64596909D01*
X106841479Y-64564032D01*
X106912190Y-64570394D01*
X106968236Y-64613976D01*
X106992000Y-64687623D01*
X106992000Y-90362259D01*
X106971998Y-90430380D01*
X106918342Y-90476873D01*
X106848068Y-90486977D01*
X106787994Y-90461209D01*
X106551298Y-90274613D01*
X106545075Y-90270288D01*
X106272702Y-90104357D01*
X106266025Y-90100822D01*
X105975686Y-89968813D01*
X105968616Y-89966099D01*
X105664537Y-89869932D01*
X105657186Y-89868085D01*
X105343746Y-89809142D01*
X105336237Y-89808194D01*
X105017989Y-89787335D01*
X105010424Y-89787295D01*
X104691964Y-89804821D01*
X104684450Y-89805690D01*
X104370405Y-89861348D01*
X104363044Y-89863115D01*
X104057980Y-89956092D01*
X104050860Y-89958740D01*
X103759182Y-90087690D01*
X103752445Y-90091167D01*
X103478355Y-90254233D01*
X103472091Y-90258490D01*
X103286385Y-90401762D01*
X103277917Y-90413423D01*
X103284520Y-90425309D01*
X105270115Y-92410905D01*
X105304141Y-92473217D01*
X105299076Y-92544033D01*
X105270115Y-92589095D01*
X105089095Y-92770115D01*
X105026783Y-92804141D01*
X104955968Y-92799076D01*
X104910905Y-92770115D01*
X102926445Y-90785656D01*
X102913510Y-90778592D01*
X102902949Y-90786252D01*
X102782766Y-90937072D01*
X102778410Y-90943270D01*
X102611059Y-91214764D01*
X102607479Y-91221440D01*
X102473956Y-91511074D01*
X102471206Y-91518125D01*
X102373444Y-91821708D01*
X102371561Y-91829041D01*
X102310979Y-92142170D01*
X102309992Y-92149670D01*
X102287467Y-92467802D01*
X102287388Y-92475383D01*
X102303245Y-92793914D01*
X102304076Y-92801443D01*
X102358085Y-93115759D01*
X102359818Y-93123146D01*
X102451196Y-93428695D01*
X102453799Y-93435808D01*
X102581227Y-93728173D01*
X102584669Y-93734929D01*
X102746296Y-94009865D01*
X102750519Y-94016150D01*
X102944010Y-94269684D01*
X102948953Y-94275411D01*
X102951552Y-94278078D01*
X102984758Y-94340830D01*
X102978767Y-94411573D01*
X102935481Y-94467847D01*
X102868642Y-94491786D01*
X102861298Y-94492000D01*
X62135317Y-94492000D01*
X62067196Y-94471998D01*
X62020703Y-94418342D01*
X62010599Y-94348068D01*
X62037604Y-94286450D01*
X62200751Y-94086055D01*
X62205164Y-94079914D01*
X62375349Y-93810187D01*
X62379005Y-93803536D01*
X62515544Y-93515335D01*
X62518375Y-93508295D01*
X62619306Y-93205767D01*
X62621270Y-93198433D01*
X62685122Y-92885989D01*
X62686194Y-92878465D01*
X62712173Y-92559051D01*
X62712378Y-92554576D01*
X62712927Y-92502221D01*
X62712817Y-92497789D01*
X62693529Y-92177853D01*
X62692621Y-92170351D01*
X62635319Y-91856593D01*
X62633518Y-91849260D01*
X62538935Y-91544655D01*
X62536263Y-91537583D01*
X62463961Y-91376329D01*
X62454342Y-91305987D01*
X62484280Y-91241612D01*
X62544270Y-91203641D01*
X62615264Y-91204131D01*
X62668028Y-91235684D01*
X63992449Y-92560105D01*
X63999435Y-92568379D01*
X63999665Y-92568180D01*
X64003588Y-92572725D01*
X64007054Y-92577611D01*
X64040245Y-92609384D01*
X64074017Y-92641714D01*
X64075981Y-92643637D01*
X64103540Y-92671196D01*
X64105850Y-92673103D01*
X64109259Y-92675918D01*
X64116163Y-92682060D01*
X64159850Y-92723881D01*
X64164889Y-92727135D01*
X64164892Y-92727137D01*
X64187993Y-92742053D01*
X64199877Y-92750751D01*
X64221081Y-92768262D01*
X64221090Y-92768268D01*
X64225706Y-92772080D01*
X64278817Y-92801097D01*
X64286698Y-92805786D01*
X64337548Y-92838620D01*
X64343115Y-92840863D01*
X64343116Y-92840864D01*
X64368625Y-92851144D01*
X64381931Y-92857433D01*
X64411330Y-92873496D01*
X64450358Y-92885989D01*
X64468952Y-92891941D01*
X64477625Y-92895072D01*
X64533737Y-92917686D01*
X64566615Y-92924107D01*
X64580876Y-92927769D01*
X64612782Y-92937982D01*
X64658320Y-92943452D01*
X64672846Y-92945197D01*
X64681970Y-92946634D01*
X64723144Y-92954675D01*
X64741337Y-92958228D01*
X64746899Y-92958500D01*
X64776041Y-92958500D01*
X64791069Y-92959399D01*
X64816847Y-92962496D01*
X64816851Y-92962496D01*
X64822794Y-92963210D01*
X64828770Y-92962787D01*
X64828773Y-92962787D01*
X64884868Y-92958815D01*
X64893767Y-92958500D01*
X70545743Y-92958500D01*
X70556532Y-92959411D01*
X70556554Y-92959107D01*
X70562528Y-92959546D01*
X70568446Y-92960552D01*
X70661100Y-92958530D01*
X70663848Y-92958500D01*
X70702846Y-92958500D01*
X70705825Y-92958216D01*
X70705843Y-92958215D01*
X70710222Y-92957797D01*
X70719436Y-92957257D01*
X70751088Y-92956566D01*
X70773920Y-92956068D01*
X70773921Y-92956068D01*
X70779917Y-92955937D01*
X70785775Y-92954676D01*
X70785782Y-92954675D01*
X70812674Y-92948885D01*
X70827226Y-92946633D01*
X70842275Y-92945197D01*
X70860566Y-92943452D01*
X70866327Y-92941762D01*
X70918613Y-92926424D01*
X70927561Y-92924152D01*
X70980836Y-92912682D01*
X70980847Y-92912679D01*
X70986702Y-92911418D01*
X70992218Y-92909071D01*
X70992221Y-92909070D01*
X71017532Y-92898300D01*
X71031381Y-92893341D01*
X71063534Y-92883908D01*
X71117326Y-92856203D01*
X71125660Y-92852290D01*
X71181336Y-92828600D01*
X71209130Y-92809888D01*
X71221797Y-92802397D01*
X71246246Y-92789806D01*
X71246253Y-92789802D01*
X71251580Y-92787058D01*
X71297801Y-92750751D01*
X71299143Y-92749697D01*
X71306609Y-92744263D01*
X71353033Y-92713009D01*
X71353048Y-92712998D01*
X71356799Y-92710472D01*
X71360924Y-92706731D01*
X71381529Y-92686126D01*
X71392791Y-92676135D01*
X71413203Y-92660102D01*
X71413208Y-92660098D01*
X71417920Y-92656396D01*
X71421852Y-92651865D01*
X71421857Y-92651860D01*
X71458716Y-92609384D01*
X71464786Y-92602869D01*
X72317655Y-91750000D01*
X76436496Y-91750000D01*
X76437186Y-91756565D01*
X76455129Y-91927279D01*
X76456458Y-91939928D01*
X76515473Y-92121556D01*
X76518776Y-92127278D01*
X76518777Y-92127279D01*
X76531705Y-92149670D01*
X76610960Y-92286944D01*
X76615378Y-92291851D01*
X76615379Y-92291852D01*
X76729292Y-92418365D01*
X76738747Y-92428866D01*
X76893248Y-92541118D01*
X76899276Y-92543802D01*
X76899278Y-92543803D01*
X77053079Y-92612279D01*
X77067712Y-92618794D01*
X77161113Y-92638647D01*
X77248056Y-92657128D01*
X77248061Y-92657128D01*
X77254513Y-92658500D01*
X77445487Y-92658500D01*
X77451939Y-92657128D01*
X77451944Y-92657128D01*
X77538887Y-92638647D01*
X77632288Y-92618794D01*
X77646921Y-92612279D01*
X77800722Y-92543803D01*
X77800724Y-92543802D01*
X77806752Y-92541118D01*
X77961253Y-92428866D01*
X77970708Y-92418365D01*
X78084621Y-92291852D01*
X78084622Y-92291851D01*
X78089040Y-92286944D01*
X78119030Y-92235000D01*
X87621496Y-92235000D01*
X87622186Y-92241565D01*
X87632932Y-92343803D01*
X87641458Y-92424928D01*
X87700473Y-92606556D01*
X87703776Y-92612278D01*
X87703777Y-92612279D01*
X87721302Y-92642633D01*
X87795960Y-92771944D01*
X87800378Y-92776851D01*
X87800379Y-92776852D01*
X87898646Y-92885989D01*
X87923747Y-92913866D01*
X88078248Y-93026118D01*
X88084276Y-93028802D01*
X88084278Y-93028803D01*
X88246681Y-93101109D01*
X88252712Y-93103794D01*
X88346113Y-93123647D01*
X88433056Y-93142128D01*
X88433061Y-93142128D01*
X88439513Y-93143500D01*
X88630487Y-93143500D01*
X88636939Y-93142128D01*
X88636944Y-93142128D01*
X88723887Y-93123647D01*
X88817288Y-93103794D01*
X88823319Y-93101109D01*
X88985722Y-93028803D01*
X88985724Y-93028802D01*
X88991752Y-93026118D01*
X89146253Y-92913866D01*
X89171354Y-92885989D01*
X89269621Y-92776852D01*
X89269622Y-92776851D01*
X89274040Y-92771944D01*
X89348698Y-92642633D01*
X89366223Y-92612279D01*
X89366224Y-92612278D01*
X89369527Y-92606556D01*
X89428542Y-92424928D01*
X89437069Y-92343803D01*
X89447814Y-92241565D01*
X89448504Y-92235000D01*
X89428542Y-92045072D01*
X89369527Y-91863444D01*
X89274040Y-91698056D01*
X89173995Y-91586944D01*
X89150675Y-91561045D01*
X89150674Y-91561044D01*
X89146253Y-91556134D01*
X88991752Y-91443882D01*
X88985724Y-91441198D01*
X88985722Y-91441197D01*
X88823319Y-91368891D01*
X88823318Y-91368891D01*
X88817288Y-91366206D01*
X88723887Y-91346353D01*
X88636944Y-91327872D01*
X88636939Y-91327872D01*
X88630487Y-91326500D01*
X88439513Y-91326500D01*
X88433061Y-91327872D01*
X88433056Y-91327872D01*
X88346113Y-91346353D01*
X88252712Y-91366206D01*
X88246682Y-91368891D01*
X88246681Y-91368891D01*
X88084278Y-91441197D01*
X88084276Y-91441198D01*
X88078248Y-91443882D01*
X87923747Y-91556134D01*
X87919326Y-91561044D01*
X87919325Y-91561045D01*
X87896006Y-91586944D01*
X87795960Y-91698056D01*
X87700473Y-91863444D01*
X87641458Y-92045072D01*
X87621496Y-92235000D01*
X78119030Y-92235000D01*
X78168295Y-92149670D01*
X78181223Y-92127279D01*
X78181224Y-92127278D01*
X78184527Y-92121556D01*
X78243542Y-91939928D01*
X78244872Y-91927279D01*
X78254335Y-91837237D01*
X78260907Y-91774706D01*
X78287920Y-91709050D01*
X78297122Y-91698782D01*
X79375499Y-90620405D01*
X79437811Y-90586379D01*
X79464594Y-90583500D01*
X82472898Y-90583500D01*
X82541019Y-90603502D01*
X82587512Y-90657158D01*
X82597616Y-90727432D01*
X82592731Y-90748436D01*
X82556458Y-90860072D01*
X82555768Y-90866633D01*
X82555768Y-90866635D01*
X82548365Y-90937072D01*
X82536496Y-91050000D01*
X82537186Y-91056565D01*
X82554235Y-91218774D01*
X82556458Y-91239928D01*
X82615473Y-91421556D01*
X82710960Y-91586944D01*
X82715378Y-91591851D01*
X82715379Y-91591852D01*
X82834325Y-91723955D01*
X82838747Y-91728866D01*
X82937843Y-91800864D01*
X82976626Y-91829041D01*
X82993248Y-91841118D01*
X82999276Y-91843802D01*
X82999278Y-91843803D01*
X83159799Y-91915271D01*
X83167712Y-91918794D01*
X83236263Y-91933365D01*
X83348056Y-91957128D01*
X83348061Y-91957128D01*
X83354513Y-91958500D01*
X83545487Y-91958500D01*
X83551939Y-91957128D01*
X83551944Y-91957128D01*
X83663737Y-91933365D01*
X83732288Y-91918794D01*
X83740201Y-91915271D01*
X83900722Y-91843803D01*
X83900724Y-91843802D01*
X83906752Y-91841118D01*
X83923375Y-91829041D01*
X83962157Y-91800864D01*
X84061253Y-91728866D01*
X84065675Y-91723955D01*
X84184621Y-91591852D01*
X84184622Y-91591851D01*
X84189040Y-91586944D01*
X84284527Y-91421556D01*
X84343542Y-91239928D01*
X84345766Y-91218774D01*
X84362814Y-91056565D01*
X84363504Y-91050000D01*
X84351635Y-90937072D01*
X84344232Y-90866635D01*
X84344232Y-90866633D01*
X84343542Y-90860072D01*
X84307269Y-90748436D01*
X84305241Y-90677469D01*
X84341904Y-90616671D01*
X84405616Y-90585345D01*
X84427102Y-90583500D01*
X93646853Y-90583500D01*
X93714974Y-90603502D01*
X93761467Y-90657158D01*
X93771571Y-90727432D01*
X93742077Y-90792012D01*
X93720914Y-90811436D01*
X93658025Y-90857128D01*
X93638747Y-90871134D01*
X93634326Y-90876044D01*
X93634325Y-90876045D01*
X93573796Y-90943270D01*
X93510960Y-91013056D01*
X93415473Y-91178444D01*
X93356458Y-91360072D01*
X93355768Y-91366633D01*
X93355768Y-91366635D01*
X93347649Y-91443882D01*
X93336496Y-91550000D01*
X93337186Y-91556565D01*
X93353213Y-91709050D01*
X93356458Y-91739928D01*
X93415473Y-91921556D01*
X93418776Y-91927278D01*
X93418777Y-91927279D01*
X93436803Y-91958500D01*
X93510960Y-92086944D01*
X93638747Y-92228866D01*
X93793248Y-92341118D01*
X93799276Y-92343802D01*
X93799278Y-92343803D01*
X93949993Y-92410905D01*
X93967712Y-92418794D01*
X94026106Y-92431206D01*
X94148056Y-92457128D01*
X94148061Y-92457128D01*
X94154513Y-92458500D01*
X94345487Y-92458500D01*
X94351939Y-92457128D01*
X94351944Y-92457128D01*
X94473894Y-92431206D01*
X94532288Y-92418794D01*
X94550007Y-92410905D01*
X94700722Y-92343803D01*
X94700724Y-92343802D01*
X94706752Y-92341118D01*
X94861253Y-92228866D01*
X94989040Y-92086944D01*
X95063197Y-91958500D01*
X95081223Y-91927279D01*
X95081224Y-91927278D01*
X95084527Y-91921556D01*
X95143542Y-91739928D01*
X95146788Y-91709050D01*
X95162814Y-91556565D01*
X95163504Y-91550000D01*
X95152351Y-91443882D01*
X95144232Y-91366635D01*
X95144232Y-91366633D01*
X95143542Y-91360072D01*
X95084527Y-91178444D01*
X94989040Y-91013056D01*
X94926205Y-90943270D01*
X94865675Y-90876045D01*
X94865674Y-90876044D01*
X94861253Y-90871134D01*
X94841976Y-90857128D01*
X94779086Y-90811436D01*
X94735732Y-90755214D01*
X94729657Y-90684477D01*
X94762789Y-90621686D01*
X94824609Y-90586774D01*
X94853147Y-90583500D01*
X99241800Y-90583500D01*
X99309921Y-90603502D01*
X99329147Y-90619843D01*
X99329420Y-90619540D01*
X99334332Y-90623963D01*
X99338747Y-90628866D01*
X99356136Y-90641500D01*
X99442979Y-90704595D01*
X99493248Y-90741118D01*
X99499276Y-90743802D01*
X99499278Y-90743803D01*
X99661681Y-90816109D01*
X99667712Y-90818794D01*
X99760990Y-90838621D01*
X99848056Y-90857128D01*
X99848061Y-90857128D01*
X99854513Y-90858500D01*
X100045487Y-90858500D01*
X100051939Y-90857128D01*
X100051944Y-90857128D01*
X100139010Y-90838621D01*
X100232288Y-90818794D01*
X100238319Y-90816109D01*
X100400722Y-90743803D01*
X100400724Y-90743802D01*
X100406752Y-90741118D01*
X100561253Y-90628866D01*
X100569650Y-90619540D01*
X100684621Y-90491852D01*
X100684622Y-90491851D01*
X100689040Y-90486944D01*
X100784527Y-90321556D01*
X100843542Y-90139928D01*
X100860907Y-89974706D01*
X100887920Y-89909050D01*
X100897122Y-89898782D01*
X105017247Y-85778657D01*
X105025537Y-85771113D01*
X105032018Y-85767000D01*
X105078659Y-85717332D01*
X105081413Y-85714491D01*
X105101134Y-85694770D01*
X105103612Y-85691575D01*
X105111318Y-85682553D01*
X105121355Y-85671865D01*
X105141586Y-85650321D01*
X105151346Y-85632568D01*
X105162199Y-85616045D01*
X105169753Y-85606306D01*
X105174613Y-85600041D01*
X105192176Y-85559457D01*
X105197383Y-85548827D01*
X105218695Y-85510060D01*
X105220666Y-85502383D01*
X105220668Y-85502378D01*
X105223732Y-85490442D01*
X105230138Y-85471730D01*
X105230321Y-85471309D01*
X105238181Y-85453145D01*
X105241663Y-85431164D01*
X105245097Y-85409481D01*
X105247504Y-85397860D01*
X105256528Y-85362711D01*
X105256528Y-85362710D01*
X105258500Y-85355030D01*
X105258500Y-85334769D01*
X105260051Y-85315058D01*
X105261875Y-85303545D01*
X105263219Y-85295057D01*
X105259059Y-85251046D01*
X105258500Y-85239189D01*
X105258500Y-73327524D01*
X105278502Y-73259403D01*
X105290858Y-73243221D01*
X105364040Y-73161944D01*
X105459527Y-72996556D01*
X105518542Y-72814928D01*
X105519972Y-72801328D01*
X105537814Y-72631565D01*
X105538504Y-72625000D01*
X105525803Y-72504158D01*
X105519232Y-72441635D01*
X105519232Y-72441633D01*
X105518542Y-72435072D01*
X105459527Y-72253444D01*
X105441117Y-72221556D01*
X105421302Y-72187237D01*
X105364040Y-72088056D01*
X105351344Y-72073955D01*
X105240675Y-71951045D01*
X105240674Y-71951044D01*
X105236253Y-71946134D01*
X105112972Y-71856565D01*
X105087094Y-71837763D01*
X105087093Y-71837762D01*
X105081752Y-71833882D01*
X105075724Y-71831198D01*
X105075722Y-71831197D01*
X104913319Y-71758891D01*
X104913318Y-71758891D01*
X104907288Y-71756206D01*
X104813887Y-71736353D01*
X104726944Y-71717872D01*
X104726939Y-71717872D01*
X104720487Y-71716500D01*
X104529513Y-71716500D01*
X104523061Y-71717872D01*
X104523056Y-71717872D01*
X104436113Y-71736353D01*
X104342712Y-71756206D01*
X104336682Y-71758891D01*
X104336681Y-71758891D01*
X104174278Y-71831197D01*
X104174276Y-71831198D01*
X104168248Y-71833882D01*
X104162907Y-71837762D01*
X104162906Y-71837763D01*
X104137028Y-71856565D01*
X104013747Y-71946134D01*
X104009326Y-71951044D01*
X104009325Y-71951045D01*
X103898657Y-72073955D01*
X103885960Y-72088056D01*
X103828698Y-72187237D01*
X103808884Y-72221556D01*
X103790473Y-72253444D01*
X103731458Y-72435072D01*
X103730768Y-72441633D01*
X103730768Y-72441635D01*
X103724197Y-72504158D01*
X103711496Y-72625000D01*
X103712186Y-72631565D01*
X103730029Y-72801328D01*
X103731458Y-72814928D01*
X103790473Y-72996556D01*
X103885960Y-73161944D01*
X103959137Y-73243215D01*
X103989853Y-73307221D01*
X103991500Y-73327524D01*
X103991500Y-84960405D01*
X103971498Y-85028526D01*
X103954595Y-85049500D01*
X99999500Y-89004595D01*
X99937188Y-89038621D01*
X99910405Y-89041500D01*
X99854513Y-89041500D01*
X99848061Y-89042872D01*
X99848056Y-89042872D01*
X99761113Y-89061353D01*
X99667712Y-89081206D01*
X99661682Y-89083891D01*
X99661681Y-89083891D01*
X99499278Y-89156197D01*
X99499276Y-89156198D01*
X99493248Y-89158882D01*
X99338747Y-89271134D01*
X99334332Y-89276037D01*
X99329420Y-89280460D01*
X99328295Y-89279211D01*
X99274986Y-89312051D01*
X99241800Y-89316500D01*
X79228763Y-89316500D01*
X79217579Y-89315973D01*
X79210091Y-89314299D01*
X79202168Y-89314548D01*
X79142033Y-89316438D01*
X79138075Y-89316500D01*
X79110144Y-89316500D01*
X79106229Y-89316995D01*
X79106225Y-89316995D01*
X79106167Y-89317003D01*
X79106138Y-89317006D01*
X79094296Y-89317939D01*
X79050110Y-89319327D01*
X79032744Y-89324372D01*
X79030658Y-89324978D01*
X79011306Y-89328986D01*
X78999068Y-89330532D01*
X78999066Y-89330533D01*
X78991203Y-89331526D01*
X78950086Y-89347806D01*
X78938885Y-89351641D01*
X78896406Y-89363982D01*
X78889587Y-89368015D01*
X78889582Y-89368017D01*
X78878971Y-89374293D01*
X78861221Y-89382990D01*
X78842383Y-89390448D01*
X78835967Y-89395109D01*
X78835966Y-89395110D01*
X78806625Y-89416428D01*
X78796701Y-89422947D01*
X78765460Y-89441422D01*
X78765455Y-89441426D01*
X78758637Y-89445458D01*
X78744313Y-89459782D01*
X78729281Y-89472621D01*
X78712893Y-89484528D01*
X78692530Y-89509143D01*
X78684712Y-89518593D01*
X78676722Y-89527373D01*
X77399500Y-90804595D01*
X77337188Y-90838621D01*
X77310405Y-90841500D01*
X77254513Y-90841500D01*
X77248061Y-90842872D01*
X77248056Y-90842872D01*
X77167139Y-90860072D01*
X77067712Y-90881206D01*
X77061682Y-90883891D01*
X77061681Y-90883891D01*
X76899278Y-90956197D01*
X76899276Y-90956198D01*
X76893248Y-90958882D01*
X76738747Y-91071134D01*
X76610960Y-91213056D01*
X76594473Y-91241612D01*
X76522539Y-91366206D01*
X76515473Y-91378444D01*
X76456458Y-91560072D01*
X76455768Y-91566633D01*
X76455768Y-91566635D01*
X76453118Y-91591852D01*
X76436496Y-91750000D01*
X72317655Y-91750000D01*
X75272251Y-88795405D01*
X75334563Y-88761379D01*
X75361346Y-88758500D01*
X84245743Y-88758500D01*
X84256532Y-88759411D01*
X84256554Y-88759107D01*
X84262528Y-88759546D01*
X84268446Y-88760552D01*
X84361100Y-88758530D01*
X84363848Y-88758500D01*
X89545743Y-88758500D01*
X89556532Y-88759411D01*
X89556554Y-88759107D01*
X89562528Y-88759546D01*
X89568446Y-88760552D01*
X89661100Y-88758530D01*
X89663848Y-88758500D01*
X89702846Y-88758500D01*
X89705825Y-88758216D01*
X89705843Y-88758215D01*
X89710222Y-88757797D01*
X89719436Y-88757257D01*
X89751088Y-88756566D01*
X89773920Y-88756068D01*
X89773921Y-88756068D01*
X89779917Y-88755937D01*
X89785775Y-88754676D01*
X89785782Y-88754675D01*
X89812674Y-88748885D01*
X89827226Y-88746633D01*
X89840607Y-88745356D01*
X89860566Y-88743452D01*
X89866327Y-88741762D01*
X89918613Y-88726424D01*
X89927561Y-88724152D01*
X89980836Y-88712682D01*
X89980847Y-88712679D01*
X89986702Y-88711418D01*
X89992218Y-88709071D01*
X89992221Y-88709070D01*
X90017532Y-88698300D01*
X90031381Y-88693341D01*
X90063534Y-88683908D01*
X90117326Y-88656203D01*
X90125660Y-88652290D01*
X90181336Y-88628600D01*
X90209130Y-88609888D01*
X90221797Y-88602397D01*
X90246246Y-88589806D01*
X90246253Y-88589802D01*
X90251580Y-88587058D01*
X90277700Y-88566541D01*
X90299143Y-88549697D01*
X90306609Y-88544263D01*
X90353033Y-88513009D01*
X90353048Y-88512998D01*
X90356799Y-88510472D01*
X90360924Y-88506731D01*
X90381529Y-88486126D01*
X90392791Y-88476135D01*
X90413203Y-88460102D01*
X90413208Y-88460098D01*
X90417920Y-88456396D01*
X90421852Y-88451865D01*
X90421857Y-88451860D01*
X90458716Y-88409384D01*
X90464786Y-88402869D01*
X92071196Y-86796460D01*
X92071201Y-86796454D01*
X93322250Y-85545405D01*
X93384562Y-85511379D01*
X93411345Y-85508500D01*
X94013143Y-85508500D01*
X94081264Y-85528502D01*
X94127757Y-85582158D01*
X94137861Y-85652432D01*
X94115138Y-85708416D01*
X94110960Y-85713056D01*
X94107659Y-85718774D01*
X94107658Y-85718775D01*
X94072406Y-85779834D01*
X94015473Y-85878444D01*
X93956458Y-86060072D01*
X93955768Y-86066633D01*
X93955768Y-86066635D01*
X93940628Y-86210688D01*
X93936496Y-86250000D01*
X93956458Y-86439928D01*
X94015473Y-86621556D01*
X94018776Y-86627278D01*
X94018777Y-86627279D01*
X94046184Y-86674749D01*
X94110960Y-86786944D01*
X94115378Y-86791851D01*
X94115379Y-86791852D01*
X94207329Y-86893973D01*
X94238747Y-86928866D01*
X94393248Y-87041118D01*
X94399276Y-87043802D01*
X94399278Y-87043803D01*
X94491200Y-87084729D01*
X94567712Y-87118794D01*
X94655886Y-87137536D01*
X94718359Y-87171264D01*
X94752681Y-87233414D01*
X94754999Y-87273953D01*
X94736496Y-87450000D01*
X94756458Y-87639928D01*
X94815473Y-87821556D01*
X94910960Y-87986944D01*
X95038747Y-88128866D01*
X95193248Y-88241118D01*
X95199276Y-88243802D01*
X95199278Y-88243803D01*
X95361681Y-88316109D01*
X95367712Y-88318794D01*
X95461112Y-88338647D01*
X95548056Y-88357128D01*
X95548061Y-88357128D01*
X95554513Y-88358500D01*
X95745487Y-88358500D01*
X95751939Y-88357128D01*
X95751944Y-88357128D01*
X95838888Y-88338647D01*
X95932288Y-88318794D01*
X95938319Y-88316109D01*
X96100722Y-88243803D01*
X96100724Y-88243802D01*
X96106752Y-88241118D01*
X96261253Y-88128866D01*
X96389040Y-87986944D01*
X96484527Y-87821556D01*
X96543542Y-87639928D01*
X96563504Y-87450000D01*
X96551181Y-87332749D01*
X96544232Y-87266635D01*
X96544232Y-87266633D01*
X96543542Y-87260072D01*
X96484527Y-87078444D01*
X96389040Y-86913056D01*
X96330590Y-86848140D01*
X96265675Y-86776045D01*
X96265674Y-86776044D01*
X96261253Y-86771134D01*
X96128591Y-86674749D01*
X96112094Y-86662763D01*
X96112093Y-86662762D01*
X96106752Y-86658882D01*
X96100724Y-86656198D01*
X96100722Y-86656197D01*
X95938319Y-86583891D01*
X95938318Y-86583891D01*
X95932288Y-86581206D01*
X95844114Y-86562464D01*
X95781641Y-86528736D01*
X95747319Y-86466586D01*
X95745001Y-86426047D01*
X95762814Y-86256565D01*
X95763504Y-86250000D01*
X95759372Y-86210688D01*
X95744232Y-86066635D01*
X95744232Y-86066633D01*
X95743542Y-86060072D01*
X95684527Y-85878444D01*
X95627595Y-85779834D01*
X95592342Y-85718775D01*
X95592341Y-85718774D01*
X95589040Y-85713056D01*
X95584874Y-85708429D01*
X95561062Y-85641693D01*
X95577143Y-85572541D01*
X95628057Y-85523061D01*
X95686857Y-85508500D01*
X97752846Y-85508500D01*
X97910566Y-85493452D01*
X98113534Y-85433908D01*
X98148093Y-85416109D01*
X98296249Y-85339804D01*
X98296252Y-85339802D01*
X98301580Y-85337058D01*
X98467920Y-85206396D01*
X98471852Y-85201865D01*
X98471855Y-85201862D01*
X98602621Y-85051167D01*
X98606552Y-85046637D01*
X98609552Y-85041451D01*
X98609555Y-85041447D01*
X98709467Y-84868742D01*
X98712473Y-84863546D01*
X98781861Y-84663729D01*
X98794987Y-84573201D01*
X98811352Y-84460336D01*
X98811352Y-84460333D01*
X98812213Y-84454396D01*
X98802433Y-84243101D01*
X98752875Y-84037466D01*
X98744377Y-84018774D01*
X98677248Y-83871134D01*
X98665326Y-83844913D01*
X98542946Y-83672389D01*
X98408065Y-83543269D01*
X98394480Y-83530264D01*
X98390150Y-83526119D01*
X98212452Y-83411380D01*
X98151818Y-83386944D01*
X98021832Y-83334558D01*
X98021829Y-83334557D01*
X98016263Y-83332314D01*
X97808663Y-83291772D01*
X97803101Y-83291500D01*
X97435225Y-83291500D01*
X97367104Y-83271498D01*
X97320611Y-83217842D01*
X97310507Y-83147568D01*
X97315392Y-83126564D01*
X97341502Y-83046206D01*
X97341503Y-83046202D01*
X97343542Y-83039928D01*
X97363504Y-82850000D01*
X97345473Y-82678444D01*
X97344232Y-82666635D01*
X97344232Y-82666633D01*
X97343542Y-82660072D01*
X97284527Y-82478444D01*
X97189040Y-82313056D01*
X97171942Y-82294066D01*
X97065675Y-82176045D01*
X97065674Y-82176044D01*
X97061253Y-82171134D01*
X96906752Y-82058882D01*
X96900724Y-82056198D01*
X96900722Y-82056197D01*
X96738319Y-81983891D01*
X96738318Y-81983891D01*
X96732288Y-81981206D01*
X96638887Y-81961353D01*
X96551944Y-81942872D01*
X96551939Y-81942872D01*
X96545487Y-81941500D01*
X96354513Y-81941500D01*
X96348061Y-81942872D01*
X96348056Y-81942872D01*
X96261113Y-81961353D01*
X96167712Y-81981206D01*
X96161682Y-81983891D01*
X96161681Y-81983891D01*
X95999278Y-82056197D01*
X95999276Y-82056198D01*
X95993248Y-82058882D01*
X95987907Y-82062762D01*
X95987906Y-82062763D01*
X95869537Y-82148764D01*
X95838747Y-82171134D01*
X95834325Y-82176045D01*
X95834313Y-82176056D01*
X95770306Y-82206775D01*
X95699852Y-82198013D01*
X95665687Y-82176056D01*
X95665675Y-82176045D01*
X95661253Y-82171134D01*
X95630464Y-82148764D01*
X95512094Y-82062763D01*
X95512093Y-82062762D01*
X95506752Y-82058882D01*
X95500724Y-82056198D01*
X95500722Y-82056197D01*
X95338319Y-81983891D01*
X95338318Y-81983891D01*
X95332288Y-81981206D01*
X95238887Y-81961353D01*
X95151944Y-81942872D01*
X95151939Y-81942872D01*
X95145487Y-81941500D01*
X94954513Y-81941500D01*
X94948061Y-81942872D01*
X94948056Y-81942872D01*
X94861113Y-81961353D01*
X94767712Y-81981206D01*
X94761682Y-81983891D01*
X94761681Y-81983891D01*
X94599278Y-82056197D01*
X94599276Y-82056198D01*
X94593248Y-82058882D01*
X94474342Y-82145273D01*
X94474061Y-82145477D01*
X94407194Y-82169335D01*
X94338042Y-82153255D01*
X94325939Y-82145477D01*
X94325659Y-82145273D01*
X94206752Y-82058882D01*
X94200724Y-82056198D01*
X94200722Y-82056197D01*
X94038319Y-81983891D01*
X94038318Y-81983891D01*
X94032288Y-81981206D01*
X93938887Y-81961353D01*
X93851944Y-81942872D01*
X93851939Y-81942872D01*
X93845487Y-81941500D01*
X93654513Y-81941500D01*
X93648061Y-81942872D01*
X93648056Y-81942872D01*
X93561113Y-81961353D01*
X93467712Y-81981206D01*
X93461682Y-81983891D01*
X93461681Y-81983891D01*
X93299278Y-82056197D01*
X93299276Y-82056198D01*
X93293248Y-82058882D01*
X93138747Y-82171134D01*
X93134326Y-82176044D01*
X93134325Y-82176045D01*
X93028059Y-82294066D01*
X93010960Y-82313056D01*
X92915473Y-82478444D01*
X92856458Y-82660072D01*
X92855768Y-82666633D01*
X92855768Y-82666635D01*
X92854527Y-82678444D01*
X92836496Y-82850000D01*
X92856458Y-83039928D01*
X92885514Y-83129353D01*
X92887542Y-83200318D01*
X92850880Y-83261116D01*
X92780379Y-83293427D01*
X92776077Y-83293932D01*
X92770082Y-83294063D01*
X92764223Y-83295324D01*
X92764218Y-83295325D01*
X92737325Y-83301115D01*
X92722774Y-83303367D01*
X92709405Y-83304643D01*
X92689434Y-83306548D01*
X92683674Y-83308238D01*
X92683673Y-83308238D01*
X92631388Y-83323576D01*
X92622440Y-83325848D01*
X92569168Y-83337317D01*
X92569156Y-83337321D01*
X92563298Y-83338582D01*
X92532479Y-83351696D01*
X92518615Y-83356661D01*
X92486466Y-83366092D01*
X92436450Y-83391852D01*
X92432679Y-83393794D01*
X92424326Y-83397716D01*
X92368663Y-83421401D01*
X92340872Y-83440111D01*
X92328205Y-83447602D01*
X92303752Y-83460195D01*
X92303745Y-83460199D01*
X92298420Y-83462942D01*
X92293705Y-83466646D01*
X92250853Y-83500307D01*
X92243389Y-83505740D01*
X92193201Y-83539528D01*
X92189075Y-83543269D01*
X92168467Y-83563877D01*
X92157205Y-83573868D01*
X92136797Y-83589898D01*
X92136793Y-83589902D01*
X92132080Y-83593604D01*
X92128149Y-83598134D01*
X92128148Y-83598135D01*
X92091291Y-83640609D01*
X92085221Y-83647123D01*
X90428804Y-85303540D01*
X90428800Y-85303545D01*
X89227749Y-86504595D01*
X89165437Y-86538621D01*
X89138654Y-86541500D01*
X86975509Y-86541500D01*
X86907388Y-86521498D01*
X86860895Y-86467842D01*
X86851845Y-86391351D01*
X86857357Y-86363125D01*
X86857358Y-86363120D01*
X86858228Y-86358663D01*
X86858500Y-86353101D01*
X86858500Y-86323960D01*
X86859399Y-86308932D01*
X86862496Y-86283155D01*
X86862496Y-86283149D01*
X86863210Y-86277207D01*
X86861749Y-86256565D01*
X86858815Y-86215137D01*
X86858500Y-86206238D01*
X86858500Y-83050000D01*
X88786496Y-83050000D01*
X88787186Y-83056565D01*
X88805129Y-83227279D01*
X88806458Y-83239928D01*
X88865473Y-83421556D01*
X88868776Y-83427278D01*
X88868777Y-83427279D01*
X88886803Y-83458500D01*
X88960960Y-83586944D01*
X88965378Y-83591851D01*
X88965379Y-83591852D01*
X89079678Y-83718794D01*
X89088747Y-83728866D01*
X89243248Y-83841118D01*
X89249276Y-83843802D01*
X89249278Y-83843803D01*
X89364950Y-83895303D01*
X89417712Y-83918794D01*
X89511113Y-83938647D01*
X89598056Y-83957128D01*
X89598061Y-83957128D01*
X89604513Y-83958500D01*
X89795487Y-83958500D01*
X89801939Y-83957128D01*
X89801944Y-83957128D01*
X89888887Y-83938647D01*
X89982288Y-83918794D01*
X90035050Y-83895303D01*
X90150722Y-83843803D01*
X90150724Y-83843802D01*
X90156752Y-83841118D01*
X90311253Y-83728866D01*
X90320322Y-83718794D01*
X90434621Y-83591852D01*
X90434622Y-83591851D01*
X90439040Y-83586944D01*
X90513197Y-83458500D01*
X90531223Y-83427279D01*
X90531224Y-83427278D01*
X90534527Y-83421556D01*
X90593542Y-83239928D01*
X90594872Y-83227279D01*
X90612814Y-83056565D01*
X90613504Y-83050000D01*
X90593542Y-82860072D01*
X90534527Y-82678444D01*
X90439040Y-82513056D01*
X90412873Y-82483994D01*
X90315675Y-82376045D01*
X90315674Y-82376044D01*
X90311253Y-82371134D01*
X90156752Y-82258882D01*
X90150724Y-82256198D01*
X90150722Y-82256197D01*
X89988319Y-82183891D01*
X89988318Y-82183891D01*
X89982288Y-82181206D01*
X89888887Y-82161353D01*
X89801944Y-82142872D01*
X89801939Y-82142872D01*
X89795487Y-82141500D01*
X89604513Y-82141500D01*
X89598061Y-82142872D01*
X89598056Y-82142872D01*
X89511113Y-82161353D01*
X89417712Y-82181206D01*
X89411682Y-82183891D01*
X89411681Y-82183891D01*
X89249278Y-82256197D01*
X89249276Y-82256198D01*
X89243248Y-82258882D01*
X89088747Y-82371134D01*
X89084326Y-82376044D01*
X89084325Y-82376045D01*
X88987128Y-82483994D01*
X88960960Y-82513056D01*
X88865473Y-82678444D01*
X88806458Y-82860072D01*
X88786496Y-83050000D01*
X86858500Y-83050000D01*
X86858500Y-79597154D01*
X86843452Y-79439434D01*
X86783908Y-79236466D01*
X86687058Y-79048420D01*
X86556396Y-78882080D01*
X86551865Y-78878148D01*
X86551862Y-78878145D01*
X86401167Y-78747379D01*
X86396637Y-78743448D01*
X86391451Y-78740448D01*
X86391447Y-78740445D01*
X86218742Y-78640533D01*
X86213546Y-78637527D01*
X86066955Y-78586622D01*
X86009165Y-78545380D01*
X85982846Y-78479442D01*
X85996354Y-78409742D01*
X86034227Y-78365658D01*
X86155909Y-78277251D01*
X86155911Y-78277249D01*
X86161253Y-78273368D01*
X86184091Y-78248004D01*
X86284621Y-78136354D01*
X86284622Y-78136353D01*
X86289040Y-78131446D01*
X86384527Y-77966058D01*
X86443542Y-77784430D01*
X86463504Y-77594502D01*
X86443542Y-77404574D01*
X86384527Y-77222946D01*
X86289040Y-77057558D01*
X86272881Y-77039611D01*
X86192195Y-76950000D01*
X94036496Y-76950000D01*
X94037186Y-76956565D01*
X94055313Y-77129030D01*
X94056458Y-77139928D01*
X94115473Y-77321556D01*
X94210960Y-77486944D01*
X94215378Y-77491851D01*
X94215379Y-77491852D01*
X94313717Y-77601067D01*
X94338747Y-77628866D01*
X94493248Y-77741118D01*
X94499276Y-77743802D01*
X94499278Y-77743803D01*
X94661681Y-77816109D01*
X94667712Y-77818794D01*
X94761113Y-77838647D01*
X94848056Y-77857128D01*
X94848061Y-77857128D01*
X94854513Y-77858500D01*
X95045487Y-77858500D01*
X95051939Y-77857128D01*
X95051944Y-77857128D01*
X95138887Y-77838647D01*
X95232288Y-77818794D01*
X95238319Y-77816109D01*
X95400722Y-77743803D01*
X95400724Y-77743802D01*
X95406752Y-77741118D01*
X95561253Y-77628866D01*
X95586283Y-77601067D01*
X95684621Y-77491852D01*
X95684622Y-77491851D01*
X95689040Y-77486944D01*
X95784527Y-77321556D01*
X95843542Y-77139928D01*
X95844688Y-77129030D01*
X95862814Y-76956565D01*
X95863504Y-76950000D01*
X95843542Y-76760072D01*
X95784527Y-76578444D01*
X95717875Y-76462999D01*
X95701137Y-76394005D01*
X95717875Y-76337000D01*
X95781223Y-76227279D01*
X95781224Y-76227278D01*
X95784527Y-76221556D01*
X95843542Y-76039928D01*
X95863504Y-75850000D01*
X95843542Y-75660072D01*
X95784527Y-75478444D01*
X95689040Y-75313056D01*
X95683703Y-75307128D01*
X95565675Y-75176045D01*
X95565674Y-75176044D01*
X95561253Y-75171134D01*
X95406752Y-75058882D01*
X95400724Y-75056198D01*
X95400722Y-75056197D01*
X95238319Y-74983891D01*
X95238318Y-74983891D01*
X95232288Y-74981206D01*
X95138888Y-74961353D01*
X95051944Y-74942872D01*
X95051939Y-74942872D01*
X95045487Y-74941500D01*
X94854513Y-74941500D01*
X94848061Y-74942872D01*
X94848056Y-74942872D01*
X94761112Y-74961353D01*
X94667712Y-74981206D01*
X94661682Y-74983891D01*
X94661681Y-74983891D01*
X94499278Y-75056197D01*
X94499276Y-75056198D01*
X94493248Y-75058882D01*
X94338747Y-75171134D01*
X94334326Y-75176044D01*
X94334325Y-75176045D01*
X94216298Y-75307128D01*
X94210960Y-75313056D01*
X94115473Y-75478444D01*
X94056458Y-75660072D01*
X94036496Y-75850000D01*
X94056458Y-76039928D01*
X94115473Y-76221556D01*
X94118776Y-76227278D01*
X94118777Y-76227279D01*
X94182125Y-76337000D01*
X94198863Y-76405995D01*
X94182125Y-76462999D01*
X94115473Y-76578444D01*
X94056458Y-76760072D01*
X94036496Y-76950000D01*
X86192195Y-76950000D01*
X86165675Y-76920547D01*
X86165674Y-76920546D01*
X86161253Y-76915636D01*
X86006752Y-76803384D01*
X86000724Y-76800700D01*
X86000722Y-76800699D01*
X85838319Y-76728393D01*
X85838318Y-76728393D01*
X85832288Y-76725708D01*
X85738887Y-76705855D01*
X85651944Y-76687374D01*
X85651939Y-76687374D01*
X85645487Y-76686002D01*
X85454513Y-76686002D01*
X85448061Y-76687374D01*
X85448056Y-76687374D01*
X85361113Y-76705855D01*
X85267712Y-76725708D01*
X85261682Y-76728393D01*
X85261681Y-76728393D01*
X85099278Y-76800699D01*
X85099276Y-76800700D01*
X85093248Y-76803384D01*
X84938747Y-76915636D01*
X84934332Y-76920539D01*
X84929420Y-76924962D01*
X84928295Y-76923713D01*
X84874986Y-76956553D01*
X84841800Y-76961002D01*
X82184266Y-76961002D01*
X82173083Y-76960475D01*
X82165590Y-76958800D01*
X82157664Y-76959049D01*
X82157663Y-76959049D01*
X82097500Y-76960940D01*
X82093542Y-76961002D01*
X82065642Y-76961002D01*
X82061652Y-76961506D01*
X82049818Y-76962438D01*
X82005609Y-76963828D01*
X81997993Y-76966041D01*
X81997991Y-76966041D01*
X81986150Y-76969481D01*
X81966791Y-76973490D01*
X81965481Y-76973656D01*
X81946701Y-76976028D01*
X81939335Y-76978944D01*
X81939329Y-76978946D01*
X81905596Y-76992302D01*
X81894366Y-76996147D01*
X81859515Y-77006272D01*
X81851905Y-77008483D01*
X81845082Y-77012518D01*
X81834464Y-77018797D01*
X81816711Y-77027494D01*
X81809066Y-77030521D01*
X81797881Y-77034950D01*
X81791466Y-77039611D01*
X81762110Y-77060939D01*
X81752193Y-77067453D01*
X81714136Y-77089960D01*
X81699815Y-77104281D01*
X81684782Y-77117121D01*
X81668391Y-77129030D01*
X81654182Y-77146206D01*
X81640200Y-77163107D01*
X81632210Y-77171886D01*
X78398595Y-80405500D01*
X78336283Y-80439526D01*
X78265467Y-80434461D01*
X78208632Y-80391914D01*
X78183821Y-80325394D01*
X78183500Y-80316405D01*
X78183500Y-75028763D01*
X78184027Y-75017579D01*
X78185701Y-75010091D01*
X78183562Y-74942032D01*
X78183500Y-74938075D01*
X78183500Y-74910144D01*
X78182994Y-74906138D01*
X78182061Y-74894292D01*
X78181334Y-74871134D01*
X78180673Y-74850110D01*
X78175022Y-74830658D01*
X78171014Y-74811306D01*
X78169468Y-74799068D01*
X78169467Y-74799066D01*
X78168474Y-74791203D01*
X78152194Y-74750086D01*
X78148359Y-74738885D01*
X78136018Y-74696406D01*
X78131985Y-74689587D01*
X78131983Y-74689582D01*
X78125707Y-74678971D01*
X78117010Y-74661221D01*
X78109552Y-74642383D01*
X78098364Y-74626984D01*
X78074505Y-74560116D01*
X78090586Y-74490965D01*
X78128580Y-74452621D01*
X78127052Y-74450518D01*
X78281553Y-74338266D01*
X78409340Y-74196344D01*
X78504827Y-74030956D01*
X78563842Y-73849328D01*
X78583804Y-73659400D01*
X78576319Y-73588183D01*
X78564532Y-73476035D01*
X78564532Y-73476033D01*
X78563842Y-73469472D01*
X78504827Y-73287844D01*
X78499617Y-73278819D01*
X78434969Y-73166847D01*
X78409340Y-73122456D01*
X78281553Y-72980534D01*
X78127052Y-72868282D01*
X78121024Y-72865598D01*
X78121022Y-72865597D01*
X77958619Y-72793291D01*
X77958618Y-72793291D01*
X77952588Y-72790606D01*
X77859188Y-72770753D01*
X77772244Y-72752272D01*
X77772239Y-72752272D01*
X77765787Y-72750900D01*
X77574813Y-72750900D01*
X77568361Y-72752272D01*
X77568356Y-72752272D01*
X77481412Y-72770753D01*
X77388012Y-72790606D01*
X77381982Y-72793291D01*
X77381981Y-72793291D01*
X77219578Y-72865597D01*
X77219576Y-72865598D01*
X77213548Y-72868282D01*
X77059047Y-72980534D01*
X76931260Y-73122456D01*
X76905793Y-73166567D01*
X76898834Y-73178620D01*
X76847452Y-73227613D01*
X76777738Y-73241050D01*
X76711827Y-73214663D01*
X76700620Y-73204715D01*
X76452905Y-72957000D01*
X76418879Y-72894688D01*
X76416000Y-72867905D01*
X76416000Y-72552524D01*
X76436002Y-72484403D01*
X76448358Y-72468221D01*
X76521540Y-72386944D01*
X76595697Y-72258500D01*
X76613723Y-72227279D01*
X76613724Y-72227278D01*
X76617027Y-72221556D01*
X76676042Y-72039928D01*
X76687330Y-71932534D01*
X76695314Y-71856565D01*
X76696004Y-71850000D01*
X76691677Y-71808835D01*
X76676732Y-71666635D01*
X76676732Y-71666633D01*
X76676042Y-71660072D01*
X76617027Y-71478444D01*
X76521540Y-71313056D01*
X76393753Y-71171134D01*
X76239252Y-71058882D01*
X76233224Y-71056198D01*
X76233222Y-71056197D01*
X76070819Y-70983891D01*
X76070818Y-70983891D01*
X76064788Y-70981206D01*
X75971388Y-70961353D01*
X75884444Y-70942872D01*
X75884439Y-70942872D01*
X75877987Y-70941500D01*
X75687013Y-70941500D01*
X75680561Y-70942872D01*
X75680556Y-70942872D01*
X75593612Y-70961353D01*
X75500212Y-70981206D01*
X75494182Y-70983891D01*
X75494181Y-70983891D01*
X75331778Y-71056197D01*
X75331776Y-71056198D01*
X75325748Y-71058882D01*
X75171247Y-71171134D01*
X75043460Y-71313056D01*
X74947973Y-71478444D01*
X74888958Y-71660072D01*
X74888268Y-71666633D01*
X74888268Y-71666635D01*
X74873323Y-71808835D01*
X74868996Y-71850000D01*
X74869686Y-71856565D01*
X74877671Y-71932534D01*
X74888958Y-72039928D01*
X74947973Y-72221556D01*
X74951276Y-72227278D01*
X74951277Y-72227279D01*
X74969303Y-72258500D01*
X75043460Y-72386944D01*
X75116637Y-72468215D01*
X75147353Y-72532221D01*
X75149000Y-72552524D01*
X75149000Y-73103733D01*
X75148473Y-73114916D01*
X75146798Y-73122409D01*
X75147047Y-73130335D01*
X75147047Y-73130336D01*
X75148938Y-73190486D01*
X75149000Y-73194445D01*
X75149000Y-73222356D01*
X75149497Y-73226290D01*
X75149497Y-73226291D01*
X75149505Y-73226356D01*
X75150438Y-73238193D01*
X75151827Y-73282389D01*
X75155238Y-73294129D01*
X75157478Y-73301839D01*
X75161487Y-73321200D01*
X75164026Y-73341297D01*
X75166945Y-73348668D01*
X75166945Y-73348670D01*
X75180304Y-73382412D01*
X75184149Y-73393642D01*
X75185600Y-73398637D01*
X75196482Y-73436093D01*
X75200515Y-73442912D01*
X75200517Y-73442917D01*
X75206793Y-73453528D01*
X75215488Y-73471276D01*
X75222948Y-73490117D01*
X75227610Y-73496533D01*
X75227610Y-73496534D01*
X75248936Y-73525887D01*
X75255452Y-73535807D01*
X75277958Y-73573862D01*
X75292279Y-73588183D01*
X75305119Y-73603216D01*
X75317028Y-73619607D01*
X75323134Y-73624658D01*
X75351105Y-73647798D01*
X75359884Y-73655788D01*
X76130501Y-74426405D01*
X76164527Y-74488717D01*
X76159462Y-74559532D01*
X76116915Y-74616368D01*
X76050395Y-74641179D01*
X76041406Y-74641500D01*
X75854513Y-74641500D01*
X75848061Y-74642872D01*
X75848056Y-74642872D01*
X75761776Y-74661212D01*
X75667712Y-74681206D01*
X75661682Y-74683891D01*
X75661681Y-74683891D01*
X75499278Y-74756197D01*
X75499276Y-74756198D01*
X75493248Y-74758882D01*
X75338747Y-74871134D01*
X75334326Y-74876044D01*
X75334325Y-74876045D01*
X75220764Y-75002168D01*
X75210960Y-75013056D01*
X75115473Y-75178444D01*
X75056458Y-75360072D01*
X75036496Y-75550000D01*
X75056458Y-75739928D01*
X75115473Y-75921556D01*
X75210960Y-76086944D01*
X75215378Y-76091851D01*
X75215379Y-76091852D01*
X75326506Y-76215271D01*
X75338747Y-76228866D01*
X75493248Y-76341118D01*
X75499276Y-76343802D01*
X75499278Y-76343803D01*
X75654824Y-76413056D01*
X75667712Y-76418794D01*
X75761113Y-76438647D01*
X75848056Y-76457128D01*
X75848061Y-76457128D01*
X75854513Y-76458500D01*
X76045487Y-76458500D01*
X76051939Y-76457128D01*
X76051944Y-76457128D01*
X76138887Y-76438647D01*
X76232288Y-76418794D01*
X76245176Y-76413056D01*
X76400722Y-76343803D01*
X76400724Y-76343802D01*
X76406752Y-76341118D01*
X76561253Y-76228866D01*
X76689040Y-76086944D01*
X76689963Y-76085346D01*
X76744785Y-76043071D01*
X76815521Y-76036994D01*
X76878313Y-76070126D01*
X76913225Y-76131945D01*
X76916500Y-76160485D01*
X76916500Y-80658352D01*
X76896498Y-80726473D01*
X76841749Y-80773459D01*
X76734078Y-80821397D01*
X76734076Y-80821398D01*
X76728048Y-80824082D01*
X76573547Y-80936334D01*
X76569132Y-80941237D01*
X76564220Y-80945660D01*
X76563095Y-80944411D01*
X76509786Y-80977251D01*
X76476600Y-80981700D01*
X65339067Y-80981700D01*
X65327884Y-80981173D01*
X65320391Y-80979498D01*
X65312465Y-80979747D01*
X65312464Y-80979747D01*
X65252301Y-80981638D01*
X65248343Y-80981700D01*
X65220444Y-80981700D01*
X65216454Y-80982204D01*
X65204620Y-80983136D01*
X65160411Y-80984526D01*
X65152797Y-80986738D01*
X65152792Y-80986739D01*
X65140959Y-80990177D01*
X65121596Y-80994188D01*
X65101503Y-80996726D01*
X65094136Y-80999643D01*
X65094131Y-80999644D01*
X65060392Y-81013002D01*
X65049165Y-81016846D01*
X65006707Y-81029182D01*
X64999881Y-81033219D01*
X64989272Y-81039493D01*
X64971524Y-81048188D01*
X64952683Y-81055648D01*
X64946267Y-81060310D01*
X64946266Y-81060310D01*
X64916913Y-81081636D01*
X64906993Y-81088152D01*
X64875765Y-81106620D01*
X64875762Y-81106622D01*
X64868938Y-81110658D01*
X64854617Y-81124979D01*
X64839584Y-81137819D01*
X64823193Y-81149728D01*
X64818143Y-81155832D01*
X64818138Y-81155837D01*
X64795007Y-81183798D01*
X64787017Y-81192579D01*
X64074999Y-81904596D01*
X64012687Y-81938621D01*
X63985904Y-81941500D01*
X63930013Y-81941500D01*
X63923561Y-81942872D01*
X63923556Y-81942872D01*
X63836613Y-81961353D01*
X63743212Y-81981206D01*
X63737182Y-81983891D01*
X63737181Y-81983891D01*
X63574778Y-82056197D01*
X63574776Y-82056198D01*
X63568748Y-82058882D01*
X63414247Y-82171134D01*
X63409826Y-82176044D01*
X63409825Y-82176045D01*
X63303559Y-82294066D01*
X63286460Y-82313056D01*
X63190973Y-82478444D01*
X63131958Y-82660072D01*
X63131268Y-82666633D01*
X63131268Y-82666635D01*
X63130027Y-82678444D01*
X63111996Y-82850000D01*
X63131958Y-83039928D01*
X63190973Y-83221556D01*
X63286460Y-83386944D01*
X63290878Y-83391851D01*
X63290879Y-83391852D01*
X63342818Y-83449536D01*
X63414247Y-83528866D01*
X63568748Y-83641118D01*
X63574776Y-83643802D01*
X63574778Y-83643803D01*
X63664818Y-83683891D01*
X63743212Y-83718794D01*
X63808865Y-83732749D01*
X63923556Y-83757128D01*
X63923561Y-83757128D01*
X63930013Y-83758500D01*
X64120987Y-83758500D01*
X64127439Y-83757128D01*
X64127444Y-83757128D01*
X64242135Y-83732749D01*
X64307788Y-83718794D01*
X64386182Y-83683891D01*
X64476222Y-83643803D01*
X64476224Y-83643802D01*
X64482252Y-83641118D01*
X64636753Y-83528866D01*
X64708182Y-83449536D01*
X64760121Y-83391852D01*
X64760122Y-83391851D01*
X64764540Y-83386944D01*
X64860027Y-83221556D01*
X64919042Y-83039928D01*
X64936407Y-82874708D01*
X64963420Y-82809051D01*
X64972622Y-82798782D01*
X65485801Y-82285604D01*
X65548113Y-82251579D01*
X65574896Y-82248700D01*
X71568008Y-82248700D01*
X71636129Y-82268702D01*
X71682622Y-82322358D01*
X71692726Y-82392632D01*
X71687841Y-82413636D01*
X71668757Y-82472371D01*
X71668067Y-82478932D01*
X71668067Y-82478934D01*
X71664997Y-82508148D01*
X71648795Y-82662299D01*
X71668757Y-82852227D01*
X71727772Y-83033855D01*
X71731075Y-83039577D01*
X71731076Y-83039578D01*
X71734903Y-83046206D01*
X71823259Y-83199243D01*
X71827677Y-83204150D01*
X71827678Y-83204151D01*
X71945097Y-83334558D01*
X71951046Y-83341165D01*
X72023483Y-83393794D01*
X72092897Y-83444226D01*
X72105547Y-83453417D01*
X72111575Y-83456101D01*
X72111577Y-83456102D01*
X72268839Y-83526119D01*
X72280011Y-83531093D01*
X72373411Y-83550946D01*
X72460355Y-83569427D01*
X72460360Y-83569427D01*
X72466812Y-83570799D01*
X72657786Y-83570799D01*
X72664238Y-83569427D01*
X72664243Y-83569427D01*
X72751187Y-83550946D01*
X72844587Y-83531093D01*
X72855759Y-83526119D01*
X73013021Y-83456102D01*
X73013023Y-83456101D01*
X73019051Y-83453417D01*
X73031702Y-83444226D01*
X73101115Y-83393794D01*
X73173552Y-83341165D01*
X73179501Y-83334558D01*
X73296920Y-83204151D01*
X73296921Y-83204150D01*
X73301339Y-83199243D01*
X73389695Y-83046206D01*
X73393522Y-83039578D01*
X73393523Y-83039577D01*
X73396826Y-83033855D01*
X73455841Y-82852227D01*
X73475803Y-82662299D01*
X73459601Y-82508148D01*
X73456531Y-82478934D01*
X73456531Y-82478932D01*
X73455841Y-82472371D01*
X73436757Y-82413636D01*
X73434730Y-82342668D01*
X73471392Y-82281870D01*
X73535105Y-82250545D01*
X73556590Y-82248700D01*
X76476600Y-82248700D01*
X76544721Y-82268702D01*
X76563947Y-82285043D01*
X76564220Y-82284740D01*
X76569132Y-82289163D01*
X76573547Y-82294066D01*
X76578886Y-82297945D01*
X76679622Y-82371134D01*
X76728048Y-82406318D01*
X76734076Y-82409002D01*
X76734078Y-82409003D01*
X76793819Y-82435601D01*
X76847915Y-82481581D01*
X76868564Y-82549508D01*
X76849212Y-82617816D01*
X76836205Y-82635019D01*
X76819300Y-82653794D01*
X76810960Y-82663056D01*
X76807659Y-82668774D01*
X76726670Y-82809051D01*
X76715473Y-82828444D01*
X76656458Y-83010072D01*
X76655768Y-83016633D01*
X76655768Y-83016635D01*
X76642007Y-83147568D01*
X76636496Y-83200000D01*
X76637186Y-83206565D01*
X76653776Y-83364406D01*
X76656458Y-83389928D01*
X76715473Y-83571556D01*
X76810960Y-83736944D01*
X76815378Y-83741851D01*
X76815379Y-83741852D01*
X76859353Y-83790690D01*
X76890071Y-83854697D01*
X76881306Y-83925151D01*
X76859353Y-83959310D01*
X76810960Y-84013056D01*
X76715473Y-84178444D01*
X76656458Y-84360072D01*
X76655768Y-84366633D01*
X76655768Y-84366635D01*
X76639986Y-84516791D01*
X76636496Y-84550000D01*
X76637186Y-84556565D01*
X76653813Y-84714758D01*
X76656458Y-84739928D01*
X76715473Y-84921556D01*
X76718776Y-84927278D01*
X76718777Y-84927279D01*
X76752014Y-84984846D01*
X76810960Y-85086944D01*
X76815378Y-85091851D01*
X76815379Y-85091852D01*
X76916009Y-85203613D01*
X76938747Y-85228866D01*
X77005302Y-85277221D01*
X77059223Y-85316397D01*
X77093248Y-85341118D01*
X77099276Y-85343802D01*
X77099278Y-85343803D01*
X77249458Y-85410667D01*
X77267712Y-85418794D01*
X77361112Y-85438647D01*
X77448056Y-85457128D01*
X77448061Y-85457128D01*
X77454513Y-85458500D01*
X77645487Y-85458500D01*
X77651939Y-85457128D01*
X77651944Y-85457128D01*
X77738888Y-85438647D01*
X77832288Y-85418794D01*
X77850542Y-85410667D01*
X78000722Y-85343803D01*
X78000724Y-85343802D01*
X78006752Y-85341118D01*
X78040778Y-85316397D01*
X78094698Y-85277221D01*
X78161253Y-85228866D01*
X78183991Y-85203613D01*
X78284621Y-85091852D01*
X78284622Y-85091851D01*
X78289040Y-85086944D01*
X78347986Y-84984846D01*
X78381223Y-84927279D01*
X78381224Y-84927278D01*
X78384527Y-84921556D01*
X78443542Y-84739928D01*
X78446188Y-84714758D01*
X78462814Y-84556565D01*
X78463504Y-84550000D01*
X78460014Y-84516791D01*
X78444232Y-84366635D01*
X78444232Y-84366633D01*
X78443542Y-84360072D01*
X78384527Y-84178444D01*
X78289040Y-84013056D01*
X78240647Y-83959310D01*
X78209929Y-83895303D01*
X78218694Y-83824849D01*
X78240647Y-83790690D01*
X78284621Y-83741852D01*
X78284622Y-83741851D01*
X78289040Y-83736944D01*
X78384527Y-83571556D01*
X78443542Y-83389928D01*
X78446225Y-83364406D01*
X78462814Y-83206565D01*
X78463504Y-83200000D01*
X78457993Y-83147568D01*
X78444232Y-83016635D01*
X78444232Y-83016633D01*
X78443542Y-83010072D01*
X78384527Y-82828444D01*
X78373331Y-82809051D01*
X78292341Y-82668774D01*
X78289040Y-82663056D01*
X78280701Y-82653794D01*
X78187244Y-82550000D01*
X78836496Y-82550000D01*
X78837186Y-82556565D01*
X78848980Y-82668774D01*
X78856458Y-82739928D01*
X78915473Y-82921556D01*
X79010960Y-83086944D01*
X79015378Y-83091851D01*
X79015379Y-83091852D01*
X79118667Y-83206565D01*
X79138747Y-83228866D01*
X79183135Y-83261116D01*
X79279548Y-83331164D01*
X79293248Y-83341118D01*
X79299276Y-83343802D01*
X79299278Y-83343803D01*
X79458366Y-83414633D01*
X79467712Y-83418794D01*
X79561112Y-83438647D01*
X79648056Y-83457128D01*
X79648061Y-83457128D01*
X79654513Y-83458500D01*
X79845487Y-83458500D01*
X79851939Y-83457128D01*
X79851944Y-83457128D01*
X79938888Y-83438647D01*
X80032288Y-83418794D01*
X80041634Y-83414633D01*
X80200722Y-83343803D01*
X80200724Y-83343802D01*
X80206752Y-83341118D01*
X80220453Y-83331164D01*
X80316865Y-83261116D01*
X80361253Y-83228866D01*
X80381333Y-83206565D01*
X80484621Y-83091852D01*
X80484622Y-83091851D01*
X80489040Y-83086944D01*
X80584527Y-82921556D01*
X80643542Y-82739928D01*
X80651021Y-82668774D01*
X80662814Y-82556565D01*
X80663504Y-82550000D01*
X80643542Y-82360072D01*
X80584527Y-82178444D01*
X80565494Y-82145477D01*
X80542367Y-82105421D01*
X80489040Y-82013056D01*
X80422019Y-81938621D01*
X80365675Y-81876045D01*
X80365674Y-81876044D01*
X80361253Y-81871134D01*
X80206752Y-81758882D01*
X80200724Y-81756198D01*
X80200722Y-81756197D01*
X80038319Y-81683891D01*
X80038318Y-81683891D01*
X80032288Y-81681206D01*
X79938888Y-81661353D01*
X79851944Y-81642872D01*
X79851939Y-81642872D01*
X79845487Y-81641500D01*
X79654513Y-81641500D01*
X79648061Y-81642872D01*
X79648056Y-81642872D01*
X79561112Y-81661353D01*
X79467712Y-81681206D01*
X79461682Y-81683891D01*
X79461681Y-81683891D01*
X79299278Y-81756197D01*
X79299276Y-81756198D01*
X79293248Y-81758882D01*
X79138747Y-81871134D01*
X79134326Y-81876044D01*
X79134325Y-81876045D01*
X79077982Y-81938621D01*
X79010960Y-82013056D01*
X78957633Y-82105421D01*
X78934507Y-82145477D01*
X78915473Y-82178444D01*
X78856458Y-82360072D01*
X78836496Y-82550000D01*
X78187244Y-82550000D01*
X78165675Y-82526045D01*
X78165674Y-82526044D01*
X78161253Y-82521134D01*
X78143380Y-82508148D01*
X78096800Y-82474306D01*
X78053446Y-82418084D01*
X78047371Y-82347347D01*
X78080503Y-82284556D01*
X78142323Y-82249644D01*
X78166901Y-82246432D01*
X78175084Y-82246175D01*
X78176770Y-82246122D01*
X78184689Y-82245873D01*
X78204143Y-82240221D01*
X78223500Y-82236213D01*
X78235730Y-82234668D01*
X78235731Y-82234668D01*
X78243597Y-82233674D01*
X78250968Y-82230755D01*
X78250970Y-82230755D01*
X78284712Y-82217396D01*
X78295942Y-82213551D01*
X78330783Y-82203429D01*
X78330784Y-82203429D01*
X78338393Y-82201218D01*
X78345212Y-82197185D01*
X78345217Y-82197183D01*
X78355828Y-82190907D01*
X78373576Y-82182212D01*
X78392417Y-82174752D01*
X78402742Y-82167251D01*
X78428187Y-82148764D01*
X78438107Y-82142248D01*
X78469335Y-82123780D01*
X78469338Y-82123778D01*
X78476162Y-82119742D01*
X78490483Y-82105421D01*
X78505517Y-82092580D01*
X78515494Y-82085331D01*
X78521907Y-82080672D01*
X78550098Y-82046595D01*
X78558088Y-82037816D01*
X82330997Y-78264907D01*
X82393309Y-78230881D01*
X82420092Y-78228002D01*
X84841800Y-78228002D01*
X84909921Y-78248004D01*
X84929147Y-78264345D01*
X84929420Y-78264042D01*
X84934332Y-78268465D01*
X84938747Y-78273368D01*
X85093248Y-78385620D01*
X85099274Y-78388303D01*
X85099281Y-78388307D01*
X85221106Y-78442546D01*
X85275202Y-78488526D01*
X85295852Y-78556453D01*
X85276500Y-78624761D01*
X85222010Y-78672353D01*
X85200373Y-78682191D01*
X85200369Y-78682193D01*
X85194913Y-78684674D01*
X85022389Y-78807054D01*
X84876119Y-78959850D01*
X84761380Y-79137548D01*
X84682314Y-79333737D01*
X84641772Y-79541337D01*
X84641500Y-79546899D01*
X84641500Y-85738654D01*
X84621498Y-85806775D01*
X84604595Y-85827750D01*
X83927748Y-86504596D01*
X83865436Y-86538621D01*
X83838653Y-86541500D01*
X74954257Y-86541500D01*
X74943468Y-86540589D01*
X74943446Y-86540893D01*
X74937472Y-86540454D01*
X74931554Y-86539448D01*
X74838901Y-86541470D01*
X74836152Y-86541500D01*
X74797154Y-86541500D01*
X74794175Y-86541784D01*
X74794157Y-86541785D01*
X74789778Y-86542203D01*
X74780564Y-86542743D01*
X74748912Y-86543434D01*
X74726080Y-86543932D01*
X74726079Y-86543932D01*
X74720083Y-86544063D01*
X74714225Y-86545324D01*
X74714218Y-86545325D01*
X74687326Y-86551115D01*
X74672774Y-86553367D01*
X74659393Y-86554644D01*
X74639434Y-86556548D01*
X74633674Y-86558238D01*
X74633673Y-86558238D01*
X74581387Y-86573576D01*
X74572439Y-86575848D01*
X74519164Y-86587318D01*
X74519153Y-86587321D01*
X74513298Y-86588582D01*
X74507782Y-86590929D01*
X74507779Y-86590930D01*
X74482468Y-86601700D01*
X74468619Y-86606659D01*
X74436466Y-86616092D01*
X74382674Y-86643797D01*
X74374340Y-86647710D01*
X74318664Y-86671400D01*
X74290870Y-86690112D01*
X74278203Y-86697603D01*
X74253754Y-86710194D01*
X74253747Y-86710198D01*
X74248420Y-86712942D01*
X74222300Y-86733459D01*
X74200857Y-86750303D01*
X74193391Y-86755737D01*
X74146967Y-86786991D01*
X74146952Y-86787002D01*
X74143201Y-86789528D01*
X74139076Y-86793269D01*
X74118471Y-86813874D01*
X74107209Y-86823865D01*
X74086797Y-86839898D01*
X74086792Y-86839902D01*
X74082080Y-86843604D01*
X74078148Y-86848135D01*
X74078143Y-86848140D01*
X74041284Y-86890616D01*
X74035214Y-86897131D01*
X70227749Y-90704595D01*
X70165437Y-90738621D01*
X70138654Y-90741500D01*
X65361346Y-90741500D01*
X65293225Y-90721498D01*
X65272251Y-90704595D01*
X63005405Y-88437749D01*
X62971379Y-88375437D01*
X62968500Y-88348654D01*
X62968500Y-86650000D01*
X64636496Y-86650000D01*
X64637186Y-86656565D01*
X64653720Y-86813874D01*
X64656458Y-86839928D01*
X64715473Y-87021556D01*
X64810960Y-87186944D01*
X64938747Y-87328866D01*
X65093248Y-87441118D01*
X65099276Y-87443802D01*
X65099278Y-87443803D01*
X65261681Y-87516109D01*
X65267712Y-87518794D01*
X65361112Y-87538647D01*
X65448056Y-87557128D01*
X65448061Y-87557128D01*
X65454513Y-87558500D01*
X65645487Y-87558500D01*
X65651939Y-87557128D01*
X65651944Y-87557128D01*
X65738888Y-87538647D01*
X65832288Y-87518794D01*
X65838319Y-87516109D01*
X66000722Y-87443803D01*
X66000724Y-87443802D01*
X66006752Y-87441118D01*
X66161253Y-87328866D01*
X66289040Y-87186944D01*
X66384527Y-87021556D01*
X66443542Y-86839928D01*
X66446281Y-86813874D01*
X66462814Y-86656565D01*
X66463504Y-86650000D01*
X66452005Y-86540589D01*
X66444232Y-86466635D01*
X66444232Y-86466633D01*
X66443542Y-86460072D01*
X66384527Y-86278444D01*
X66380362Y-86271229D01*
X66292341Y-86118774D01*
X66289040Y-86113056D01*
X66247243Y-86066635D01*
X66165675Y-85976045D01*
X66165674Y-85976044D01*
X66161253Y-85971134D01*
X66006752Y-85858882D01*
X66000724Y-85856198D01*
X66000722Y-85856197D01*
X65838319Y-85783891D01*
X65838318Y-85783891D01*
X65832288Y-85781206D01*
X65738276Y-85761223D01*
X65651944Y-85742872D01*
X65651939Y-85742872D01*
X65645487Y-85741500D01*
X65454513Y-85741500D01*
X65448061Y-85742872D01*
X65448056Y-85742872D01*
X65361724Y-85761223D01*
X65267712Y-85781206D01*
X65261682Y-85783891D01*
X65261681Y-85783891D01*
X65099278Y-85856197D01*
X65099276Y-85856198D01*
X65093248Y-85858882D01*
X64938747Y-85971134D01*
X64934326Y-85976044D01*
X64934325Y-85976045D01*
X64852758Y-86066635D01*
X64810960Y-86113056D01*
X64807659Y-86118774D01*
X64719639Y-86271229D01*
X64715473Y-86278444D01*
X64656458Y-86460072D01*
X64655768Y-86466633D01*
X64655768Y-86466635D01*
X64647995Y-86540589D01*
X64636496Y-86650000D01*
X62968500Y-86650000D01*
X62968500Y-85384257D01*
X62969411Y-85373468D01*
X62969107Y-85373446D01*
X62969546Y-85367472D01*
X62970552Y-85361554D01*
X62968530Y-85268900D01*
X62968500Y-85266152D01*
X62968500Y-85227154D01*
X62968216Y-85224175D01*
X62968215Y-85224157D01*
X62967797Y-85219778D01*
X62967257Y-85210560D01*
X62966068Y-85156079D01*
X62966068Y-85156078D01*
X62965937Y-85150083D01*
X62958885Y-85117327D01*
X62956635Y-85102801D01*
X62953452Y-85069434D01*
X62936425Y-85011395D01*
X62934151Y-85002444D01*
X62932596Y-84995222D01*
X62921418Y-84943299D01*
X62908298Y-84912463D01*
X62903339Y-84898612D01*
X62895598Y-84872224D01*
X62895595Y-84872217D01*
X62893908Y-84866466D01*
X62866202Y-84812672D01*
X62862286Y-84804330D01*
X62840950Y-84754186D01*
X62840948Y-84754183D01*
X62838600Y-84748664D01*
X62819888Y-84720870D01*
X62812397Y-84708203D01*
X62799806Y-84683754D01*
X62799802Y-84683747D01*
X62797058Y-84678420D01*
X62776541Y-84652300D01*
X62759697Y-84630857D01*
X62754263Y-84623391D01*
X62723008Y-84576967D01*
X62723004Y-84576961D01*
X62720472Y-84573201D01*
X62716732Y-84569076D01*
X62697656Y-84550000D01*
X67175998Y-84550000D01*
X67176688Y-84556565D01*
X67193315Y-84714758D01*
X67195960Y-84739928D01*
X67254975Y-84921556D01*
X67258278Y-84927278D01*
X67258279Y-84927279D01*
X67291516Y-84984846D01*
X67350462Y-85086944D01*
X67354880Y-85091851D01*
X67354881Y-85091852D01*
X67455511Y-85203613D01*
X67478249Y-85228866D01*
X67544804Y-85277221D01*
X67598725Y-85316397D01*
X67632750Y-85341118D01*
X67638778Y-85343802D01*
X67638780Y-85343803D01*
X67788960Y-85410667D01*
X67807214Y-85418794D01*
X67900614Y-85438647D01*
X67987558Y-85457128D01*
X67987563Y-85457128D01*
X67994015Y-85458500D01*
X68184989Y-85458500D01*
X68191441Y-85457128D01*
X68191446Y-85457128D01*
X68278390Y-85438647D01*
X68371790Y-85418794D01*
X68390044Y-85410667D01*
X68540224Y-85343803D01*
X68540226Y-85343802D01*
X68546254Y-85341118D01*
X68580280Y-85316397D01*
X68634200Y-85277221D01*
X68700755Y-85228866D01*
X68723493Y-85203613D01*
X68824123Y-85091852D01*
X68824124Y-85091851D01*
X68828542Y-85086944D01*
X68887488Y-84984846D01*
X68920725Y-84927279D01*
X68920726Y-84927278D01*
X68924029Y-84921556D01*
X68983044Y-84739928D01*
X68985690Y-84714758D01*
X69002316Y-84556565D01*
X69003006Y-84550000D01*
X68999516Y-84516791D01*
X68983734Y-84366635D01*
X68983734Y-84366633D01*
X68983044Y-84360072D01*
X68924029Y-84178444D01*
X68828542Y-84013056D01*
X68700755Y-83871134D01*
X68546254Y-83758882D01*
X68540226Y-83756198D01*
X68540224Y-83756197D01*
X68377821Y-83683891D01*
X68377820Y-83683891D01*
X68371790Y-83681206D01*
X68278390Y-83661353D01*
X68191446Y-83642872D01*
X68191441Y-83642872D01*
X68184989Y-83641500D01*
X67994015Y-83641500D01*
X67987563Y-83642872D01*
X67987558Y-83642872D01*
X67900614Y-83661353D01*
X67807214Y-83681206D01*
X67801184Y-83683891D01*
X67801183Y-83683891D01*
X67638780Y-83756197D01*
X67638778Y-83756198D01*
X67632750Y-83758882D01*
X67478249Y-83871134D01*
X67350462Y-84013056D01*
X67254975Y-84178444D01*
X67195960Y-84360072D01*
X67195270Y-84366633D01*
X67195270Y-84366635D01*
X67179488Y-84516791D01*
X67175998Y-84550000D01*
X62697656Y-84550000D01*
X62696123Y-84548467D01*
X62686132Y-84537205D01*
X62670097Y-84516791D01*
X62670094Y-84516788D01*
X62666396Y-84512080D01*
X62661873Y-84508155D01*
X62658254Y-84504355D01*
X62625762Y-84441230D01*
X62623500Y-84417464D01*
X62623500Y-74400000D01*
X69686496Y-74400000D01*
X69687186Y-74406565D01*
X69703325Y-74560116D01*
X69706458Y-74589928D01*
X69765473Y-74771556D01*
X69860960Y-74936944D01*
X69865378Y-74941851D01*
X69865379Y-74941852D01*
X69903231Y-74983891D01*
X69988747Y-75078866D01*
X70143248Y-75191118D01*
X70149276Y-75193802D01*
X70149278Y-75193803D01*
X70191057Y-75212404D01*
X70317712Y-75268794D01*
X70411112Y-75288647D01*
X70498056Y-75307128D01*
X70498061Y-75307128D01*
X70504513Y-75308500D01*
X70571941Y-75308500D01*
X70640062Y-75328502D01*
X70686555Y-75382158D01*
X70697251Y-75447670D01*
X70686496Y-75550000D01*
X70706458Y-75739928D01*
X70765473Y-75921556D01*
X70860960Y-76086944D01*
X70865378Y-76091851D01*
X70865379Y-76091852D01*
X70976506Y-76215271D01*
X70988747Y-76228866D01*
X71143248Y-76341118D01*
X71149276Y-76343802D01*
X71149278Y-76343803D01*
X71304824Y-76413056D01*
X71317712Y-76418794D01*
X71411113Y-76438647D01*
X71498056Y-76457128D01*
X71498061Y-76457128D01*
X71504513Y-76458500D01*
X71695487Y-76458500D01*
X71701939Y-76457128D01*
X71701944Y-76457128D01*
X71788887Y-76438647D01*
X71882288Y-76418794D01*
X71895176Y-76413056D01*
X72050722Y-76343803D01*
X72050724Y-76343802D01*
X72056752Y-76341118D01*
X72211253Y-76228866D01*
X72223494Y-76215271D01*
X72334621Y-76091852D01*
X72334622Y-76091851D01*
X72339040Y-76086944D01*
X72434527Y-75921556D01*
X72493542Y-75739928D01*
X72513504Y-75550000D01*
X72493542Y-75360072D01*
X72434527Y-75178444D01*
X72339040Y-75013056D01*
X72329237Y-75002168D01*
X72215675Y-74876045D01*
X72215674Y-74876044D01*
X72211253Y-74871134D01*
X72056752Y-74758882D01*
X72050724Y-74756198D01*
X72050722Y-74756197D01*
X71888319Y-74683891D01*
X71888318Y-74683891D01*
X71882288Y-74681206D01*
X71788224Y-74661212D01*
X71701944Y-74642872D01*
X71701939Y-74642872D01*
X71695487Y-74641500D01*
X71628059Y-74641500D01*
X71559938Y-74621498D01*
X71513445Y-74567842D01*
X71502749Y-74502330D01*
X71512814Y-74406565D01*
X71513504Y-74400000D01*
X71493542Y-74210072D01*
X71434527Y-74028444D01*
X71339040Y-73863056D01*
X71211253Y-73721134D01*
X71056752Y-73608882D01*
X71050724Y-73606198D01*
X71050722Y-73606197D01*
X70888319Y-73533891D01*
X70888318Y-73533891D01*
X70882288Y-73531206D01*
X70788887Y-73511353D01*
X70701944Y-73492872D01*
X70701939Y-73492872D01*
X70695487Y-73491500D01*
X70504513Y-73491500D01*
X70498061Y-73492872D01*
X70498056Y-73492872D01*
X70411113Y-73511353D01*
X70317712Y-73531206D01*
X70311682Y-73533891D01*
X70311681Y-73533891D01*
X70149278Y-73606197D01*
X70149276Y-73606198D01*
X70143248Y-73608882D01*
X69988747Y-73721134D01*
X69860960Y-73863056D01*
X69765473Y-74028444D01*
X69706458Y-74210072D01*
X69686496Y-74400000D01*
X62623500Y-74400000D01*
X62623500Y-68306504D01*
X62643502Y-68238383D01*
X62697158Y-68191890D01*
X62767432Y-68181786D01*
X62832012Y-68211280D01*
X62856009Y-68241807D01*
X62856955Y-68241200D01*
X62860196Y-68246248D01*
X62862942Y-68251580D01*
X62867985Y-68258000D01*
X62900303Y-68299143D01*
X62905737Y-68306609D01*
X62936991Y-68353033D01*
X62937002Y-68353048D01*
X62939528Y-68356799D01*
X62943269Y-68360924D01*
X62963874Y-68381529D01*
X62973865Y-68392791D01*
X62989898Y-68413203D01*
X62989902Y-68413208D01*
X62993604Y-68417920D01*
X62998135Y-68421852D01*
X62998140Y-68421857D01*
X63040616Y-68458716D01*
X63047131Y-68464786D01*
X64292448Y-69710103D01*
X64299437Y-69718381D01*
X64299667Y-69718182D01*
X64303586Y-69722723D01*
X64307054Y-69727611D01*
X64311382Y-69731754D01*
X64374040Y-69791736D01*
X64376004Y-69793659D01*
X64403540Y-69821195D01*
X64405847Y-69823100D01*
X64409254Y-69825914D01*
X64416148Y-69832047D01*
X64455515Y-69869732D01*
X64455520Y-69869736D01*
X64459850Y-69873881D01*
X64475353Y-69883891D01*
X64487992Y-69892052D01*
X64499873Y-69900748D01*
X64525705Y-69922080D01*
X64553120Y-69937058D01*
X64578797Y-69951087D01*
X64586717Y-69955798D01*
X64637548Y-69988620D01*
X64643116Y-69990864D01*
X64643118Y-69990865D01*
X64668619Y-70001142D01*
X64681932Y-70007435D01*
X64711329Y-70023496D01*
X64717041Y-70025324D01*
X64717047Y-70025327D01*
X64768951Y-70041941D01*
X64777625Y-70045072D01*
X64833737Y-70067686D01*
X64851394Y-70071134D01*
X64866608Y-70074105D01*
X64880875Y-70077768D01*
X64907064Y-70086152D01*
X64907075Y-70086154D01*
X64912781Y-70087981D01*
X64918733Y-70088696D01*
X64972841Y-70095196D01*
X64981962Y-70096633D01*
X65018015Y-70103673D01*
X65041337Y-70108228D01*
X65046899Y-70108500D01*
X65076049Y-70108500D01*
X65091077Y-70109399D01*
X65116846Y-70112495D01*
X65116850Y-70112495D01*
X65122793Y-70113209D01*
X65128769Y-70112786D01*
X65128772Y-70112786D01*
X65184853Y-70108815D01*
X65193752Y-70108500D01*
X78145743Y-70108500D01*
X78156532Y-70109411D01*
X78156554Y-70109107D01*
X78162528Y-70109546D01*
X78168446Y-70110552D01*
X78261100Y-70108530D01*
X78263848Y-70108500D01*
X78302846Y-70108500D01*
X78305825Y-70108216D01*
X78305843Y-70108215D01*
X78310222Y-70107797D01*
X78319436Y-70107257D01*
X78351088Y-70106566D01*
X78373920Y-70106068D01*
X78373921Y-70106068D01*
X78379917Y-70105937D01*
X78385775Y-70104676D01*
X78385782Y-70104675D01*
X78412674Y-70098885D01*
X78427226Y-70096633D01*
X78442286Y-70095196D01*
X78460566Y-70093452D01*
X78466327Y-70091762D01*
X78518613Y-70076424D01*
X78527561Y-70074152D01*
X78580836Y-70062682D01*
X78580847Y-70062679D01*
X78586702Y-70061418D01*
X78592218Y-70059071D01*
X78592221Y-70059070D01*
X78617532Y-70048300D01*
X78631381Y-70043341D01*
X78663534Y-70033908D01*
X78717326Y-70006203D01*
X78725660Y-70002290D01*
X78781336Y-69978600D01*
X78809130Y-69959888D01*
X78821797Y-69952397D01*
X78846246Y-69939806D01*
X78846253Y-69939802D01*
X78851580Y-69937058D01*
X78877700Y-69916541D01*
X78899143Y-69899697D01*
X78906609Y-69894263D01*
X78953033Y-69863009D01*
X78953048Y-69862998D01*
X78956799Y-69860472D01*
X78960924Y-69856731D01*
X78981529Y-69836126D01*
X78992791Y-69826135D01*
X79013203Y-69810102D01*
X79013208Y-69810098D01*
X79017920Y-69806396D01*
X79021852Y-69801865D01*
X79021857Y-69801860D01*
X79058716Y-69759384D01*
X79064786Y-69752869D01*
X79202712Y-69614943D01*
X79265024Y-69580917D01*
X79335839Y-69585982D01*
X79392675Y-69628529D01*
X79417486Y-69695049D01*
X79400926Y-69767038D01*
X79365473Y-69828444D01*
X79306458Y-70010072D01*
X79305768Y-70016633D01*
X79305768Y-70016635D01*
X79296120Y-70108434D01*
X79286496Y-70200000D01*
X79287186Y-70206565D01*
X79297251Y-70302330D01*
X79284479Y-70372168D01*
X79235977Y-70424015D01*
X79171941Y-70441500D01*
X79154513Y-70441500D01*
X79148061Y-70442872D01*
X79148056Y-70442872D01*
X79061113Y-70461353D01*
X78967712Y-70481206D01*
X78961682Y-70483891D01*
X78961681Y-70483891D01*
X78799278Y-70556197D01*
X78799276Y-70556198D01*
X78793248Y-70558882D01*
X78638747Y-70671134D01*
X78634326Y-70676044D01*
X78634325Y-70676045D01*
X78522716Y-70800000D01*
X78510960Y-70813056D01*
X78475800Y-70873955D01*
X78436011Y-70942872D01*
X78415473Y-70978444D01*
X78356458Y-71160072D01*
X78355768Y-71166633D01*
X78355768Y-71166635D01*
X78340895Y-71308148D01*
X78336496Y-71350000D01*
X78356458Y-71539928D01*
X78415473Y-71721556D01*
X78418776Y-71727278D01*
X78418777Y-71727279D01*
X78440712Y-71765271D01*
X78510960Y-71886944D01*
X78515378Y-71891851D01*
X78515379Y-71891852D01*
X78563998Y-71945849D01*
X78638747Y-72028866D01*
X78793248Y-72141118D01*
X78799276Y-72143802D01*
X78799278Y-72143803D01*
X78931773Y-72202793D01*
X78967712Y-72218794D01*
X79110420Y-72249128D01*
X79172892Y-72282855D01*
X79207214Y-72345005D01*
X79209532Y-72385544D01*
X79198795Y-72487701D01*
X79199485Y-72494266D01*
X79213916Y-72631565D01*
X79218757Y-72677629D01*
X79277772Y-72859257D01*
X79281075Y-72864979D01*
X79281076Y-72864980D01*
X79285223Y-72872163D01*
X79373259Y-73024645D01*
X79501046Y-73166567D01*
X79655547Y-73278819D01*
X79661575Y-73281503D01*
X79661577Y-73281504D01*
X79823980Y-73353810D01*
X79830011Y-73356495D01*
X79923411Y-73376348D01*
X80010355Y-73394829D01*
X80010360Y-73394829D01*
X80016812Y-73396201D01*
X80207786Y-73396201D01*
X80214238Y-73394829D01*
X80214243Y-73394829D01*
X80301187Y-73376348D01*
X80394587Y-73356495D01*
X80400618Y-73353810D01*
X80563021Y-73281504D01*
X80563023Y-73281503D01*
X80569051Y-73278819D01*
X80723552Y-73166567D01*
X80851339Y-73024645D01*
X80939375Y-72872163D01*
X80943522Y-72864980D01*
X80943523Y-72864979D01*
X80946826Y-72859257D01*
X81005841Y-72677629D01*
X81010683Y-72631565D01*
X81012802Y-72611400D01*
X93875896Y-72611400D01*
X93895858Y-72801328D01*
X93954873Y-72982956D01*
X94050360Y-73148344D01*
X94054778Y-73153251D01*
X94054779Y-73153252D01*
X94173725Y-73285355D01*
X94178147Y-73290266D01*
X94269303Y-73356495D01*
X94304975Y-73382412D01*
X94332648Y-73402518D01*
X94338676Y-73405202D01*
X94338678Y-73405203D01*
X94501081Y-73477509D01*
X94507112Y-73480194D01*
X94600513Y-73500047D01*
X94687456Y-73518528D01*
X94687461Y-73518528D01*
X94693913Y-73519900D01*
X94884887Y-73519900D01*
X94891339Y-73518528D01*
X94891344Y-73518528D01*
X94978287Y-73500047D01*
X95071688Y-73480194D01*
X95077719Y-73477509D01*
X95240122Y-73405203D01*
X95240124Y-73405202D01*
X95246152Y-73402518D01*
X95273826Y-73382412D01*
X95309497Y-73356495D01*
X95400653Y-73290266D01*
X95405075Y-73285355D01*
X95524021Y-73153252D01*
X95524022Y-73153251D01*
X95528440Y-73148344D01*
X95623927Y-72982956D01*
X95682942Y-72801328D01*
X95702904Y-72611400D01*
X95689903Y-72487701D01*
X95683633Y-72428042D01*
X95683632Y-72428035D01*
X95682942Y-72421472D01*
X95673317Y-72391847D01*
X95661941Y-72356837D01*
X95659913Y-72285870D01*
X95696576Y-72225072D01*
X95730522Y-72202796D01*
X95756752Y-72191118D01*
X95911253Y-72078866D01*
X96021454Y-71956475D01*
X96034621Y-71941852D01*
X96034622Y-71941851D01*
X96039040Y-71936944D01*
X96115246Y-71804952D01*
X96131223Y-71777279D01*
X96131224Y-71777278D01*
X96134527Y-71771556D01*
X96193542Y-71589928D01*
X96194670Y-71579201D01*
X96212814Y-71406565D01*
X96213504Y-71400000D01*
X96202137Y-71291852D01*
X96194232Y-71216635D01*
X96194232Y-71216633D01*
X96193542Y-71210072D01*
X96134527Y-71028444D01*
X96105660Y-70978444D01*
X96039040Y-70863056D01*
X96041777Y-70861476D01*
X96022351Y-70807653D01*
X96035535Y-70750000D01*
X97336496Y-70750000D01*
X97337186Y-70756565D01*
X97348379Y-70863056D01*
X97356458Y-70939928D01*
X97415473Y-71121556D01*
X97510960Y-71286944D01*
X97638747Y-71428866D01*
X97793248Y-71541118D01*
X97799276Y-71543802D01*
X97799278Y-71543803D01*
X97916978Y-71596206D01*
X97967712Y-71618794D01*
X98061113Y-71638647D01*
X98148056Y-71657128D01*
X98148061Y-71657128D01*
X98154513Y-71658500D01*
X98345487Y-71658500D01*
X98351939Y-71657128D01*
X98351944Y-71657128D01*
X98438887Y-71638647D01*
X98532288Y-71618794D01*
X98583022Y-71596206D01*
X98700722Y-71543803D01*
X98700724Y-71543802D01*
X98706752Y-71541118D01*
X98861253Y-71428866D01*
X98989040Y-71286944D01*
X99084527Y-71121556D01*
X99143542Y-70939928D01*
X99151622Y-70863056D01*
X99162814Y-70756565D01*
X99163504Y-70750000D01*
X99143542Y-70560072D01*
X99084527Y-70378444D01*
X98989040Y-70213056D01*
X98983196Y-70206565D01*
X98865675Y-70076045D01*
X98865674Y-70076044D01*
X98861253Y-70071134D01*
X98737123Y-69980948D01*
X98712094Y-69962763D01*
X98712093Y-69962762D01*
X98706752Y-69958882D01*
X98700724Y-69956198D01*
X98700722Y-69956197D01*
X98538319Y-69883891D01*
X98538318Y-69883891D01*
X98532288Y-69881206D01*
X98434743Y-69860472D01*
X98351944Y-69842872D01*
X98351939Y-69842872D01*
X98345487Y-69841500D01*
X98154513Y-69841500D01*
X98148061Y-69842872D01*
X98148056Y-69842872D01*
X98065257Y-69860472D01*
X97967712Y-69881206D01*
X97961682Y-69883891D01*
X97961681Y-69883891D01*
X97799278Y-69956197D01*
X97799276Y-69956198D01*
X97793248Y-69958882D01*
X97787907Y-69962762D01*
X97787906Y-69962763D01*
X97762877Y-69980948D01*
X97638747Y-70071134D01*
X97634326Y-70076044D01*
X97634325Y-70076045D01*
X97516805Y-70206565D01*
X97510960Y-70213056D01*
X97415473Y-70378444D01*
X97356458Y-70560072D01*
X97336496Y-70750000D01*
X96035535Y-70750000D01*
X96038178Y-70738443D01*
X96039114Y-70736987D01*
X96039040Y-70736944D01*
X96131223Y-70577279D01*
X96131224Y-70577278D01*
X96134527Y-70571556D01*
X96193542Y-70389928D01*
X96213504Y-70200000D01*
X96203880Y-70108434D01*
X96194232Y-70016635D01*
X96194232Y-70016633D01*
X96193542Y-70010072D01*
X96134527Y-69828444D01*
X96039040Y-69663056D01*
X95911253Y-69521134D01*
X95756752Y-69408882D01*
X95750724Y-69406198D01*
X95750722Y-69406197D01*
X95588319Y-69333891D01*
X95588318Y-69333891D01*
X95582288Y-69331206D01*
X95488887Y-69311353D01*
X95401944Y-69292872D01*
X95401939Y-69292872D01*
X95395487Y-69291500D01*
X95204513Y-69291500D01*
X95198061Y-69292872D01*
X95198056Y-69292872D01*
X95111113Y-69311353D01*
X95017712Y-69331206D01*
X95011682Y-69333891D01*
X95011681Y-69333891D01*
X94849278Y-69406197D01*
X94849276Y-69406198D01*
X94843248Y-69408882D01*
X94688747Y-69521134D01*
X94560960Y-69663056D01*
X94465473Y-69828444D01*
X94406458Y-70010072D01*
X94405768Y-70016633D01*
X94405768Y-70016635D01*
X94396120Y-70108434D01*
X94386496Y-70200000D01*
X94406458Y-70389928D01*
X94465473Y-70571556D01*
X94468776Y-70577278D01*
X94468777Y-70577279D01*
X94560960Y-70736944D01*
X94558223Y-70738524D01*
X94577649Y-70792347D01*
X94561822Y-70861557D01*
X94560886Y-70863013D01*
X94560960Y-70863056D01*
X94494341Y-70978444D01*
X94465473Y-71028444D01*
X94406458Y-71210072D01*
X94405768Y-71216633D01*
X94405768Y-71216635D01*
X94397863Y-71291852D01*
X94386496Y-71400000D01*
X94387186Y-71406565D01*
X94405331Y-71579201D01*
X94406458Y-71589928D01*
X94408498Y-71596206D01*
X94408500Y-71596214D01*
X94427459Y-71654563D01*
X94429487Y-71725530D01*
X94392824Y-71786328D01*
X94358878Y-71808604D01*
X94332648Y-71820282D01*
X94327307Y-71824162D01*
X94327306Y-71824163D01*
X94300781Y-71843435D01*
X94178147Y-71932534D01*
X94173726Y-71937444D01*
X94173725Y-71937445D01*
X94165902Y-71946134D01*
X94050360Y-72074456D01*
X93992086Y-72175390D01*
X93963402Y-72225072D01*
X93954873Y-72239844D01*
X93895858Y-72421472D01*
X93895168Y-72428033D01*
X93895168Y-72428035D01*
X93893739Y-72441635D01*
X93875896Y-72611400D01*
X81012802Y-72611400D01*
X81025113Y-72494266D01*
X81025803Y-72487701D01*
X81018182Y-72415194D01*
X81006531Y-72304336D01*
X81006531Y-72304334D01*
X81005841Y-72297773D01*
X80946826Y-72116145D01*
X80851339Y-71950757D01*
X80746105Y-71833882D01*
X80727974Y-71813746D01*
X80727973Y-71813745D01*
X80723552Y-71808835D01*
X80569051Y-71696583D01*
X80563023Y-71693899D01*
X80563021Y-71693898D01*
X80400618Y-71621592D01*
X80400617Y-71621592D01*
X80394587Y-71618907D01*
X80251879Y-71588573D01*
X80189407Y-71554846D01*
X80155085Y-71492696D01*
X80152767Y-71452157D01*
X80162814Y-71356565D01*
X80163504Y-71350000D01*
X80159105Y-71308148D01*
X80152749Y-71247670D01*
X80165521Y-71177832D01*
X80214023Y-71125985D01*
X80278059Y-71108500D01*
X80295487Y-71108500D01*
X80301939Y-71107128D01*
X80301944Y-71107128D01*
X80388887Y-71088647D01*
X80482288Y-71068794D01*
X80504551Y-71058882D01*
X80650722Y-70993803D01*
X80650724Y-70993802D01*
X80656752Y-70991118D01*
X80811253Y-70878866D01*
X80874928Y-70808148D01*
X80934621Y-70741852D01*
X80934622Y-70741851D01*
X80939040Y-70736944D01*
X81034527Y-70571556D01*
X81093542Y-70389928D01*
X81113504Y-70200000D01*
X81103880Y-70108434D01*
X81094232Y-70016635D01*
X81094232Y-70016633D01*
X81093542Y-70010072D01*
X81034527Y-69828444D01*
X80939040Y-69663056D01*
X80811253Y-69521134D01*
X80656752Y-69408882D01*
X80650724Y-69406198D01*
X80650722Y-69406197D01*
X80488319Y-69333891D01*
X80488318Y-69333891D01*
X80482288Y-69331206D01*
X80388887Y-69311353D01*
X80301944Y-69292872D01*
X80301939Y-69292872D01*
X80295487Y-69291500D01*
X80104513Y-69291500D01*
X80098061Y-69292872D01*
X80098056Y-69292872D01*
X80011113Y-69311353D01*
X79917712Y-69331206D01*
X79761400Y-69400800D01*
X79691035Y-69410234D01*
X79626738Y-69380128D01*
X79588924Y-69320039D01*
X79589600Y-69249046D01*
X79621058Y-69196598D01*
X81267656Y-67550000D01*
X92036496Y-67550000D01*
X92037186Y-67556565D01*
X92052561Y-67702846D01*
X92056458Y-67739928D01*
X92115473Y-67921556D01*
X92210960Y-68086944D01*
X92215378Y-68091851D01*
X92215379Y-68091852D01*
X92326480Y-68215242D01*
X92338747Y-68228866D01*
X92493248Y-68341118D01*
X92499276Y-68343802D01*
X92499278Y-68343803D01*
X92609308Y-68392791D01*
X92667712Y-68418794D01*
X92761113Y-68438647D01*
X92848056Y-68457128D01*
X92848061Y-68457128D01*
X92854513Y-68458500D01*
X93045487Y-68458500D01*
X93051939Y-68457128D01*
X93051944Y-68457128D01*
X93138887Y-68438647D01*
X93232288Y-68418794D01*
X93290692Y-68392791D01*
X93400722Y-68343803D01*
X93400724Y-68343802D01*
X93406752Y-68341118D01*
X93561253Y-68228866D01*
X93573520Y-68215242D01*
X93684621Y-68091852D01*
X93684622Y-68091851D01*
X93689040Y-68086944D01*
X93784527Y-67921556D01*
X93843542Y-67739928D01*
X93847440Y-67702846D01*
X93862814Y-67556565D01*
X93863504Y-67550000D01*
X93843542Y-67360072D01*
X93784527Y-67178444D01*
X93689040Y-67013056D01*
X93632182Y-66949908D01*
X93565675Y-66876045D01*
X93565674Y-66876044D01*
X93561253Y-66871134D01*
X93406752Y-66758882D01*
X93400724Y-66756198D01*
X93400722Y-66756197D01*
X93238319Y-66683891D01*
X93238318Y-66683891D01*
X93232288Y-66681206D01*
X93120107Y-66657361D01*
X93051944Y-66642872D01*
X93051939Y-66642872D01*
X93045487Y-66641500D01*
X92854513Y-66641500D01*
X92848061Y-66642872D01*
X92848056Y-66642872D01*
X92779893Y-66657361D01*
X92667712Y-66681206D01*
X92661682Y-66683891D01*
X92661681Y-66683891D01*
X92499278Y-66756197D01*
X92499276Y-66756198D01*
X92493248Y-66758882D01*
X92338747Y-66871134D01*
X92334326Y-66876044D01*
X92334325Y-66876045D01*
X92267819Y-66949908D01*
X92210960Y-67013056D01*
X92115473Y-67178444D01*
X92056458Y-67360072D01*
X92036496Y-67550000D01*
X81267656Y-67550000D01*
X84310105Y-64507551D01*
X84318379Y-64500565D01*
X84318180Y-64500335D01*
X84322725Y-64496412D01*
X84327611Y-64492946D01*
X84391713Y-64425984D01*
X84393636Y-64424020D01*
X84421196Y-64396460D01*
X84425922Y-64390737D01*
X84432061Y-64383835D01*
X84469731Y-64344485D01*
X84473881Y-64340150D01*
X84486767Y-64320194D01*
X84492053Y-64312007D01*
X84500751Y-64300123D01*
X84518262Y-64278919D01*
X84518268Y-64278910D01*
X84522080Y-64274294D01*
X84551097Y-64221183D01*
X84555786Y-64213302D01*
X84588620Y-64162452D01*
X84601144Y-64131375D01*
X84607433Y-64118069D01*
X84623496Y-64088670D01*
X84641942Y-64031046D01*
X84645072Y-64022375D01*
X84667686Y-63966263D01*
X84674107Y-63933385D01*
X84677769Y-63919124D01*
X84686155Y-63892925D01*
X84687982Y-63887218D01*
X84695197Y-63827154D01*
X84696634Y-63818030D01*
X84707358Y-63763118D01*
X84707358Y-63763117D01*
X84708228Y-63758663D01*
X84708500Y-63753101D01*
X84708500Y-63723959D01*
X84709399Y-63708931D01*
X84712496Y-63683153D01*
X84712496Y-63683149D01*
X84713210Y-63677206D01*
X84708815Y-63615132D01*
X84708500Y-63606233D01*
X84708500Y-63297154D01*
X84693452Y-63139434D01*
X84691764Y-63133680D01*
X84691762Y-63133670D01*
X84687742Y-63119967D01*
X84687760Y-63048971D01*
X84726159Y-62989254D01*
X84790747Y-62959778D01*
X84808647Y-62958500D01*
X86675050Y-62958500D01*
X86743171Y-62978502D01*
X86764145Y-62995405D01*
X87051821Y-63283081D01*
X87085847Y-63345393D01*
X87088036Y-63385345D01*
X87086496Y-63400000D01*
X87087186Y-63406565D01*
X87105479Y-63580609D01*
X87106458Y-63589928D01*
X87165473Y-63771556D01*
X87260960Y-63936944D01*
X87265378Y-63941851D01*
X87265379Y-63941852D01*
X87370409Y-64058500D01*
X87388747Y-64078866D01*
X87543248Y-64191118D01*
X87549276Y-64193802D01*
X87549278Y-64193803D01*
X87710841Y-64265735D01*
X87717712Y-64268794D01*
X87796985Y-64285644D01*
X87898056Y-64307128D01*
X87898061Y-64307128D01*
X87904513Y-64308500D01*
X88095487Y-64308500D01*
X88101939Y-64307128D01*
X88101944Y-64307128D01*
X88203015Y-64285644D01*
X88282288Y-64268794D01*
X88289159Y-64265735D01*
X88450722Y-64193803D01*
X88450724Y-64193802D01*
X88456752Y-64191118D01*
X88611253Y-64078866D01*
X88629591Y-64058500D01*
X88734621Y-63941852D01*
X88734622Y-63941851D01*
X88739040Y-63936944D01*
X88834527Y-63771556D01*
X88893542Y-63589928D01*
X88894522Y-63580609D01*
X88912814Y-63406565D01*
X88913504Y-63400000D01*
X88907765Y-63345393D01*
X88894232Y-63216635D01*
X88894232Y-63216633D01*
X88893542Y-63210072D01*
X88834527Y-63028444D01*
X88830847Y-63022069D01*
X88762476Y-62903649D01*
X88739040Y-62863056D01*
X88721805Y-62843914D01*
X88615675Y-62726045D01*
X88615674Y-62726044D01*
X88611253Y-62721134D01*
X88512157Y-62649136D01*
X88462094Y-62612763D01*
X88462093Y-62612762D01*
X88456752Y-62608882D01*
X88450724Y-62606198D01*
X88450722Y-62606197D01*
X88435920Y-62599607D01*
X88381824Y-62553627D01*
X88361175Y-62485700D01*
X88380527Y-62417391D01*
X88433738Y-62370390D01*
X88487169Y-62358500D01*
X89538655Y-62358500D01*
X89606776Y-62378502D01*
X89627750Y-62395405D01*
X92453540Y-65221196D01*
X92455858Y-65223110D01*
X92455860Y-65223112D01*
X92474051Y-65238134D01*
X92575706Y-65322080D01*
X92761330Y-65423496D01*
X92767044Y-65425325D01*
X92767046Y-65425326D01*
X92864845Y-65456632D01*
X92962781Y-65487982D01*
X93035555Y-65496724D01*
X93166847Y-65512496D01*
X93166851Y-65512496D01*
X93172794Y-65513210D01*
X93178770Y-65512787D01*
X93178773Y-65512787D01*
X93377805Y-65498695D01*
X93377809Y-65498694D01*
X93383788Y-65498271D01*
X93461061Y-65477638D01*
X93582356Y-65445250D01*
X93582355Y-65445250D01*
X93588150Y-65443703D01*
X93593545Y-65441089D01*
X93593548Y-65441088D01*
X93773106Y-65354093D01*
X93773108Y-65354092D01*
X93778507Y-65351476D01*
X93814025Y-65324954D01*
X93897502Y-65262618D01*
X93947990Y-65224917D01*
X94090482Y-65068594D01*
X94132780Y-64999435D01*
X94197718Y-64893259D01*
X94197721Y-64893253D01*
X94200845Y-64888145D01*
X94275095Y-64690083D01*
X94306132Y-64507551D01*
X94309546Y-64487472D01*
X94309546Y-64487469D01*
X94310552Y-64481554D01*
X94308570Y-64390741D01*
X94306068Y-64276081D01*
X94306068Y-64276080D01*
X94305937Y-64270083D01*
X94304644Y-64264074D01*
X94275760Y-64129914D01*
X94261418Y-64063299D01*
X94241339Y-64016109D01*
X94180948Y-63874182D01*
X94180948Y-63874181D01*
X94178600Y-63868664D01*
X94060472Y-63693201D01*
X94056731Y-63689076D01*
X93517655Y-63150000D01*
X94736496Y-63150000D01*
X94737186Y-63156565D01*
X94746842Y-63248433D01*
X94756458Y-63339928D01*
X94815473Y-63521556D01*
X94818776Y-63527278D01*
X94818777Y-63527279D01*
X94852686Y-63586010D01*
X94910960Y-63686944D01*
X94915378Y-63691851D01*
X94915379Y-63691852D01*
X95034096Y-63823701D01*
X95038747Y-63828866D01*
X95119061Y-63887218D01*
X95180788Y-63932065D01*
X95193248Y-63941118D01*
X95199276Y-63943802D01*
X95199278Y-63943803D01*
X95310343Y-63993252D01*
X95367712Y-64018794D01*
X95461112Y-64038647D01*
X95548056Y-64057128D01*
X95548061Y-64057128D01*
X95554513Y-64058500D01*
X95745487Y-64058500D01*
X95751939Y-64057128D01*
X95751944Y-64057128D01*
X95838888Y-64038647D01*
X95932288Y-64018794D01*
X95989657Y-63993252D01*
X96100722Y-63943803D01*
X96100724Y-63943802D01*
X96106752Y-63941118D01*
X96119213Y-63932065D01*
X96153418Y-63907213D01*
X96220286Y-63883355D01*
X96289437Y-63899435D01*
X96336597Y-63946148D01*
X96357656Y-63982622D01*
X96360960Y-63988344D01*
X96365378Y-63993251D01*
X96365379Y-63993252D01*
X96474075Y-64113971D01*
X96488747Y-64130266D01*
X96643248Y-64242518D01*
X96649276Y-64245202D01*
X96649278Y-64245203D01*
X96811681Y-64317509D01*
X96817712Y-64320194D01*
X96911113Y-64340047D01*
X96998056Y-64358528D01*
X96998061Y-64358528D01*
X97004513Y-64359900D01*
X97195487Y-64359900D01*
X97201939Y-64358528D01*
X97201944Y-64358528D01*
X97288887Y-64340047D01*
X97382288Y-64320194D01*
X97388319Y-64317509D01*
X97550722Y-64245203D01*
X97550724Y-64245202D01*
X97556752Y-64242518D01*
X97711253Y-64130266D01*
X97725925Y-64113971D01*
X97834621Y-63993252D01*
X97834622Y-63993251D01*
X97839040Y-63988344D01*
X97934527Y-63822956D01*
X97958654Y-63748700D01*
X99187496Y-63748700D01*
X99188186Y-63755265D01*
X99206147Y-63926150D01*
X99207458Y-63938628D01*
X99266473Y-64120256D01*
X99269776Y-64125978D01*
X99269777Y-64125979D01*
X99287620Y-64156884D01*
X99361960Y-64285644D01*
X99366378Y-64290551D01*
X99366379Y-64290552D01*
X99427585Y-64358528D01*
X99489747Y-64427566D01*
X99644248Y-64539818D01*
X99650276Y-64542502D01*
X99650278Y-64542503D01*
X99705933Y-64567282D01*
X99818712Y-64617494D01*
X99912113Y-64637347D01*
X99999056Y-64655828D01*
X99999061Y-64655828D01*
X100005513Y-64657200D01*
X100196487Y-64657200D01*
X100202939Y-64655828D01*
X100202944Y-64655828D01*
X100289887Y-64637347D01*
X100383288Y-64617494D01*
X100496067Y-64567282D01*
X100551722Y-64542503D01*
X100551724Y-64542502D01*
X100557752Y-64539818D01*
X100712253Y-64427566D01*
X100774415Y-64358528D01*
X100835621Y-64290552D01*
X100835622Y-64290551D01*
X100840040Y-64285644D01*
X100914380Y-64156884D01*
X100932223Y-64125979D01*
X100932224Y-64125978D01*
X100935527Y-64120256D01*
X100994542Y-63938628D01*
X100995854Y-63926150D01*
X101013814Y-63755265D01*
X101014504Y-63748700D01*
X101006361Y-63671227D01*
X100995232Y-63565335D01*
X100995232Y-63565333D01*
X100994542Y-63558772D01*
X100935527Y-63377144D01*
X100840040Y-63211756D01*
X100820102Y-63189612D01*
X100716674Y-63074744D01*
X100712253Y-63069834D01*
X100586546Y-62978502D01*
X100563094Y-62961463D01*
X100563093Y-62961462D01*
X100557752Y-62957582D01*
X100551724Y-62954898D01*
X100551722Y-62954897D01*
X100389319Y-62882591D01*
X100389318Y-62882591D01*
X100383288Y-62879906D01*
X100280925Y-62858148D01*
X100202944Y-62841572D01*
X100202939Y-62841572D01*
X100196487Y-62840200D01*
X100005513Y-62840200D01*
X99999061Y-62841572D01*
X99999056Y-62841572D01*
X99921075Y-62858148D01*
X99818712Y-62879906D01*
X99812682Y-62882591D01*
X99812681Y-62882591D01*
X99650278Y-62954897D01*
X99650276Y-62954898D01*
X99644248Y-62957582D01*
X99638907Y-62961462D01*
X99638906Y-62961463D01*
X99615454Y-62978502D01*
X99489747Y-63069834D01*
X99485326Y-63074744D01*
X99381899Y-63189612D01*
X99361960Y-63211756D01*
X99266473Y-63377144D01*
X99207458Y-63558772D01*
X99206768Y-63565333D01*
X99206768Y-63565335D01*
X99195639Y-63671227D01*
X99187496Y-63748700D01*
X97958654Y-63748700D01*
X97993542Y-63641328D01*
X97998285Y-63596206D01*
X98012814Y-63457965D01*
X98013504Y-63451400D01*
X98007412Y-63393435D01*
X97994232Y-63268035D01*
X97994232Y-63268033D01*
X97993542Y-63261472D01*
X97934527Y-63079844D01*
X97916703Y-63048971D01*
X97870324Y-62968641D01*
X97839040Y-62914456D01*
X97829310Y-62903649D01*
X97715675Y-62777445D01*
X97715674Y-62777444D01*
X97711253Y-62772534D01*
X97556752Y-62660282D01*
X97550724Y-62657598D01*
X97550722Y-62657597D01*
X97388319Y-62585291D01*
X97388318Y-62585291D01*
X97382288Y-62582606D01*
X97288887Y-62562753D01*
X97201944Y-62544272D01*
X97201939Y-62544272D01*
X97195487Y-62542900D01*
X97004513Y-62542900D01*
X96998061Y-62544272D01*
X96998056Y-62544272D01*
X96911113Y-62562753D01*
X96817712Y-62582606D01*
X96811682Y-62585291D01*
X96811681Y-62585291D01*
X96649278Y-62657597D01*
X96649276Y-62657598D01*
X96643248Y-62660282D01*
X96637907Y-62664162D01*
X96637906Y-62664163D01*
X96596582Y-62694187D01*
X96529714Y-62718045D01*
X96460563Y-62701965D01*
X96413403Y-62655252D01*
X96392344Y-62618778D01*
X96392341Y-62618774D01*
X96389040Y-62613056D01*
X96376931Y-62599607D01*
X96265675Y-62476045D01*
X96265674Y-62476044D01*
X96261253Y-62471134D01*
X96133757Y-62378502D01*
X96112094Y-62362763D01*
X96112093Y-62362762D01*
X96106752Y-62358882D01*
X96100724Y-62356198D01*
X96100722Y-62356197D01*
X95938319Y-62283891D01*
X95938318Y-62283891D01*
X95932288Y-62281206D01*
X95838888Y-62261353D01*
X95751944Y-62242872D01*
X95751939Y-62242872D01*
X95745487Y-62241500D01*
X95554513Y-62241500D01*
X95548061Y-62242872D01*
X95548056Y-62242872D01*
X95461112Y-62261353D01*
X95367712Y-62281206D01*
X95361682Y-62283891D01*
X95361681Y-62283891D01*
X95199278Y-62356197D01*
X95199276Y-62356198D01*
X95193248Y-62358882D01*
X95187907Y-62362762D01*
X95187906Y-62362763D01*
X95166243Y-62378502D01*
X95038747Y-62471134D01*
X95034326Y-62476044D01*
X95034325Y-62476045D01*
X94923070Y-62599607D01*
X94910960Y-62613056D01*
X94815473Y-62778444D01*
X94756458Y-62960072D01*
X94755768Y-62966633D01*
X94755768Y-62966635D01*
X94740842Y-63108647D01*
X94736496Y-63150000D01*
X93517655Y-63150000D01*
X92588006Y-62220351D01*
X91090751Y-60723095D01*
X91056725Y-60660783D01*
X91061790Y-60589967D01*
X91104337Y-60533132D01*
X91170857Y-60508321D01*
X91179846Y-60508000D01*
X102906554Y-60508000D01*
X102974675Y-60528002D01*
G37*
%TD.AperFunction*%
%TA.AperFunction,Conductor*%
G36*
X64738823Y-60528002D02*
G01*
X64785316Y-60581658D01*
X64795420Y-60651932D01*
X64781222Y-60694509D01*
X64771677Y-60711942D01*
X64726522Y-60832394D01*
X64722895Y-60847649D01*
X64717369Y-60898514D01*
X64717000Y-60905328D01*
X64717000Y-61527885D01*
X64721475Y-61543124D01*
X64722865Y-61544329D01*
X64730548Y-61546000D01*
X76363000Y-61546000D01*
X76431121Y-61566002D01*
X76477614Y-61619658D01*
X76489000Y-61672000D01*
X76489000Y-61928000D01*
X76468998Y-61996121D01*
X76415342Y-62042614D01*
X76363000Y-62054000D01*
X64735116Y-62054000D01*
X64719877Y-62058475D01*
X64718672Y-62059865D01*
X64717001Y-62067548D01*
X64717001Y-62694669D01*
X64717371Y-62701490D01*
X64722895Y-62752352D01*
X64726521Y-62767604D01*
X64771676Y-62888054D01*
X64780214Y-62903649D01*
X64847942Y-62994018D01*
X64872790Y-63060525D01*
X64857737Y-63129907D01*
X64847942Y-63145148D01*
X64832495Y-63165759D01*
X64774385Y-63243295D01*
X64771233Y-63251703D01*
X64771232Y-63251705D01*
X64729479Y-63363081D01*
X64689330Y-63417938D01*
X64660857Y-63440304D01*
X64653390Y-63445739D01*
X64635230Y-63457965D01*
X64603200Y-63479528D01*
X64599075Y-63483269D01*
X64578467Y-63503877D01*
X64567205Y-63513868D01*
X64546797Y-63529898D01*
X64546793Y-63529902D01*
X64542080Y-63533604D01*
X64538149Y-63538134D01*
X64538148Y-63538135D01*
X64501291Y-63580609D01*
X64495221Y-63587123D01*
X63089895Y-64992449D01*
X63081621Y-64999435D01*
X63081820Y-64999665D01*
X63077275Y-65003588D01*
X63072389Y-65007054D01*
X63034155Y-65046994D01*
X63008287Y-65074016D01*
X63006364Y-65075980D01*
X62978804Y-65103540D01*
X62976894Y-65105852D01*
X62976892Y-65105855D01*
X62974079Y-65109261D01*
X62967957Y-65116145D01*
X62926119Y-65159850D01*
X62922867Y-65164886D01*
X62922864Y-65164890D01*
X62907947Y-65187992D01*
X62899251Y-65199874D01*
X62883216Y-65219292D01*
X62877920Y-65225705D01*
X62865599Y-65248257D01*
X62848913Y-65278797D01*
X62844202Y-65286717D01*
X62811380Y-65337548D01*
X62809136Y-65343116D01*
X62809135Y-65343118D01*
X62798858Y-65368619D01*
X62792565Y-65381932D01*
X62776504Y-65411329D01*
X62774676Y-65417041D01*
X62774673Y-65417047D01*
X62758059Y-65468951D01*
X62754928Y-65477625D01*
X62732314Y-65533737D01*
X62728921Y-65551114D01*
X62725895Y-65566608D01*
X62722232Y-65580875D01*
X62717174Y-65596676D01*
X62712019Y-65612781D01*
X62711305Y-65618728D01*
X62711303Y-65618735D01*
X62704802Y-65672846D01*
X62703366Y-65681967D01*
X62702448Y-65686669D01*
X62691772Y-65741337D01*
X62691500Y-65746899D01*
X62691500Y-65776040D01*
X62690601Y-65791068D01*
X62687504Y-65816845D01*
X62687504Y-65816851D01*
X62686790Y-65822793D01*
X62687213Y-65828769D01*
X62687213Y-65828773D01*
X62687719Y-65835916D01*
X62672578Y-65905279D01*
X62622340Y-65955445D01*
X62552955Y-65970486D01*
X62486452Y-65945628D01*
X62468840Y-65929613D01*
X62448151Y-65906875D01*
X62448142Y-65906866D01*
X62444670Y-65903051D01*
X62440619Y-65899852D01*
X62440615Y-65899848D01*
X62273414Y-65767800D01*
X62273410Y-65767798D01*
X62269359Y-65764598D01*
X62238930Y-65747800D01*
X62126190Y-65685565D01*
X62073789Y-65656638D01*
X62068920Y-65654914D01*
X62068916Y-65654912D01*
X61868087Y-65583795D01*
X61868083Y-65583794D01*
X61863212Y-65582069D01*
X61858119Y-65581162D01*
X61858116Y-65581161D01*
X61648373Y-65543800D01*
X61648367Y-65543799D01*
X61643284Y-65542894D01*
X61569452Y-65541992D01*
X61425081Y-65540228D01*
X61425079Y-65540228D01*
X61419911Y-65540165D01*
X61199091Y-65573955D01*
X60986756Y-65643357D01*
X60956443Y-65659137D01*
X60827027Y-65726507D01*
X60788607Y-65746507D01*
X60784474Y-65749610D01*
X60784471Y-65749612D01*
X60631624Y-65864373D01*
X60609965Y-65880635D01*
X60606393Y-65884373D01*
X60528898Y-65965466D01*
X60467374Y-66000895D01*
X60396462Y-65997438D01*
X60338676Y-65956192D01*
X60319823Y-65922644D01*
X60278324Y-65811946D01*
X60269786Y-65796351D01*
X60193285Y-65694276D01*
X60180724Y-65681715D01*
X60078649Y-65605214D01*
X60063054Y-65596676D01*
X59942606Y-65551522D01*
X59927351Y-65547895D01*
X59876486Y-65542369D01*
X59869672Y-65542000D01*
X59247115Y-65542000D01*
X59231876Y-65546475D01*
X59230671Y-65547865D01*
X59229000Y-65555548D01*
X59229000Y-68239884D01*
X59233475Y-68255123D01*
X59234865Y-68256328D01*
X59242548Y-68257999D01*
X59869669Y-68257999D01*
X59876490Y-68257629D01*
X59927352Y-68252105D01*
X59942604Y-68248479D01*
X60063054Y-68203324D01*
X60078649Y-68194786D01*
X60180724Y-68118285D01*
X60191405Y-68107604D01*
X60253717Y-68073578D01*
X60324532Y-68078643D01*
X60381368Y-68121190D01*
X60406179Y-68187710D01*
X60406500Y-68196699D01*
X60406500Y-84830743D01*
X60405589Y-84841532D01*
X60405893Y-84841554D01*
X60405454Y-84847528D01*
X60404448Y-84853446D01*
X60404579Y-84859447D01*
X60406470Y-84946099D01*
X60406500Y-84948848D01*
X60406500Y-84987846D01*
X60406784Y-84990825D01*
X60406785Y-84990843D01*
X60407203Y-84995222D01*
X60407743Y-85004436D01*
X60409063Y-85064917D01*
X60410324Y-85070775D01*
X60410325Y-85070782D01*
X60416115Y-85097674D01*
X60418367Y-85112226D01*
X60421548Y-85145566D01*
X60423238Y-85151326D01*
X60423238Y-85151327D01*
X60438576Y-85203613D01*
X60440848Y-85212561D01*
X60452318Y-85265836D01*
X60452321Y-85265847D01*
X60453582Y-85271702D01*
X60455929Y-85277218D01*
X60455930Y-85277221D01*
X60466700Y-85302532D01*
X60471659Y-85316381D01*
X60481092Y-85348534D01*
X60508797Y-85402326D01*
X60512710Y-85410660D01*
X60536400Y-85466336D01*
X60555112Y-85494130D01*
X60562603Y-85506797D01*
X60575194Y-85531246D01*
X60575198Y-85531253D01*
X60577942Y-85536580D01*
X60591639Y-85554017D01*
X60615303Y-85584143D01*
X60620737Y-85591609D01*
X60651991Y-85638033D01*
X60652002Y-85638048D01*
X60654528Y-85641799D01*
X60658269Y-85645924D01*
X60678874Y-85666529D01*
X60688865Y-85677791D01*
X60692606Y-85682553D01*
X60708604Y-85702920D01*
X60713127Y-85706845D01*
X60716746Y-85710645D01*
X60749238Y-85773770D01*
X60751500Y-85797536D01*
X60751500Y-88755743D01*
X60750589Y-88766532D01*
X60750893Y-88766554D01*
X60750454Y-88772528D01*
X60749448Y-88778446D01*
X60749579Y-88784447D01*
X60751470Y-88871099D01*
X60751500Y-88873848D01*
X60751500Y-88912846D01*
X60751784Y-88915825D01*
X60751785Y-88915843D01*
X60752203Y-88920222D01*
X60752743Y-88929436D01*
X60754063Y-88989917D01*
X60755324Y-88995775D01*
X60755325Y-88995782D01*
X60761115Y-89022674D01*
X60763367Y-89037226D01*
X60766548Y-89070566D01*
X60768238Y-89076326D01*
X60768238Y-89076327D01*
X60783576Y-89128613D01*
X60785848Y-89137561D01*
X60797318Y-89190836D01*
X60797321Y-89190847D01*
X60798582Y-89196702D01*
X60800929Y-89202218D01*
X60800930Y-89202221D01*
X60811700Y-89227532D01*
X60816659Y-89241381D01*
X60826092Y-89273534D01*
X60853797Y-89327326D01*
X60857713Y-89335667D01*
X60876297Y-89379342D01*
X60881400Y-89391336D01*
X60900112Y-89419130D01*
X60907603Y-89431797D01*
X60920194Y-89456246D01*
X60920198Y-89456253D01*
X60922942Y-89461580D01*
X60937309Y-89479870D01*
X60960303Y-89509143D01*
X60965737Y-89516609D01*
X60996991Y-89563033D01*
X60997002Y-89563048D01*
X60999528Y-89566799D01*
X61003269Y-89570924D01*
X61023874Y-89591529D01*
X61033865Y-89602791D01*
X61049898Y-89623203D01*
X61049902Y-89623208D01*
X61053604Y-89627920D01*
X61058135Y-89631852D01*
X61058140Y-89631857D01*
X61100616Y-89668716D01*
X61107131Y-89674786D01*
X61264420Y-89832075D01*
X61298446Y-89894387D01*
X61293381Y-89965202D01*
X61250834Y-90022038D01*
X61184314Y-90046849D01*
X61123174Y-90035871D01*
X60975686Y-89968813D01*
X60968616Y-89966099D01*
X60664537Y-89869932D01*
X60657186Y-89868085D01*
X60343746Y-89809142D01*
X60336237Y-89808194D01*
X60017989Y-89787335D01*
X60010424Y-89787295D01*
X59691964Y-89804821D01*
X59684450Y-89805690D01*
X59370405Y-89861348D01*
X59363044Y-89863115D01*
X59057980Y-89956092D01*
X59050860Y-89958740D01*
X58759182Y-90087690D01*
X58752445Y-90091167D01*
X58478355Y-90254233D01*
X58472091Y-90258490D01*
X58219583Y-90453299D01*
X58216829Y-90455701D01*
X58152347Y-90485409D01*
X58082039Y-90475539D01*
X58028229Y-90429225D01*
X58008000Y-90360752D01*
X58008000Y-68384000D01*
X58028002Y-68315879D01*
X58081658Y-68269386D01*
X58134000Y-68258000D01*
X58702885Y-68258000D01*
X58718124Y-68253525D01*
X58719329Y-68252135D01*
X58721000Y-68244452D01*
X58721000Y-65560116D01*
X58716525Y-65544877D01*
X58715135Y-65543672D01*
X58707452Y-65542001D01*
X58134000Y-65542001D01*
X58065879Y-65521999D01*
X58019386Y-65468343D01*
X58008000Y-65416001D01*
X58008000Y-64686032D01*
X58028002Y-64617911D01*
X58081658Y-64571418D01*
X58151932Y-64561314D01*
X58213038Y-64587904D01*
X58425486Y-64759023D01*
X58431659Y-64763409D01*
X58702271Y-64932178D01*
X58708931Y-64935794D01*
X58997852Y-65070827D01*
X59004905Y-65073620D01*
X59307970Y-65172970D01*
X59315282Y-65174888D01*
X59628092Y-65237109D01*
X59635590Y-65238137D01*
X59953610Y-65262328D01*
X59961173Y-65262446D01*
X60279785Y-65248257D01*
X60287326Y-65247465D01*
X60601924Y-65195101D01*
X60609302Y-65193411D01*
X60915355Y-65103625D01*
X60922450Y-65101071D01*
X61215496Y-64975169D01*
X61222263Y-64971765D01*
X61498042Y-64811580D01*
X61504349Y-64807390D01*
X61714305Y-64648889D01*
X61722761Y-64637496D01*
X61716045Y-64625256D01*
X59729885Y-62639095D01*
X59695859Y-62576783D01*
X59700924Y-62505967D01*
X59729885Y-62460905D01*
X59910905Y-62279885D01*
X59973217Y-62245859D01*
X60044032Y-62250924D01*
X60089095Y-62279885D01*
X62073285Y-64264074D01*
X62086408Y-64271240D01*
X62096709Y-64263851D01*
X62200751Y-64136055D01*
X62205164Y-64129914D01*
X62375349Y-63860187D01*
X62379005Y-63853536D01*
X62515544Y-63565335D01*
X62518375Y-63558295D01*
X62619306Y-63255767D01*
X62621270Y-63248433D01*
X62685122Y-62935989D01*
X62686194Y-62928465D01*
X62712173Y-62609051D01*
X62712378Y-62604576D01*
X62712927Y-62552221D01*
X62712817Y-62547789D01*
X62693529Y-62227853D01*
X62692621Y-62220351D01*
X62635319Y-61906593D01*
X62633518Y-61899260D01*
X62538935Y-61594655D01*
X62536263Y-61587583D01*
X62405781Y-61296570D01*
X62402264Y-61289843D01*
X62237771Y-61016621D01*
X62233481Y-61010377D01*
X62037350Y-60758889D01*
X62032333Y-60753199D01*
X62002154Y-60722861D01*
X61968293Y-60660460D01*
X61973543Y-60589658D01*
X62016239Y-60532934D01*
X62082824Y-60508298D01*
X62091483Y-60508000D01*
X64670702Y-60508000D01*
X64738823Y-60528002D01*
G37*
%TD.AperFunction*%
%TD*%
M02*
