%TF.GenerationSoftware,KiCad,Pcbnew,(6.0.0-0)*%
%TF.CreationDate,2022-12-18T13:40:03+01:00*%
%TF.ProjectId,ProtoBoardSE,50726f74-6f42-46f6-9172-6453452e6b69,rev?*%
%TF.SameCoordinates,Original*%
%TF.FileFunction,Legend,Top*%
%TF.FilePolarity,Positive*%
%FSLAX46Y46*%
G04 Gerber Fmt 4.6, Leading zero omitted, Abs format (unit mm)*
G04 Created by KiCad (PCBNEW (6.0.0-0)) date 2022-12-18 13:40:03*
%MOMM*%
%LPD*%
G01*
G04 APERTURE LIST*
%ADD10C,0.100000*%
%ADD11C,0.150000*%
%ADD12C,0.120000*%
%ADD13C,0.127000*%
%ADD14C,0.200000*%
G04 APERTURE END LIST*
D10*
X178010428Y-57749285D02*
X178081857Y-57773095D01*
X178105666Y-57796904D01*
X178129476Y-57844523D01*
X178129476Y-57915952D01*
X178105666Y-57963571D01*
X178081857Y-57987380D01*
X178034238Y-58011190D01*
X177843761Y-58011190D01*
X177843761Y-57511190D01*
X178010428Y-57511190D01*
X178058047Y-57535000D01*
X178081857Y-57558809D01*
X178105666Y-57606428D01*
X178105666Y-57654047D01*
X178081857Y-57701666D01*
X178058047Y-57725476D01*
X178010428Y-57749285D01*
X177843761Y-57749285D01*
X178439000Y-57511190D02*
X178534238Y-57511190D01*
X178581857Y-57535000D01*
X178629476Y-57582619D01*
X178653285Y-57677857D01*
X178653285Y-57844523D01*
X178629476Y-57939761D01*
X178581857Y-57987380D01*
X178534238Y-58011190D01*
X178439000Y-58011190D01*
X178391380Y-57987380D01*
X178343761Y-57939761D01*
X178319952Y-57844523D01*
X178319952Y-57677857D01*
X178343761Y-57582619D01*
X178391380Y-57535000D01*
X178439000Y-57511190D01*
X178962809Y-57511190D02*
X179058047Y-57511190D01*
X179105666Y-57535000D01*
X179153285Y-57582619D01*
X179177095Y-57677857D01*
X179177095Y-57844523D01*
X179153285Y-57939761D01*
X179105666Y-57987380D01*
X179058047Y-58011190D01*
X178962809Y-58011190D01*
X178915190Y-57987380D01*
X178867571Y-57939761D01*
X178843761Y-57844523D01*
X178843761Y-57677857D01*
X178867571Y-57582619D01*
X178915190Y-57535000D01*
X178962809Y-57511190D01*
X179319952Y-57511190D02*
X179605666Y-57511190D01*
X179462809Y-58011190D02*
X179462809Y-57511190D01*
D11*
X194842238Y-40203380D02*
X194366047Y-40203380D01*
X194366047Y-39203380D01*
X195366047Y-39203380D02*
X195556523Y-39203380D01*
X195651761Y-39251000D01*
X195747000Y-39346238D01*
X195794619Y-39536714D01*
X195794619Y-39870047D01*
X195747000Y-40060523D01*
X195651761Y-40155761D01*
X195556523Y-40203380D01*
X195366047Y-40203380D01*
X195270809Y-40155761D01*
X195175571Y-40060523D01*
X195127952Y-39870047D01*
X195127952Y-39536714D01*
X195175571Y-39346238D01*
X195270809Y-39251000D01*
X195366047Y-39203380D01*
X196747000Y-39251000D02*
X196651761Y-39203380D01*
X196508904Y-39203380D01*
X196366047Y-39251000D01*
X196270809Y-39346238D01*
X196223190Y-39441476D01*
X196175571Y-39631952D01*
X196175571Y-39774809D01*
X196223190Y-39965285D01*
X196270809Y-40060523D01*
X196366047Y-40155761D01*
X196508904Y-40203380D01*
X196604142Y-40203380D01*
X196747000Y-40155761D01*
X196794619Y-40108142D01*
X196794619Y-39774809D01*
X196604142Y-39774809D01*
X197223190Y-40203380D02*
X197223190Y-39203380D01*
X198270809Y-40108142D02*
X198223190Y-40155761D01*
X198080333Y-40203380D01*
X197985095Y-40203380D01*
X197842238Y-40155761D01*
X197747000Y-40060523D01*
X197699380Y-39965285D01*
X197651761Y-39774809D01*
X197651761Y-39631952D01*
X197699380Y-39441476D01*
X197747000Y-39346238D01*
X197842238Y-39251000D01*
X197985095Y-39203380D01*
X198080333Y-39203380D01*
X198223190Y-39251000D01*
X198270809Y-39298619D01*
X199461285Y-40203380D02*
X199461285Y-39203380D01*
X199842238Y-39203380D01*
X199937476Y-39251000D01*
X199985095Y-39298619D01*
X200032714Y-39393857D01*
X200032714Y-39536714D01*
X199985095Y-39631952D01*
X199937476Y-39679571D01*
X199842238Y-39727190D01*
X199461285Y-39727190D01*
X200366047Y-39203380D02*
X200604142Y-40203380D01*
X200794619Y-39489095D01*
X200985095Y-40203380D01*
X201223190Y-39203380D01*
X202175571Y-40203380D02*
X201842238Y-39727190D01*
X201604142Y-40203380D02*
X201604142Y-39203380D01*
X201985095Y-39203380D01*
X202080333Y-39251000D01*
X202127952Y-39298619D01*
X202175571Y-39393857D01*
X202175571Y-39536714D01*
X202127952Y-39631952D01*
X202080333Y-39679571D01*
X201985095Y-39727190D01*
X201604142Y-39727190D01*
D10*
X204831190Y-42898190D02*
X204664523Y-42660095D01*
X204545476Y-42898190D02*
X204545476Y-42398190D01*
X204735952Y-42398190D01*
X204783571Y-42422000D01*
X204807380Y-42445809D01*
X204831190Y-42493428D01*
X204831190Y-42564857D01*
X204807380Y-42612476D01*
X204783571Y-42636285D01*
X204735952Y-42660095D01*
X204545476Y-42660095D01*
X205021666Y-42874380D02*
X205093095Y-42898190D01*
X205212142Y-42898190D01*
X205259761Y-42874380D01*
X205283571Y-42850571D01*
X205307380Y-42802952D01*
X205307380Y-42755333D01*
X205283571Y-42707714D01*
X205259761Y-42683904D01*
X205212142Y-42660095D01*
X205116904Y-42636285D01*
X205069285Y-42612476D01*
X205045476Y-42588666D01*
X205021666Y-42541047D01*
X205021666Y-42493428D01*
X205045476Y-42445809D01*
X205069285Y-42422000D01*
X205116904Y-42398190D01*
X205235952Y-42398190D01*
X205307380Y-42422000D01*
X205450238Y-42398190D02*
X205735952Y-42398190D01*
X205593095Y-42898190D02*
X205593095Y-42398190D01*
D11*
X194107142Y-76654761D02*
X194250000Y-76702380D01*
X194488095Y-76702380D01*
X194583333Y-76654761D01*
X194630952Y-76607142D01*
X194678571Y-76511904D01*
X194678571Y-76416666D01*
X194630952Y-76321428D01*
X194583333Y-76273809D01*
X194488095Y-76226190D01*
X194297619Y-76178571D01*
X194202380Y-76130952D01*
X194154761Y-76083333D01*
X194107142Y-75988095D01*
X194107142Y-75892857D01*
X194154761Y-75797619D01*
X194202380Y-75750000D01*
X194297619Y-75702380D01*
X194535714Y-75702380D01*
X194678571Y-75750000D01*
X195107142Y-76178571D02*
X195440476Y-76178571D01*
X195583333Y-76702380D02*
X195107142Y-76702380D01*
X195107142Y-75702380D01*
X195583333Y-75702380D01*
X196583333Y-76702380D02*
X196250000Y-76226190D01*
X196011904Y-76702380D02*
X196011904Y-75702380D01*
X196392857Y-75702380D01*
X196488095Y-75750000D01*
X196535714Y-75797619D01*
X196583333Y-75892857D01*
X196583333Y-76035714D01*
X196535714Y-76130952D01*
X196488095Y-76178571D01*
X196392857Y-76226190D01*
X196011904Y-76226190D01*
X196869047Y-75702380D02*
X197202380Y-76702380D01*
X197535714Y-75702380D01*
X198059523Y-75702380D02*
X198250000Y-75702380D01*
X198345238Y-75750000D01*
X198440476Y-75845238D01*
X198488095Y-76035714D01*
X198488095Y-76369047D01*
X198440476Y-76559523D01*
X198345238Y-76654761D01*
X198250000Y-76702380D01*
X198059523Y-76702380D01*
X197964285Y-76654761D01*
X197869047Y-76559523D01*
X197821428Y-76369047D01*
X197821428Y-76035714D01*
X197869047Y-75845238D01*
X197964285Y-75750000D01*
X198059523Y-75702380D01*
X199678571Y-76702380D02*
X199678571Y-75702380D01*
X200059523Y-75702380D01*
X200154761Y-75750000D01*
X200202380Y-75797619D01*
X200250000Y-75892857D01*
X200250000Y-76035714D01*
X200202380Y-76130952D01*
X200154761Y-76178571D01*
X200059523Y-76226190D01*
X199678571Y-76226190D01*
X200583333Y-75702380D02*
X200821428Y-76702380D01*
X201011904Y-75988095D01*
X201202380Y-76702380D01*
X201440476Y-75702380D01*
X202392857Y-76702380D02*
X202059523Y-76226190D01*
X201821428Y-76702380D02*
X201821428Y-75702380D01*
X202202380Y-75702380D01*
X202297619Y-75750000D01*
X202345238Y-75797619D01*
X202392857Y-75892857D01*
X202392857Y-76035714D01*
X202345238Y-76130952D01*
X202297619Y-76178571D01*
X202202380Y-76226190D01*
X201821428Y-76226190D01*
%TO.C,H4*%
X161238095Y-29252380D02*
X161238095Y-28252380D01*
X161238095Y-28728571D02*
X161809523Y-28728571D01*
X161809523Y-29252380D02*
X161809523Y-28252380D01*
X162714285Y-28585714D02*
X162714285Y-29252380D01*
X162476190Y-28204761D02*
X162238095Y-28919047D01*
X162857142Y-28919047D01*
%TO.C,H3*%
X161238095Y-81252380D02*
X161238095Y-80252380D01*
X161238095Y-80728571D02*
X161809523Y-80728571D01*
X161809523Y-81252380D02*
X161809523Y-80252380D01*
X162190476Y-80252380D02*
X162809523Y-80252380D01*
X162476190Y-80633333D01*
X162619047Y-80633333D01*
X162714285Y-80680952D01*
X162761904Y-80728571D01*
X162809523Y-80823809D01*
X162809523Y-81061904D01*
X162761904Y-81157142D01*
X162714285Y-81204761D01*
X162619047Y-81252380D01*
X162333333Y-81252380D01*
X162238095Y-81204761D01*
X162190476Y-81157142D01*
%TO.C,H2*%
X205238095Y-81252380D02*
X205238095Y-80252380D01*
X205238095Y-80728571D02*
X205809523Y-80728571D01*
X205809523Y-81252380D02*
X205809523Y-80252380D01*
X206238095Y-80347619D02*
X206285714Y-80300000D01*
X206380952Y-80252380D01*
X206619047Y-80252380D01*
X206714285Y-80300000D01*
X206761904Y-80347619D01*
X206809523Y-80442857D01*
X206809523Y-80538095D01*
X206761904Y-80680952D01*
X206190476Y-81252380D01*
X206809523Y-81252380D01*
%TO.C,H1*%
X205238095Y-29252380D02*
X205238095Y-28252380D01*
X205238095Y-28728571D02*
X205809523Y-28728571D01*
X205809523Y-29252380D02*
X205809523Y-28252380D01*
X206809523Y-29252380D02*
X206238095Y-29252380D01*
X206523809Y-29252380D02*
X206523809Y-28252380D01*
X206428571Y-28395238D01*
X206333333Y-28490476D01*
X206238095Y-28538095D01*
D10*
%TO.C,J5*%
X167833333Y-45954190D02*
X167833333Y-46311333D01*
X167809523Y-46382761D01*
X167761904Y-46430380D01*
X167690476Y-46454190D01*
X167642857Y-46454190D01*
X168309523Y-45954190D02*
X168071428Y-45954190D01*
X168047619Y-46192285D01*
X168071428Y-46168476D01*
X168119047Y-46144666D01*
X168238095Y-46144666D01*
X168285714Y-46168476D01*
X168309523Y-46192285D01*
X168333333Y-46239904D01*
X168333333Y-46358952D01*
X168309523Y-46406571D01*
X168285714Y-46430380D01*
X168238095Y-46454190D01*
X168119047Y-46454190D01*
X168071428Y-46430380D01*
X168047619Y-46406571D01*
%TO.C,C3*%
X201416666Y-43928571D02*
X201392857Y-43952380D01*
X201321428Y-43976190D01*
X201273809Y-43976190D01*
X201202380Y-43952380D01*
X201154761Y-43904761D01*
X201130952Y-43857142D01*
X201107142Y-43761904D01*
X201107142Y-43690476D01*
X201130952Y-43595238D01*
X201154761Y-43547619D01*
X201202380Y-43500000D01*
X201273809Y-43476190D01*
X201321428Y-43476190D01*
X201392857Y-43500000D01*
X201416666Y-43523809D01*
X201583333Y-43476190D02*
X201892857Y-43476190D01*
X201726190Y-43666666D01*
X201797619Y-43666666D01*
X201845238Y-43690476D01*
X201869047Y-43714285D01*
X201892857Y-43761904D01*
X201892857Y-43880952D01*
X201869047Y-43928571D01*
X201845238Y-43952380D01*
X201797619Y-43976190D01*
X201654761Y-43976190D01*
X201607142Y-43952380D01*
X201583333Y-43928571D01*
%TO.C,C1*%
X196428571Y-42083333D02*
X196452380Y-42107142D01*
X196476190Y-42178571D01*
X196476190Y-42226190D01*
X196452380Y-42297619D01*
X196404761Y-42345238D01*
X196357142Y-42369047D01*
X196261904Y-42392857D01*
X196190476Y-42392857D01*
X196095238Y-42369047D01*
X196047619Y-42345238D01*
X196000000Y-42297619D01*
X195976190Y-42226190D01*
X195976190Y-42178571D01*
X196000000Y-42107142D01*
X196023809Y-42083333D01*
X196476190Y-41607142D02*
X196476190Y-41892857D01*
X196476190Y-41750000D02*
X195976190Y-41750000D01*
X196047619Y-41797619D01*
X196095238Y-41845238D01*
X196119047Y-41892857D01*
%TO.C,U4*%
X186869047Y-40726190D02*
X186869047Y-41130952D01*
X186892857Y-41178571D01*
X186916666Y-41202380D01*
X186964285Y-41226190D01*
X187059523Y-41226190D01*
X187107142Y-41202380D01*
X187130952Y-41178571D01*
X187154761Y-41130952D01*
X187154761Y-40726190D01*
X187607142Y-40892857D02*
X187607142Y-41226190D01*
X187488095Y-40702380D02*
X187369047Y-41059523D01*
X187678571Y-41059523D01*
%TO.C,J1*%
X192333333Y-83476190D02*
X192333333Y-83833333D01*
X192309523Y-83904761D01*
X192261904Y-83952380D01*
X192190476Y-83976190D01*
X192142857Y-83976190D01*
X192833333Y-83976190D02*
X192547619Y-83976190D01*
X192690476Y-83976190D02*
X192690476Y-83476190D01*
X192642857Y-83547619D01*
X192595238Y-83595238D01*
X192547619Y-83619047D01*
%TO.C,J10*%
X167595238Y-62845190D02*
X167595238Y-63202333D01*
X167571428Y-63273761D01*
X167523809Y-63321380D01*
X167452380Y-63345190D01*
X167404761Y-63345190D01*
X168095238Y-63345190D02*
X167809523Y-63345190D01*
X167952380Y-63345190D02*
X167952380Y-62845190D01*
X167904761Y-62916619D01*
X167857142Y-62964238D01*
X167809523Y-62988047D01*
X168404761Y-62845190D02*
X168452380Y-62845190D01*
X168500000Y-62869000D01*
X168523809Y-62892809D01*
X168547619Y-62940428D01*
X168571428Y-63035666D01*
X168571428Y-63154714D01*
X168547619Y-63249952D01*
X168523809Y-63297571D01*
X168500000Y-63321380D01*
X168452380Y-63345190D01*
X168404761Y-63345190D01*
X168357142Y-63321380D01*
X168333333Y-63297571D01*
X168309523Y-63249952D01*
X168285714Y-63154714D01*
X168285714Y-63035666D01*
X168309523Y-62940428D01*
X168333333Y-62892809D01*
X168357142Y-62869000D01*
X168404761Y-62845190D01*
%TO.C,SW1*%
X177895333Y-51256380D02*
X177966761Y-51280190D01*
X178085809Y-51280190D01*
X178133428Y-51256380D01*
X178157238Y-51232571D01*
X178181047Y-51184952D01*
X178181047Y-51137333D01*
X178157238Y-51089714D01*
X178133428Y-51065904D01*
X178085809Y-51042095D01*
X177990571Y-51018285D01*
X177942952Y-50994476D01*
X177919142Y-50970666D01*
X177895333Y-50923047D01*
X177895333Y-50875428D01*
X177919142Y-50827809D01*
X177942952Y-50804000D01*
X177990571Y-50780190D01*
X178109619Y-50780190D01*
X178181047Y-50804000D01*
X178347714Y-50780190D02*
X178466761Y-51280190D01*
X178562000Y-50923047D01*
X178657238Y-51280190D01*
X178776285Y-50780190D01*
X179228666Y-51280190D02*
X178942952Y-51280190D01*
X179085809Y-51280190D02*
X179085809Y-50780190D01*
X179038190Y-50851619D01*
X178990571Y-50899238D01*
X178942952Y-50923047D01*
%TO.C,J7*%
X189833333Y-82186190D02*
X189833333Y-82543333D01*
X189809523Y-82614761D01*
X189761904Y-82662380D01*
X189690476Y-82686190D01*
X189642857Y-82686190D01*
X190023809Y-82186190D02*
X190357142Y-82186190D01*
X190142857Y-82686190D01*
%TO.C,J11*%
X189845238Y-79646190D02*
X189845238Y-80003333D01*
X189821428Y-80074761D01*
X189773809Y-80122380D01*
X189702380Y-80146190D01*
X189654761Y-80146190D01*
X190345238Y-80146190D02*
X190059523Y-80146190D01*
X190202380Y-80146190D02*
X190202380Y-79646190D01*
X190154761Y-79717619D01*
X190107142Y-79765238D01*
X190059523Y-79789047D01*
X190821428Y-80146190D02*
X190535714Y-80146190D01*
X190678571Y-80146190D02*
X190678571Y-79646190D01*
X190630952Y-79717619D01*
X190583333Y-79765238D01*
X190535714Y-79789047D01*
%TO.C,U2*%
X193476190Y-71380952D02*
X193880952Y-71380952D01*
X193928571Y-71357142D01*
X193952380Y-71333333D01*
X193976190Y-71285714D01*
X193976190Y-71190476D01*
X193952380Y-71142857D01*
X193928571Y-71119047D01*
X193880952Y-71095238D01*
X193476190Y-71095238D01*
X193523809Y-70880952D02*
X193500000Y-70857142D01*
X193476190Y-70809523D01*
X193476190Y-70690476D01*
X193500000Y-70642857D01*
X193523809Y-70619047D01*
X193571428Y-70595238D01*
X193619047Y-70595238D01*
X193690476Y-70619047D01*
X193976190Y-70904761D01*
X193976190Y-70595238D01*
%TO.C,R1*%
X205726190Y-77583333D02*
X205488095Y-77750000D01*
X205726190Y-77869047D02*
X205226190Y-77869047D01*
X205226190Y-77678571D01*
X205250000Y-77630952D01*
X205273809Y-77607142D01*
X205321428Y-77583333D01*
X205392857Y-77583333D01*
X205440476Y-77607142D01*
X205464285Y-77630952D01*
X205488095Y-77678571D01*
X205488095Y-77869047D01*
X205726190Y-77107142D02*
X205726190Y-77392857D01*
X205726190Y-77250000D02*
X205226190Y-77250000D01*
X205297619Y-77297619D01*
X205345238Y-77345238D01*
X205369047Y-77392857D01*
%TO.C,R2*%
X196166666Y-43976190D02*
X196000000Y-43738095D01*
X195880952Y-43976190D02*
X195880952Y-43476190D01*
X196071428Y-43476190D01*
X196119047Y-43500000D01*
X196142857Y-43523809D01*
X196166666Y-43571428D01*
X196166666Y-43642857D01*
X196142857Y-43690476D01*
X196119047Y-43714285D01*
X196071428Y-43738095D01*
X195880952Y-43738095D01*
X196357142Y-43523809D02*
X196380952Y-43500000D01*
X196428571Y-43476190D01*
X196547619Y-43476190D01*
X196595238Y-43500000D01*
X196619047Y-43523809D01*
X196642857Y-43571428D01*
X196642857Y-43619047D01*
X196619047Y-43690476D01*
X196333333Y-43976190D01*
X196642857Y-43976190D01*
%TO.C,C4*%
X179416666Y-46678571D02*
X179392857Y-46702380D01*
X179321428Y-46726190D01*
X179273809Y-46726190D01*
X179202380Y-46702380D01*
X179154761Y-46654761D01*
X179130952Y-46607142D01*
X179107142Y-46511904D01*
X179107142Y-46440476D01*
X179130952Y-46345238D01*
X179154761Y-46297619D01*
X179202380Y-46250000D01*
X179273809Y-46226190D01*
X179321428Y-46226190D01*
X179392857Y-46250000D01*
X179416666Y-46273809D01*
X179845238Y-46392857D02*
X179845238Y-46726190D01*
X179726190Y-46202380D02*
X179607142Y-46559523D01*
X179916666Y-46559523D01*
%TO.C,SW2*%
X206343333Y-38302380D02*
X206414761Y-38326190D01*
X206533809Y-38326190D01*
X206581428Y-38302380D01*
X206605238Y-38278571D01*
X206629047Y-38230952D01*
X206629047Y-38183333D01*
X206605238Y-38135714D01*
X206581428Y-38111904D01*
X206533809Y-38088095D01*
X206438571Y-38064285D01*
X206390952Y-38040476D01*
X206367142Y-38016666D01*
X206343333Y-37969047D01*
X206343333Y-37921428D01*
X206367142Y-37873809D01*
X206390952Y-37850000D01*
X206438571Y-37826190D01*
X206557619Y-37826190D01*
X206629047Y-37850000D01*
X206795714Y-37826190D02*
X206914761Y-38326190D01*
X207010000Y-37969047D01*
X207105238Y-38326190D01*
X207224285Y-37826190D01*
X207390952Y-37873809D02*
X207414761Y-37850000D01*
X207462380Y-37826190D01*
X207581428Y-37826190D01*
X207629047Y-37850000D01*
X207652857Y-37873809D01*
X207676666Y-37921428D01*
X207676666Y-37969047D01*
X207652857Y-38040476D01*
X207367142Y-38326190D01*
X207676666Y-38326190D01*
%TO.C,J6*%
X167833333Y-37445190D02*
X167833333Y-37802333D01*
X167809523Y-37873761D01*
X167761904Y-37921380D01*
X167690476Y-37945190D01*
X167642857Y-37945190D01*
X168285714Y-37445190D02*
X168190476Y-37445190D01*
X168142857Y-37469000D01*
X168119047Y-37492809D01*
X168071428Y-37564238D01*
X168047619Y-37659476D01*
X168047619Y-37849952D01*
X168071428Y-37897571D01*
X168095238Y-37921380D01*
X168142857Y-37945190D01*
X168238095Y-37945190D01*
X168285714Y-37921380D01*
X168309523Y-37897571D01*
X168333333Y-37849952D01*
X168333333Y-37730904D01*
X168309523Y-37683285D01*
X168285714Y-37659476D01*
X168238095Y-37635666D01*
X168142857Y-37635666D01*
X168095238Y-37659476D01*
X168071428Y-37683285D01*
X168047619Y-37730904D01*
%TO.C,J2*%
X192365333Y-37826190D02*
X192365333Y-38183333D01*
X192341523Y-38254761D01*
X192293904Y-38302380D01*
X192222476Y-38326190D01*
X192174857Y-38326190D01*
X192579619Y-37873809D02*
X192603428Y-37850000D01*
X192651047Y-37826190D01*
X192770095Y-37826190D01*
X192817714Y-37850000D01*
X192841523Y-37873809D01*
X192865333Y-37921428D01*
X192865333Y-37969047D01*
X192841523Y-38040476D01*
X192555809Y-38326190D01*
X192865333Y-38326190D01*
%TO.C,R5*%
X205458190Y-35643333D02*
X205220095Y-35810000D01*
X205458190Y-35929047D02*
X204958190Y-35929047D01*
X204958190Y-35738571D01*
X204982000Y-35690952D01*
X205005809Y-35667142D01*
X205053428Y-35643333D01*
X205124857Y-35643333D01*
X205172476Y-35667142D01*
X205196285Y-35690952D01*
X205220095Y-35738571D01*
X205220095Y-35929047D01*
X204958190Y-35190952D02*
X204958190Y-35429047D01*
X205196285Y-35452857D01*
X205172476Y-35429047D01*
X205148666Y-35381428D01*
X205148666Y-35262380D01*
X205172476Y-35214761D01*
X205196285Y-35190952D01*
X205243904Y-35167142D01*
X205362952Y-35167142D01*
X205410571Y-35190952D01*
X205434380Y-35214761D01*
X205458190Y-35262380D01*
X205458190Y-35381428D01*
X205434380Y-35429047D01*
X205410571Y-35452857D01*
%TO.C,R4*%
X204226190Y-35643333D02*
X203988095Y-35810000D01*
X204226190Y-35929047D02*
X203726190Y-35929047D01*
X203726190Y-35738571D01*
X203750000Y-35690952D01*
X203773809Y-35667142D01*
X203821428Y-35643333D01*
X203892857Y-35643333D01*
X203940476Y-35667142D01*
X203964285Y-35690952D01*
X203988095Y-35738571D01*
X203988095Y-35929047D01*
X203892857Y-35214761D02*
X204226190Y-35214761D01*
X203702380Y-35333809D02*
X204059523Y-35452857D01*
X204059523Y-35143333D01*
%TO.C,J4*%
X189833333Y-84726190D02*
X189833333Y-85083333D01*
X189809523Y-85154761D01*
X189761904Y-85202380D01*
X189690476Y-85226190D01*
X189642857Y-85226190D01*
X190285714Y-84892857D02*
X190285714Y-85226190D01*
X190166666Y-84702380D02*
X190047619Y-85059523D01*
X190357142Y-85059523D01*
%TO.C,J3*%
X189833333Y-37226190D02*
X189833333Y-37583333D01*
X189809523Y-37654761D01*
X189761904Y-37702380D01*
X189690476Y-37726190D01*
X189642857Y-37726190D01*
X190023809Y-37226190D02*
X190333333Y-37226190D01*
X190166666Y-37416666D01*
X190238095Y-37416666D01*
X190285714Y-37440476D01*
X190309523Y-37464285D01*
X190333333Y-37511904D01*
X190333333Y-37630952D01*
X190309523Y-37678571D01*
X190285714Y-37702380D01*
X190238095Y-37726190D01*
X190095238Y-37726190D01*
X190047619Y-37702380D01*
X190023809Y-37678571D01*
D11*
%TO.C,U1*%
X208502380Y-55511904D02*
X209311904Y-55511904D01*
X209407142Y-55464285D01*
X209454761Y-55416666D01*
X209502380Y-55321428D01*
X209502380Y-55130952D01*
X209454761Y-55035714D01*
X209407142Y-54988095D01*
X209311904Y-54940476D01*
X208502380Y-54940476D01*
X209502380Y-53940476D02*
X209502380Y-54511904D01*
X209502380Y-54226190D02*
X208502380Y-54226190D01*
X208645238Y-54321428D01*
X208740476Y-54416666D01*
X208788095Y-54511904D01*
X204916666Y-59511904D02*
X204916666Y-59035714D01*
X205202380Y-59607142D02*
X204202380Y-59273809D01*
X205202380Y-58940476D01*
X204535714Y-58607142D02*
X205202380Y-58607142D01*
X204630952Y-58607142D02*
X204583333Y-58559523D01*
X204535714Y-58464285D01*
X204535714Y-58321428D01*
X204583333Y-58226190D01*
X204678571Y-58178571D01*
X205202380Y-58178571D01*
X204535714Y-57845238D02*
X204535714Y-57464285D01*
X204202380Y-57702380D02*
X205059523Y-57702380D01*
X205154761Y-57654761D01*
X205202380Y-57559523D01*
X205202380Y-57464285D01*
X205154761Y-56750000D02*
X205202380Y-56845238D01*
X205202380Y-57035714D01*
X205154761Y-57130952D01*
X205059523Y-57178571D01*
X204678571Y-57178571D01*
X204583333Y-57130952D01*
X204535714Y-57035714D01*
X204535714Y-56845238D01*
X204583333Y-56750000D01*
X204678571Y-56702380D01*
X204773809Y-56702380D01*
X204869047Y-57178571D01*
X204535714Y-56273809D02*
X205202380Y-56273809D01*
X204630952Y-56273809D02*
X204583333Y-56226190D01*
X204535714Y-56130952D01*
X204535714Y-55988095D01*
X204583333Y-55892857D01*
X204678571Y-55845238D01*
X205202380Y-55845238D01*
X204535714Y-55369047D02*
X205202380Y-55369047D01*
X204630952Y-55369047D02*
X204583333Y-55321428D01*
X204535714Y-55226190D01*
X204535714Y-55083333D01*
X204583333Y-54988095D01*
X204678571Y-54940476D01*
X205202380Y-54940476D01*
X205202380Y-54035714D02*
X204678571Y-54035714D01*
X204583333Y-54083333D01*
X204535714Y-54178571D01*
X204535714Y-54369047D01*
X204583333Y-54464285D01*
X205154761Y-54035714D02*
X205202380Y-54130952D01*
X205202380Y-54369047D01*
X205154761Y-54464285D01*
X205059523Y-54511904D01*
X204964285Y-54511904D01*
X204869047Y-54464285D01*
X204821428Y-54369047D01*
X204821428Y-54130952D01*
X204773809Y-54035714D01*
X204916666Y-52845238D02*
X204916666Y-52369047D01*
X205202380Y-52940476D02*
X204202380Y-52607142D01*
X205202380Y-52273809D01*
X205202380Y-51940476D02*
X204535714Y-51940476D01*
X204726190Y-51940476D02*
X204630952Y-51892857D01*
X204583333Y-51845238D01*
X204535714Y-51750000D01*
X204535714Y-51654761D01*
X205154761Y-50940476D02*
X205202380Y-51035714D01*
X205202380Y-51226190D01*
X205154761Y-51321428D01*
X205059523Y-51369047D01*
X204678571Y-51369047D01*
X204583333Y-51321428D01*
X204535714Y-51226190D01*
X204535714Y-51035714D01*
X204583333Y-50940476D01*
X204678571Y-50892857D01*
X204773809Y-50892857D01*
X204869047Y-51369047D01*
X205202380Y-50035714D02*
X204678571Y-50035714D01*
X204583333Y-50083333D01*
X204535714Y-50178571D01*
X204535714Y-50369047D01*
X204583333Y-50464285D01*
X205154761Y-50035714D02*
X205202380Y-50130952D01*
X205202380Y-50369047D01*
X205154761Y-50464285D01*
X205059523Y-50511904D01*
X204964285Y-50511904D01*
X204869047Y-50464285D01*
X204821428Y-50369047D01*
X204821428Y-50130952D01*
X204773809Y-50035714D01*
D10*
%TO.C,J8*%
X167833333Y-54336190D02*
X167833333Y-54693333D01*
X167809523Y-54764761D01*
X167761904Y-54812380D01*
X167690476Y-54836190D01*
X167642857Y-54836190D01*
X168142857Y-54550476D02*
X168095238Y-54526666D01*
X168071428Y-54502857D01*
X168047619Y-54455238D01*
X168047619Y-54431428D01*
X168071428Y-54383809D01*
X168095238Y-54360000D01*
X168142857Y-54336190D01*
X168238095Y-54336190D01*
X168285714Y-54360000D01*
X168309523Y-54383809D01*
X168333333Y-54431428D01*
X168333333Y-54455238D01*
X168309523Y-54502857D01*
X168285714Y-54526666D01*
X168238095Y-54550476D01*
X168142857Y-54550476D01*
X168095238Y-54574285D01*
X168071428Y-54598095D01*
X168047619Y-54645714D01*
X168047619Y-54740952D01*
X168071428Y-54788571D01*
X168095238Y-54812380D01*
X168142857Y-54836190D01*
X168238095Y-54836190D01*
X168285714Y-54812380D01*
X168309523Y-54788571D01*
X168333333Y-54740952D01*
X168333333Y-54645714D01*
X168309523Y-54598095D01*
X168285714Y-54574285D01*
X168238095Y-54550476D01*
%TO.C,R3*%
X204476190Y-77583333D02*
X204238095Y-77750000D01*
X204476190Y-77869047D02*
X203976190Y-77869047D01*
X203976190Y-77678571D01*
X204000000Y-77630952D01*
X204023809Y-77607142D01*
X204071428Y-77583333D01*
X204142857Y-77583333D01*
X204190476Y-77607142D01*
X204214285Y-77630952D01*
X204238095Y-77678571D01*
X204238095Y-77869047D01*
X203976190Y-77416666D02*
X203976190Y-77107142D01*
X204166666Y-77273809D01*
X204166666Y-77202380D01*
X204190476Y-77154761D01*
X204214285Y-77130952D01*
X204261904Y-77107142D01*
X204380952Y-77107142D01*
X204428571Y-77130952D01*
X204452380Y-77154761D01*
X204476190Y-77202380D01*
X204476190Y-77345238D01*
X204452380Y-77392857D01*
X204428571Y-77416666D01*
%TO.C,J9*%
X167833333Y-71481190D02*
X167833333Y-71838333D01*
X167809523Y-71909761D01*
X167761904Y-71957380D01*
X167690476Y-71981190D01*
X167642857Y-71981190D01*
X168095238Y-71981190D02*
X168190476Y-71981190D01*
X168238095Y-71957380D01*
X168261904Y-71933571D01*
X168309523Y-71862142D01*
X168333333Y-71766904D01*
X168333333Y-71576428D01*
X168309523Y-71528809D01*
X168285714Y-71505000D01*
X168238095Y-71481190D01*
X168142857Y-71481190D01*
X168095238Y-71505000D01*
X168071428Y-71528809D01*
X168047619Y-71576428D01*
X168047619Y-71695476D01*
X168071428Y-71743095D01*
X168095238Y-71766904D01*
X168142857Y-71790714D01*
X168238095Y-71790714D01*
X168285714Y-71766904D01*
X168309523Y-71743095D01*
X168333333Y-71695476D01*
%TO.C,C6*%
X196385666Y-74727571D02*
X196361857Y-74751380D01*
X196290428Y-74775190D01*
X196242809Y-74775190D01*
X196171380Y-74751380D01*
X196123761Y-74703761D01*
X196099952Y-74656142D01*
X196076142Y-74560904D01*
X196076142Y-74489476D01*
X196099952Y-74394238D01*
X196123761Y-74346619D01*
X196171380Y-74299000D01*
X196242809Y-74275190D01*
X196290428Y-74275190D01*
X196361857Y-74299000D01*
X196385666Y-74322809D01*
X196814238Y-74275190D02*
X196719000Y-74275190D01*
X196671380Y-74299000D01*
X196647571Y-74322809D01*
X196599952Y-74394238D01*
X196576142Y-74489476D01*
X196576142Y-74679952D01*
X196599952Y-74727571D01*
X196623761Y-74751380D01*
X196671380Y-74775190D01*
X196766619Y-74775190D01*
X196814238Y-74751380D01*
X196838047Y-74727571D01*
X196861857Y-74679952D01*
X196861857Y-74560904D01*
X196838047Y-74513285D01*
X196814238Y-74489476D01*
X196766619Y-74465666D01*
X196671380Y-74465666D01*
X196623761Y-74489476D01*
X196599952Y-74513285D01*
X196576142Y-74560904D01*
%TO.C,C2*%
X201416666Y-42678571D02*
X201392857Y-42702380D01*
X201321428Y-42726190D01*
X201273809Y-42726190D01*
X201202380Y-42702380D01*
X201154761Y-42654761D01*
X201130952Y-42607142D01*
X201107142Y-42511904D01*
X201107142Y-42440476D01*
X201130952Y-42345238D01*
X201154761Y-42297619D01*
X201202380Y-42250000D01*
X201273809Y-42226190D01*
X201321428Y-42226190D01*
X201392857Y-42250000D01*
X201416666Y-42273809D01*
X201607142Y-42273809D02*
X201630952Y-42250000D01*
X201678571Y-42226190D01*
X201797619Y-42226190D01*
X201845238Y-42250000D01*
X201869047Y-42273809D01*
X201892857Y-42321428D01*
X201892857Y-42369047D01*
X201869047Y-42440476D01*
X201583333Y-42726190D01*
X201892857Y-42726190D01*
%TO.C,C5*%
X176928571Y-41083333D02*
X176952380Y-41107142D01*
X176976190Y-41178571D01*
X176976190Y-41226190D01*
X176952380Y-41297619D01*
X176904761Y-41345238D01*
X176857142Y-41369047D01*
X176761904Y-41392857D01*
X176690476Y-41392857D01*
X176595238Y-41369047D01*
X176547619Y-41345238D01*
X176500000Y-41297619D01*
X176476190Y-41226190D01*
X176476190Y-41178571D01*
X176500000Y-41107142D01*
X176523809Y-41083333D01*
X176476190Y-40630952D02*
X176476190Y-40869047D01*
X176714285Y-40892857D01*
X176690476Y-40869047D01*
X176666666Y-40821428D01*
X176666666Y-40702380D01*
X176690476Y-40654761D01*
X176714285Y-40630952D01*
X176761904Y-40607142D01*
X176880952Y-40607142D01*
X176928571Y-40630952D01*
X176952380Y-40654761D01*
X176976190Y-40702380D01*
X176976190Y-40821428D01*
X176952380Y-40869047D01*
X176928571Y-40892857D01*
D12*
%TO.C,J5*%
X160150000Y-46750000D02*
X160150000Y-48000000D01*
X161400000Y-46750000D02*
X160150000Y-46750000D01*
X161200000Y-49300000D02*
X161200000Y-50640000D01*
X160440000Y-47040000D02*
X160440000Y-53010000D01*
X172250000Y-47800000D02*
X172250000Y-47050000D01*
X175560000Y-53010000D02*
X175560000Y-47040000D01*
X175550000Y-47050000D02*
X173750000Y-47050000D01*
X172250000Y-47050000D02*
X163750000Y-47050000D01*
X163750000Y-47800000D02*
X172250000Y-47800000D01*
X160450000Y-47800000D02*
X162250000Y-47800000D01*
X160440000Y-53010000D02*
X175560000Y-53010000D01*
X162250000Y-47800000D02*
X162250000Y-47050000D01*
X160450000Y-49300000D02*
X161200000Y-49300000D01*
X173750000Y-47050000D02*
X173750000Y-47800000D01*
X174800000Y-52250000D02*
X168000000Y-52250000D01*
X173750000Y-47800000D02*
X175550000Y-47800000D01*
X175560000Y-47040000D02*
X160440000Y-47040000D01*
X168000000Y-52250000D02*
X162260000Y-52250000D01*
X162250000Y-47050000D02*
X160450000Y-47050000D01*
X174800000Y-49300000D02*
X174800000Y-52250000D01*
X163750000Y-47050000D02*
X163750000Y-47800000D01*
X175550000Y-47800000D02*
X175550000Y-47050000D01*
X175550000Y-49300000D02*
X174800000Y-49300000D01*
X160450000Y-47050000D02*
X160450000Y-47800000D01*
%TO.C,C3*%
X199892164Y-43390000D02*
X200107836Y-43390000D01*
X199892164Y-44110000D02*
X200107836Y-44110000D01*
%TO.C,C1*%
X197610000Y-41892164D02*
X197610000Y-42107836D01*
X196890000Y-41892164D02*
X196890000Y-42107836D01*
%TO.C,U4*%
X184160000Y-44410000D02*
X184160000Y-43150000D01*
X184160000Y-37590000D02*
X184160000Y-38850000D01*
X180400000Y-44410000D02*
X184160000Y-44410000D01*
X178150000Y-37590000D02*
X184160000Y-37590000D01*
D13*
%TO.C,J1*%
X202720000Y-86462500D02*
X193780000Y-86462500D01*
X193780000Y-81052500D02*
X193780000Y-82492500D01*
X202720000Y-85232500D02*
X202720000Y-86462500D01*
X202720000Y-81052500D02*
X202720000Y-82492500D01*
X193780000Y-86462500D02*
X193780000Y-85232500D01*
D14*
X194950000Y-77462500D02*
G75*
G03*
X194950000Y-77462500I-100000J0D01*
G01*
D12*
%TO.C,J10*%
X175560000Y-63940000D02*
X160440000Y-63940000D01*
X161400000Y-63650000D02*
X160150000Y-63650000D01*
X161200000Y-66200000D02*
X161200000Y-67540000D01*
X160440000Y-69910000D02*
X175560000Y-69910000D01*
X160450000Y-66200000D02*
X161200000Y-66200000D01*
X175550000Y-63950000D02*
X173750000Y-63950000D01*
X160440000Y-63940000D02*
X160440000Y-69910000D01*
X162250000Y-64700000D02*
X162250000Y-63950000D01*
X160450000Y-64700000D02*
X162250000Y-64700000D01*
X175560000Y-69910000D02*
X175560000Y-63940000D01*
X160450000Y-63950000D02*
X160450000Y-64700000D01*
X163750000Y-63950000D02*
X163750000Y-64700000D01*
X174800000Y-66200000D02*
X174800000Y-69150000D01*
X172250000Y-63950000D02*
X163750000Y-63950000D01*
X168000000Y-69150000D02*
X162260000Y-69150000D01*
X162250000Y-63950000D02*
X160450000Y-63950000D01*
X163750000Y-64700000D02*
X172250000Y-64700000D01*
X173750000Y-64700000D02*
X175550000Y-64700000D01*
X175550000Y-64700000D02*
X175550000Y-63950000D01*
X174800000Y-69150000D02*
X168000000Y-69150000D01*
X175550000Y-66200000D02*
X174800000Y-66200000D01*
X172250000Y-64700000D02*
X172250000Y-63950000D01*
X160150000Y-63650000D02*
X160150000Y-64900000D01*
X173750000Y-63950000D02*
X173750000Y-64700000D01*
%TO.C,SW1*%
X178739000Y-52156000D02*
X178639000Y-52156000D01*
X177139000Y-52156000D02*
X177139000Y-56556000D01*
X180239000Y-56556000D02*
X180239000Y-52156000D01*
X178739000Y-56556000D02*
X178639000Y-56556000D01*
%TO.C,J7*%
X186805000Y-81130000D02*
X186805000Y-83790000D01*
X189405000Y-81130000D02*
X189405000Y-82460000D01*
X186805000Y-81130000D02*
X176585000Y-81130000D01*
X186805000Y-83790000D02*
X176585000Y-83790000D01*
X188075000Y-81130000D02*
X189405000Y-81130000D01*
X176585000Y-81130000D02*
X176585000Y-83790000D01*
%TO.C,J11*%
X186805000Y-78590000D02*
X186805000Y-81250000D01*
X188075000Y-78590000D02*
X189405000Y-78590000D01*
X186805000Y-78590000D02*
X176585000Y-78590000D01*
X189405000Y-78590000D02*
X189405000Y-79920000D01*
X176585000Y-78590000D02*
X176585000Y-81250000D01*
X186805000Y-81250000D02*
X176585000Y-81250000D01*
D11*
%TO.C,U2*%
X184425000Y-68125000D02*
X184425000Y-73875000D01*
X193075000Y-68125000D02*
X192850000Y-68125000D01*
X193075000Y-73875000D02*
X192775000Y-73875000D01*
X192850000Y-68125000D02*
X192850000Y-66525000D01*
X184425000Y-73875000D02*
X184725000Y-73875000D01*
X184425000Y-68125000D02*
X184725000Y-68125000D01*
X193075000Y-68125000D02*
X193075000Y-73875000D01*
D12*
%TO.C,R1*%
X205120000Y-78846359D02*
X205120000Y-79153641D01*
X205880000Y-78846359D02*
X205880000Y-79153641D01*
%TO.C,R2*%
X197903641Y-43370000D02*
X197596359Y-43370000D01*
X197903641Y-44130000D02*
X197596359Y-44130000D01*
%TO.C,C4*%
X179392164Y-45140000D02*
X179607836Y-45140000D01*
X179392164Y-45860000D02*
X179607836Y-45860000D01*
%TO.C,SW2*%
X207305000Y-38836000D02*
X202905000Y-38836000D01*
X207305000Y-40436000D02*
X207305000Y-40336000D01*
X202905000Y-40436000D02*
X202905000Y-40336000D01*
X202905000Y-41936000D02*
X207305000Y-41936000D01*
%TO.C,J6*%
X174800000Y-43750000D02*
X168000000Y-43750000D01*
X160450000Y-39300000D02*
X162250000Y-39300000D01*
X168000000Y-43750000D02*
X162260000Y-43750000D01*
X175560000Y-44510000D02*
X175560000Y-38540000D01*
X174800000Y-40800000D02*
X174800000Y-43750000D01*
X173750000Y-39300000D02*
X175550000Y-39300000D01*
X175550000Y-38550000D02*
X173750000Y-38550000D01*
X163750000Y-39300000D02*
X172250000Y-39300000D01*
X172250000Y-38550000D02*
X163750000Y-38550000D01*
X172250000Y-39300000D02*
X172250000Y-38550000D01*
X163750000Y-38550000D02*
X163750000Y-39300000D01*
X175550000Y-39300000D02*
X175550000Y-38550000D01*
X175550000Y-40800000D02*
X174800000Y-40800000D01*
X173750000Y-38550000D02*
X173750000Y-39300000D01*
X162250000Y-38550000D02*
X160450000Y-38550000D01*
X160440000Y-38540000D02*
X160440000Y-44510000D01*
X175560000Y-38540000D02*
X160440000Y-38540000D01*
X160150000Y-38250000D02*
X160150000Y-39500000D01*
X161400000Y-38250000D02*
X160150000Y-38250000D01*
X160450000Y-38550000D02*
X160450000Y-39300000D01*
X160440000Y-44510000D02*
X175560000Y-44510000D01*
X162250000Y-39300000D02*
X162250000Y-38550000D01*
X161200000Y-40800000D02*
X161200000Y-42140000D01*
X160450000Y-40800000D02*
X161200000Y-40800000D01*
D13*
%TO.C,J2*%
X202720000Y-29537500D02*
X202720000Y-30767500D01*
X193780000Y-34947500D02*
X193780000Y-33507500D01*
X193780000Y-29537500D02*
X202720000Y-29537500D01*
X202720000Y-34947500D02*
X202720000Y-33507500D01*
X193780000Y-30767500D02*
X193780000Y-29537500D01*
D14*
X201750000Y-38537500D02*
G75*
G03*
X201750000Y-38537500I-100000J0D01*
G01*
D12*
%TO.C,R5*%
X204870000Y-37096359D02*
X204870000Y-37403641D01*
X205630000Y-37096359D02*
X205630000Y-37403641D01*
%TO.C,R4*%
X204380000Y-37403641D02*
X204380000Y-37096359D01*
X203620000Y-37403641D02*
X203620000Y-37096359D01*
%TO.C,J4*%
X189405000Y-83670000D02*
X189405000Y-85000000D01*
X186805000Y-86330000D02*
X176585000Y-86330000D01*
X186805000Y-83670000D02*
X186805000Y-86330000D01*
X188075000Y-83670000D02*
X189405000Y-83670000D01*
X176585000Y-83670000D02*
X176585000Y-86330000D01*
X186805000Y-83670000D02*
X176585000Y-83670000D01*
%TO.C,J3*%
X164950000Y-34225000D02*
X165700000Y-34225000D01*
X166750000Y-36475000D02*
X166750000Y-35725000D01*
X192560000Y-30515000D02*
X164940000Y-30515000D01*
X178750000Y-31275000D02*
X190740000Y-31275000D01*
X164940000Y-36485000D02*
X192560000Y-36485000D01*
X165700000Y-34225000D02*
X165700000Y-31275000D01*
X192550000Y-35725000D02*
X190750000Y-35725000D01*
X192550000Y-36475000D02*
X192550000Y-35725000D01*
X165700000Y-31275000D02*
X178750000Y-31275000D01*
X164950000Y-36475000D02*
X166750000Y-36475000D01*
X190750000Y-35725000D02*
X190750000Y-36475000D01*
X164940000Y-30515000D02*
X164940000Y-36485000D01*
X166750000Y-35725000D02*
X164950000Y-35725000D01*
X191800000Y-34225000D02*
X191800000Y-32885000D01*
X190750000Y-36475000D02*
X192550000Y-36475000D01*
X164950000Y-35725000D02*
X164950000Y-36475000D01*
X189250000Y-35725000D02*
X168250000Y-35725000D01*
X168250000Y-35725000D02*
X168250000Y-36475000D01*
X191600000Y-36775000D02*
X192850000Y-36775000D01*
X192850000Y-36775000D02*
X192850000Y-35525000D01*
X192560000Y-36485000D02*
X192560000Y-30515000D01*
X189250000Y-36475000D02*
X189250000Y-35725000D01*
X168250000Y-36475000D02*
X189250000Y-36475000D01*
X192550000Y-34225000D02*
X191800000Y-34225000D01*
%TO.C,U1*%
X207750000Y-45750000D02*
X201000000Y-45750000D01*
X182250000Y-63750000D02*
X182250000Y-62750000D01*
X183000000Y-45750000D02*
X182250000Y-45750000D01*
X207750000Y-45750000D02*
X207750000Y-63750000D01*
X183000000Y-63750000D02*
X182250000Y-63750000D01*
X207750000Y-63750000D02*
X201000000Y-63750000D01*
X201810000Y-63750000D02*
X201810000Y-45750000D01*
X182250000Y-45750000D02*
X182250000Y-46750000D01*
%TO.C,J8*%
X175550000Y-57750000D02*
X174800000Y-57750000D01*
X160440000Y-55490000D02*
X160440000Y-61460000D01*
X172250000Y-55500000D02*
X163750000Y-55500000D01*
X162250000Y-55500000D02*
X160450000Y-55500000D01*
X175550000Y-56250000D02*
X175550000Y-55500000D01*
X163750000Y-55500000D02*
X163750000Y-56250000D01*
X160440000Y-61460000D02*
X175560000Y-61460000D01*
X160150000Y-55200000D02*
X160150000Y-56450000D01*
X175560000Y-55490000D02*
X160440000Y-55490000D01*
X163750000Y-56250000D02*
X172250000Y-56250000D01*
X172250000Y-56250000D02*
X172250000Y-55500000D01*
X160450000Y-56250000D02*
X162250000Y-56250000D01*
X160450000Y-57750000D02*
X161200000Y-57750000D01*
X173750000Y-55500000D02*
X173750000Y-56250000D01*
X175550000Y-55500000D02*
X173750000Y-55500000D01*
X174800000Y-60700000D02*
X168000000Y-60700000D01*
X160450000Y-55500000D02*
X160450000Y-56250000D01*
X162250000Y-56250000D02*
X162250000Y-55500000D01*
X168000000Y-60700000D02*
X162260000Y-60700000D01*
X174800000Y-57750000D02*
X174800000Y-60700000D01*
X161400000Y-55200000D02*
X160150000Y-55200000D01*
X161200000Y-57750000D02*
X161200000Y-59090000D01*
X173750000Y-56250000D02*
X175550000Y-56250000D01*
X175560000Y-61460000D02*
X175560000Y-55490000D01*
%TO.C,R3*%
X204630000Y-79153641D02*
X204630000Y-78846359D01*
X203870000Y-79153641D02*
X203870000Y-78846359D01*
%TO.C,J9*%
X162250000Y-72550000D02*
X160450000Y-72550000D01*
X174800000Y-74800000D02*
X174800000Y-77750000D01*
X162250000Y-73300000D02*
X162250000Y-72550000D01*
X160450000Y-73300000D02*
X162250000Y-73300000D01*
X160440000Y-78510000D02*
X175560000Y-78510000D01*
X173750000Y-73300000D02*
X175550000Y-73300000D01*
X172250000Y-73300000D02*
X172250000Y-72550000D01*
X175550000Y-74800000D02*
X174800000Y-74800000D01*
X160440000Y-72540000D02*
X160440000Y-78510000D01*
X173750000Y-72550000D02*
X173750000Y-73300000D01*
X175560000Y-72540000D02*
X160440000Y-72540000D01*
X174800000Y-77750000D02*
X168000000Y-77750000D01*
X160150000Y-72250000D02*
X160150000Y-73500000D01*
X160450000Y-72550000D02*
X160450000Y-73300000D01*
X160450000Y-74800000D02*
X161200000Y-74800000D01*
X172250000Y-72550000D02*
X163750000Y-72550000D01*
X163750000Y-72550000D02*
X163750000Y-73300000D01*
X161200000Y-74800000D02*
X161200000Y-76140000D01*
X175550000Y-72550000D02*
X173750000Y-72550000D01*
X175550000Y-73300000D02*
X175550000Y-72550000D01*
X163750000Y-73300000D02*
X172250000Y-73300000D01*
X168000000Y-77750000D02*
X162260000Y-77750000D01*
X175560000Y-78510000D02*
X175560000Y-72540000D01*
X161400000Y-72250000D02*
X160150000Y-72250000D01*
%TO.C,C6*%
X194837164Y-74909000D02*
X195052836Y-74909000D01*
X194837164Y-74189000D02*
X195052836Y-74189000D01*
%TO.C,C2*%
X199892164Y-42140000D02*
X200107836Y-42140000D01*
X199892164Y-42860000D02*
X200107836Y-42860000D01*
%TO.C,C5*%
X177110000Y-39607836D02*
X177110000Y-39392164D01*
X176390000Y-39607836D02*
X176390000Y-39392164D01*
%TD*%
M02*
