M48
INCH
T1C0.0157
T2C0.0256
T3C0.0374
T4C0.0394
%
G90
G05
T1
X6.9193Y-1.7323
X6.9882Y-2.4803
X7.0665Y-2.1385
X7.126Y-2.687
X7.1555Y-2.6575
X7.1555Y-2.815
X7.1949Y-2.7854
X7.1949Y-2.8445
X7.2539Y-2.4409
X7.2638Y-2.6181
X7.27Y-2.215
X7.2736Y-1.9587
X7.3327Y-1.8701
X7.335Y-2.8714
X7.3524Y-2.7165
X7.3819Y-1.6142
X7.3819Y-2.5886
X7.3917Y-2.7165
X7.4311Y-2.4409
X7.4409Y-2.7165
X7.4468Y-2.8452
X7.4665Y-2.5857
X7.4803Y-2.4409
X7.4902Y-2.8543
X7.5Y-2.7165
X7.5098Y-2.815
X7.5295Y-2.4409
X7.5295Y-2.5886
X7.5492Y-2.7264
X7.5787Y-2.4409
X7.5886Y-1.8701
X7.628Y-2.4409
X7.6378Y-1.8701
X7.687Y-1.8701
X7.687Y-2.4409
X7.7067Y-1.5157
X7.7264Y-2.4409
X7.7362Y-1.8701
X7.785Y-1.87
X7.795Y-1.605
X7.8346Y-1.8996
X7.874Y-2.6181
X7.885Y-1.875
X7.9035Y-1.5157
T3
X6.4173Y-1.6142
X6.4173Y-1.9488
X6.4173Y-2.2815
X6.4173Y-2.6142
X6.4173Y-2.9528
X6.5157Y-1.6142
X6.5157Y-1.9488
X6.5157Y-2.2815
X6.5157Y-2.6142
X6.5157Y-2.9528
X6.5945Y-1.3396
X6.6142Y-1.6142
X6.6142Y-1.9488
X6.6142Y-2.2815
X6.6142Y-2.6142
X6.6142Y-2.9528
X6.6929Y-1.3396
X6.7126Y-1.6142
X6.7126Y-1.9488
X6.7126Y-2.2815
X6.7126Y-2.6142
X6.7126Y-2.9528
X6.7913Y-1.3396
X6.811Y-1.6142
X6.811Y-1.9488
X6.811Y-2.2815
X6.811Y-2.6142
X6.811Y-2.9528
X6.8898Y-1.3396
X6.9882Y-1.3396
X7.0866Y-1.3396
X7.185Y-1.3396
X7.2835Y-1.3396
X7.3819Y-1.3396
X7.4803Y-1.3396
T4
X7.0045Y-3.1465
X7.0045Y-3.2465
X7.0045Y-3.3465
X7.1045Y-3.1465
X7.1045Y-3.2465
X7.1045Y-3.3465
X7.2045Y-3.1465
X7.2045Y-3.2465
X7.2045Y-3.3465
X7.3045Y-3.1465
X7.3045Y-3.2465
X7.3045Y-3.3465
X7.4045Y-3.1465
X7.4045Y-3.2465
X7.4045Y-3.3465
T2
G00X7.635Y-1.2771
M15
G01X7.635Y-1.2534
M16
G05
G00X7.635Y-1.4515
M15
G01X7.635Y-1.4082
M16
G05
G00X7.635Y-3.1155
M15
G01X7.635Y-3.1588
M16
G05
G00X7.635Y-3.2899
M15
G01X7.635Y-3.3135
M16
G05
G00X7.9752Y-1.2771
M15
G01X7.9752Y-1.2534
M16
G05
G00X7.9752Y-1.4515
M15
G01X7.9752Y-1.4082
M16
G05
G00X7.9752Y-3.1155
M15
G01X7.9752Y-3.1588
M16
G05
G00X7.9752Y-3.2899
M15
G01X7.9752Y-3.3135
M16
G05
T0
M30
