%TF.GenerationSoftware,KiCad,Pcbnew,(6.0.0-0)*%
%TF.CreationDate,2022-12-18T13:40:03+01:00*%
%TF.ProjectId,ProtoBoardSE,50726f74-6f42-46f6-9172-6453452e6b69,rev?*%
%TF.SameCoordinates,Original*%
%TF.FileFunction,Legend,Bot*%
%TF.FilePolarity,Positive*%
%FSLAX46Y46*%
G04 Gerber Fmt 4.6, Leading zero omitted, Abs format (unit mm)*
G04 Created by KiCad (PCBNEW (6.0.0-0)) date 2022-12-18 13:40:03*
%MOMM*%
%LPD*%
G01*
G04 APERTURE LIST*
%ADD10C,0.100000*%
%ADD11C,0.150000*%
%ADD12C,0.120000*%
G04 APERTURE END LIST*
D10*
X185714285Y-57083333D02*
X185738095Y-57154761D01*
X185761904Y-57178571D01*
X185809523Y-57202380D01*
X185880952Y-57202380D01*
X185928571Y-57178571D01*
X185952380Y-57154761D01*
X185976190Y-57107142D01*
X185976190Y-56916666D01*
X185476190Y-56916666D01*
X185476190Y-57083333D01*
X185500000Y-57130952D01*
X185523809Y-57154761D01*
X185571428Y-57178571D01*
X185619047Y-57178571D01*
X185666666Y-57154761D01*
X185690476Y-57130952D01*
X185714285Y-57083333D01*
X185714285Y-56916666D01*
X185476190Y-57511904D02*
X185476190Y-57607142D01*
X185500000Y-57654761D01*
X185547619Y-57702380D01*
X185642857Y-57726190D01*
X185809523Y-57726190D01*
X185904761Y-57702380D01*
X185952380Y-57654761D01*
X185976190Y-57607142D01*
X185976190Y-57511904D01*
X185952380Y-57464285D01*
X185904761Y-57416666D01*
X185809523Y-57392857D01*
X185642857Y-57392857D01*
X185547619Y-57416666D01*
X185500000Y-57464285D01*
X185476190Y-57511904D01*
X185476190Y-58035714D02*
X185476190Y-58130952D01*
X185500000Y-58178571D01*
X185547619Y-58226190D01*
X185642857Y-58250000D01*
X185809523Y-58250000D01*
X185904761Y-58226190D01*
X185952380Y-58178571D01*
X185976190Y-58130952D01*
X185976190Y-58035714D01*
X185952380Y-57988095D01*
X185904761Y-57940476D01*
X185809523Y-57916666D01*
X185642857Y-57916666D01*
X185547619Y-57940476D01*
X185500000Y-57988095D01*
X185476190Y-58035714D01*
X185476190Y-58392857D02*
X185476190Y-58678571D01*
X185976190Y-58535714D02*
X185476190Y-58535714D01*
X185476190Y-58940476D02*
X185476190Y-58988095D01*
X185500000Y-59035714D01*
X185523809Y-59059523D01*
X185571428Y-59083333D01*
X185666666Y-59107142D01*
X185785714Y-59107142D01*
X185880952Y-59083333D01*
X185928571Y-59059523D01*
X185952380Y-59035714D01*
X185976190Y-58988095D01*
X185976190Y-58940476D01*
X185952380Y-58892857D01*
X185928571Y-58869047D01*
X185880952Y-58845238D01*
X185785714Y-58821428D01*
X185666666Y-58821428D01*
X185571428Y-58845238D01*
X185523809Y-58869047D01*
X185500000Y-58892857D01*
X185476190Y-58940476D01*
X197226190Y-57130952D02*
X197226190Y-57416666D01*
X197726190Y-57273809D02*
X197226190Y-57273809D01*
X197226190Y-57535714D02*
X197726190Y-57869047D01*
X197226190Y-57869047D02*
X197726190Y-57535714D01*
X197726190Y-58059523D02*
X197226190Y-58059523D01*
X197226190Y-58178571D01*
X197250000Y-58250000D01*
X197297619Y-58297619D01*
X197345238Y-58321428D01*
X197440476Y-58345238D01*
X197511904Y-58345238D01*
X197607142Y-58321428D01*
X197654761Y-58297619D01*
X197702380Y-58250000D01*
X197726190Y-58178571D01*
X197726190Y-58059523D01*
X197226190Y-58654761D02*
X197226190Y-58702380D01*
X197250000Y-58750000D01*
X197273809Y-58773809D01*
X197321428Y-58797619D01*
X197416666Y-58821428D01*
X197535714Y-58821428D01*
X197630952Y-58797619D01*
X197678571Y-58773809D01*
X197702380Y-58750000D01*
X197726190Y-58702380D01*
X197726190Y-58654761D01*
X197702380Y-58607142D01*
X197678571Y-58583333D01*
X197630952Y-58559523D01*
X197535714Y-58535714D01*
X197416666Y-58535714D01*
X197321428Y-58559523D01*
X197273809Y-58583333D01*
X197250000Y-58607142D01*
X197226190Y-58654761D01*
X194976190Y-57428571D02*
X194738095Y-57261904D01*
X194976190Y-57142857D02*
X194476190Y-57142857D01*
X194476190Y-57333333D01*
X194500000Y-57380952D01*
X194523809Y-57404761D01*
X194571428Y-57428571D01*
X194642857Y-57428571D01*
X194690476Y-57404761D01*
X194714285Y-57380952D01*
X194738095Y-57333333D01*
X194738095Y-57142857D01*
X194476190Y-57595238D02*
X194976190Y-57928571D01*
X194476190Y-57928571D02*
X194976190Y-57595238D01*
X194976190Y-58119047D02*
X194476190Y-58119047D01*
X194476190Y-58238095D01*
X194500000Y-58309523D01*
X194547619Y-58357142D01*
X194595238Y-58380952D01*
X194690476Y-58404761D01*
X194761904Y-58404761D01*
X194857142Y-58380952D01*
X194904761Y-58357142D01*
X194952380Y-58309523D01*
X194976190Y-58238095D01*
X194976190Y-58119047D01*
X194476190Y-58714285D02*
X194476190Y-58761904D01*
X194500000Y-58809523D01*
X194523809Y-58833333D01*
X194571428Y-58857142D01*
X194666666Y-58880952D01*
X194785714Y-58880952D01*
X194880952Y-58857142D01*
X194928571Y-58833333D01*
X194952380Y-58809523D01*
X194976190Y-58761904D01*
X194976190Y-58714285D01*
X194952380Y-58666666D01*
X194928571Y-58642857D01*
X194880952Y-58619047D01*
X194785714Y-58595238D01*
X194666666Y-58595238D01*
X194571428Y-58619047D01*
X194523809Y-58642857D01*
X194500000Y-58666666D01*
X194476190Y-58714285D01*
D11*
%TO.C,TP1*%
X198511904Y-42054380D02*
X197940476Y-42054380D01*
X198226190Y-43054380D02*
X198226190Y-42054380D01*
X197607142Y-43054380D02*
X197607142Y-42054380D01*
X197226190Y-42054380D01*
X197130952Y-42102000D01*
X197083333Y-42149619D01*
X197035714Y-42244857D01*
X197035714Y-42387714D01*
X197083333Y-42482952D01*
X197130952Y-42530571D01*
X197226190Y-42578190D01*
X197607142Y-42578190D01*
X196083333Y-43054380D02*
X196654761Y-43054380D01*
X196369047Y-43054380D02*
X196369047Y-42054380D01*
X196464285Y-42197238D01*
X196559523Y-42292476D01*
X196654761Y-42340095D01*
D10*
%TO.C,TP4*%
X184476190Y-57369047D02*
X184476190Y-57654761D01*
X184976190Y-57511904D02*
X184476190Y-57511904D01*
X184976190Y-57821428D02*
X184476190Y-57821428D01*
X184476190Y-58011904D01*
X184500000Y-58059523D01*
X184523809Y-58083333D01*
X184571428Y-58107142D01*
X184642857Y-58107142D01*
X184690476Y-58083333D01*
X184714285Y-58059523D01*
X184738095Y-58011904D01*
X184738095Y-57821428D01*
X184642857Y-58535714D02*
X184976190Y-58535714D01*
X184452380Y-58416666D02*
X184809523Y-58297619D01*
X184809523Y-58607142D01*
%TO.C,TP3*%
X196226190Y-57369047D02*
X196226190Y-57654761D01*
X196726190Y-57511904D02*
X196226190Y-57511904D01*
X196726190Y-57821428D02*
X196226190Y-57821428D01*
X196226190Y-58011904D01*
X196250000Y-58059523D01*
X196273809Y-58083333D01*
X196321428Y-58107142D01*
X196392857Y-58107142D01*
X196440476Y-58083333D01*
X196464285Y-58059523D01*
X196488095Y-58011904D01*
X196488095Y-57821428D01*
X196226190Y-58273809D02*
X196226190Y-58583333D01*
X196416666Y-58416666D01*
X196416666Y-58488095D01*
X196440476Y-58535714D01*
X196464285Y-58559523D01*
X196511904Y-58583333D01*
X196630952Y-58583333D01*
X196678571Y-58559523D01*
X196702380Y-58535714D01*
X196726190Y-58488095D01*
X196726190Y-58345238D01*
X196702380Y-58297619D01*
X196678571Y-58273809D01*
%TO.C,TP2*%
X193476190Y-57369047D02*
X193476190Y-57654761D01*
X193976190Y-57511904D02*
X193476190Y-57511904D01*
X193976190Y-57821428D02*
X193476190Y-57821428D01*
X193476190Y-58011904D01*
X193500000Y-58059523D01*
X193523809Y-58083333D01*
X193571428Y-58107142D01*
X193642857Y-58107142D01*
X193690476Y-58083333D01*
X193714285Y-58059523D01*
X193738095Y-58011904D01*
X193738095Y-57821428D01*
X193523809Y-58297619D02*
X193500000Y-58321428D01*
X193476190Y-58369047D01*
X193476190Y-58488095D01*
X193500000Y-58535714D01*
X193523809Y-58559523D01*
X193571428Y-58583333D01*
X193619047Y-58583333D01*
X193690476Y-58559523D01*
X193976190Y-58273809D01*
X193976190Y-58583333D01*
D12*
%TO.C,TP1*%
X198700000Y-44250000D02*
G75*
G03*
X198700000Y-44250000I-950000J0D01*
G01*
%TO.C,TP4*%
X186200000Y-60750000D02*
G75*
G03*
X186200000Y-60750000I-950000J0D01*
G01*
%TO.C,TP3*%
X197950000Y-60500000D02*
G75*
G03*
X197950000Y-60500000I-950000J0D01*
G01*
%TO.C,TP2*%
X195450000Y-60500000D02*
G75*
G03*
X195450000Y-60500000I-950000J0D01*
G01*
%TD*%
M02*
