%TF.GenerationSoftware,KiCad,Pcbnew,(6.0.0-0)*%
%TF.CreationDate,2022-12-18T13:40:03+01:00*%
%TF.ProjectId,ProtoBoardSE,50726f74-6f42-46f6-9172-6453452e6b69,rev?*%
%TF.SameCoordinates,Original*%
%TF.FileFunction,Soldermask,Top*%
%TF.FilePolarity,Negative*%
%FSLAX46Y46*%
G04 Gerber Fmt 4.6, Leading zero omitted, Abs format (unit mm)*
G04 Created by KiCad (PCBNEW (6.0.0-0)) date 2022-12-18 13:40:03*
%MOMM*%
%LPD*%
G01*
G04 APERTURE LIST*
G04 Aperture macros list*
%AMRoundRect*
0 Rectangle with rounded corners*
0 $1 Rounding radius*
0 $2 $3 $4 $5 $6 $7 $8 $9 X,Y pos of 4 corners*
0 Add a 4 corners polygon primitive as box body*
4,1,4,$2,$3,$4,$5,$6,$7,$8,$9,$2,$3,0*
0 Add four circle primitives for the rounded corners*
1,1,$1+$1,$2,$3*
1,1,$1+$1,$4,$5*
1,1,$1+$1,$6,$7*
1,1,$1+$1,$8,$9*
0 Add four rect primitives between the rounded corners*
20,1,$1+$1,$2,$3,$4,$5,0*
20,1,$1+$1,$4,$5,$6,$7,0*
20,1,$1+$1,$6,$7,$8,$9,0*
20,1,$1+$1,$8,$9,$2,$3,0*%
G04 Aperture macros list end*
%ADD10C,2.200000*%
%ADD11C,1.200000*%
%ADD12RoundRect,0.250000X-0.600000X-0.725000X0.600000X-0.725000X0.600000X0.725000X-0.600000X0.725000X0*%
%ADD13O,1.700000X1.950000*%
%ADD14RoundRect,0.140000X-0.140000X-0.170000X0.140000X-0.170000X0.140000X0.170000X-0.140000X0.170000X0*%
%ADD15RoundRect,0.140000X-0.170000X0.140000X-0.170000X-0.140000X0.170000X-0.140000X0.170000X0.140000X0*%
%ADD16R,2.000000X1.500000*%
%ADD17R,2.000000X3.800000*%
%ADD18C,0.700000*%
%ADD19R,0.600000X1.450000*%
%ADD20R,0.300000X1.450000*%
%ADD21O,1.050000X2.100000*%
%ADD22R,1.000000X0.900000*%
%ADD23R,1.700000X1.700000*%
%ADD24O,1.700000X1.700000*%
%ADD25R,0.450000X1.750000*%
%ADD26RoundRect,0.135000X-0.185000X0.135000X-0.185000X-0.135000X0.185000X-0.135000X0.185000X0.135000X0*%
%ADD27RoundRect,0.135000X0.135000X0.185000X-0.135000X0.185000X-0.135000X-0.185000X0.135000X-0.185000X0*%
%ADD28R,0.900000X1.000000*%
%ADD29RoundRect,0.135000X0.185000X-0.135000X0.185000X0.135000X-0.185000X0.135000X-0.185000X-0.135000X0*%
%ADD30RoundRect,0.250000X0.600000X0.725000X-0.600000X0.725000X-0.600000X-0.725000X0.600000X-0.725000X0*%
%ADD31R,0.900000X1.500000*%
%ADD32R,1.500000X0.900000*%
%ADD33R,0.900000X0.900000*%
%ADD34RoundRect,0.140000X0.170000X-0.140000X0.170000X0.140000X-0.170000X0.140000X-0.170000X-0.140000X0*%
G04 APERTURE END LIST*
D10*
%TO.C,H4*%
X162000000Y-32000000D03*
%TD*%
%TO.C,H3*%
X162000000Y-84000000D03*
%TD*%
%TO.C,H2*%
X206000000Y-84000000D03*
%TD*%
%TO.C,H1*%
X206000000Y-32000000D03*
%TD*%
D11*
%TO.C,J5*%
X161400000Y-51500000D03*
D12*
X163000000Y-49500000D03*
D13*
X165500000Y-49500000D03*
X168000000Y-49500000D03*
X170500000Y-49500000D03*
X173000000Y-49500000D03*
%TD*%
D14*
%TO.C,C3*%
X199520000Y-43750000D03*
X200480000Y-43750000D03*
%TD*%
D15*
%TO.C,C1*%
X197250000Y-41520000D03*
X197250000Y-42480000D03*
%TD*%
D16*
%TO.C,U4*%
X179100000Y-38700000D03*
X179100000Y-41000000D03*
D17*
X185400000Y-41000000D03*
D16*
X179100000Y-43300000D03*
%TD*%
D18*
%TO.C,J1*%
X195360000Y-80212500D03*
X201140000Y-80212500D03*
D19*
X195000000Y-78767500D03*
X195800000Y-78767500D03*
D20*
X197000000Y-78767500D03*
X198000000Y-78767500D03*
X198500000Y-78767500D03*
X199500000Y-78767500D03*
D19*
X201500000Y-78767500D03*
X200700000Y-78767500D03*
D20*
X200000000Y-78767500D03*
X199000000Y-78767500D03*
X197500000Y-78767500D03*
X196500000Y-78767500D03*
D21*
X193930000Y-79682500D03*
X202570000Y-79682500D03*
X193930000Y-83862500D03*
X202570000Y-83862500D03*
%TD*%
D11*
%TO.C,J10*%
X161400000Y-68400000D03*
D12*
X163000000Y-66400000D03*
D13*
X165500000Y-66400000D03*
X168000000Y-66400000D03*
X170500000Y-66400000D03*
X173000000Y-66400000D03*
%TD*%
D22*
%TO.C,SW1*%
X177889000Y-52306000D03*
X177889000Y-56406000D03*
X179489000Y-52306000D03*
X179489000Y-56406000D03*
%TD*%
D23*
%TO.C,J7*%
X188075000Y-82460000D03*
D24*
X185535000Y-82460000D03*
X182995000Y-82460000D03*
X180455000Y-82460000D03*
X177915000Y-82460000D03*
%TD*%
D23*
%TO.C,J11*%
X188075000Y-79920000D03*
D24*
X185535000Y-79920000D03*
X182995000Y-79920000D03*
X180455000Y-79920000D03*
X177915000Y-79920000D03*
%TD*%
D25*
%TO.C,U2*%
X192325000Y-67400000D03*
X191675000Y-67400000D03*
X191025000Y-67400000D03*
X190375000Y-67400000D03*
X189725000Y-67400000D03*
X189075000Y-67400000D03*
X188425000Y-67400000D03*
X187775000Y-67400000D03*
X187125000Y-67400000D03*
X186475000Y-67400000D03*
X185825000Y-67400000D03*
X185175000Y-67400000D03*
X185175000Y-74600000D03*
X185825000Y-74600000D03*
X186475000Y-74600000D03*
X187125000Y-74600000D03*
X187775000Y-74600000D03*
X188425000Y-74600000D03*
X189075000Y-74600000D03*
X189725000Y-74600000D03*
X190375000Y-74600000D03*
X191025000Y-74600000D03*
X191675000Y-74600000D03*
X192325000Y-74600000D03*
%TD*%
D26*
%TO.C,R1*%
X205500000Y-78490000D03*
X205500000Y-79510000D03*
%TD*%
D27*
%TO.C,R2*%
X198260000Y-43750000D03*
X197240000Y-43750000D03*
%TD*%
D14*
%TO.C,C4*%
X179020000Y-45500000D03*
X179980000Y-45500000D03*
%TD*%
D28*
%TO.C,SW2*%
X203055000Y-39586000D03*
X207155000Y-39586000D03*
X207155000Y-41186000D03*
X203055000Y-41186000D03*
%TD*%
D11*
%TO.C,J6*%
X161400000Y-43000000D03*
D12*
X163000000Y-41000000D03*
D13*
X165500000Y-41000000D03*
X168000000Y-41000000D03*
X170500000Y-41000000D03*
X173000000Y-41000000D03*
%TD*%
D18*
%TO.C,J2*%
X201140000Y-35787500D03*
X195360000Y-35787500D03*
D19*
X201500000Y-37232500D03*
X200700000Y-37232500D03*
D20*
X199500000Y-37232500D03*
X198500000Y-37232500D03*
X198000000Y-37232500D03*
X197000000Y-37232500D03*
D19*
X195000000Y-37232500D03*
X195800000Y-37232500D03*
D20*
X196500000Y-37232500D03*
X197500000Y-37232500D03*
X199000000Y-37232500D03*
X200000000Y-37232500D03*
D21*
X202570000Y-36317500D03*
X193930000Y-36317500D03*
X202570000Y-32137500D03*
X193930000Y-32137500D03*
%TD*%
D26*
%TO.C,R5*%
X205250000Y-36740000D03*
X205250000Y-37760000D03*
%TD*%
D29*
%TO.C,R4*%
X204000000Y-37760000D03*
X204000000Y-36740000D03*
%TD*%
D23*
%TO.C,J4*%
X188075000Y-85000000D03*
D24*
X185535000Y-85000000D03*
X182995000Y-85000000D03*
X180455000Y-85000000D03*
X177915000Y-85000000D03*
%TD*%
D11*
%TO.C,J3*%
X191600000Y-32025000D03*
D30*
X190000000Y-34025000D03*
D13*
X187500000Y-34025000D03*
X185000000Y-34025000D03*
X182500000Y-34025000D03*
X180000000Y-34025000D03*
X177500000Y-34025000D03*
X175000000Y-34025000D03*
X172500000Y-34025000D03*
X170000000Y-34025000D03*
X167500000Y-34025000D03*
%TD*%
D31*
%TO.C,U1*%
X200260000Y-46000000D03*
X198990000Y-46000000D03*
X197720000Y-46000000D03*
X196450000Y-46000000D03*
X195180000Y-46000000D03*
X193910000Y-46000000D03*
X192640000Y-46000000D03*
X191370000Y-46000000D03*
X190100000Y-46000000D03*
X188830000Y-46000000D03*
X187560000Y-46000000D03*
X186290000Y-46000000D03*
X185020000Y-46000000D03*
X183750000Y-46000000D03*
D32*
X182500000Y-47765000D03*
X182500000Y-49035000D03*
X182500000Y-50305000D03*
X182500000Y-51575000D03*
X182500000Y-52845000D03*
X182500000Y-54115000D03*
X182500000Y-55385000D03*
X182500000Y-56655000D03*
X182500000Y-57925000D03*
X182500000Y-59195000D03*
X182500000Y-60465000D03*
X182500000Y-61735000D03*
D31*
X183750000Y-63500000D03*
X185020000Y-63500000D03*
X186290000Y-63500000D03*
X187560000Y-63500000D03*
X188830000Y-63500000D03*
X190100000Y-63500000D03*
X191370000Y-63500000D03*
X192640000Y-63500000D03*
X193910000Y-63500000D03*
X195180000Y-63500000D03*
X196450000Y-63500000D03*
X197720000Y-63500000D03*
X198990000Y-63500000D03*
X200260000Y-63500000D03*
D33*
X192540000Y-51850000D03*
X193940000Y-53250000D03*
X192540000Y-53250000D03*
X191140000Y-51850000D03*
X193940000Y-54650000D03*
X191140000Y-54650000D03*
X191140000Y-53250000D03*
X192540000Y-54650000D03*
X193940000Y-51850000D03*
%TD*%
D11*
%TO.C,J8*%
X161400000Y-59950000D03*
D12*
X163000000Y-57950000D03*
D13*
X165500000Y-57950000D03*
X168000000Y-57950000D03*
X170500000Y-57950000D03*
X173000000Y-57950000D03*
%TD*%
D29*
%TO.C,R3*%
X204250000Y-79510000D03*
X204250000Y-78490000D03*
%TD*%
D11*
%TO.C,J9*%
X161400000Y-77000000D03*
D12*
X163000000Y-75000000D03*
D13*
X165500000Y-75000000D03*
X168000000Y-75000000D03*
X170500000Y-75000000D03*
X173000000Y-75000000D03*
%TD*%
D14*
%TO.C,C6*%
X194465000Y-74549000D03*
X195425000Y-74549000D03*
%TD*%
%TO.C,C2*%
X199520000Y-42500000D03*
X200480000Y-42500000D03*
%TD*%
D34*
%TO.C,C5*%
X176750000Y-39980000D03*
X176750000Y-39020000D03*
%TD*%
M02*
